<svg xmlns="http://www.w3.org/2000/svg" xmlns:xlink="http://www.w3.org/1999/xlink" contentStyleType="text/css" height="1399px" preserveAspectRatio="none" style="width:2450px;height:1399px;background:#FFFFFF;" version="1.1" viewBox="0 0 2450 1399" width="2450px" zoomAndPan="magnify"><defs/><g><!--cluster com--><g id="cluster_com"><path d="M8.5,269.0137 L38.2861,269.0137 A3.75,3.75 0 0 1 40.7861,271.5137 L47.7861,293.6348 L2376.5,293.6348 A2.5,2.5 0 0 1 2379,296.1348 L2379,1389.5137 A2.5,2.5 0 0 1 2376.5,1392.0137 L8.5,1392.0137 A2.5,2.5 0 0 1 6,1389.5137 L6,271.5137 A2.5,2.5 0 0 1 8.5,269.0137 " fill="none" style="stroke:#000000;stroke-width:1.5;"/><line style="stroke:#000000;stroke-width:1.5;" x1="6" x2="47.7861" y1="293.6348" y2="293.6348"/><text fill="#000000" font-family="sans-serif" font-size="14" font-weight="bold" lengthAdjust="spacing" textLength="28.7861" x="10" y="286.1211">com</text></g><!--cluster example--><g id="cluster_example"><path d="M32.5,314.0137 L89.5342,314.0137 A3.75,3.75 0 0 1 92.0342,316.5137 L99.0342,338.6348 L2352.5,338.6348 A2.5,2.5 0 0 1 2355,341.1348 L2355,1365.5137 A2.5,2.5 0 0 1 2352.5,1368.0137 L32.5,1368.0137 A2.5,2.5 0 0 1 30,1365.5137 L30,316.5137 A2.5,2.5 0 0 1 32.5,314.0137 " fill="none" style="stroke:#000000;stroke-width:1.5;"/><line style="stroke:#000000;stroke-width:1.5;" x1="30" x2="99.0342" y1="338.6348" y2="338.6348"/><text fill="#000000" font-family="sans-serif" font-size="14" font-weight="bold" lengthAdjust="spacing" textLength="56.0342" x="34" y="331.1211">example</text></g><!--cluster refresh--><g id="cluster_refresh"><path d="M56.5,359.0137 L104.9688,359.0137 A3.75,3.75 0 0 1 107.4688,361.5137 L114.4688,383.6348 L2328.5,383.6348 A2.5,2.5 0 0 1 2331,386.1348 L2331,1341.5137 A2.5,2.5 0 0 1 2328.5,1344.0137 L56.5,1344.0137 A2.5,2.5 0 0 1 54,1341.5137 L54,361.5137 A2.5,2.5 0 0 1 56.5,359.0137 " fill="none" style="stroke:#000000;stroke-width:1.5;"/><line style="stroke:#000000;stroke-width:1.5;" x1="54" x2="114.4688" y1="383.6348" y2="383.6348"/><text fill="#000000" font-family="sans-serif" font-size="14" font-weight="bold" lengthAdjust="spacing" textLength="47.4688" x="58" y="376.1211">refresh</text></g><!--cluster Activity--><g id="cluster_Activity"><path d="M80.5,404.0137 L132.0723,404.0137 A3.75,3.75 0 0 1 134.5723,406.5137 L141.5723,428.6348 L2304.5,428.6348 A2.5,2.5 0 0 1 2307,431.1348 L2307,1317.5137 A2.5,2.5 0 0 1 2304.5,1320.0137 L80.5,1320.0137 A2.5,2.5 0 0 1 78,1317.5137 L78,406.5137 A2.5,2.5 0 0 1 80.5,404.0137 " fill="none" style="stroke:#000000;stroke-width:1.5;"/><line style="stroke:#000000;stroke-width:1.5;" x1="78" x2="141.5723" y1="428.6348" y2="428.6348"/><text fill="#000000" font-family="sans-serif" font-size="14" font-weight="bold" lengthAdjust="spacing" textLength="50.5723" x="82" y="421.1211">Activity</text></g><!--cluster androidx--><g id="cluster_androidx"><path d="M1915.5,6.0137 L1975.6172,6.0137 A3.75,3.75 0 0 1 1978.1172,8.5137 L1985.1172,30.6348 L2188.5,30.6348 A2.5,2.5 0 0 1 2191,33.1348 L2191,242.5137 A2.5,2.5 0 0 1 2188.5,245.0137 L1915.5,245.0137 A2.5,2.5 0 0 1 1913,242.5137 L1913,8.5137 A2.5,2.5 0 0 1 1915.5,6.0137 " fill="none" style="stroke:#000000;stroke-width:1.5;"/><line style="stroke:#000000;stroke-width:1.5;" x1="1913" x2="1985.1172" y1="30.6348" y2="30.6348"/><text fill="#000000" font-family="sans-serif" font-size="14" font-weight="bold" lengthAdjust="spacing" textLength="59.1172" x="1917" y="23.1211">androidx</text></g><!--cluster appcompat--><g id="cluster_appcompat"><path d="M1939.5,51.0137 L2015.1758,51.0137 A3.75,3.75 0 0 1 2017.6758,53.5137 L2024.6758,75.6348 L2164.5,75.6348 A2.5,2.5 0 0 1 2167,78.1348 L2167,218.5137 A2.5,2.5 0 0 1 2164.5,221.0137 L1939.5,221.0137 A2.5,2.5 0 0 1 1937,218.5137 L1937,53.5137 A2.5,2.5 0 0 1 1939.5,51.0137 " fill="none" style="stroke:#000000;stroke-width:1.5;"/><line style="stroke:#000000;stroke-width:1.5;" x1="1937" x2="2024.6758" y1="75.6348" y2="75.6348"/><text fill="#000000" font-family="sans-serif" font-size="14" font-weight="bold" lengthAdjust="spacing" textLength="74.6758" x="1941" y="68.1211">appcompat</text></g><!--cluster app--><g id="cluster_app"><path d="M1963.5,96.0137 L1989.3896,96.0137 A3.75,3.75 0 0 1 1991.8896,98.5137 L1998.8896,120.6348 L2140.5,120.6348 A2.5,2.5 0 0 1 2143,123.1348 L2143,194.5137 A2.5,2.5 0 0 1 2140.5,197.0137 L1963.5,197.0137 A2.5,2.5 0 0 1 1961,194.5137 L1961,98.5137 A2.5,2.5 0 0 1 1963.5,96.0137 " fill="none" style="stroke:#000000;stroke-width:1.5;"/><line style="stroke:#000000;stroke-width:1.5;" x1="1961" x2="1998.8896" y1="120.6348" y2="120.6348"/><text fill="#000000" font-family="sans-serif" font-size="14" font-weight="bold" lengthAdjust="spacing" textLength="24.8896" x="1965" y="113.1211">app</text></g><!--class ProgressActivity--><g id="elem_ProgressActivity"><rect codeLine="1" fill="#F1F1F1" height="383.1797" id="ProgressActivity" rx="2.5" ry="2.5" style="stroke:#181818;stroke-width:0.5;" width="334.9639" x="1392.5" y="441.0137"/><ellipse cx="1505.5527" cy="457.0137" fill="#ADD1B2" rx="11" ry="11" style="stroke:#181818;stroke-width:1.0;"/><path d="M1508.3184,452.8887 Q1508.4746,452.6699 1508.6621,452.5605 Q1508.8496,452.4512 1509.0684,452.4512 Q1509.4434,452.4512 1509.6777,452.7168 Q1509.9121,452.9668 1509.9121,453.5762 L1509.9121,455.0293 Q1509.9121,455.6387 1509.6777,455.9043 Q1509.4434,456.1699 1509.0684,456.1699 Q1508.7246,456.1699 1508.5215,455.9668 Q1508.3184,455.7793 1508.209,455.2637 Q1508.1621,454.9043 1507.9746,454.7168 Q1507.6465,454.3418 1507.0371,454.123 Q1506.4277,453.9043 1505.8027,453.9043 Q1505.0371,453.9043 1504.3965,454.2324 Q1503.7715,454.5605 1503.2715,455.3105 Q1502.7871,456.0605 1502.7871,457.0918 L1502.7871,458.1855 Q1502.7871,459.4199 1503.6777,460.248 Q1504.5684,461.0605 1506.1621,461.0605 Q1507.0996,461.0605 1507.7559,460.8105 Q1508.1465,460.6543 1508.5684,460.2168 Q1508.834,459.9512 1508.9746,459.873 Q1509.1309,459.7949 1509.334,459.7949 Q1509.6621,459.7949 1509.9121,460.0605 Q1510.1777,460.3105 1510.1777,460.6543 Q1510.1777,460.998 1509.834,461.4043 Q1509.334,461.9824 1508.5371,462.3105 Q1507.459,462.7637 1506.1621,462.7637 Q1504.6465,462.7637 1503.4434,462.1387 Q1502.459,461.6387 1501.7715,460.5762 Q1501.084,459.498 1501.084,458.2168 L1501.084,457.0605 Q1501.084,455.7324 1501.6934,454.5918 Q1502.3184,453.4355 1503.4121,452.8262 Q1504.5059,452.2012 1505.7402,452.2012 Q1506.4746,452.2012 1507.1152,452.373 Q1507.7715,452.5293 1508.3184,452.8887 Z " fill="#000000"/><text fill="#000000" font-family="sans-serif" font-size="14" lengthAdjust="spacing" textLength="100.3584" x="1526.0527" y="462.8105">ProgressActivity</text><line style="stroke:#181818;stroke-width:0.5;" x1="1393.5" x2="1726.4639" y1="473.0137" y2="473.0137"/><rect fill="none" height="6" style="stroke:#C82930;stroke-width:1.0;" width="6" x="1400.5" y="484.8242"/><text fill="#000000" font-family="sans-serif" font-size="14" lengthAdjust="spacing" textLength="175.8477" x="1412.5" y="492.1211">ArrayList&lt;Meal&gt; weekMeals</text><rect fill="none" height="6" style="stroke:#C82930;stroke-width:1.0;" width="6" x="1400.5" y="503.4453"/><text fill="#000000" font-family="sans-serif" font-size="14" lengthAdjust="spacing" textLength="253.6338" x="1412.5" y="510.7422">ArrayList&lt;DaySummary&gt; daySummaries</text><rect fill="none" height="6" style="stroke:#C82930;stroke-width:1.0;" width="6" x="1400.5" y="522.0664"/><text fill="#000000" font-family="sans-serif" font-size="14" lengthAdjust="spacing" textLength="175.8545" x="1412.5" y="529.3633">LocalDate currentWeekStart</text><rect fill="none" height="6" style="stroke:#C82930;stroke-width:1.0;" width="6" x="1400.5" y="540.6875"/><text fill="#000000" font-family="sans-serif" font-size="14" lengthAdjust="spacing" textLength="94.165" x="1412.5" y="547.9844">Toolbar toolbar</text><rect fill="none" height="6" style="stroke:#C82930;stroke-width:1.0;" width="6" x="1400.5" y="559.3086"/><text fill="#000000" font-family="sans-serif" font-size="14" lengthAdjust="spacing" textLength="83.248" x="1412.5" y="566.6055">TextView title</text><rect fill="none" height="6" style="stroke:#C82930;stroke-width:1.0;" width="6" x="1400.5" y="577.9297"/><text fill="#000000" font-family="sans-serif" font-size="14" lengthAdjust="spacing" textLength="147.8613" x="1412.5" y="585.2266">ImageButton refreshBtn</text><rect fill="none" height="6" style="stroke:#C82930;stroke-width:1.0;" width="6" x="1400.5" y="596.5508"/><text fill="#000000" font-family="sans-serif" font-size="14" lengthAdjust="spacing" textLength="136.9648" x="1412.5" y="603.8477">ImageButton ExtraBtn</text><rect fill="none" height="6" style="stroke:#C82930;stroke-width:1.0;" width="6" x="1400.5" y="615.1719"/><text fill="#000000" font-family="sans-serif" font-size="14" lengthAdjust="spacing" textLength="151.71" x="1412.5" y="622.4688">TextView WeekDatesTV</text><rect fill="none" height="6" style="stroke:#C82930;stroke-width:1.0;" width="6" x="1400.5" y="633.793"/><text fill="#000000" font-family="sans-serif" font-size="14" lengthAdjust="spacing" textLength="161.8613" x="1412.5" y="641.0898">ImageButton lastWeekBtn</text><rect fill="none" height="6" style="stroke:#C82930;stroke-width:1.0;" width="6" x="1400.5" y="652.4141"/><text fill="#000000" font-family="sans-serif" font-size="14" lengthAdjust="spacing" textLength="166.5371" x="1412.5" y="659.7109">ImageButton nextWeekBtn</text><rect fill="none" height="6" style="stroke:#C82930;stroke-width:1.0;" width="6" x="1400.5" y="671.0352"/><text fill="#000000" font-family="sans-serif" font-size="14" lengthAdjust="spacing" textLength="145.4824" x="1412.5" y="678.332">RecyclerView mealsRV</text><rect fill="none" height="6" style="stroke:#C82930;stroke-width:1.0;" width="6" x="1400.5" y="689.6563"/><text fill="#000000" font-family="sans-serif" font-size="14" lengthAdjust="spacing" textLength="293.3848" x="1412.5" y="696.9531">SectionedRecyclerViewAdapter sectionAdapter</text><rect fill="none" height="6" style="stroke:#C82930;stroke-width:1.0;" width="6" x="1400.5" y="708.2773"/><text fill="#000000" font-family="sans-serif" font-size="14" lengthAdjust="spacing" textLength="253.6885" x="1412.5" y="715.5742">BottomNavigationView bottomNavigation</text><rect fill="none" height="6" style="stroke:#C82930;stroke-width:1.0;" width="6" x="1400.5" y="726.8984"/><text fill="#000000" font-family="sans-serif" font-size="14" lengthAdjust="spacing" textLength="287.1436" x="1412.5" y="734.1953">FragmentContainerView weekGraphContainer</text><rect fill="none" height="6" style="stroke:#C82930;stroke-width:1.0;" width="6" x="1400.5" y="745.5195"/><text fill="#000000" font-family="sans-serif" font-size="14" lengthAdjust="spacing" textLength="270.0127" x="1412.5" y="752.8164">TrendGraphFragment trendGraphFragment</text><rect fill="none" height="6" style="stroke:#C82930;stroke-width:1.0;" width="6" x="1400.5" y="764.1406"/><text fill="#000000" font-family="sans-serif" font-size="14" lengthAdjust="spacing" textLength="170.4268" x="1412.5" y="771.4375">SharedPreferences userSP</text><rect fill="none" height="6" style="stroke:#C82930;stroke-width:1.0;" width="6" x="1400.5" y="782.7617"/><text fill="#000000" font-family="sans-serif" font-size="14" lengthAdjust="spacing" textLength="266.0752" x="1412.5" y="790.0586">DailySummaryHelper dailySummaryHelper</text><rect fill="none" height="6" style="stroke:#C82930;stroke-width:1.0;" width="6" x="1400.5" y="801.3828"/><text fill="#000000" font-family="sans-serif" font-size="14" lengthAdjust="spacing" textLength="308.9639" x="1412.5" y="808.6797">ActivityResultLauncher&lt;Intent&gt; editMealLauncher</text><line style="stroke:#181818;stroke-width:0.5;" x1="1393.5" x2="1726.4639" y1="816.1934" y2="816.1934"/></g><!--class SignUpActivity--><g id="elem_SignUpActivity"><rect codeLine="22" fill="#F1F1F1" height="141.1055" id="SignUpActivity" rx="2.5" ry="2.5" style="stroke:#181818;stroke-width:0.5;" width="187.875" x="1169" y="562.0137"/><ellipse cx="1213.5601" cy="578.0137" fill="#ADD1B2" rx="11" ry="11" style="stroke:#181818;stroke-width:1.0;"/><path d="M1216.3257,573.8887 Q1216.4819,573.6699 1216.6694,573.5605 Q1216.8569,573.4512 1217.0757,573.4512 Q1217.4507,573.4512 1217.6851,573.7168 Q1217.9194,573.9668 1217.9194,574.5762 L1217.9194,576.0293 Q1217.9194,576.6387 1217.6851,576.9043 Q1217.4507,577.1699 1217.0757,577.1699 Q1216.7319,577.1699 1216.5288,576.9668 Q1216.3257,576.7793 1216.2163,576.2637 Q1216.1694,575.9043 1215.9819,575.7168 Q1215.6538,575.3418 1215.0444,575.123 Q1214.4351,574.9043 1213.8101,574.9043 Q1213.0444,574.9043 1212.4038,575.2324 Q1211.7788,575.5605 1211.2788,576.3105 Q1210.7944,577.0605 1210.7944,578.0918 L1210.7944,579.1855 Q1210.7944,580.4199 1211.6851,581.248 Q1212.5757,582.0605 1214.1694,582.0605 Q1215.1069,582.0605 1215.7632,581.8105 Q1216.1538,581.6543 1216.5757,581.2168 Q1216.8413,580.9512 1216.9819,580.873 Q1217.1382,580.7949 1217.3413,580.7949 Q1217.6694,580.7949 1217.9194,581.0605 Q1218.1851,581.3105 1218.1851,581.6543 Q1218.1851,581.998 1217.8413,582.4043 Q1217.3413,582.9824 1216.5444,583.3105 Q1215.4663,583.7637 1214.1694,583.7637 Q1212.6538,583.7637 1211.4507,583.1387 Q1210.4663,582.6387 1209.7788,581.5762 Q1209.0913,580.498 1209.0913,579.2168 L1209.0913,578.0605 Q1209.0913,576.7324 1209.7007,575.5918 Q1210.3257,574.4355 1211.4194,573.8262 Q1212.5132,573.2012 1213.7476,573.2012 Q1214.4819,573.2012 1215.1226,573.373 Q1215.7788,573.5293 1216.3257,573.8887 Z " fill="#000000"/><text fill="#000000" font-family="sans-serif" font-size="14" lengthAdjust="spacing" textLength="90.2549" x="1234.0601" y="583.8105">SignUpActivity</text><line style="stroke:#181818;stroke-width:0.5;" x1="1170" x2="1355.875" y1="594.0137" y2="594.0137"/><rect fill="none" height="6" style="stroke:#C82930;stroke-width:1.0;" width="6" x="1177" y="605.8242"/><text fill="#000000" font-family="sans-serif" font-size="14" lengthAdjust="spacing" textLength="108.1514" x="1189" y="613.1211">EditText nameET</text><rect fill="none" height="6" style="stroke:#C82930;stroke-width:1.0;" width="6" x="1177" y="624.4453"/><text fill="#000000" font-family="sans-serif" font-size="14" lengthAdjust="spacing" textLength="108.958" x="1189" y="631.7422">Button signUpBtn</text><rect fill="none" height="6" style="stroke:#C82930;stroke-width:1.0;" width="6" x="1177" y="643.0664"/><text fill="#000000" font-family="sans-serif" font-size="14" lengthAdjust="spacing" textLength="112.0547" x="1189" y="650.3633">TextView loginBtn</text><rect fill="none" height="6" style="stroke:#C82930;stroke-width:1.0;" width="6" x="1177" y="661.6875"/><text fill="#000000" font-family="sans-serif" font-size="14" lengthAdjust="spacing" textLength="60.6826" x="1189" y="668.9844">User user</text><rect fill="none" height="6" style="stroke:#C82930;stroke-width:1.0;" width="6" x="1177" y="680.3086"/><text fill="#000000" font-family="sans-serif" font-size="14" lengthAdjust="spacing" textLength="161.875" x="1189" y="687.6055">DatabaseHelper dbHelper</text><line style="stroke:#181818;stroke-width:0.5;" x1="1170" x2="1355.875" y1="695.1191" y2="695.1191"/></g><!--class LoginActivity--><g id="elem_LoginActivity"><rect codeLine="30" fill="#F1F1F1" height="159.7266" id="LoginActivity" rx="2.5" ry="2.5" style="stroke:#181818;stroke-width:0.5;" width="196.3857" x="2095" y="552.5137"/><ellipse cx="2149.6465" cy="568.5137" fill="#ADD1B2" rx="11" ry="11" style="stroke:#181818;stroke-width:1.0;"/><path d="M2152.4121,564.3887 Q2152.5684,564.1699 2152.7559,564.0605 Q2152.9434,563.9512 2153.1621,563.9512 Q2153.5371,563.9512 2153.7715,564.2168 Q2154.0059,564.4668 2154.0059,565.0762 L2154.0059,566.5293 Q2154.0059,567.1387 2153.7715,567.4043 Q2153.5371,567.6699 2153.1621,567.6699 Q2152.8184,567.6699 2152.6152,567.4668 Q2152.4121,567.2793 2152.3027,566.7637 Q2152.2559,566.4043 2152.0684,566.2168 Q2151.7402,565.8418 2151.1309,565.623 Q2150.5215,565.4043 2149.8965,565.4043 Q2149.1309,565.4043 2148.4902,565.7324 Q2147.8652,566.0605 2147.3652,566.8105 Q2146.8809,567.5605 2146.8809,568.5918 L2146.8809,569.6855 Q2146.8809,570.9199 2147.7715,571.748 Q2148.6621,572.5605 2150.2559,572.5605 Q2151.1934,572.5605 2151.8496,572.3105 Q2152.2402,572.1543 2152.6621,571.7168 Q2152.9277,571.4512 2153.0684,571.373 Q2153.2246,571.2949 2153.4277,571.2949 Q2153.7559,571.2949 2154.0059,571.5605 Q2154.2715,571.8105 2154.2715,572.1543 Q2154.2715,572.498 2153.9277,572.9043 Q2153.4277,573.4824 2152.6309,573.8105 Q2151.5527,574.2637 2150.2559,574.2637 Q2148.7402,574.2637 2147.5371,573.6387 Q2146.5527,573.1387 2145.8652,572.0762 Q2145.1777,570.998 2145.1777,569.7168 L2145.1777,568.5605 Q2145.1777,567.2324 2145.7871,566.0918 Q2146.4121,564.9355 2147.5059,564.3262 Q2148.5996,563.7012 2149.834,563.7012 Q2150.5684,563.7012 2151.209,563.873 Q2151.8652,564.0293 2152.4121,564.3887 Z " fill="#000000"/><text fill="#000000" font-family="sans-serif" font-size="14" lengthAdjust="spacing" textLength="78.5928" x="2170.1465" y="574.3105">LoginActivity</text><line style="stroke:#181818;stroke-width:0.5;" x1="2096" x2="2290.3857" y1="584.5137" y2="584.5137"/><rect fill="none" height="6" style="stroke:#C82930;stroke-width:1.0;" width="6" x="2103" y="596.3242"/><text fill="#000000" font-family="sans-serif" font-size="14" lengthAdjust="spacing" textLength="106.5859" x="2115" y="603.6211">EditText emailET</text><rect fill="none" height="6" style="stroke:#C82930;stroke-width:1.0;" width="6" x="2103" y="614.9453"/><text fill="#000000" font-family="sans-serif" font-size="14" lengthAdjust="spacing" textLength="98.8135" x="2115" y="622.2422">EditText pwdET</text><rect fill="none" height="6" style="stroke:#C82930;stroke-width:1.0;" width="6" x="2103" y="633.5664"/><text fill="#000000" font-family="sans-serif" font-size="14" lengthAdjust="spacing" textLength="94.958" x="2115" y="640.8633">Button loginBtn</text><rect fill="none" height="6" style="stroke:#C82930;stroke-width:1.0;" width="6" x="2103" y="652.1875"/><text fill="#000000" font-family="sans-serif" font-size="14" lengthAdjust="spacing" textLength="170.3857" x="2115" y="659.4844">CheckBox rememberMeCB</text><rect fill="none" height="6" style="stroke:#C82930;stroke-width:1.0;" width="6" x="2103" y="670.8086"/><text fill="#000000" font-family="sans-serif" font-size="14" lengthAdjust="spacing" textLength="126.0547" x="2115" y="678.1055">TextView signUpBtn</text><rect fill="none" height="6" style="stroke:#C82930;stroke-width:1.0;" width="6" x="2103" y="689.4297"/><text fill="#000000" font-family="sans-serif" font-size="14" lengthAdjust="spacing" textLength="161.875" x="2115" y="696.7266">DatabaseHelper dbHelper</text><line style="stroke:#181818;stroke-width:0.5;" x1="2096" x2="2290.3857" y1="704.2402" y2="704.2402"/></g><!--class HomeDashboardActivity--><g id="elem_HomeDashboardActivity"><rect codeLine="39" fill="#F1F1F1" height="364.5586" id="HomeDashboardActivity" rx="2.5" ry="2.5" style="stroke:#181818;stroke-width:0.5;" width="292.1367" x="1440" y="911.5137"/><ellipse cx="1506.7324" cy="927.5137" fill="#ADD1B2" rx="11" ry="11" style="stroke:#181818;stroke-width:1.0;"/><path d="M1509.498,923.3887 Q1509.6543,923.1699 1509.8418,923.0605 Q1510.0293,922.9512 1510.248,922.9512 Q1510.623,922.9512 1510.8574,923.2168 Q1511.0918,923.4668 1511.0918,924.0762 L1511.0918,925.5293 Q1511.0918,926.1387 1510.8574,926.4043 Q1510.623,926.6699 1510.248,926.6699 Q1509.9043,926.6699 1509.7012,926.4668 Q1509.498,926.2793 1509.3887,925.7637 Q1509.3418,925.4043 1509.1543,925.2168 Q1508.8262,924.8418 1508.2168,924.623 Q1507.6074,924.4043 1506.9824,924.4043 Q1506.2168,924.4043 1505.5762,924.7324 Q1504.9512,925.0605 1504.4512,925.8105 Q1503.9668,926.5605 1503.9668,927.5918 L1503.9668,928.6855 Q1503.9668,929.9199 1504.8574,930.748 Q1505.748,931.5605 1507.3418,931.5605 Q1508.2793,931.5605 1508.9355,931.3105 Q1509.3262,931.1543 1509.748,930.7168 Q1510.0137,930.4512 1510.1543,930.373 Q1510.3105,930.2949 1510.5137,930.2949 Q1510.8418,930.2949 1511.0918,930.5605 Q1511.3574,930.8105 1511.3574,931.1543 Q1511.3574,931.498 1511.0137,931.9043 Q1510.5137,932.4824 1509.7168,932.8105 Q1508.6387,933.2637 1507.3418,933.2637 Q1505.8262,933.2637 1504.623,932.6387 Q1503.6387,932.1387 1502.9512,931.0762 Q1502.2637,929.998 1502.2637,928.7168 L1502.2637,927.5605 Q1502.2637,926.2324 1502.873,925.0918 Q1503.498,923.9355 1504.5918,923.3262 Q1505.6855,922.7012 1506.9199,922.7012 Q1507.6543,922.7012 1508.2949,922.873 Q1508.9512,923.0293 1509.498,923.3887 Z " fill="#000000"/><text fill="#000000" font-family="sans-serif" font-size="14" lengthAdjust="spacing" textLength="150.1719" x="1527.2324" y="933.3105">HomeDashboardActivity</text><line style="stroke:#181818;stroke-width:0.5;" x1="1441" x2="1731.1367" y1="943.5137" y2="943.5137"/><rect fill="none" height="6" style="stroke:#C82930;stroke-width:1.0;" width="6" x="1448" y="955.3242"/><text fill="#000000" font-family="sans-serif" font-size="14" lengthAdjust="spacing" textLength="266.1367" x="1460" y="962.6211">FragmentContainerView userInfoContainer</text><rect fill="none" height="6" style="stroke:#C82930;stroke-width:1.0;" width="6" x="1448" y="973.9453"/><text fill="#000000" font-family="sans-serif" font-size="14" lengthAdjust="spacing" textLength="253.6885" x="1460" y="981.2422">BottomNavigationView bottomNavigation</text><rect fill="none" height="6" style="stroke:#C82930;stroke-width:1.0;" width="6" x="1448" y="992.5664"/><text fill="#000000" font-family="sans-serif" font-size="14" lengthAdjust="spacing" textLength="140.0752" x="1460" y="999.8633">LocalDate currentDate</text><rect fill="none" height="6" style="stroke:#C82930;stroke-width:1.0;" width="6" x="1448" y="1011.1875"/><text fill="#000000" font-family="sans-serif" font-size="14" lengthAdjust="spacing" textLength="171.1514" x="1460" y="1018.4844">DaySummary daySummary</text><rect fill="none" height="6" style="stroke:#C82930;stroke-width:1.0;" width="6" x="1448" y="1029.8086"/><text fill="#000000" font-family="sans-serif" font-size="14" lengthAdjust="spacing" textLength="266.0752" x="1460" y="1037.1055">DailySummaryHelper dailySummaryHelper</text><rect fill="none" height="6" style="stroke:#C82930;stroke-width:1.0;" width="6" x="1448" y="1048.4297"/><text fill="#000000" font-family="sans-serif" font-size="14" lengthAdjust="spacing" textLength="204.6611" x="1460" y="1055.7266">WaterLogHelper waterLogHelper</text><rect fill="none" height="6" style="stroke:#C82930;stroke-width:1.0;" width="6" x="1448" y="1067.0508"/><text fill="#000000" font-family="sans-serif" font-size="14" lengthAdjust="spacing" textLength="189.8682" x="1460" y="1074.3477">UserInfoHelper userInfoHelper</text><rect fill="none" height="6" style="stroke:#C82930;stroke-width:1.0;" width="6" x="1448" y="1085.6719"/><text fill="#000000" font-family="sans-serif" font-size="14" lengthAdjust="spacing" textLength="83.248" x="1460" y="1092.9688">TextView title</text><rect fill="none" height="6" style="stroke:#C82930;stroke-width:1.0;" width="6" x="1448" y="1104.293"/><text fill="#000000" font-family="sans-serif" font-size="14" lengthAdjust="spacing" textLength="130.751" x="1460" y="1111.5898">ImageButton nextBtn</text><rect fill="none" height="6" style="stroke:#C82930;stroke-width:1.0;" width="6" x="1448" y="1122.9141"/><text fill="#000000" font-family="sans-serif" font-size="14" lengthAdjust="spacing" textLength="131.5234" x="1460" y="1130.2109">ImageButton prevBtn</text><rect fill="none" height="6" style="stroke:#C82930;stroke-width:1.0;" width="6" x="1448" y="1141.5352"/><text fill="#000000" font-family="sans-serif" font-size="14" lengthAdjust="spacing" textLength="161.875" x="1460" y="1148.832">LinearLayout logWaterBtn</text><rect fill="none" height="6" style="stroke:#C82930;stroke-width:1.0;" width="6" x="1448" y="1160.1563"/><text fill="#000000" font-family="sans-serif" font-size="14" lengthAdjust="spacing" textLength="154.8818" x="1460" y="1167.4531">LinearLayout logMealBtn</text><rect fill="none" height="6" style="stroke:#C82930;stroke-width:1.0;" width="6" x="1448" y="1178.7773"/><text fill="#000000" font-family="sans-serif" font-size="14" lengthAdjust="spacing" textLength="168.1094" x="1460" y="1186.0742">LinearLayout logWeightBtn</text><rect fill="none" height="6" style="stroke:#C82930;stroke-width:1.0;" width="6" x="1448" y="1197.3984"/><text fill="#000000" font-family="sans-serif" font-size="14" lengthAdjust="spacing" textLength="142.4199" x="1460" y="1204.6953">ImageButton profileBtn</text><rect fill="none" height="6" style="stroke:#C82930;stroke-width:1.0;" width="6" x="1448" y="1216.0195"/><text fill="#000000" font-family="sans-serif" font-size="14" lengthAdjust="spacing" textLength="171.2197" x="1460" y="1223.3164">ImageButton notificationBtn</text><rect fill="none" height="6" style="stroke:#C82930;stroke-width:1.0;" width="6" x="1448" y="1234.6406"/><text fill="#000000" font-family="sans-serif" font-size="14" lengthAdjust="spacing" textLength="192.2061" x="1460" y="1241.9375">TextView weightProgressLabel</text><rect fill="none" height="6" style="stroke:#C82930;stroke-width:1.0;" width="6" x="1448" y="1253.2617"/><text fill="#000000" font-family="sans-serif" font-size="14" lengthAdjust="spacing" textLength="193.7578" x="1460" y="1260.5586">TextView weightProgressValue</text><line style="stroke:#181818;stroke-width:0.5;" x1="1441" x2="1731.1367" y1="1268.0723" y2="1268.0723"/></g><!--class MealLogActivity--><g id="elem_MealLogActivity"><rect codeLine="59" fill="#F1F1F1" height="420.4219" id="MealLogActivity" rx="2.5" ry="2.5" style="stroke:#181818;stroke-width:0.5;" width="352.0605" x="440" y="884.0137"/><ellipse cx="562.7598" cy="900.0137" fill="#ADD1B2" rx="11" ry="11" style="stroke:#181818;stroke-width:1.0;"/><path d="M565.5254,895.8887 Q565.6816,895.6699 565.8691,895.5605 Q566.0566,895.4512 566.2754,895.4512 Q566.6504,895.4512 566.8848,895.7168 Q567.1191,895.9668 567.1191,896.5762 L567.1191,898.0293 Q567.1191,898.6387 566.8848,898.9043 Q566.6504,899.1699 566.2754,899.1699 Q565.9316,899.1699 565.7285,898.9668 Q565.5254,898.7793 565.416,898.2637 Q565.3691,897.9043 565.1816,897.7168 Q564.8535,897.3418 564.2441,897.123 Q563.6348,896.9043 563.0098,896.9043 Q562.2441,896.9043 561.6035,897.2324 Q560.9785,897.5605 560.4785,898.3105 Q559.9941,899.0605 559.9941,900.0918 L559.9941,901.1855 Q559.9941,902.4199 560.8848,903.248 Q561.7754,904.0605 563.3691,904.0605 Q564.3066,904.0605 564.9629,903.8105 Q565.3535,903.6543 565.7754,903.2168 Q566.041,902.9512 566.1816,902.873 Q566.3379,902.7949 566.541,902.7949 Q566.8691,902.7949 567.1191,903.0605 Q567.3848,903.3105 567.3848,903.6543 Q567.3848,903.998 567.041,904.4043 Q566.541,904.9824 565.7441,905.3105 Q564.666,905.7637 563.3691,905.7637 Q561.8535,905.7637 560.6504,905.1387 Q559.666,904.6387 558.9785,903.5762 Q558.291,902.498 558.291,901.2168 L558.291,900.0605 Q558.291,898.7324 558.9004,897.5918 Q559.5254,896.4355 560.6191,895.8262 Q561.7129,895.2012 562.9473,895.2012 Q563.6816,895.2012 564.3223,895.373 Q564.9785,895.5293 565.5254,895.8887 Z " fill="#000000"/><text fill="#000000" font-family="sans-serif" font-size="14" lengthAdjust="spacing" textLength="98.041" x="583.2598" y="905.8105">MealLogActivity</text><line style="stroke:#181818;stroke-width:0.5;" x1="441" x2="791.0605" y1="916.0137" y2="916.0137"/><rect fill="none" height="6" style="stroke:#C82930;stroke-width:1.0;" width="6" x="448" y="927.8242"/><text fill="#000000" font-family="sans-serif" font-size="14" lengthAdjust="spacing" textLength="64.5791" x="460" y="935.1211">Meal meal</text><rect fill="none" height="6" style="stroke:#C82930;stroke-width:1.0;" width="6" x="448" y="946.4453"/><text fill="#000000" font-family="sans-serif" font-size="14" lengthAdjust="spacing" textLength="176.6406" x="460" y="953.7422">ArrayList&lt;Food&gt; mealFoods</text><rect fill="none" height="6" style="stroke:#C82930;stroke-width:1.0;" width="6" x="448" y="965.0664"/><text fill="#000000" font-family="sans-serif" font-size="14" lengthAdjust="spacing" textLength="126.8477" x="460" y="972.3633">LocalDate mealDate</text><rect fill="none" height="6" style="stroke:#C82930;stroke-width:1.0;" width="6" x="448" y="983.6875"/><text fill="#000000" font-family="sans-serif" font-size="14" lengthAdjust="spacing" textLength="129.9238" x="460" y="990.9844">LocalTime mealTime</text><rect fill="none" height="6" style="stroke:#C82930;stroke-width:1.0;" width="6" x="448" y="1002.3086"/><text fill="#000000" font-family="sans-serif" font-size="14" lengthAdjust="spacing" textLength="115.1855" x="460" y="1009.6055">LocalDate oldDate</text><rect fill="none" height="6" style="stroke:#C82930;stroke-width:1.0;" width="6" x="448" y="1020.9297"/><text fill="#000000" font-family="sans-serif" font-size="14" lengthAdjust="spacing" textLength="83.248" x="460" y="1028.2266">TextView title</text><rect fill="none" height="6" style="stroke:#C82930;stroke-width:1.0;" width="6" x="448" y="1039.5508"/><text fill="#000000" font-family="sans-serif" font-size="14" lengthAdjust="spacing" textLength="170.3789" x="460" y="1046.8477">TextView mealDateTimeTV</text><rect fill="none" height="6" style="stroke:#C82930;stroke-width:1.0;" width="6" x="448" y="1058.1719"/><text fill="#000000" font-family="sans-serif" font-size="14" lengthAdjust="spacing" textLength="133.8613" x="460" y="1065.4688">ImageButton backBtn</text><rect fill="none" height="6" style="stroke:#C82930;stroke-width:1.0;" width="6" x="448" y="1076.793"/><text fill="#000000" font-family="sans-serif" font-size="14" lengthAdjust="spacing" textLength="170.4336" x="460" y="1084.0898">ImageButton datePickerBtn</text><rect fill="none" height="6" style="stroke:#C82930;stroke-width:1.0;" width="6" x="448" y="1095.4141"/><text fill="#000000" font-family="sans-serif" font-size="14" lengthAdjust="spacing" textLength="136.9375" x="460" y="1102.7109">EditText searchBarET</text><rect fill="none" height="6" style="stroke:#C82930;stroke-width:1.0;" width="6" x="448" y="1114.0352"/><text fill="#000000" font-family="sans-serif" font-size="14" lengthAdjust="spacing" textLength="134.6338" x="460" y="1121.332">ImageButton clearBtn</text><rect fill="none" height="6" style="stroke:#C82930;stroke-width:1.0;" width="6" x="448" y="1132.6563"/><text fill="#000000" font-family="sans-serif" font-size="14" lengthAdjust="spacing" textLength="304.2539" x="460" y="1139.9531">FragmentContainerView searchResultsContainer</text><rect fill="none" height="6" style="stroke:#C82930;stroke-width:1.0;" width="6" x="448" y="1151.2773"/><text fill="#000000" font-family="sans-serif" font-size="14" lengthAdjust="spacing" textLength="306.6055" x="460" y="1158.5742">FragmentContainerView selectedFoodsContainer</text><rect fill="none" height="6" style="stroke:#C82930;stroke-width:1.0;" width="6" x="448" y="1169.8984"/><text fill="#000000" font-family="sans-serif" font-size="14" lengthAdjust="spacing" textLength="326.0605" x="460" y="1177.1953">FragmentContainerView foodInfoFragmentContainer</text><rect fill="none" height="6" style="stroke:#C82930;stroke-width:1.0;" width="6" x="448" y="1188.5195"/><text fill="#000000" font-family="sans-serif" font-size="14" lengthAdjust="spacing" textLength="308.1572" x="460" y="1195.8164">SelectedFoodsFragment selectedFoodsFragment</text><rect fill="none" height="6" style="stroke:#C82930;stroke-width:1.0;" width="6" x="448" y="1207.1406"/><text fill="#000000" font-family="sans-serif" font-size="14" lengthAdjust="spacing" textLength="229.5713" x="460" y="1214.4375">FoodInfoFragment foodInfoFragment</text><rect fill="none" height="6" style="stroke:#C82930;stroke-width:1.0;" width="6" x="448" y="1225.7617"/><text fill="#000000" font-family="sans-serif" font-size="14" lengthAdjust="spacing" textLength="107.3789" x="460" y="1233.0586">EditText notesET</text><rect fill="none" height="6" style="stroke:#C82930;stroke-width:1.0;" width="6" x="448" y="1244.3828"/><text fill="#000000" font-family="sans-serif" font-size="14" lengthAdjust="spacing" textLength="114.4063" x="460" y="1251.6797">Button logMealBtn</text><rect fill="none" height="6" style="stroke:#C82930;stroke-width:1.0;" width="6" x="448" y="1263.0039"/><text fill="#000000" font-family="sans-serif" font-size="14" lengthAdjust="spacing" textLength="284.0332" x="460" y="1270.3008">BottomNavigationView bottomNavigationView</text><rect fill="none" height="6" style="stroke:#C82930;stroke-width:1.0;" width="6" x="448" y="1281.625"/><text fill="#000000" font-family="sans-serif" font-size="14" lengthAdjust="spacing" textLength="123.7578" x="460" y="1288.9219">boolean inEditMode</text><line style="stroke:#181818;stroke-width:0.5;" x1="441" x2="791.0605" y1="1296.4355" y2="1296.4355"/></g><!--class ProfileActivity--><g id="elem_ProfileActivity"><rect codeLine="82" fill="#F1F1F1" height="159.7266" id="ProfileActivity" rx="2.5" ry="2.5" style="stroke:#181818;stroke-width:0.5;" width="296.7988" x="1762.5" y="552.5137"/><ellipse cx="1864.6392" cy="568.5137" fill="#ADD1B2" rx="11" ry="11" style="stroke:#181818;stroke-width:1.0;"/><path d="M1867.4048,564.3887 Q1867.561,564.1699 1867.7485,564.0605 Q1867.936,563.9512 1868.1548,563.9512 Q1868.5298,563.9512 1868.7642,564.2168 Q1868.9985,564.4668 1868.9985,565.0762 L1868.9985,566.5293 Q1868.9985,567.1387 1868.7642,567.4043 Q1868.5298,567.6699 1868.1548,567.6699 Q1867.811,567.6699 1867.6079,567.4668 Q1867.4048,567.2793 1867.2954,566.7637 Q1867.2485,566.4043 1867.061,566.2168 Q1866.7329,565.8418 1866.1235,565.623 Q1865.5142,565.4043 1864.8892,565.4043 Q1864.1235,565.4043 1863.4829,565.7324 Q1862.8579,566.0605 1862.3579,566.8105 Q1861.8735,567.5605 1861.8735,568.5918 L1861.8735,569.6855 Q1861.8735,570.9199 1862.7642,571.748 Q1863.6548,572.5605 1865.2485,572.5605 Q1866.186,572.5605 1866.8423,572.3105 Q1867.2329,572.1543 1867.6548,571.7168 Q1867.9204,571.4512 1868.061,571.373 Q1868.2173,571.2949 1868.4204,571.2949 Q1868.7485,571.2949 1868.9985,571.5605 Q1869.2642,571.8105 1869.2642,572.1543 Q1869.2642,572.498 1868.9204,572.9043 Q1868.4204,573.4824 1867.6235,573.8105 Q1866.5454,574.2637 1865.2485,574.2637 Q1863.7329,574.2637 1862.5298,573.6387 Q1861.5454,573.1387 1860.8579,572.0762 Q1860.1704,570.998 1860.1704,569.7168 L1860.1704,568.5605 Q1860.1704,567.2324 1860.7798,566.0918 Q1861.4048,564.9355 1862.4985,564.3262 Q1863.5923,563.7012 1864.8267,563.7012 Q1865.561,563.7012 1866.2017,563.873 Q1866.8579,564.0293 1867.4048,564.3887 Z " fill="#000000"/><text fill="#000000" font-family="sans-serif" font-size="14" lengthAdjust="spacing" textLength="84.0205" x="1885.1392" y="574.3105">ProfileActivity</text><line style="stroke:#181818;stroke-width:0.5;" x1="1763.5" x2="2058.2988" y1="584.5137" y2="584.5137"/><rect fill="none" height="6" style="stroke:#C82930;stroke-width:1.0;" width="6" x="1770.5" y="596.3242"/><text fill="#000000" font-family="sans-serif" font-size="14" lengthAdjust="spacing" textLength="139.2754" x="1782.5" y="603.6211">ImageView backArrow</text><rect fill="none" height="6" style="stroke:#C82930;stroke-width:1.0;" width="6" x="1770.5" y="614.9453"/><text fill="#000000" font-family="sans-serif" font-size="14" lengthAdjust="spacing" textLength="130.7168" x="1782.5" y="622.2422">TextView toolbarTitle</text><rect fill="none" height="6" style="stroke:#C82930;stroke-width:1.0;" width="6" x="1770.5" y="633.5664"/><text fill="#000000" font-family="sans-serif" font-size="14" lengthAdjust="spacing" textLength="171.999" x="1782.5" y="640.8633">ImageButton settingsButton</text><rect fill="none" height="6" style="stroke:#C82930;stroke-width:1.0;" width="6" x="1770.5" y="652.1875"/><text fill="#000000" font-family="sans-serif" font-size="14" lengthAdjust="spacing" textLength="154.8477" x="1782.5" y="659.4844">ImageView profilePicture</text><rect fill="none" height="6" style="stroke:#C82930;stroke-width:1.0;" width="6" x="1770.5" y="670.8086"/><text fill="#000000" font-family="sans-serif" font-size="14" lengthAdjust="spacing" textLength="136.9375" x="1782.5" y="678.1055">TextView profileName</text><rect fill="none" height="6" style="stroke:#C82930;stroke-width:1.0;" width="6" x="1770.5" y="689.4297"/><text fill="#000000" font-family="sans-serif" font-size="14" lengthAdjust="spacing" textLength="270.7988" x="1782.5" y="696.7266">FragmentContainerView fragmentContainer</text><line style="stroke:#181818;stroke-width:0.5;" x1="1763.5" x2="2058.2988" y1="704.2402" y2="704.2402"/></g><!--class OnUserInfoFragmentListener--><g id="elem_OnUserInfoFragmentListener"><rect fill="#F1F1F1" height="48" id="OnUserInfoFragmentListener" rx="2.5" ry="2.5" style="stroke:#181818;stroke-width:0.5;" width="213.3027" x="920.5" y="608.5137"/><ellipse cx="935.5" cy="624.5137" fill="#ADD1B2" rx="11" ry="11" style="stroke:#181818;stroke-width:1.0;"/><path d="M938.2656,620.3887 Q938.4219,620.1699 938.6094,620.0605 Q938.7969,619.9512 939.0156,619.9512 Q939.3906,619.9512 939.625,620.2168 Q939.8594,620.4668 939.8594,621.0762 L939.8594,622.5293 Q939.8594,623.1387 939.625,623.4043 Q939.3906,623.6699 939.0156,623.6699 Q938.6719,623.6699 938.4688,623.4668 Q938.2656,623.2793 938.1563,622.7637 Q938.1094,622.4043 937.9219,622.2168 Q937.5938,621.8418 936.9844,621.623 Q936.375,621.4043 935.75,621.4043 Q934.9844,621.4043 934.3438,621.7324 Q933.7188,622.0605 933.2188,622.8105 Q932.7344,623.5605 932.7344,624.5918 L932.7344,625.6855 Q932.7344,626.9199 933.625,627.748 Q934.5156,628.5605 936.1094,628.5605 Q937.0469,628.5605 937.7031,628.3105 Q938.0938,628.1543 938.5156,627.7168 Q938.7813,627.4512 938.9219,627.373 Q939.0781,627.2949 939.2813,627.2949 Q939.6094,627.2949 939.8594,627.5605 Q940.125,627.8105 940.125,628.1543 Q940.125,628.498 939.7813,628.9043 Q939.2813,629.4824 938.4844,629.8105 Q937.4063,630.2637 936.1094,630.2637 Q934.5938,630.2637 933.3906,629.6387 Q932.4063,629.1387 931.7188,628.0762 Q931.0313,626.998 931.0313,625.7168 L931.0313,624.5605 Q931.0313,623.2324 931.6406,622.0918 Q932.2656,620.9355 933.3594,620.3262 Q934.4531,619.7012 935.6875,619.7012 Q936.4219,619.7012 937.0625,619.873 Q937.7188,620.0293 938.2656,620.3887 Z " fill="#000000"/><text fill="#000000" font-family="sans-serif" font-size="14" lengthAdjust="spacing" textLength="181.3027" x="949.5" y="630.3105">OnUserInfoFragmentListener</text><line style="stroke:#181818;stroke-width:0.5;" x1="921.5" x2="1132.8027" y1="640.5137" y2="640.5137"/><line style="stroke:#181818;stroke-width:0.5;" x1="921.5" x2="1132.8027" y1="648.5137" y2="648.5137"/></g><!--class OnSearchResultsFragmentListener--><g id="elem_OnSearchResultsFragmentListener"><rect fill="#F1F1F1" height="48" id="OnSearchResultsFragmentListener" rx="2.5" ry="2.5" style="stroke:#181818;stroke-width:0.5;" width="251.4336" x="634.5" y="608.5137"/><ellipse cx="649.5" cy="624.5137" fill="#ADD1B2" rx="11" ry="11" style="stroke:#181818;stroke-width:1.0;"/><path d="M652.2656,620.3887 Q652.4219,620.1699 652.6094,620.0605 Q652.7969,619.9512 653.0156,619.9512 Q653.3906,619.9512 653.625,620.2168 Q653.8594,620.4668 653.8594,621.0762 L653.8594,622.5293 Q653.8594,623.1387 653.625,623.4043 Q653.3906,623.6699 653.0156,623.6699 Q652.6719,623.6699 652.4688,623.4668 Q652.2656,623.2793 652.1563,622.7637 Q652.1094,622.4043 651.9219,622.2168 Q651.5938,621.8418 650.9844,621.623 Q650.375,621.4043 649.75,621.4043 Q648.9844,621.4043 648.3438,621.7324 Q647.7188,622.0605 647.2188,622.8105 Q646.7344,623.5605 646.7344,624.5918 L646.7344,625.6855 Q646.7344,626.9199 647.625,627.748 Q648.5156,628.5605 650.1094,628.5605 Q651.0469,628.5605 651.7031,628.3105 Q652.0938,628.1543 652.5156,627.7168 Q652.7813,627.4512 652.9219,627.373 Q653.0781,627.2949 653.2813,627.2949 Q653.6094,627.2949 653.8594,627.5605 Q654.125,627.8105 654.125,628.1543 Q654.125,628.498 653.7813,628.9043 Q653.2813,629.4824 652.4844,629.8105 Q651.4063,630.2637 650.1094,630.2637 Q648.5938,630.2637 647.3906,629.6387 Q646.4063,629.1387 645.7188,628.0762 Q645.0313,626.998 645.0313,625.7168 L645.0313,624.5605 Q645.0313,623.2324 645.6406,622.0918 Q646.2656,620.9355 647.3594,620.3262 Q648.4531,619.7012 649.6875,619.7012 Q650.4219,619.7012 651.0625,619.873 Q651.7188,620.0293 652.2656,620.3887 Z " fill="#000000"/><text fill="#000000" font-family="sans-serif" font-size="14" lengthAdjust="spacing" textLength="219.4336" x="663.5" y="630.3105">OnSearchResultsFragmentListener</text><line style="stroke:#181818;stroke-width:0.5;" x1="635.5" x2="884.9336" y1="640.5137" y2="640.5137"/><line style="stroke:#181818;stroke-width:0.5;" x1="635.5" x2="884.9336" y1="648.5137" y2="648.5137"/></g><!--class OnSelectedFoodsFragmentListener--><g id="elem_OnSelectedFoodsFragmentListener"><rect fill="#F1F1F1" height="48" id="OnSelectedFoodsFragmentListener" rx="2.5" ry="2.5" style="stroke:#181818;stroke-width:0.5;" width="253.7852" x="345" y="608.5137"/><ellipse cx="360" cy="624.5137" fill="#ADD1B2" rx="11" ry="11" style="stroke:#181818;stroke-width:1.0;"/><path d="M362.7656,620.3887 Q362.9219,620.1699 363.1094,620.0605 Q363.2969,619.9512 363.5156,619.9512 Q363.8906,619.9512 364.125,620.2168 Q364.3594,620.4668 364.3594,621.0762 L364.3594,622.5293 Q364.3594,623.1387 364.125,623.4043 Q363.8906,623.6699 363.5156,623.6699 Q363.1719,623.6699 362.9688,623.4668 Q362.7656,623.2793 362.6563,622.7637 Q362.6094,622.4043 362.4219,622.2168 Q362.0938,621.8418 361.4844,621.623 Q360.875,621.4043 360.25,621.4043 Q359.4844,621.4043 358.8438,621.7324 Q358.2188,622.0605 357.7188,622.8105 Q357.2344,623.5605 357.2344,624.5918 L357.2344,625.6855 Q357.2344,626.9199 358.125,627.748 Q359.0156,628.5605 360.6094,628.5605 Q361.5469,628.5605 362.2031,628.3105 Q362.5938,628.1543 363.0156,627.7168 Q363.2813,627.4512 363.4219,627.373 Q363.5781,627.2949 363.7813,627.2949 Q364.1094,627.2949 364.3594,627.5605 Q364.625,627.8105 364.625,628.1543 Q364.625,628.498 364.2813,628.9043 Q363.7813,629.4824 362.9844,629.8105 Q361.9063,630.2637 360.6094,630.2637 Q359.0938,630.2637 357.8906,629.6387 Q356.9063,629.1387 356.2188,628.0762 Q355.5313,626.998 355.5313,625.7168 L355.5313,624.5605 Q355.5313,623.2324 356.1406,622.0918 Q356.7656,620.9355 357.8594,620.3262 Q358.9531,619.7012 360.1875,619.7012 Q360.9219,619.7012 361.5625,619.873 Q362.2188,620.0293 362.7656,620.3887 Z " fill="#000000"/><text fill="#000000" font-family="sans-serif" font-size="14" lengthAdjust="spacing" textLength="221.7852" x="374" y="630.3105">OnSelectedFoodsFragmentListener</text><line style="stroke:#181818;stroke-width:0.5;" x1="346" x2="597.7852" y1="640.5137" y2="640.5137"/><line style="stroke:#181818;stroke-width:0.5;" x1="346" x2="597.7852" y1="648.5137" y2="648.5137"/></g><!--class OnFoodInfoFragmentListener--><g id="elem_OnFoodInfoFragmentListener"><rect fill="#F1F1F1" height="48" id="OnFoodInfoFragmentListener" rx="2.5" ry="2.5" style="stroke:#181818;stroke-width:0.5;" width="215.6543" x="94" y="608.5137"/><ellipse cx="109" cy="624.5137" fill="#ADD1B2" rx="11" ry="11" style="stroke:#181818;stroke-width:1.0;"/><path d="M111.7656,620.3887 Q111.9219,620.1699 112.1094,620.0605 Q112.2969,619.9512 112.5156,619.9512 Q112.8906,619.9512 113.125,620.2168 Q113.3594,620.4668 113.3594,621.0762 L113.3594,622.5293 Q113.3594,623.1387 113.125,623.4043 Q112.8906,623.6699 112.5156,623.6699 Q112.1719,623.6699 111.9688,623.4668 Q111.7656,623.2793 111.6563,622.7637 Q111.6094,622.4043 111.4219,622.2168 Q111.0938,621.8418 110.4844,621.623 Q109.875,621.4043 109.25,621.4043 Q108.4844,621.4043 107.8438,621.7324 Q107.2188,622.0605 106.7188,622.8105 Q106.2344,623.5605 106.2344,624.5918 L106.2344,625.6855 Q106.2344,626.9199 107.125,627.748 Q108.0156,628.5605 109.6094,628.5605 Q110.5469,628.5605 111.2031,628.3105 Q111.5938,628.1543 112.0156,627.7168 Q112.2813,627.4512 112.4219,627.373 Q112.5781,627.2949 112.7813,627.2949 Q113.1094,627.2949 113.3594,627.5605 Q113.625,627.8105 113.625,628.1543 Q113.625,628.498 113.2813,628.9043 Q112.7813,629.4824 111.9844,629.8105 Q110.9063,630.2637 109.6094,630.2637 Q108.0938,630.2637 106.8906,629.6387 Q105.9063,629.1387 105.2188,628.0762 Q104.5313,626.998 104.5313,625.7168 L104.5313,624.5605 Q104.5313,623.2324 105.1406,622.0918 Q105.7656,620.9355 106.8594,620.3262 Q107.9531,619.7012 109.1875,619.7012 Q109.9219,619.7012 110.5625,619.873 Q111.2188,620.0293 111.7656,620.3887 Z " fill="#000000"/><text fill="#000000" font-family="sans-serif" font-size="14" lengthAdjust="spacing" textLength="183.6543" x="123" y="630.3105">OnFoodInfoFragmentListener</text><line style="stroke:#181818;stroke-width:0.5;" x1="95" x2="308.6543" y1="640.5137" y2="640.5137"/><line style="stroke:#181818;stroke-width:0.5;" x1="95" x2="308.6543" y1="648.5137" y2="648.5137"/></g><!--class AppCompatActivity--><g id="elem_AppCompatActivity"><rect fill="#F1F1F1" height="48" id="AppCompatActivity" rx="2.5" ry="2.5" style="stroke:#181818;stroke-width:0.5;" width="150.2686" x="1977" y="133.0137"/><ellipse cx="1992" cy="149.0137" fill="#ADD1B2" rx="11" ry="11" style="stroke:#181818;stroke-width:1.0;"/><path d="M1994.7656,144.8887 Q1994.9219,144.6699 1995.1094,144.5605 Q1995.2969,144.4512 1995.5156,144.4512 Q1995.8906,144.4512 1996.125,144.7168 Q1996.3594,144.9668 1996.3594,145.5762 L1996.3594,147.0293 Q1996.3594,147.6387 1996.125,147.9043 Q1995.8906,148.1699 1995.5156,148.1699 Q1995.1719,148.1699 1994.9688,147.9668 Q1994.7656,147.7793 1994.6563,147.2637 Q1994.6094,146.9043 1994.4219,146.7168 Q1994.0938,146.3418 1993.4844,146.123 Q1992.875,145.9043 1992.25,145.9043 Q1991.4844,145.9043 1990.8438,146.2324 Q1990.2188,146.5605 1989.7188,147.3105 Q1989.2344,148.0605 1989.2344,149.0918 L1989.2344,150.1855 Q1989.2344,151.4199 1990.125,152.248 Q1991.0156,153.0605 1992.6094,153.0605 Q1993.5469,153.0605 1994.2031,152.8105 Q1994.5938,152.6543 1995.0156,152.2168 Q1995.2813,151.9512 1995.4219,151.873 Q1995.5781,151.7949 1995.7813,151.7949 Q1996.1094,151.7949 1996.3594,152.0605 Q1996.625,152.3105 1996.625,152.6543 Q1996.625,152.998 1996.2813,153.4043 Q1995.7813,153.9824 1994.9844,154.3105 Q1993.9063,154.7637 1992.6094,154.7637 Q1991.0938,154.7637 1989.8906,154.1387 Q1988.9063,153.6387 1988.2188,152.5762 Q1987.5313,151.498 1987.5313,150.2168 L1987.5313,149.0605 Q1987.5313,147.7324 1988.1406,146.5918 Q1988.7656,145.4355 1989.8594,144.8262 Q1990.9531,144.2012 1992.1875,144.2012 Q1992.9219,144.2012 1993.5625,144.373 Q1994.2188,144.5293 1994.7656,144.8887 Z " fill="#000000"/><text fill="#000000" font-family="sans-serif" font-size="14" lengthAdjust="spacing" textLength="118.2686" x="2006" y="154.8105">AppCompatActivity</text><line style="stroke:#181818;stroke-width:0.5;" x1="1978" x2="2126.2686" y1="165.0137" y2="165.0137"/><line style="stroke:#181818;stroke-width:0.5;" x1="1978" x2="2126.2686" y1="173.0137" y2="173.0137"/></g><!--reverse link AppCompatActivity to ProgressActivity--><g id="link_AppCompatActivity_ProgressActivity"><path codeLine="93" d="M1958.9809,169.8086 C1891.3609,181.2186 1810.65,203.9337 1745,261.0137 C1690.2,308.6637 1649.85,376.3837 1621.07,440.9137 " fill="none" id="AppCompatActivity-backto-ProgressActivity" style="stroke:#181818;stroke-width:1.0;"/><polygon fill="none" points="1976.73,166.8137,1957.9826,163.8922,1959.9792,175.725,1976.73,166.8137" style="stroke:#181818;stroke-width:1.0;"/></g><!--reverse link AppCompatActivity to SignUpActivity--><g id="link_AppCompatActivity_SignUpActivity"><path codeLine="94" d="M1958.8987,160.1727 C1801.8487,165.0527 1463.89,183.9737 1375,261.0137 C1287.91,336.4937 1267.24,477.1237 1263.09,561.7337 " fill="none" id="AppCompatActivity-backto-SignUpActivity" style="stroke:#181818;stroke-width:1.0;"/><polygon fill="none" points="1976.89,159.6137,1958.7123,154.1756,1959.085,166.1698,1976.89,159.6137" style="stroke:#181818;stroke-width:1.0;"/></g><!--reverse link AppCompatActivity to LoginActivity--><g id="link_AppCompatActivity_LoginActivity"><path codeLine="95" d="M2064.0371,198.4251 C2083.8571,264.9851 2136.53,441.8737 2169.41,552.3037 " fill="none" id="AppCompatActivity-backto-LoginActivity" style="stroke:#181818;stroke-width:1.0;"/><polygon fill="none" points="2058.9,181.1737,2058.2866,200.1374,2069.7875,196.7127,2058.9,181.1737" style="stroke:#181818;stroke-width:1.0;"/></g><!--reverse link OnUserInfoFragmentListener to HomeDashboardActivity--><g id="link_OnUserInfoFragmentListener_HomeDashboardActivity"><path codeLine="96" d="M1045.951,672.7477 C1064.971,711.0777 1099.16,772.5237 1152,824.0137 C1236.36,906.2237 1350.07,975.5637 1439.93,1023.2437 " fill="none" id="OnUserInfoFragmentListener-backto-HomeDashboardActivity" style="stroke:#181818;stroke-width:1.0;stroke-dasharray:7.0,7.0;"/><polygon fill="none" points="1037.95,656.6237,1040.5763,675.4147,1051.3257,670.0807,1037.95,656.6237" style="stroke:#181818;stroke-width:1.0;"/></g><!--reverse link AppCompatActivity to HomeDashboardActivity--><g id="link_AppCompatActivity_HomeDashboardActivity"><path codeLine="97" d="M2145.0764,159.9959 C2220.3564,165.2459 2314.79,185.1037 2370,261.0137 C2443.59,362.1937 2442.71,722.1937 2370,824.0137 C2224.8,1027.3437 1915.93,1078.6037 1732.19,1090.5337 " fill="none" id="AppCompatActivity-backto-HomeDashboardActivity" style="stroke:#181818;stroke-width:1.0;"/><polygon fill="none" points="2127.12,158.7437,2144.659,165.9814,2145.4938,154.0105,2127.12,158.7437" style="stroke:#181818;stroke-width:1.0;"/></g><!--reverse link OnSearchResultsFragmentListener to MealLogActivity--><g id="link_OnSearchResultsFragmentListener_MealLogActivity"><path codeLine="98" d="M747.3768,673.7898 C734.0568,716.2898 709.83,793.6137 681.55,883.8437 " fill="none" id="OnSearchResultsFragmentListener-backto-MealLogActivity" style="stroke:#181818;stroke-width:1.0;stroke-dasharray:7.0,7.0;"/><polygon fill="none" points="752.76,656.6137,741.6514,671.9954,753.1022,675.5843,752.76,656.6137" style="stroke:#181818;stroke-width:1.0;"/></g><!--reverse link OnSelectedFoodsFragmentListener to MealLogActivity--><g id="link_OnSelectedFoodsFragmentListener_MealLogActivity"><path codeLine="99" d="M484.6232,673.7898 C497.9432,716.2898 522.17,793.6137 550.45,883.8437 " fill="none" id="OnSelectedFoodsFragmentListener-backto-MealLogActivity" style="stroke:#181818;stroke-width:1.0;stroke-dasharray:7.0,7.0;"/><polygon fill="none" points="479.24,656.6137,478.8978,675.5843,490.3486,671.9954,479.24,656.6137" style="stroke:#181818;stroke-width:1.0;"/></g><!--reverse link OnFoodInfoFragmentListener to MealLogActivity--><g id="link_OnFoodInfoFragmentListener_MealLogActivity"><path codeLine="100" d="M223.8728,672.3508 C245.1028,709.4908 280.76,768.1537 328,824.0137 C361.8,863.9837 401.11,904.0837 439.63,940.6637 " fill="none" id="OnFoodInfoFragmentListener-backto-MealLogActivity" style="stroke:#181818;stroke-width:1.0;stroke-dasharray:7.0,7.0;"/><polygon fill="none" points="214.94,656.7237,218.6637,675.3283,229.0818,669.3732,214.94,656.7237" style="stroke:#181818;stroke-width:1.0;"/></g><!--reverse link AppCompatActivity to MealLogActivity--><g id="link_AppCompatActivity_MealLogActivity"><path codeLine="101" d="M2144.9497,168.8114 C2205.3097,179.3914 2268.66,201.3937 2309,261.0137 C2344.05,312.8237 2351.71,778.3137 2309,824.0137 C2241.63,896.1037 1520.4,868.2437 1423,884.0137 C1202.45,919.7237 954.44,988.3637 792.28,1037.2337 " fill="none" id="AppCompatActivity-backto-MealLogActivity" style="stroke:#181818;stroke-width:1.0;"/><polygon fill="none" points="2127.22,165.7037,2143.9138,174.7213,2145.9856,162.9015,2127.22,165.7037" style="stroke:#181818;stroke-width:1.0;"/></g><!--reverse link AppCompatActivity to ProfileActivity--><g id="link_AppCompatActivity_ProfileActivity"><path codeLine="102" d="M2039.9629,198.4251 C2020.1429,264.9851 1967.47,441.8737 1934.59,552.3037 " fill="none" id="AppCompatActivity-backto-ProfileActivity" style="stroke:#181818;stroke-width:1.0;"/><polygon fill="none" points="2045.1,181.1737,2034.2125,196.7127,2045.7134,200.1374,2045.1,181.1737" style="stroke:#181818;stroke-width:1.0;"/></g><!--SRC=[jLRRJkCm47tlL-G7o1UWIht0Bb9XArhWUP9C4ul4Zco7jjhTVzyP9ocvTLkWFDKvCvxhcN7358pnGfNvk8CiJz7NkD5e4dyIMl4cxDvVQXKJOch0-pswyYPQmtuXZBs-HqZ7tXRnbK-c9Pl3VbLa6UZzs8lgiq1MMgWGqZbOzC92QvJsXIoiB6XBmhLIQG3Qi-Kl8xYppmAtdXKsHGBkCeXnMbYhf5U5FBMo8xZPMGqbV330VjYlMJztjAaKBeg-7KcNtoMF6Ex35BKpbt7IZsngXLGW9J5goYSHv1QrPqfXzKdQKqMMimTu4p6mn1aBEY3ftMg8CohFJ4aBGbPUkTm_DEJ90UOKgOoHG-jBdkr176W26gCbLGr97ABn2eDwjIJH74HQj-mdfZb57lKWRd75XKSqHMeNKCWmGNrz9osv67iO2Sjig0MZlwDHU9ffAn7Bfxp5inkonAtp96Hui-R2bIqnJhVJsrJ5GfRO4wNayd9PMGZ0O9rHKELnNbGBDZeS56PK71VL0SgtKJFCHaIp1CFNgTeHNJFC0jJtE9ises-czBMGVweCvs2IG86EMg4FqudhT2StgiccSmdQ6sG-kmngrhoF_lu357iXCvfgN-biMvzLWpdcIbwqFazj31xe_fZd6jzAT4550Bs0lIeizz05ConYdX-vX29E1jseZKXnOCqeApOYT9NjC7lhRDMhU041fiV5pv0MU2PLt9Ygk4KInjnYQotpMwMYiOFvrDxXZ5PzT-1QP2N8XvQcIgDAiTUW0r1RuykzBHr0EB2X8r9VYl2rxj9X7Wsr94oceDrKDg_GYePAUtWgoglbYZFDqJYcdjAInyXLvxJwXjIOi3sfUqeQfWxBt0oXRBzZgMUwjKSLFNsT3VLEuRE6da7I3UXnHf2Ua6pyNaNdKcvPyhz5ETUOqXlrbqYdjYsAb7y4rWEZRD1Q8MDJVhPCLOD6lB25RZ6iaZo0O-UH1lKQG-cDHY0ZhKIqyo7FASqSB9_yIPxFtDSXhUi_LrSV-sTrITljj_IIbblluUY_ghzalQNh4lCcGQeb-V7zJpnYbqnasC69X5RDfV29h3hxzhIxWPd_FdVTLV85JnTir3UQxkoYVm00]--></g></svg>