<svg xmlns="http://www.w3.org/2000/svg" xmlns:xlink="http://www.w3.org/1999/xlink" contentStyleType="text/css" height="828px" preserveAspectRatio="none" style="width:508px;height:828px;background:#FFFFFF;" version="1.1" viewBox="0 0 508 828" width="508px" zoomAndPan="magnify"><defs/><g><!--cluster com--><g id="cluster_com"><path d="M8.5,269.0137 L38.2861,269.0137 A3.75,3.75 0 0 1 40.7861,271.5137 L47.7861,293.6348 L498.5,293.6348 A2.5,2.5 0 0 1 501,296.1348 L501,818.5137 A2.5,2.5 0 0 1 498.5,821.0137 L8.5,821.0137 A2.5,2.5 0 0 1 6,818.5137 L6,271.5137 A2.5,2.5 0 0 1 8.5,269.0137 " fill="none" style="stroke:#000000;stroke-width:1.5;"/><line style="stroke:#000000;stroke-width:1.5;" x1="6" x2="47.7861" y1="293.6348" y2="293.6348"/><text fill="#000000" font-family="sans-serif" font-size="14" font-weight="bold" lengthAdjust="spacing" textLength="28.7861" x="10" y="286.1211">com</text></g><!--cluster example--><g id="cluster_example"><path d="M32.5,314.0137 L89.5342,314.0137 A3.75,3.75 0 0 1 92.0342,316.5137 L99.0342,338.6348 L474.5,338.6348 A2.5,2.5 0 0 1 477,341.1348 L477,794.5137 A2.5,2.5 0 0 1 474.5,797.0137 L32.5,797.0137 A2.5,2.5 0 0 1 30,794.5137 L30,316.5137 A2.5,2.5 0 0 1 32.5,314.0137 " fill="none" style="stroke:#000000;stroke-width:1.5;"/><line style="stroke:#000000;stroke-width:1.5;" x1="30" x2="99.0342" y1="338.6348" y2="338.6348"/><text fill="#000000" font-family="sans-serif" font-size="14" font-weight="bold" lengthAdjust="spacing" textLength="56.0342" x="34" y="331.1211">example</text></g><!--cluster refresh--><g id="cluster_refresh"><path d="M56.5,359.0137 L104.9688,359.0137 A3.75,3.75 0 0 1 107.4688,361.5137 L114.4688,383.6348 L450.5,383.6348 A2.5,2.5 0 0 1 453,386.1348 L453,770.5137 A2.5,2.5 0 0 1 450.5,773.0137 L56.5,773.0137 A2.5,2.5 0 0 1 54,770.5137 L54,361.5137 A2.5,2.5 0 0 1 56.5,359.0137 " fill="none" style="stroke:#000000;stroke-width:1.5;"/><line style="stroke:#000000;stroke-width:1.5;" x1="54" x2="114.4688" y1="383.6348" y2="383.6348"/><text fill="#000000" font-family="sans-serif" font-size="14" font-weight="bold" lengthAdjust="spacing" textLength="47.4688" x="58" y="376.1211">refresh</text></g><!--cluster androidx--><g id="cluster_androidx"><path d="M184.5,6.0137 L244.6172,6.0137 A3.75,3.75 0 0 1 247.1172,8.5137 L254.1172,30.6348 L457.5,30.6348 A2.5,2.5 0 0 1 460,33.1348 L460,242.5137 A2.5,2.5 0 0 1 457.5,245.0137 L184.5,245.0137 A2.5,2.5 0 0 1 182,242.5137 L182,8.5137 A2.5,2.5 0 0 1 184.5,6.0137 " fill="none" style="stroke:#000000;stroke-width:1.5;"/><line style="stroke:#000000;stroke-width:1.5;" x1="182" x2="254.1172" y1="30.6348" y2="30.6348"/><text fill="#000000" font-family="sans-serif" font-size="14" font-weight="bold" lengthAdjust="spacing" textLength="59.1172" x="186" y="23.1211">androidx</text></g><!--cluster appcompat--><g id="cluster_appcompat"><path d="M208.5,51.0137 L284.1758,51.0137 A3.75,3.75 0 0 1 286.6758,53.5137 L293.6758,75.6348 L433.5,75.6348 A2.5,2.5 0 0 1 436,78.1348 L436,218.5137 A2.5,2.5 0 0 1 433.5,221.0137 L208.5,221.0137 A2.5,2.5 0 0 1 206,218.5137 L206,53.5137 A2.5,2.5 0 0 1 208.5,51.0137 " fill="none" style="stroke:#000000;stroke-width:1.5;"/><line style="stroke:#000000;stroke-width:1.5;" x1="206" x2="293.6758" y1="75.6348" y2="75.6348"/><text fill="#000000" font-family="sans-serif" font-size="14" font-weight="bold" lengthAdjust="spacing" textLength="74.6758" x="210" y="68.1211">appcompat</text></g><!--cluster app--><g id="cluster_app"><path d="M232.5,96.0137 L258.3896,96.0137 A3.75,3.75 0 0 1 260.8896,98.5137 L267.8896,120.6348 L409.5,120.6348 A2.5,2.5 0 0 1 412,123.1348 L412,194.5137 A2.5,2.5 0 0 1 409.5,197.0137 L232.5,197.0137 A2.5,2.5 0 0 1 230,194.5137 L230,98.5137 A2.5,2.5 0 0 1 232.5,96.0137 " fill="none" style="stroke:#000000;stroke-width:1.5;"/><line style="stroke:#000000;stroke-width:1.5;" x1="230" x2="267.8896" y1="120.6348" y2="120.6348"/><text fill="#000000" font-family="sans-serif" font-size="14" font-weight="bold" lengthAdjust="spacing" textLength="24.8896" x="234" y="113.1211">app</text></g><!--class StartActivity--><g id="elem_StartActivity"><rect codeLine="1" fill="#F1F1F1" height="159.7266" id="StartActivity" rx="2.5" ry="2.5" style="stroke:#181818;stroke-width:0.5;" width="230.6338" x="205.5" y="396.0137"/><ellipse cx="279.6152" cy="412.0137" fill="#ADD1B2" rx="11" ry="11" style="stroke:#181818;stroke-width:1.0;"/><path d="M282.3809,407.8887 Q282.5371,407.6699 282.7246,407.5605 Q282.9121,407.4512 283.1309,407.4512 Q283.5059,407.4512 283.7402,407.7168 Q283.9746,407.9668 283.9746,408.5762 L283.9746,410.0293 Q283.9746,410.6387 283.7402,410.9043 Q283.5059,411.1699 283.1309,411.1699 Q282.7871,411.1699 282.584,410.9668 Q282.3809,410.7793 282.2715,410.2637 Q282.2246,409.9043 282.0371,409.7168 Q281.709,409.3418 281.0996,409.123 Q280.4902,408.9043 279.8652,408.9043 Q279.0996,408.9043 278.459,409.2324 Q277.834,409.5605 277.334,410.3105 Q276.8496,411.0605 276.8496,412.0918 L276.8496,413.1855 Q276.8496,414.4199 277.7402,415.248 Q278.6309,416.0605 280.2246,416.0605 Q281.1621,416.0605 281.8184,415.8105 Q282.209,415.6543 282.6309,415.2168 Q282.8965,414.9512 283.0371,414.873 Q283.1934,414.7949 283.3965,414.7949 Q283.7246,414.7949 283.9746,415.0605 Q284.2402,415.3105 284.2402,415.6543 Q284.2402,415.998 283.8965,416.4043 Q283.3965,416.9824 282.5996,417.3105 Q281.5215,417.7637 280.2246,417.7637 Q278.709,417.7637 277.5059,417.1387 Q276.5215,416.6387 275.834,415.5762 Q275.1465,414.498 275.1465,413.2168 L275.1465,412.0605 Q275.1465,410.7324 275.7559,409.5918 Q276.3809,408.4355 277.4746,407.8262 Q278.5684,407.2012 279.8027,407.2012 Q280.5371,407.2012 281.1777,407.373 Q281.834,407.5293 282.3809,407.8887 Z " fill="#000000"/><text fill="#000000" font-family="sans-serif" font-size="14" lengthAdjust="spacing" textLength="73.9033" x="300.1152" y="417.8105">StartActivity</text><line style="stroke:#181818;stroke-width:0.5;" x1="206.5" x2="435.1338" y1="428.0137" y2="428.0137"/><rect fill="none" height="6" style="stroke:#C82930;stroke-width:1.0;" width="6" x="213.5" y="439.8242"/><text fill="#000000" font-family="sans-serif" font-size="14" lengthAdjust="spacing" textLength="98.0273" x="225.5" y="447.1211">TextView cdtTV</text><rect fill="none" height="6" style="stroke:#C82930;stroke-width:1.0;" width="6" x="213.5" y="458.4453"/><text fill="#000000" font-family="sans-serif" font-size="14" lengthAdjust="spacing" textLength="125.2959" x="225.5" y="465.7422">Button continueBTN</text><rect fill="none" height="6" style="stroke:#C82930;stroke-width:1.0;" width="6" x="213.5" y="477.0664"/><text fill="#000000" font-family="sans-serif" font-size="14" lengthAdjust="spacing" textLength="143.9238" x="225.5" y="484.3633">CountDownTimer timer</text><rect fill="none" height="6" style="stroke:#C82930;stroke-width:1.0;" width="6" x="213.5" y="495.6875"/><text fill="#000000" font-family="sans-serif" font-size="14" lengthAdjust="spacing" text-decoration="underline" textLength="135.3721" x="225.5" y="502.9844">String PREFS_NAME</text><rect fill="none" height="6" style="stroke:#C82930;stroke-width:1.0;" width="6" x="213.5" y="514.3086"/><text fill="#000000" font-family="sans-serif" font-size="14" lengthAdjust="spacing" text-decoration="underline" textLength="182.0547" x="225.5" y="521.6055">String FIRST_LAUNCH_KEY</text><rect fill="none" height="6" style="stroke:#C82930;stroke-width:1.0;" width="6" x="213.5" y="532.9297"/><text fill="#000000" font-family="sans-serif" font-size="14" lengthAdjust="spacing" text-decoration="underline" textLength="204.6338" x="225.5" y="540.2266">String LOGGED_USER_ID_KEY</text><line style="stroke:#181818;stroke-width:0.5;" x1="206.5" x2="435.1338" y1="547.7402" y2="547.7402"/></g><!--class MyApplication--><g id="elem_MyApplication"><rect codeLine="10" fill="#F1F1F1" height="141.1055" id="MyApplication" rx="2.5" ry="2.5" style="stroke:#181818;stroke-width:0.5;" width="283.5439" x="70" y="616.0137"/><ellipse cx="163.9463" cy="632.0137" fill="#ADD1B2" rx="11" ry="11" style="stroke:#181818;stroke-width:1.0;"/><path d="M166.7119,627.8887 Q166.8682,627.6699 167.0557,627.5605 Q167.2432,627.4512 167.4619,627.4512 Q167.8369,627.4512 168.0713,627.7168 Q168.3057,627.9668 168.3057,628.5762 L168.3057,630.0293 Q168.3057,630.6387 168.0713,630.9043 Q167.8369,631.1699 167.4619,631.1699 Q167.1182,631.1699 166.915,630.9668 Q166.7119,630.7793 166.6025,630.2637 Q166.5557,629.9043 166.3682,629.7168 Q166.04,629.3418 165.4307,629.123 Q164.8213,628.9043 164.1963,628.9043 Q163.4307,628.9043 162.79,629.2324 Q162.165,629.5605 161.665,630.3105 Q161.1807,631.0605 161.1807,632.0918 L161.1807,633.1855 Q161.1807,634.4199 162.0713,635.248 Q162.9619,636.0605 164.5557,636.0605 Q165.4932,636.0605 166.1494,635.8105 Q166.54,635.6543 166.9619,635.2168 Q167.2275,634.9512 167.3682,634.873 Q167.5244,634.7949 167.7275,634.7949 Q168.0557,634.7949 168.3057,635.0605 Q168.5713,635.3105 168.5713,635.6543 Q168.5713,635.998 168.2275,636.4043 Q167.7275,636.9824 166.9307,637.3105 Q165.8525,637.7637 164.5557,637.7637 Q163.04,637.7637 161.8369,637.1387 Q160.8525,636.6387 160.165,635.5762 Q159.4775,634.498 159.4775,633.2168 L159.4775,632.0605 Q159.4775,630.7324 160.0869,629.5918 Q160.7119,628.4355 161.8057,627.8262 Q162.8994,627.2012 164.1338,627.2012 Q164.8682,627.2012 165.5088,627.373 Q166.165,627.5293 166.7119,627.8887 Z " fill="#000000"/><text fill="#000000" font-family="sans-serif" font-size="14" lengthAdjust="spacing" textLength="87.1514" x="184.4463" y="637.8105">MyApplication</text><line style="stroke:#181818;stroke-width:0.5;" x1="71" x2="352.5439" y1="648.0137" y2="648.0137"/><rect fill="none" height="6" style="stroke:#C82930;stroke-width:1.0;" width="6" x="78" y="659.8242"/><text fill="#000000" font-family="sans-serif" font-size="14" lengthAdjust="spacing" text-decoration="underline" textLength="143.1855" x="90" y="667.1211">MyApplication instance</text><ellipse cx="81" cy="681.4453" fill="none" rx="3" ry="3" style="stroke:#038048;stroke-width:1.0;"/><text fill="#000000" font-family="sans-serif" font-size="14" lengthAdjust="spacing" text-decoration="underline" textLength="135.3721" x="90" y="685.7422">String PREFS_NAME</text><ellipse cx="81" cy="700.0664" fill="none" rx="3" ry="3" style="stroke:#038048;stroke-width:1.0;"/><text fill="#000000" font-family="sans-serif" font-size="14" lengthAdjust="spacing" text-decoration="underline" textLength="204.6338" x="90" y="704.3633">String LOGGED_USER_ID_KEY</text><ellipse cx="81" cy="718.6875" fill="none" rx="3" ry="3" style="stroke:#038048;stroke-width:1.0;"/><text fill="#000000" font-family="sans-serif" font-size="14" lengthAdjust="spacing" text-decoration="underline" textLength="257.5439" x="90" y="722.9844">String LOGGED_USER_SP_NAME_KEY</text><ellipse cx="81" cy="737.3086" fill="none" rx="3" ry="3" style="stroke:#038048;stroke-width:1.0;"/><text fill="#000000" font-family="sans-serif" font-size="14" lengthAdjust="spacing" text-decoration="underline" textLength="182.0547" x="90" y="741.6055">String FIRST_LAUNCH_KEY</text><line style="stroke:#181818;stroke-width:0.5;" x1="71" x2="352.5439" y1="749.1191" y2="749.1191"/></g><!--class Application--><g id="elem_Application"><rect fill="#F1F1F1" height="48" id="Application" rx="2.5" ry="2.5" style="stroke:#181818;stroke-width:0.5;" width="100.4893" x="70" y="452.0137"/><ellipse cx="85" cy="468.0137" fill="#ADD1B2" rx="11" ry="11" style="stroke:#181818;stroke-width:1.0;"/><path d="M87.7656,463.8887 Q87.9219,463.6699 88.1094,463.5605 Q88.2969,463.4512 88.5156,463.4512 Q88.8906,463.4512 89.125,463.7168 Q89.3594,463.9668 89.3594,464.5762 L89.3594,466.0293 Q89.3594,466.6387 89.125,466.9043 Q88.8906,467.1699 88.5156,467.1699 Q88.1719,467.1699 87.9688,466.9668 Q87.7656,466.7793 87.6563,466.2637 Q87.6094,465.9043 87.4219,465.7168 Q87.0938,465.3418 86.4844,465.123 Q85.875,464.9043 85.25,464.9043 Q84.4844,464.9043 83.8438,465.2324 Q83.2188,465.5605 82.7188,466.3105 Q82.2344,467.0605 82.2344,468.0918 L82.2344,469.1855 Q82.2344,470.4199 83.125,471.248 Q84.0156,472.0605 85.6094,472.0605 Q86.5469,472.0605 87.2031,471.8105 Q87.5938,471.6543 88.0156,471.2168 Q88.2813,470.9512 88.4219,470.873 Q88.5781,470.7949 88.7813,470.7949 Q89.1094,470.7949 89.3594,471.0605 Q89.625,471.3105 89.625,471.6543 Q89.625,471.998 89.2813,472.4043 Q88.7813,472.9824 87.9844,473.3105 Q86.9063,473.7637 85.6094,473.7637 Q84.0938,473.7637 82.8906,473.1387 Q81.9063,472.6387 81.2188,471.5762 Q80.5313,470.498 80.5313,469.2168 L80.5313,468.0605 Q80.5313,466.7324 81.1406,465.5918 Q81.7656,464.4355 82.8594,463.8262 Q83.9531,463.2012 85.1875,463.2012 Q85.9219,463.2012 86.5625,463.373 Q87.2188,463.5293 87.7656,463.8887 Z " fill="#000000"/><text fill="#000000" font-family="sans-serif" font-size="14" lengthAdjust="spacing" textLength="68.4893" x="99" y="473.8105">Application</text><line style="stroke:#181818;stroke-width:0.5;" x1="71" x2="169.4893" y1="484.0137" y2="484.0137"/><line style="stroke:#181818;stroke-width:0.5;" x1="71" x2="169.4893" y1="492.0137" y2="492.0137"/></g><!--class AppCompatActivity--><g id="elem_AppCompatActivity"><rect fill="#F1F1F1" height="48" id="AppCompatActivity" rx="2.5" ry="2.5" style="stroke:#181818;stroke-width:0.5;" width="150.2686" x="246" y="133.0137"/><ellipse cx="261" cy="149.0137" fill="#ADD1B2" rx="11" ry="11" style="stroke:#181818;stroke-width:1.0;"/><path d="M263.7656,144.8887 Q263.9219,144.6699 264.1094,144.5605 Q264.2969,144.4512 264.5156,144.4512 Q264.8906,144.4512 265.125,144.7168 Q265.3594,144.9668 265.3594,145.5762 L265.3594,147.0293 Q265.3594,147.6387 265.125,147.9043 Q264.8906,148.1699 264.5156,148.1699 Q264.1719,148.1699 263.9688,147.9668 Q263.7656,147.7793 263.6563,147.2637 Q263.6094,146.9043 263.4219,146.7168 Q263.0938,146.3418 262.4844,146.123 Q261.875,145.9043 261.25,145.9043 Q260.4844,145.9043 259.8438,146.2324 Q259.2188,146.5605 258.7188,147.3105 Q258.2344,148.0605 258.2344,149.0918 L258.2344,150.1855 Q258.2344,151.4199 259.125,152.248 Q260.0156,153.0605 261.6094,153.0605 Q262.5469,153.0605 263.2031,152.8105 Q263.5938,152.6543 264.0156,152.2168 Q264.2813,151.9512 264.4219,151.873 Q264.5781,151.7949 264.7813,151.7949 Q265.1094,151.7949 265.3594,152.0605 Q265.625,152.3105 265.625,152.6543 Q265.625,152.998 265.2813,153.4043 Q264.7813,153.9824 263.9844,154.3105 Q262.9063,154.7637 261.6094,154.7637 Q260.0938,154.7637 258.8906,154.1387 Q257.9063,153.6387 257.2188,152.5762 Q256.5313,151.498 256.5313,150.2168 L256.5313,149.0605 Q256.5313,147.7324 257.1406,146.5918 Q257.7656,145.4355 258.8594,144.8262 Q259.9531,144.2012 261.1875,144.2012 Q261.9219,144.2012 262.5625,144.373 Q263.2188,144.5293 263.7656,144.8887 Z " fill="#000000"/><text fill="#000000" font-family="sans-serif" font-size="14" lengthAdjust="spacing" textLength="118.2686" x="275" y="154.8105">AppCompatActivity</text><line style="stroke:#181818;stroke-width:0.5;" x1="247" x2="395.2686" y1="165.0137" y2="165.0137"/><line style="stroke:#181818;stroke-width:0.5;" x1="247" x2="395.2686" y1="173.0137" y2="173.0137"/></g><!--reverse link AppCompatActivity to StartActivity--><g id="link_AppCompatActivity_StartActivity"><path codeLine="20" d="M321,199.0637 C321,243.5237 321,324.9537 321,395.8437 " fill="none" id="AppCompatActivity-backto-StartActivity" style="stroke:#181818;stroke-width:1.0;"/><polygon fill="none" points="321,181.0637,315,199.0637,327,199.0637,321,181.0637" style="stroke:#181818;stroke-width:1.0;"/></g><!--reverse link Application to MyApplication--><g id="link_Application_MyApplication"><path codeLine="21" d="M137.4626,516.5935 C149.7126,544.3735 163.59,575.7937 181.3,615.9437 " fill="none" id="Application-backto-MyApplication" style="stroke:#181818;stroke-width:1.0;"/><polygon fill="none" points="130.2,500.1237,131.9727,519.0143,142.9525,514.1726,130.2,500.1237" style="stroke:#181818;stroke-width:1.0;"/></g><!--SRC=[ZL71Zi8W5Bpp5TnD-OAzr1PTirfDgIPx8eIokoGj4FggDLt_VR67ZMPRrmk1USDaPfwiHDDWQMkYEb6xIX6lFhnglWW3uI6Me8yQphX74IvK1mUjJbYMK1m2C6y1h0c_3MZJgdcH1J2nhO7KdaoXQ-KnNCy0zmq8qFA26NXjFl4kfml6itX3HuQBLSuAlextMVBAt-Zx26MzNIvfolUCvdoL3gGBGd8opkOSErTf6KI2vVvMyNwaJS2DL6ZsoFFi6KEFIMmtI4qm_rGGqY4aJEcjBZiYd0ifdO3hZGJ_oV3wtTVBTnJzlrOqnhWjOrBchhCV]--></g></svg>