<svg xmlns="http://www.w3.org/2000/svg" xmlns:xlink="http://www.w3.org/1999/xlink" contentStyleType="text/css" height="571px" preserveAspectRatio="none" style="width:968px;height:571px;background:#FFFFFF;" version="1.1" viewBox="0 0 968 571" width="968px" zoomAndPan="magnify"><defs/><g><!--cluster com--><g id="cluster_com"><path d="M8.5,200.0137 L38.2861,200.0137 A3.75,3.75 0 0 1 40.7861,202.5137 L47.7861,224.6348 L958.5,224.6348 A2.5,2.5 0 0 1 961,227.1348 L961,561.5137 A2.5,2.5 0 0 1 958.5,564.0137 L8.5,564.0137 A2.5,2.5 0 0 1 6,561.5137 L6,202.5137 A2.5,2.5 0 0 1 8.5,200.0137 " fill="none" style="stroke:#000000;stroke-width:1.5;"/><line style="stroke:#000000;stroke-width:1.5;" x1="6" x2="47.7861" y1="224.6348" y2="224.6348"/><text fill="#000000" font-family="sans-serif" font-size="14" font-weight="bold" lengthAdjust="spacing" textLength="28.7861" x="10" y="217.1211">com</text></g><!--cluster example--><g id="cluster_example"><path d="M32.5,245.0137 L89.5342,245.0137 A3.75,3.75 0 0 1 92.0342,247.5137 L99.0342,269.6348 L934.5,269.6348 A2.5,2.5 0 0 1 937,272.1348 L937,537.5137 A2.5,2.5 0 0 1 934.5,540.0137 L32.5,540.0137 A2.5,2.5 0 0 1 30,537.5137 L30,247.5137 A2.5,2.5 0 0 1 32.5,245.0137 " fill="none" style="stroke:#000000;stroke-width:1.5;"/><line style="stroke:#000000;stroke-width:1.5;" x1="30" x2="99.0342" y1="269.6348" y2="269.6348"/><text fill="#000000" font-family="sans-serif" font-size="14" font-weight="bold" lengthAdjust="spacing" textLength="56.0342" x="34" y="262.1211">example</text></g><!--cluster refresh--><g id="cluster_refresh"><path d="M56.5,290.0137 L104.9688,290.0137 A3.75,3.75 0 0 1 107.4688,292.5137 L114.4688,314.6348 L910.5,314.6348 A2.5,2.5 0 0 1 913,317.1348 L913,513.5137 A2.5,2.5 0 0 1 910.5,516.0137 L56.5,516.0137 A2.5,2.5 0 0 1 54,513.5137 L54,292.5137 A2.5,2.5 0 0 1 56.5,290.0137 " fill="none" style="stroke:#000000;stroke-width:1.5;"/><line style="stroke:#000000;stroke-width:1.5;" x1="54" x2="114.4688" y1="314.6348" y2="314.6348"/><text fill="#000000" font-family="sans-serif" font-size="14" font-weight="bold" lengthAdjust="spacing" textLength="47.4688" x="58" y="307.1211">refresh</text></g><!--cluster Notification--><g id="cluster_Notification"><path d="M80.5,335.0137 L158.4932,335.0137 A3.75,3.75 0 0 1 160.9932,337.5137 L167.9932,359.6348 L886.5,359.6348 A2.5,2.5 0 0 1 889,362.1348 L889,489.5137 A2.5,2.5 0 0 1 886.5,492.0137 L80.5,492.0137 A2.5,2.5 0 0 1 78,489.5137 L78,337.5137 A2.5,2.5 0 0 1 80.5,335.0137 " fill="none" style="stroke:#000000;stroke-width:1.5;"/><line style="stroke:#000000;stroke-width:1.5;" x1="78" x2="167.9932" y1="359.6348" y2="359.6348"/><text fill="#000000" font-family="sans-serif" font-size="14" font-weight="bold" lengthAdjust="spacing" textLength="76.9932" x="82" y="352.1211">Notification</text></g><!--cluster android--><g id="cluster_android"><path d="M144.5,6.0137 L196.8311,6.0137 A3.75,3.75 0 0 1 199.3311,8.5137 L206.3311,30.6348 L369.5,30.6348 A2.5,2.5 0 0 1 372,33.1348 L372,173.5137 A2.5,2.5 0 0 1 369.5,176.0137 L144.5,176.0137 A2.5,2.5 0 0 1 142,173.5137 L142,8.5137 A2.5,2.5 0 0 1 144.5,6.0137 " fill="none" style="stroke:#000000;stroke-width:1.5;"/><line style="stroke:#000000;stroke-width:1.5;" x1="142" x2="206.3311" y1="30.6348" y2="30.6348"/><text fill="#000000" font-family="sans-serif" font-size="14" font-weight="bold" lengthAdjust="spacing" textLength="51.3311" x="146" y="23.1211">android</text></g><!--cluster content--><g id="cluster_content"><path d="M168.5,51.0137 L220.0518,51.0137 A3.75,3.75 0 0 1 222.5518,53.5137 L229.5518,75.6348 L345.5,75.6348 A2.5,2.5 0 0 1 348,78.1348 L348,149.5137 A2.5,2.5 0 0 1 345.5,152.0137 L168.5,152.0137 A2.5,2.5 0 0 1 166,149.5137 L166,53.5137 A2.5,2.5 0 0 1 168.5,51.0137 " fill="none" style="stroke:#000000;stroke-width:1.5;"/><line style="stroke:#000000;stroke-width:1.5;" x1="166" x2="229.5518" y1="75.6348" y2="75.6348"/><text fill="#000000" font-family="sans-serif" font-size="14" font-weight="bold" lengthAdjust="spacing" textLength="50.5518" x="170" y="68.1211">content</text></g><!--class NotificationScheduler--><g id="elem_NotificationScheduler"><rect codeLine="1" fill="#F1F1F1" height="48" id="NotificationScheduler" rx="2.5" ry="2.5" style="stroke:#181818;stroke-width:0.5;" width="164.2959" x="709" y="400.0137"/><ellipse cx="724" cy="416.0137" fill="#ADD1B2" rx="11" ry="11" style="stroke:#181818;stroke-width:1.0;"/><path d="M726.7656,411.8887 Q726.9219,411.6699 727.1094,411.5605 Q727.2969,411.4512 727.5156,411.4512 Q727.8906,411.4512 728.125,411.7168 Q728.3594,411.9668 728.3594,412.5762 L728.3594,414.0293 Q728.3594,414.6387 728.125,414.9043 Q727.8906,415.1699 727.5156,415.1699 Q727.1719,415.1699 726.9688,414.9668 Q726.7656,414.7793 726.6563,414.2637 Q726.6094,413.9043 726.4219,413.7168 Q726.0938,413.3418 725.4844,413.123 Q724.875,412.9043 724.25,412.9043 Q723.4844,412.9043 722.8438,413.2324 Q722.2188,413.5605 721.7188,414.3105 Q721.2344,415.0605 721.2344,416.0918 L721.2344,417.1855 Q721.2344,418.4199 722.125,419.248 Q723.0156,420.0605 724.6094,420.0605 Q725.5469,420.0605 726.2031,419.8105 Q726.5938,419.6543 727.0156,419.2168 Q727.2813,418.9512 727.4219,418.873 Q727.5781,418.7949 727.7813,418.7949 Q728.1094,418.7949 728.3594,419.0605 Q728.625,419.3105 728.625,419.6543 Q728.625,419.998 728.2813,420.4043 Q727.7813,420.9824 726.9844,421.3105 Q725.9063,421.7637 724.6094,421.7637 Q723.0938,421.7637 721.8906,421.1387 Q720.9063,420.6387 720.2188,419.5762 Q719.5313,418.498 719.5313,417.2168 L719.5313,416.0605 Q719.5313,414.7324 720.1406,413.5918 Q720.7656,412.4355 721.8594,411.8262 Q722.9531,411.2012 724.1875,411.2012 Q724.9219,411.2012 725.5625,411.373 Q726.2188,411.5293 726.7656,411.8887 Z " fill="#000000"/><text fill="#000000" font-family="sans-serif" font-size="14" lengthAdjust="spacing" textLength="132.2959" x="738" y="421.8105">NotificationScheduler</text><line style="stroke:#181818;stroke-width:0.5;" x1="710" x2="872.2959" y1="432.0137" y2="432.0137"/><line style="stroke:#181818;stroke-width:0.5;" x1="710" x2="872.2959" y1="440.0137" y2="440.0137"/></g><!--class AppNotificationChannel--><g id="elem_AppNotificationChannel"><rect codeLine="3" fill="#F1F1F1" height="103.8633" id="AppNotificationChannel" rx="2.5" ry="2.5" style="stroke:#181818;stroke-width:0.5;" width="236.8271" x="436.5" y="372.0137"/><ellipse cx="477.8298" cy="388.0137" fill="#ADD1B2" rx="11" ry="11" style="stroke:#181818;stroke-width:1.0;"/><path d="M480.5955,383.8887 Q480.7517,383.6699 480.9392,383.5605 Q481.1267,383.4512 481.3455,383.4512 Q481.7205,383.4512 481.9548,383.7168 Q482.1892,383.9668 482.1892,384.5762 L482.1892,386.0293 Q482.1892,386.6387 481.9548,386.9043 Q481.7205,387.1699 481.3455,387.1699 Q481.0017,387.1699 480.7986,386.9668 Q480.5955,386.7793 480.4861,386.2637 Q480.4392,385.9043 480.2517,385.7168 Q479.9236,385.3418 479.3142,385.123 Q478.7048,384.9043 478.0798,384.9043 Q477.3142,384.9043 476.6736,385.2324 Q476.0486,385.5605 475.5486,386.3105 Q475.0642,387.0605 475.0642,388.0918 L475.0642,389.1855 Q475.0642,390.4199 475.9548,391.248 Q476.8455,392.0605 478.4392,392.0605 Q479.3767,392.0605 480.033,391.8105 Q480.4236,391.6543 480.8455,391.2168 Q481.1111,390.9512 481.2517,390.873 Q481.408,390.7949 481.6111,390.7949 Q481.9392,390.7949 482.1892,391.0605 Q482.4548,391.3105 482.4548,391.6543 Q482.4548,391.998 482.1111,392.4043 Q481.6111,392.9824 480.8142,393.3105 Q479.7361,393.7637 478.4392,393.7637 Q476.9236,393.7637 475.7205,393.1387 Q474.7361,392.6387 474.0486,391.5762 Q473.3611,390.498 473.3611,389.2168 L473.3611,388.0605 Q473.3611,386.7324 473.9705,385.5918 Q474.5955,384.4355 475.6892,383.8262 Q476.783,383.2012 478.0173,383.2012 Q478.7517,383.2012 479.3923,383.373 Q480.0486,383.5293 480.5955,383.8887 Z " fill="#000000"/><text fill="#000000" font-family="sans-serif" font-size="14" lengthAdjust="spacing" textLength="146.3164" x="497.6809" y="393.8105">AppNotificationChannel</text><line style="stroke:#181818;stroke-width:0.5;" x1="437.5" x2="672.3271" y1="404.0137" y2="404.0137"/><ellipse cx="447.5" cy="418.8242" fill="none" rx="3" ry="3" style="stroke:#038048;stroke-width:1.0;"/><text fill="#000000" font-family="sans-serif" font-size="14" lengthAdjust="spacing" text-decoration="underline" textLength="129.1514" x="456.5" y="423.1211">String CHANNEL_ID</text><ellipse cx="447.5" cy="437.4453" fill="none" rx="3" ry="3" style="stroke:#038048;stroke-width:1.0;"/><text fill="#000000" font-family="sans-serif" font-size="14" lengthAdjust="spacing" text-decoration="underline" textLength="155.5996" x="456.5" y="441.7422">String CHANNEL_NAME</text><ellipse cx="447.5" cy="456.0664" fill="none" rx="3" ry="3" style="stroke:#038048;stroke-width:1.0;"/><text fill="#000000" font-family="sans-serif" font-size="14" lengthAdjust="spacing" text-decoration="underline" textLength="210.8271" x="456.5" y="460.3633">String CHANNEL_DESCRIPTION</text><line style="stroke:#181818;stroke-width:0.5;" x1="437.5" x2="672.3271" y1="467.877" y2="467.877"/></g><!--class BootReceiver--><g id="elem_BootReceiver"><rect codeLine="9" fill="#F1F1F1" height="48" id="BootReceiver" rx="2.5" ry="2.5" style="stroke:#181818;stroke-width:0.5;" width="116.041" x="285" y="400.0137"/><ellipse cx="300" cy="416.0137" fill="#ADD1B2" rx="11" ry="11" style="stroke:#181818;stroke-width:1.0;"/><path d="M302.7656,411.8887 Q302.9219,411.6699 303.1094,411.5605 Q303.2969,411.4512 303.5156,411.4512 Q303.8906,411.4512 304.125,411.7168 Q304.3594,411.9668 304.3594,412.5762 L304.3594,414.0293 Q304.3594,414.6387 304.125,414.9043 Q303.8906,415.1699 303.5156,415.1699 Q303.1719,415.1699 302.9688,414.9668 Q302.7656,414.7793 302.6563,414.2637 Q302.6094,413.9043 302.4219,413.7168 Q302.0938,413.3418 301.4844,413.123 Q300.875,412.9043 300.25,412.9043 Q299.4844,412.9043 298.8438,413.2324 Q298.2188,413.5605 297.7188,414.3105 Q297.2344,415.0605 297.2344,416.0918 L297.2344,417.1855 Q297.2344,418.4199 298.125,419.248 Q299.0156,420.0605 300.6094,420.0605 Q301.5469,420.0605 302.2031,419.8105 Q302.5938,419.6543 303.0156,419.2168 Q303.2813,418.9512 303.4219,418.873 Q303.5781,418.7949 303.7813,418.7949 Q304.1094,418.7949 304.3594,419.0605 Q304.625,419.3105 304.625,419.6543 Q304.625,419.998 304.2813,420.4043 Q303.7813,420.9824 302.9844,421.3105 Q301.9063,421.7637 300.6094,421.7637 Q299.0938,421.7637 297.8906,421.1387 Q296.9063,420.6387 296.2188,419.5762 Q295.5313,418.498 295.5313,417.2168 L295.5313,416.0605 Q295.5313,414.7324 296.1406,413.5918 Q296.7656,412.4355 297.8594,411.8262 Q298.9531,411.2012 300.1875,411.2012 Q300.9219,411.2012 301.5625,411.373 Q302.2188,411.5293 302.7656,411.8887 Z " fill="#000000"/><text fill="#000000" font-family="sans-serif" font-size="14" lengthAdjust="spacing" textLength="84.041" x="314" y="421.8105">BootReceiver</text><line style="stroke:#181818;stroke-width:0.5;" x1="286" x2="400.041" y1="432.0137" y2="432.0137"/><line style="stroke:#181818;stroke-width:0.5;" x1="286" x2="400.041" y1="440.0137" y2="440.0137"/></g><!--class NotificationReceiver--><g id="elem_NotificationReceiver"><rect codeLine="11" fill="#F1F1F1" height="48" id="NotificationReceiver" rx="2.5" ry="2.5" style="stroke:#181818;stroke-width:0.5;" width="156.4961" x="94" y="400.0137"/><ellipse cx="109" cy="416.0137" fill="#ADD1B2" rx="11" ry="11" style="stroke:#181818;stroke-width:1.0;"/><path d="M111.7656,411.8887 Q111.9219,411.6699 112.1094,411.5605 Q112.2969,411.4512 112.5156,411.4512 Q112.8906,411.4512 113.125,411.7168 Q113.3594,411.9668 113.3594,412.5762 L113.3594,414.0293 Q113.3594,414.6387 113.125,414.9043 Q112.8906,415.1699 112.5156,415.1699 Q112.1719,415.1699 111.9688,414.9668 Q111.7656,414.7793 111.6563,414.2637 Q111.6094,413.9043 111.4219,413.7168 Q111.0938,413.3418 110.4844,413.123 Q109.875,412.9043 109.25,412.9043 Q108.4844,412.9043 107.8438,413.2324 Q107.2188,413.5605 106.7188,414.3105 Q106.2344,415.0605 106.2344,416.0918 L106.2344,417.1855 Q106.2344,418.4199 107.125,419.248 Q108.0156,420.0605 109.6094,420.0605 Q110.5469,420.0605 111.2031,419.8105 Q111.5938,419.6543 112.0156,419.2168 Q112.2813,418.9512 112.4219,418.873 Q112.5781,418.7949 112.7813,418.7949 Q113.1094,418.7949 113.3594,419.0605 Q113.625,419.3105 113.625,419.6543 Q113.625,419.998 113.2813,420.4043 Q112.7813,420.9824 111.9844,421.3105 Q110.9063,421.7637 109.6094,421.7637 Q108.0938,421.7637 106.8906,421.1387 Q105.9063,420.6387 105.2188,419.5762 Q104.5313,418.498 104.5313,417.2168 L104.5313,416.0605 Q104.5313,414.7324 105.1406,413.5918 Q105.7656,412.4355 106.8594,411.8262 Q107.9531,411.2012 109.1875,411.2012 Q109.9219,411.2012 110.5625,411.373 Q111.2188,411.5293 111.7656,411.8887 Z " fill="#000000"/><text fill="#000000" font-family="sans-serif" font-size="14" lengthAdjust="spacing" textLength="124.4961" x="123" y="421.8105">NotificationReceiver</text><line style="stroke:#181818;stroke-width:0.5;" x1="95" x2="249.4961" y1="432.0137" y2="432.0137"/><line style="stroke:#181818;stroke-width:0.5;" x1="95" x2="249.4961" y1="440.0137" y2="440.0137"/></g><!--class BroadcastReceiver--><g id="elem_BroadcastReceiver"><rect fill="#F1F1F1" height="48" id="BroadcastReceiver" rx="2.5" ry="2.5" style="stroke:#181818;stroke-width:0.5;" width="150.2754" x="182" y="88.0137"/><ellipse cx="197" cy="104.0137" fill="#ADD1B2" rx="11" ry="11" style="stroke:#181818;stroke-width:1.0;"/><path d="M199.7656,99.8887 Q199.9219,99.6699 200.1094,99.5605 Q200.2969,99.4512 200.5156,99.4512 Q200.8906,99.4512 201.125,99.7168 Q201.3594,99.9668 201.3594,100.5762 L201.3594,102.0293 Q201.3594,102.6387 201.125,102.9043 Q200.8906,103.1699 200.5156,103.1699 Q200.1719,103.1699 199.9688,102.9668 Q199.7656,102.7793 199.6563,102.2637 Q199.6094,101.9043 199.4219,101.7168 Q199.0938,101.3418 198.4844,101.123 Q197.875,100.9043 197.25,100.9043 Q196.4844,100.9043 195.8438,101.2324 Q195.2188,101.5605 194.7188,102.3105 Q194.2344,103.0605 194.2344,104.0918 L194.2344,105.1855 Q194.2344,106.4199 195.125,107.248 Q196.0156,108.0605 197.6094,108.0605 Q198.5469,108.0605 199.2031,107.8105 Q199.5938,107.6543 200.0156,107.2168 Q200.2813,106.9512 200.4219,106.873 Q200.5781,106.7949 200.7813,106.7949 Q201.1094,106.7949 201.3594,107.0605 Q201.625,107.3105 201.625,107.6543 Q201.625,107.998 201.2813,108.4043 Q200.7813,108.9824 199.9844,109.3105 Q198.9063,109.7637 197.6094,109.7637 Q196.0938,109.7637 194.8906,109.1387 Q193.9063,108.6387 193.2188,107.5762 Q192.5313,106.498 192.5313,105.2168 L192.5313,104.0605 Q192.5313,102.7324 193.1406,101.5918 Q193.7656,100.4355 194.8594,99.8262 Q195.9531,99.2012 197.1875,99.2012 Q197.9219,99.2012 198.5625,99.373 Q199.2188,99.5293 199.7656,99.8887 Z " fill="#000000"/><text fill="#000000" font-family="sans-serif" font-size="14" lengthAdjust="spacing" textLength="118.2754" x="211" y="109.8105">BroadcastReceiver</text><line style="stroke:#181818;stroke-width:0.5;" x1="183" x2="331.2754" y1="120.0137" y2="120.0137"/><line style="stroke:#181818;stroke-width:0.5;" x1="183" x2="331.2754" y1="128.0137" y2="128.0137"/></g><!--reverse link BroadcastReceiver to BootReceiver--><g id="link_BroadcastReceiver_BootReceiver"><path codeLine="15" d="M268.2015,153.4087 C284.1215,210.7987 320.6,342.2637 336.56,399.8137 " fill="none" id="BroadcastReceiver-backto-BootReceiver" style="stroke:#181818;stroke-width:1.0;"/><polygon fill="none" points="263.39,136.0637,262.4198,155.0125,273.9832,151.8048,263.39,136.0637" style="stroke:#181818;stroke-width:1.0;"/></g><!--reverse link BroadcastReceiver to NotificationReceiver--><g id="link_BroadcastReceiver_NotificationReceiver"><path codeLine="16" d="M245.9191,153.4226 C230.1791,210.8126 194.14,342.2637 178.36,399.8137 " fill="none" id="BroadcastReceiver-backto-NotificationReceiver" style="stroke:#181818;stroke-width:1.0;"/><polygon fill="none" points="250.68,136.0637,240.1327,151.8357,251.7054,155.0096,250.68,136.0637" style="stroke:#181818;stroke-width:1.0;"/></g><!--SRC=[hO_B2i8m44Nt-OhifVa2Dts11OtIkfSmcTf0cfGaYb3xxtPd2r9QS7ddCcVEW1RUKx0jmvTeEutCOUtGDupRe6e58YXhPg621kL3ewCz6GYi0yHTDyrf8un1FH9sjFTXdC50g-2KkTFq47EU7sz5jb3o-9Glr5bUfMLnkHPdFZgkbKoi3IK2gkUsvwPXja-8CD9P9HbO4z04bZWh90Z_lRD_Hz4sjRz1Vtb_0000]--></g></svg>