<svg xmlns="http://www.w3.org/2000/svg" xmlns:xlink="http://www.w3.org/1999/xlink" contentStyleType="text/css" height="1418px" preserveAspectRatio="none" style="width:2479px;height:1418px;background:#FFFFFF;" version="1.1" viewBox="0 0 2479 1418" width="2479px" zoomAndPan="magnify"><defs/><g><!--cluster com--><g id="cluster_com"><path d="M8.5,269.0137 L38.2861,269.0137 A3.75,3.75 0 0 1 40.7861,271.5137 L47.7861,293.6348 L2340.5,293.6348 A2.5,2.5 0 0 1 2343,296.1348 L2343,1408.5137 A2.5,2.5 0 0 1 2340.5,1411.0137 L8.5,1411.0137 A2.5,2.5 0 0 1 6,1408.5137 L6,271.5137 A2.5,2.5 0 0 1 8.5,269.0137 " fill="none" style="stroke:#000000;stroke-width:1.5;"/><line style="stroke:#000000;stroke-width:1.5;" x1="6" x2="47.7861" y1="293.6348" y2="293.6348"/><text fill="#000000" font-family="sans-serif" font-size="14" font-weight="bold" lengthAdjust="spacing" textLength="28.7861" x="10" y="286.1211">com</text></g><!--cluster example--><g id="cluster_example"><path d="M32.5,314.0137 L89.5342,314.0137 A3.75,3.75 0 0 1 92.0342,316.5137 L99.0342,338.6348 L2316.5,338.6348 A2.5,2.5 0 0 1 2319,341.1348 L2319,1384.5137 A2.5,2.5 0 0 1 2316.5,1387.0137 L32.5,1387.0137 A2.5,2.5 0 0 1 30,1384.5137 L30,316.5137 A2.5,2.5 0 0 1 32.5,314.0137 " fill="none" style="stroke:#000000;stroke-width:1.5;"/><line style="stroke:#000000;stroke-width:1.5;" x1="30" x2="99.0342" y1="338.6348" y2="338.6348"/><text fill="#000000" font-family="sans-serif" font-size="14" font-weight="bold" lengthAdjust="spacing" textLength="56.0342" x="34" y="331.1211">example</text></g><!--cluster refresh--><g id="cluster_refresh"><path d="M56.5,359.0137 L104.9688,359.0137 A3.75,3.75 0 0 1 107.4688,361.5137 L114.4688,383.6348 L2292.5,383.6348 A2.5,2.5 0 0 1 2295,386.1348 L2295,1360.5137 A2.5,2.5 0 0 1 2292.5,1363.0137 L56.5,1363.0137 A2.5,2.5 0 0 1 54,1360.5137 L54,361.5137 A2.5,2.5 0 0 1 56.5,359.0137 " fill="none" style="stroke:#000000;stroke-width:1.5;"/><line style="stroke:#000000;stroke-width:1.5;" x1="54" x2="114.4688" y1="383.6348" y2="383.6348"/><text fill="#000000" font-family="sans-serif" font-size="14" font-weight="bold" lengthAdjust="spacing" textLength="47.4688" x="58" y="376.1211">refresh</text></g><!--cluster Activity--><g id="cluster_Activity"><path d="M80.5,404.0137 L132.0723,404.0137 A3.75,3.75 0 0 1 134.5723,406.5137 L141.5723,428.6348 L2268.5,428.6348 A2.5,2.5 0 0 1 2271,431.1348 L2271,1336.5137 A2.5,2.5 0 0 1 2268.5,1339.0137 L80.5,1339.0137 A2.5,2.5 0 0 1 78,1336.5137 L78,406.5137 A2.5,2.5 0 0 1 80.5,404.0137 " fill="none" style="stroke:#000000;stroke-width:1.5;"/><line style="stroke:#000000;stroke-width:1.5;" x1="78" x2="141.5723" y1="428.6348" y2="428.6348"/><text fill="#000000" font-family="sans-serif" font-size="14" font-weight="bold" lengthAdjust="spacing" textLength="50.5723" x="82" y="421.1211">Activity</text></g><!--cluster androidx--><g id="cluster_androidx"><path d="M2043.5,6.0137 L2103.6172,6.0137 A3.75,3.75 0 0 1 2106.1172,8.5137 L2113.1172,30.6348 L2316.5,30.6348 A2.5,2.5 0 0 1 2319,33.1348 L2319,242.5137 A2.5,2.5 0 0 1 2316.5,245.0137 L2043.5,245.0137 A2.5,2.5 0 0 1 2041,242.5137 L2041,8.5137 A2.5,2.5 0 0 1 2043.5,6.0137 " fill="none" style="stroke:#000000;stroke-width:1.5;"/><line style="stroke:#000000;stroke-width:1.5;" x1="2041" x2="2113.1172" y1="30.6348" y2="30.6348"/><text fill="#000000" font-family="sans-serif" font-size="14" font-weight="bold" lengthAdjust="spacing" textLength="59.1172" x="2045" y="23.1211">androidx</text></g><!--cluster appcompat--><g id="cluster_appcompat"><path d="M2067.5,51.0137 L2143.1758,51.0137 A3.75,3.75 0 0 1 2145.6758,53.5137 L2152.6758,75.6348 L2292.5,75.6348 A2.5,2.5 0 0 1 2295,78.1348 L2295,218.5137 A2.5,2.5 0 0 1 2292.5,221.0137 L2067.5,221.0137 A2.5,2.5 0 0 1 2065,218.5137 L2065,53.5137 A2.5,2.5 0 0 1 2067.5,51.0137 " fill="none" style="stroke:#000000;stroke-width:1.5;"/><line style="stroke:#000000;stroke-width:1.5;" x1="2065" x2="2152.6758" y1="75.6348" y2="75.6348"/><text fill="#000000" font-family="sans-serif" font-size="14" font-weight="bold" lengthAdjust="spacing" textLength="74.6758" x="2069" y="68.1211">appcompat</text></g><!--cluster app--><g id="cluster_app"><path d="M2091.5,96.0137 L2117.3896,96.0137 A3.75,3.75 0 0 1 2119.8896,98.5137 L2126.8896,120.6348 L2268.5,120.6348 A2.5,2.5 0 0 1 2271,123.1348 L2271,194.5137 A2.5,2.5 0 0 1 2268.5,197.0137 L2091.5,197.0137 A2.5,2.5 0 0 1 2089,194.5137 L2089,98.5137 A2.5,2.5 0 0 1 2091.5,96.0137 " fill="none" style="stroke:#000000;stroke-width:1.5;"/><line style="stroke:#000000;stroke-width:1.5;" x1="2089" x2="2126.8896" y1="120.6348" y2="120.6348"/><text fill="#000000" font-family="sans-serif" font-size="14" font-weight="bold" lengthAdjust="spacing" textLength="24.8896" x="2093" y="113.1211">app</text></g><!--class ProgressActivity--><g id="elem_ProgressActivity"><rect codeLine="1" fill="#F1F1F1" height="383.1797" id="ProgressActivity" rx="2.5" ry="2.5" style="stroke:#181818;stroke-width:0.5;" width="334.9639" x="1688.5" y="441.0137"/><ellipse cx="1801.5527" cy="457.0137" fill="#ADD1B2" rx="11" ry="11" style="stroke:#181818;stroke-width:1.0;"/><path d="M1804.3184,452.8887 Q1804.4746,452.6699 1804.6621,452.5605 Q1804.8496,452.4512 1805.0684,452.4512 Q1805.4434,452.4512 1805.6777,452.7168 Q1805.9121,452.9668 1805.9121,453.5762 L1805.9121,455.0293 Q1805.9121,455.6387 1805.6777,455.9043 Q1805.4434,456.1699 1805.0684,456.1699 Q1804.7246,456.1699 1804.5215,455.9668 Q1804.3184,455.7793 1804.209,455.2637 Q1804.1621,454.9043 1803.9746,454.7168 Q1803.6465,454.3418 1803.0371,454.123 Q1802.4277,453.9043 1801.8027,453.9043 Q1801.0371,453.9043 1800.3965,454.2324 Q1799.7715,454.5605 1799.2715,455.3105 Q1798.7871,456.0605 1798.7871,457.0918 L1798.7871,458.1855 Q1798.7871,459.4199 1799.6777,460.248 Q1800.5684,461.0605 1802.1621,461.0605 Q1803.0996,461.0605 1803.7559,460.8105 Q1804.1465,460.6543 1804.5684,460.2168 Q1804.834,459.9512 1804.9746,459.873 Q1805.1309,459.7949 1805.334,459.7949 Q1805.6621,459.7949 1805.9121,460.0605 Q1806.1777,460.3105 1806.1777,460.6543 Q1806.1777,460.998 1805.834,461.4043 Q1805.334,461.9824 1804.5371,462.3105 Q1803.459,462.7637 1802.1621,462.7637 Q1800.6465,462.7637 1799.4434,462.1387 Q1798.459,461.6387 1797.7715,460.5762 Q1797.084,459.498 1797.084,458.2168 L1797.084,457.0605 Q1797.084,455.7324 1797.6934,454.5918 Q1798.3184,453.4355 1799.4121,452.8262 Q1800.5059,452.2012 1801.7402,452.2012 Q1802.4746,452.2012 1803.1152,452.373 Q1803.7715,452.5293 1804.3184,452.8887 Z " fill="#000000"/><text fill="#000000" font-family="sans-serif" font-size="14" lengthAdjust="spacing" textLength="100.3584" x="1822.0527" y="462.8105">ProgressActivity</text><line style="stroke:#181818;stroke-width:0.5;" x1="1689.5" x2="2022.4639" y1="473.0137" y2="473.0137"/><rect fill="none" height="6" style="stroke:#C82930;stroke-width:1.0;" width="6" x="1696.5" y="484.8242"/><text fill="#000000" font-family="sans-serif" font-size="14" lengthAdjust="spacing" textLength="175.8477" x="1708.5" y="492.1211">ArrayList&lt;Meal&gt; weekMeals</text><rect fill="none" height="6" style="stroke:#C82930;stroke-width:1.0;" width="6" x="1696.5" y="503.4453"/><text fill="#000000" font-family="sans-serif" font-size="14" lengthAdjust="spacing" textLength="253.6338" x="1708.5" y="510.7422">ArrayList&lt;DaySummary&gt; daySummaries</text><rect fill="none" height="6" style="stroke:#C82930;stroke-width:1.0;" width="6" x="1696.5" y="522.0664"/><text fill="#000000" font-family="sans-serif" font-size="14" lengthAdjust="spacing" textLength="175.8545" x="1708.5" y="529.3633">LocalDate currentWeekStart</text><rect fill="none" height="6" style="stroke:#C82930;stroke-width:1.0;" width="6" x="1696.5" y="540.6875"/><text fill="#000000" font-family="sans-serif" font-size="14" lengthAdjust="spacing" textLength="94.165" x="1708.5" y="547.9844">Toolbar toolbar</text><rect fill="none" height="6" style="stroke:#C82930;stroke-width:1.0;" width="6" x="1696.5" y="559.3086"/><text fill="#000000" font-family="sans-serif" font-size="14" lengthAdjust="spacing" textLength="83.248" x="1708.5" y="566.6055">TextView title</text><rect fill="none" height="6" style="stroke:#C82930;stroke-width:1.0;" width="6" x="1696.5" y="577.9297"/><text fill="#000000" font-family="sans-serif" font-size="14" lengthAdjust="spacing" textLength="147.8613" x="1708.5" y="585.2266">ImageButton refreshBtn</text><rect fill="none" height="6" style="stroke:#C82930;stroke-width:1.0;" width="6" x="1696.5" y="596.5508"/><text fill="#000000" font-family="sans-serif" font-size="14" lengthAdjust="spacing" textLength="136.9648" x="1708.5" y="603.8477">ImageButton ExtraBtn</text><rect fill="none" height="6" style="stroke:#C82930;stroke-width:1.0;" width="6" x="1696.5" y="615.1719"/><text fill="#000000" font-family="sans-serif" font-size="14" lengthAdjust="spacing" textLength="151.71" x="1708.5" y="622.4688">TextView WeekDatesTV</text><rect fill="none" height="6" style="stroke:#C82930;stroke-width:1.0;" width="6" x="1696.5" y="633.793"/><text fill="#000000" font-family="sans-serif" font-size="14" lengthAdjust="spacing" textLength="161.8613" x="1708.5" y="641.0898">ImageButton lastWeekBtn</text><rect fill="none" height="6" style="stroke:#C82930;stroke-width:1.0;" width="6" x="1696.5" y="652.4141"/><text fill="#000000" font-family="sans-serif" font-size="14" lengthAdjust="spacing" textLength="166.5371" x="1708.5" y="659.7109">ImageButton nextWeekBtn</text><rect fill="none" height="6" style="stroke:#C82930;stroke-width:1.0;" width="6" x="1696.5" y="671.0352"/><text fill="#000000" font-family="sans-serif" font-size="14" lengthAdjust="spacing" textLength="145.4824" x="1708.5" y="678.332">RecyclerView mealsRV</text><rect fill="none" height="6" style="stroke:#C82930;stroke-width:1.0;" width="6" x="1696.5" y="689.6563"/><text fill="#000000" font-family="sans-serif" font-size="14" lengthAdjust="spacing" textLength="293.3848" x="1708.5" y="696.9531">SectionedRecyclerViewAdapter sectionAdapter</text><rect fill="none" height="6" style="stroke:#C82930;stroke-width:1.0;" width="6" x="1696.5" y="708.2773"/><text fill="#000000" font-family="sans-serif" font-size="14" lengthAdjust="spacing" textLength="253.6885" x="1708.5" y="715.5742">BottomNavigationView bottomNavigation</text><rect fill="none" height="6" style="stroke:#C82930;stroke-width:1.0;" width="6" x="1696.5" y="726.8984"/><text fill="#000000" font-family="sans-serif" font-size="14" lengthAdjust="spacing" textLength="287.1436" x="1708.5" y="734.1953">FragmentContainerView weekGraphContainer</text><rect fill="none" height="6" style="stroke:#C82930;stroke-width:1.0;" width="6" x="1696.5" y="745.5195"/><text fill="#000000" font-family="sans-serif" font-size="14" lengthAdjust="spacing" textLength="270.0127" x="1708.5" y="752.8164">TrendGraphFragment trendGraphFragment</text><rect fill="none" height="6" style="stroke:#C82930;stroke-width:1.0;" width="6" x="1696.5" y="764.1406"/><text fill="#000000" font-family="sans-serif" font-size="14" lengthAdjust="spacing" textLength="170.4268" x="1708.5" y="771.4375">SharedPreferences userSP</text><rect fill="none" height="6" style="stroke:#C82930;stroke-width:1.0;" width="6" x="1696.5" y="782.7617"/><text fill="#000000" font-family="sans-serif" font-size="14" lengthAdjust="spacing" textLength="266.0752" x="1708.5" y="790.0586">DailySummaryHelper dailySummaryHelper</text><rect fill="none" height="6" style="stroke:#C82930;stroke-width:1.0;" width="6" x="1696.5" y="801.3828"/><text fill="#000000" font-family="sans-serif" font-size="14" lengthAdjust="spacing" textLength="308.9639" x="1708.5" y="808.6797">ActivityResultLauncher&lt;Intent&gt; editMealLauncher</text><line style="stroke:#181818;stroke-width:0.5;" x1="1689.5" x2="2022.4639" y1="816.1934" y2="816.1934"/></g><!--class SignUpActivity--><g id="elem_SignUpActivity"><rect codeLine="22" fill="#F1F1F1" height="252.832" id="SignUpActivity" rx="2.5" ry="2.5" style="stroke:#181818;stroke-width:0.5;" width="228.3506" x="1425" y="506.0137"/><ellipse cx="1489.7979" cy="522.0137" fill="#ADD1B2" rx="11" ry="11" style="stroke:#181818;stroke-width:1.0;"/><path d="M1492.5635,517.8887 Q1492.7197,517.6699 1492.9072,517.5605 Q1493.0947,517.4512 1493.3135,517.4512 Q1493.6885,517.4512 1493.9229,517.7168 Q1494.1572,517.9668 1494.1572,518.5762 L1494.1572,520.0293 Q1494.1572,520.6387 1493.9229,520.9043 Q1493.6885,521.1699 1493.3135,521.1699 Q1492.9697,521.1699 1492.7666,520.9668 Q1492.5635,520.7793 1492.4541,520.2637 Q1492.4072,519.9043 1492.2197,519.7168 Q1491.8916,519.3418 1491.2822,519.123 Q1490.6729,518.9043 1490.0479,518.9043 Q1489.2822,518.9043 1488.6416,519.2324 Q1488.0166,519.5605 1487.5166,520.3105 Q1487.0322,521.0605 1487.0322,522.0918 L1487.0322,523.1855 Q1487.0322,524.4199 1487.9229,525.248 Q1488.8135,526.0605 1490.4072,526.0605 Q1491.3447,526.0605 1492.001,525.8105 Q1492.3916,525.6543 1492.8135,525.2168 Q1493.0791,524.9512 1493.2197,524.873 Q1493.376,524.7949 1493.5791,524.7949 Q1493.9072,524.7949 1494.1572,525.0605 Q1494.4229,525.3105 1494.4229,525.6543 Q1494.4229,525.998 1494.0791,526.4043 Q1493.5791,526.9824 1492.7822,527.3105 Q1491.7041,527.7637 1490.4072,527.7637 Q1488.8916,527.7637 1487.6885,527.1387 Q1486.7041,526.6387 1486.0166,525.5762 Q1485.3291,524.498 1485.3291,523.2168 L1485.3291,522.0605 Q1485.3291,520.7324 1485.9385,519.5918 Q1486.5635,518.4355 1487.6572,517.8262 Q1488.751,517.2012 1489.9854,517.2012 Q1490.7197,517.2012 1491.3604,517.373 Q1492.0166,517.5293 1492.5635,517.8887 Z " fill="#000000"/><text fill="#000000" font-family="sans-serif" font-size="14" lengthAdjust="spacing" textLength="90.2549" x="1510.2979" y="527.8105">SignUpActivity</text><line style="stroke:#181818;stroke-width:0.5;" x1="1426" x2="1652.3506" y1="538.0137" y2="538.0137"/><rect fill="none" height="6" style="stroke:#C82930;stroke-width:1.0;" width="6" x="1433" y="549.8242"/><text fill="#000000" font-family="sans-serif" font-size="14" lengthAdjust="spacing" textLength="108.1514" x="1445" y="557.1211">EditText nameET</text><rect fill="none" height="6" style="stroke:#C82930;stroke-width:1.0;" width="6" x="1433" y="568.4453"/><text fill="#000000" font-family="sans-serif" font-size="14" lengthAdjust="spacing" textLength="106.5859" x="1445" y="575.7422">EditText emailET</text><rect fill="none" height="6" style="stroke:#C82930;stroke-width:1.0;" width="6" x="1433" y="587.0664"/><text fill="#000000" font-family="sans-serif" font-size="14" lengthAdjust="spacing" textLength="112.0615" x="1445" y="594.3633">EditText phoneET</text><rect fill="none" height="6" style="stroke:#C82930;stroke-width:1.0;" width="6" x="1433" y="605.6875"/><text fill="#000000" font-family="sans-serif" font-size="14" lengthAdjust="spacing" textLength="98.8135" x="1445" y="612.9844">EditText pwdET</text><rect fill="none" height="6" style="stroke:#C82930;stroke-width:1.0;" width="6" x="1433" y="624.3086"/><text fill="#000000" font-family="sans-serif" font-size="14" lengthAdjust="spacing" textLength="128.3857" x="1445" y="631.6055">EditText pwdConfET</text><rect fill="none" height="6" style="stroke:#C82930;stroke-width:1.0;" width="6" x="1433" y="642.9297"/><text fill="#000000" font-family="sans-serif" font-size="14" lengthAdjust="spacing" textLength="108.958" x="1445" y="650.2266">Button signUpBtn</text><rect fill="none" height="6" style="stroke:#C82930;stroke-width:1.0;" width="6" x="1433" y="661.5508"/><text fill="#000000" font-family="sans-serif" font-size="14" lengthAdjust="spacing" textLength="112.0547" x="1445" y="668.8477">TextView loginBtn</text><rect fill="none" height="6" style="stroke:#C82930;stroke-width:1.0;" width="6" x="1433" y="680.1719"/><text fill="#000000" font-family="sans-serif" font-size="14" lengthAdjust="spacing" textLength="172.7783" x="1445" y="687.4688">ImageButton pwdToggleBtn</text><rect fill="none" height="6" style="stroke:#C82930;stroke-width:1.0;" width="6" x="1433" y="698.793"/><text fill="#000000" font-family="sans-serif" font-size="14" lengthAdjust="spacing" textLength="202.3506" x="1445" y="706.0898">ImageButton pwdConfToggleBtn</text><rect fill="none" height="6" style="stroke:#C82930;stroke-width:1.0;" width="6" x="1433" y="717.4141"/><text fill="#000000" font-family="sans-serif" font-size="14" lengthAdjust="spacing" textLength="60.6826" x="1445" y="724.7109">User user</text><rect fill="none" height="6" style="stroke:#C82930;stroke-width:1.0;" width="6" x="1433" y="736.0352"/><text fill="#000000" font-family="sans-serif" font-size="14" lengthAdjust="spacing" textLength="161.875" x="1445" y="743.332">DatabaseHelper dbHelper</text><line style="stroke:#181818;stroke-width:0.5;" x1="1426" x2="1652.3506" y1="750.8457" y2="750.8457"/></g><!--class LoginActivity--><g id="elem_LoginActivity"><rect codeLine="36" fill="#F1F1F1" height="178.3477" id="LoginActivity" rx="2.5" ry="2.5" style="stroke:#181818;stroke-width:0.5;" width="196.3857" x="2059" y="543.5137"/><ellipse cx="2113.6465" cy="559.5137" fill="#ADD1B2" rx="11" ry="11" style="stroke:#181818;stroke-width:1.0;"/><path d="M2116.4121,555.3887 Q2116.5684,555.1699 2116.7559,555.0605 Q2116.9434,554.9512 2117.1621,554.9512 Q2117.5371,554.9512 2117.7715,555.2168 Q2118.0059,555.4668 2118.0059,556.0762 L2118.0059,557.5293 Q2118.0059,558.1387 2117.7715,558.4043 Q2117.5371,558.6699 2117.1621,558.6699 Q2116.8184,558.6699 2116.6152,558.4668 Q2116.4121,558.2793 2116.3027,557.7637 Q2116.2559,557.4043 2116.0684,557.2168 Q2115.7402,556.8418 2115.1309,556.623 Q2114.5215,556.4043 2113.8965,556.4043 Q2113.1309,556.4043 2112.4902,556.7324 Q2111.8652,557.0605 2111.3652,557.8105 Q2110.8809,558.5605 2110.8809,559.5918 L2110.8809,560.6855 Q2110.8809,561.9199 2111.7715,562.748 Q2112.6621,563.5605 2114.2559,563.5605 Q2115.1934,563.5605 2115.8496,563.3105 Q2116.2402,563.1543 2116.6621,562.7168 Q2116.9277,562.4512 2117.0684,562.373 Q2117.2246,562.2949 2117.4277,562.2949 Q2117.7559,562.2949 2118.0059,562.5605 Q2118.2715,562.8105 2118.2715,563.1543 Q2118.2715,563.498 2117.9277,563.9043 Q2117.4277,564.4824 2116.6309,564.8105 Q2115.5527,565.2637 2114.2559,565.2637 Q2112.7402,565.2637 2111.5371,564.6387 Q2110.5527,564.1387 2109.8652,563.0762 Q2109.1777,561.998 2109.1777,560.7168 L2109.1777,559.5605 Q2109.1777,558.2324 2109.7871,557.0918 Q2110.4121,555.9355 2111.5059,555.3262 Q2112.5996,554.7012 2113.834,554.7012 Q2114.5684,554.7012 2115.209,554.873 Q2115.8652,555.0293 2116.4121,555.3887 Z " fill="#000000"/><text fill="#000000" font-family="sans-serif" font-size="14" lengthAdjust="spacing" textLength="78.5928" x="2134.1465" y="565.3105">LoginActivity</text><line style="stroke:#181818;stroke-width:0.5;" x1="2060" x2="2254.3857" y1="575.5137" y2="575.5137"/><rect fill="none" height="6" style="stroke:#C82930;stroke-width:1.0;" width="6" x="2067" y="587.3242"/><text fill="#000000" font-family="sans-serif" font-size="14" lengthAdjust="spacing" textLength="106.5859" x="2079" y="594.6211">EditText emailET</text><rect fill="none" height="6" style="stroke:#C82930;stroke-width:1.0;" width="6" x="2067" y="605.9453"/><text fill="#000000" font-family="sans-serif" font-size="14" lengthAdjust="spacing" textLength="98.8135" x="2079" y="613.2422">EditText pwdET</text><rect fill="none" height="6" style="stroke:#C82930;stroke-width:1.0;" width="6" x="2067" y="624.5664"/><text fill="#000000" font-family="sans-serif" font-size="14" lengthAdjust="spacing" textLength="94.958" x="2079" y="631.8633">Button loginBtn</text><rect fill="none" height="6" style="stroke:#C82930;stroke-width:1.0;" width="6" x="2067" y="643.1875"/><text fill="#000000" font-family="sans-serif" font-size="14" lengthAdjust="spacing" textLength="170.3857" x="2079" y="650.4844">CheckBox rememberMeCB</text><rect fill="none" height="6" style="stroke:#C82930;stroke-width:1.0;" width="6" x="2067" y="661.8086"/><text fill="#000000" font-family="sans-serif" font-size="14" lengthAdjust="spacing" textLength="126.0547" x="2079" y="669.1055">TextView signUpBtn</text><rect fill="none" height="6" style="stroke:#C82930;stroke-width:1.0;" width="6" x="2067" y="680.4297"/><text fill="#000000" font-family="sans-serif" font-size="14" lengthAdjust="spacing" textLength="142.4336" x="2079" y="687.7266">ImageButton toggleBtn</text><rect fill="none" height="6" style="stroke:#C82930;stroke-width:1.0;" width="6" x="2067" y="699.0508"/><text fill="#000000" font-family="sans-serif" font-size="14" lengthAdjust="spacing" textLength="161.875" x="2079" y="706.3477">DatabaseHelper dbHelper</text><line style="stroke:#181818;stroke-width:0.5;" x1="2060" x2="2254.3857" y1="713.8613" y2="713.8613"/></g><!--class HomeDashboardActivity--><g id="elem_HomeDashboardActivity"><rect codeLine="46" fill="#F1F1F1" height="420.4219" id="HomeDashboardActivity" rx="2.5" ry="2.5" style="stroke:#181818;stroke-width:0.5;" width="326.3643" x="1120" y="893.5137"/><ellipse cx="1203.8462" cy="909.5137" fill="#ADD1B2" rx="11" ry="11" style="stroke:#181818;stroke-width:1.0;"/><path d="M1206.6118,905.3887 Q1206.7681,905.1699 1206.9556,905.0605 Q1207.1431,904.9512 1207.3618,904.9512 Q1207.7368,904.9512 1207.9712,905.2168 Q1208.2056,905.4668 1208.2056,906.0762 L1208.2056,907.5293 Q1208.2056,908.1387 1207.9712,908.4043 Q1207.7368,908.6699 1207.3618,908.6699 Q1207.0181,908.6699 1206.8149,908.4668 Q1206.6118,908.2793 1206.5024,907.7637 Q1206.4556,907.4043 1206.2681,907.2168 Q1205.9399,906.8418 1205.3306,906.623 Q1204.7212,906.4043 1204.0962,906.4043 Q1203.3306,906.4043 1202.6899,906.7324 Q1202.0649,907.0605 1201.5649,907.8105 Q1201.0806,908.5605 1201.0806,909.5918 L1201.0806,910.6855 Q1201.0806,911.9199 1201.9712,912.748 Q1202.8618,913.5605 1204.4556,913.5605 Q1205.3931,913.5605 1206.0493,913.3105 Q1206.4399,913.1543 1206.8618,912.7168 Q1207.1274,912.4512 1207.2681,912.373 Q1207.4243,912.2949 1207.6274,912.2949 Q1207.9556,912.2949 1208.2056,912.5605 Q1208.4712,912.8105 1208.4712,913.1543 Q1208.4712,913.498 1208.1274,913.9043 Q1207.6274,914.4824 1206.8306,914.8105 Q1205.7524,915.2637 1204.4556,915.2637 Q1202.9399,915.2637 1201.7368,914.6387 Q1200.7524,914.1387 1200.0649,913.0762 Q1199.3774,911.998 1199.3774,910.7168 L1199.3774,909.5605 Q1199.3774,908.2324 1199.9868,907.0918 Q1200.6118,905.9355 1201.7056,905.3262 Q1202.7993,904.7012 1204.0337,904.7012 Q1204.7681,904.7012 1205.4087,904.873 Q1206.0649,905.0293 1206.6118,905.3887 Z " fill="#000000"/><text fill="#000000" font-family="sans-serif" font-size="14" lengthAdjust="spacing" textLength="150.1719" x="1224.3462" y="915.3105">HomeDashboardActivity</text><line style="stroke:#181818;stroke-width:0.5;" x1="1121" x2="1445.3643" y1="925.5137" y2="925.5137"/><rect fill="none" height="6" style="stroke:#C82930;stroke-width:1.0;" width="6" x="1128" y="937.3242"/><text fill="#000000" font-family="sans-serif" font-size="14" lengthAdjust="spacing" textLength="270.7988" x="1140" y="944.6211">FragmentContainerView fragmentContainer</text><rect fill="none" height="6" style="stroke:#C82930;stroke-width:1.0;" width="6" x="1128" y="955.9453"/><text fill="#000000" font-family="sans-serif" font-size="14" lengthAdjust="spacing" textLength="253.6885" x="1140" y="963.2422">BottomNavigationView bottomNavigation</text><rect fill="none" height="6" style="stroke:#C82930;stroke-width:1.0;" width="6" x="1128" y="974.5664"/><text fill="#000000" font-family="sans-serif" font-size="14" lengthAdjust="spacing" textLength="140.0752" x="1140" y="981.8633">LocalDate currentDate</text><rect fill="none" height="6" style="stroke:#C82930;stroke-width:1.0;" width="6" x="1128" y="993.1875"/><text fill="#000000" font-family="sans-serif" font-size="14" lengthAdjust="spacing" textLength="171.1514" x="1140" y="1000.4844">DaySummary daySummary</text><rect fill="none" height="6" style="stroke:#C82930;stroke-width:1.0;" width="6" x="1128" y="1011.8086"/><text fill="#000000" font-family="sans-serif" font-size="14" lengthAdjust="spacing" textLength="266.0752" x="1140" y="1019.1055">DailySummaryHelper dailySummaryHelper</text><rect fill="none" height="6" style="stroke:#C82930;stroke-width:1.0;" width="6" x="1128" y="1030.4297"/><text fill="#000000" font-family="sans-serif" font-size="14" lengthAdjust="spacing" textLength="204.6611" x="1140" y="1037.7266">WaterLogHelper waterLogHelper</text><rect fill="none" height="6" style="stroke:#C82930;stroke-width:1.0;" width="6" x="1128" y="1049.0508"/><text fill="#000000" font-family="sans-serif" font-size="14" lengthAdjust="spacing" textLength="189.8682" x="1140" y="1056.3477">UserInfoHelper userInfoHelper</text><rect fill="none" height="6" style="stroke:#C82930;stroke-width:1.0;" width="6" x="1128" y="1067.6719"/><text fill="#000000" font-family="sans-serif" font-size="14" lengthAdjust="spacing" textLength="83.248" x="1140" y="1074.9688">TextView title</text><rect fill="none" height="6" style="stroke:#C82930;stroke-width:1.0;" width="6" x="1128" y="1086.293"/><text fill="#000000" font-family="sans-serif" font-size="14" lengthAdjust="spacing" textLength="130.751" x="1140" y="1093.5898">ImageButton nextBtn</text><rect fill="none" height="6" style="stroke:#C82930;stroke-width:1.0;" width="6" x="1128" y="1104.9141"/><text fill="#000000" font-family="sans-serif" font-size="14" lengthAdjust="spacing" textLength="131.5234" x="1140" y="1112.2109">ImageButton prevBtn</text><rect fill="none" height="6" style="stroke:#C82930;stroke-width:1.0;" width="6" x="1128" y="1123.5352"/><text fill="#000000" font-family="sans-serif" font-size="14" lengthAdjust="spacing" textLength="300.3643" x="1140" y="1130.832">FragmentContainerView dailyProgressContainer</text><rect fill="none" height="6" style="stroke:#C82930;stroke-width:1.0;" width="6" x="1128" y="1142.1563"/><text fill="#000000" font-family="sans-serif" font-size="14" lengthAdjust="spacing" textLength="161.875" x="1140" y="1149.4531">LinearLayout logWaterBtn</text><rect fill="none" height="6" style="stroke:#C82930;stroke-width:1.0;" width="6" x="1128" y="1160.7773"/><text fill="#000000" font-family="sans-serif" font-size="14" lengthAdjust="spacing" textLength="154.8818" x="1140" y="1168.0742">LinearLayout logMealBtn</text><rect fill="none" height="6" style="stroke:#C82930;stroke-width:1.0;" width="6" x="1128" y="1179.3984"/><text fill="#000000" font-family="sans-serif" font-size="14" lengthAdjust="spacing" textLength="168.1094" x="1140" y="1186.6953">LinearLayout logWeightBtn</text><rect fill="none" height="6" style="stroke:#C82930;stroke-width:1.0;" width="6" x="1128" y="1198.0195"/><text fill="#000000" font-family="sans-serif" font-size="14" lengthAdjust="spacing" textLength="142.4199" x="1140" y="1205.3164">ImageButton profileBtn</text><rect fill="none" height="6" style="stroke:#C82930;stroke-width:1.0;" width="6" x="1128" y="1216.6406"/><text fill="#000000" font-family="sans-serif" font-size="14" lengthAdjust="spacing" textLength="171.2197" x="1140" y="1223.9375">ImageButton notificationBtn</text><rect fill="none" height="6" style="stroke:#C82930;stroke-width:1.0;" width="6" x="1128" y="1235.2617"/><text fill="#000000" font-family="sans-serif" font-size="14" lengthAdjust="spacing" textLength="141.627" x="1140" y="1242.5586">TextView goalIndicator</text><rect fill="none" height="6" style="stroke:#C82930;stroke-width:1.0;" width="6" x="1128" y="1253.8828"/><text fill="#000000" font-family="sans-serif" font-size="14" lengthAdjust="spacing" textLength="179.7715" x="1140" y="1261.1797">ImageView goalIndicatorIcon</text><rect fill="none" height="6" style="stroke:#C82930;stroke-width:1.0;" width="6" x="1128" y="1272.5039"/><text fill="#000000" font-family="sans-serif" font-size="14" lengthAdjust="spacing" textLength="192.2061" x="1140" y="1279.8008">TextView weightProgressLabel</text><rect fill="none" height="6" style="stroke:#C82930;stroke-width:1.0;" width="6" x="1128" y="1291.125"/><text fill="#000000" font-family="sans-serif" font-size="14" lengthAdjust="spacing" textLength="193.7578" x="1140" y="1298.4219">TextView weightProgressValue</text><line style="stroke:#181818;stroke-width:0.5;" x1="1121" x2="1445.3643" y1="1305.9355" y2="1305.9355"/></g><!--class MealLogActivity--><g id="elem_MealLogActivity"><rect codeLine="69" fill="#F1F1F1" height="439.043" id="MealLogActivity" rx="2.5" ry="2.5" style="stroke:#181818;stroke-width:0.5;" width="352.0605" x="448" y="884.0137"/><ellipse cx="570.7598" cy="900.0137" fill="#ADD1B2" rx="11" ry="11" style="stroke:#181818;stroke-width:1.0;"/><path d="M573.5254,895.8887 Q573.6816,895.6699 573.8691,895.5605 Q574.0566,895.4512 574.2754,895.4512 Q574.6504,895.4512 574.8848,895.7168 Q575.1191,895.9668 575.1191,896.5762 L575.1191,898.0293 Q575.1191,898.6387 574.8848,898.9043 Q574.6504,899.1699 574.2754,899.1699 Q573.9316,899.1699 573.7285,898.9668 Q573.5254,898.7793 573.416,898.2637 Q573.3691,897.9043 573.1816,897.7168 Q572.8535,897.3418 572.2441,897.123 Q571.6348,896.9043 571.0098,896.9043 Q570.2441,896.9043 569.6035,897.2324 Q568.9785,897.5605 568.4785,898.3105 Q567.9941,899.0605 567.9941,900.0918 L567.9941,901.1855 Q567.9941,902.4199 568.8848,903.248 Q569.7754,904.0605 571.3691,904.0605 Q572.3066,904.0605 572.9629,903.8105 Q573.3535,903.6543 573.7754,903.2168 Q574.041,902.9512 574.1816,902.873 Q574.3379,902.7949 574.541,902.7949 Q574.8691,902.7949 575.1191,903.0605 Q575.3848,903.3105 575.3848,903.6543 Q575.3848,903.998 575.041,904.4043 Q574.541,904.9824 573.7441,905.3105 Q572.666,905.7637 571.3691,905.7637 Q569.8535,905.7637 568.6504,905.1387 Q567.666,904.6387 566.9785,903.5762 Q566.291,902.498 566.291,901.2168 L566.291,900.0605 Q566.291,898.7324 566.9004,897.5918 Q567.5254,896.4355 568.6191,895.8262 Q569.7129,895.2012 570.9473,895.2012 Q571.6816,895.2012 572.3223,895.373 Q572.9785,895.5293 573.5254,895.8887 Z " fill="#000000"/><text fill="#000000" font-family="sans-serif" font-size="14" lengthAdjust="spacing" textLength="98.041" x="591.2598" y="905.8105">MealLogActivity</text><line style="stroke:#181818;stroke-width:0.5;" x1="449" x2="799.0605" y1="916.0137" y2="916.0137"/><rect fill="none" height="6" style="stroke:#C82930;stroke-width:1.0;" width="6" x="456" y="927.8242"/><text fill="#000000" font-family="sans-serif" font-size="14" lengthAdjust="spacing" textLength="64.5791" x="468" y="935.1211">Meal meal</text><rect fill="none" height="6" style="stroke:#C82930;stroke-width:1.0;" width="6" x="456" y="946.4453"/><text fill="#000000" font-family="sans-serif" font-size="14" lengthAdjust="spacing" textLength="176.6406" x="468" y="953.7422">ArrayList&lt;Food&gt; mealFoods</text><rect fill="none" height="6" style="stroke:#C82930;stroke-width:1.0;" width="6" x="456" y="965.0664"/><text fill="#000000" font-family="sans-serif" font-size="14" lengthAdjust="spacing" textLength="126.8477" x="468" y="972.3633">LocalDate mealDate</text><rect fill="none" height="6" style="stroke:#C82930;stroke-width:1.0;" width="6" x="456" y="983.6875"/><text fill="#000000" font-family="sans-serif" font-size="14" lengthAdjust="spacing" textLength="129.9238" x="468" y="990.9844">LocalTime mealTime</text><rect fill="none" height="6" style="stroke:#C82930;stroke-width:1.0;" width="6" x="456" y="1002.3086"/><text fill="#000000" font-family="sans-serif" font-size="14" lengthAdjust="spacing" textLength="115.1855" x="468" y="1009.6055">LocalDate oldDate</text><rect fill="none" height="6" style="stroke:#C82930;stroke-width:1.0;" width="6" x="456" y="1020.9297"/><text fill="#000000" font-family="sans-serif" font-size="14" lengthAdjust="spacing" textLength="83.248" x="468" y="1028.2266">TextView title</text><rect fill="none" height="6" style="stroke:#C82930;stroke-width:1.0;" width="6" x="456" y="1039.5508"/><text fill="#000000" font-family="sans-serif" font-size="14" lengthAdjust="spacing" textLength="170.3789" x="468" y="1046.8477">TextView mealDateTimeTV</text><rect fill="none" height="6" style="stroke:#C82930;stroke-width:1.0;" width="6" x="456" y="1058.1719"/><text fill="#000000" font-family="sans-serif" font-size="14" lengthAdjust="spacing" textLength="133.8613" x="468" y="1065.4688">ImageButton backBtn</text><rect fill="none" height="6" style="stroke:#C82930;stroke-width:1.0;" width="6" x="456" y="1076.793"/><text fill="#000000" font-family="sans-serif" font-size="14" lengthAdjust="spacing" textLength="170.4336" x="468" y="1084.0898">ImageButton datePickerBtn</text><rect fill="none" height="6" style="stroke:#C82930;stroke-width:1.0;" width="6" x="456" y="1095.4141"/><text fill="#000000" font-family="sans-serif" font-size="14" lengthAdjust="spacing" textLength="136.9375" x="468" y="1102.7109">EditText searchBarET</text><rect fill="none" height="6" style="stroke:#C82930;stroke-width:1.0;" width="6" x="456" y="1114.0352"/><text fill="#000000" font-family="sans-serif" font-size="14" lengthAdjust="spacing" textLength="134.6338" x="468" y="1121.332">ImageButton clearBtn</text><rect fill="none" height="6" style="stroke:#C82930;stroke-width:1.0;" width="6" x="456" y="1132.6563"/><text fill="#000000" font-family="sans-serif" font-size="14" lengthAdjust="spacing" textLength="304.2539" x="468" y="1139.9531">FragmentContainerView searchResultsContainer</text><rect fill="none" height="6" style="stroke:#C82930;stroke-width:1.0;" width="6" x="456" y="1151.2773"/><text fill="#000000" font-family="sans-serif" font-size="14" lengthAdjust="spacing" textLength="300.3643" x="468" y="1158.5742">FragmentContainerView dailyProgressContainer</text><rect fill="none" height="6" style="stroke:#C82930;stroke-width:1.0;" width="6" x="456" y="1169.8984"/><text fill="#000000" font-family="sans-serif" font-size="14" lengthAdjust="spacing" textLength="306.6055" x="468" y="1177.1953">FragmentContainerView selectedFoodsContainer</text><rect fill="none" height="6" style="stroke:#C82930;stroke-width:1.0;" width="6" x="456" y="1188.5195"/><text fill="#000000" font-family="sans-serif" font-size="14" lengthAdjust="spacing" textLength="326.0605" x="468" y="1195.8164">FragmentContainerView foodInfoFragmentContainer</text><rect fill="none" height="6" style="stroke:#C82930;stroke-width:1.0;" width="6" x="456" y="1207.1406"/><text fill="#000000" font-family="sans-serif" font-size="14" lengthAdjust="spacing" textLength="308.1572" x="468" y="1214.4375">SelectedFoodsFragment selectedFoodsFragment</text><rect fill="none" height="6" style="stroke:#C82930;stroke-width:1.0;" width="6" x="456" y="1225.7617"/><text fill="#000000" font-family="sans-serif" font-size="14" lengthAdjust="spacing" textLength="229.5713" x="468" y="1233.0586">FoodInfoFragment foodInfoFragment</text><rect fill="none" height="6" style="stroke:#C82930;stroke-width:1.0;" width="6" x="456" y="1244.3828"/><text fill="#000000" font-family="sans-serif" font-size="14" lengthAdjust="spacing" textLength="107.3789" x="468" y="1251.6797">EditText notesET</text><rect fill="none" height="6" style="stroke:#C82930;stroke-width:1.0;" width="6" x="456" y="1263.0039"/><text fill="#000000" font-family="sans-serif" font-size="14" lengthAdjust="spacing" textLength="114.4063" x="468" y="1270.3008">Button logMealBtn</text><rect fill="none" height="6" style="stroke:#C82930;stroke-width:1.0;" width="6" x="456" y="1281.625"/><text fill="#000000" font-family="sans-serif" font-size="14" lengthAdjust="spacing" textLength="284.0332" x="468" y="1288.9219">BottomNavigationView bottomNavigationView</text><rect fill="none" height="6" style="stroke:#C82930;stroke-width:1.0;" width="6" x="456" y="1300.2461"/><text fill="#000000" font-family="sans-serif" font-size="14" lengthAdjust="spacing" textLength="123.7578" x="468" y="1307.543">boolean inEditMode</text><line style="stroke:#181818;stroke-width:0.5;" x1="449" x2="799.0605" y1="1315.0566" y2="1315.0566"/></g><!--class ProfileActivity--><g id="elem_ProfileActivity"><rect codeLine="93" fill="#F1F1F1" height="327.3164" id="ProfileActivity" rx="2.5" ry="2.5" style="stroke:#181818;stroke-width:0.5;" width="292.1367" x="1722" y="940.0137"/><ellipse cx="1821.8081" cy="956.0137" fill="#ADD1B2" rx="11" ry="11" style="stroke:#181818;stroke-width:1.0;"/><path d="M1824.5737,951.8887 Q1824.73,951.6699 1824.9175,951.5605 Q1825.105,951.4512 1825.3237,951.4512 Q1825.6987,951.4512 1825.9331,951.7168 Q1826.1675,951.9668 1826.1675,952.5762 L1826.1675,954.0293 Q1826.1675,954.6387 1825.9331,954.9043 Q1825.6987,955.1699 1825.3237,955.1699 Q1824.98,955.1699 1824.7769,954.9668 Q1824.5737,954.7793 1824.4644,954.2637 Q1824.4175,953.9043 1824.23,953.7168 Q1823.9019,953.3418 1823.2925,953.123 Q1822.6831,952.9043 1822.0581,952.9043 Q1821.2925,952.9043 1820.6519,953.2324 Q1820.0269,953.5605 1819.5269,954.3105 Q1819.0425,955.0605 1819.0425,956.0918 L1819.0425,957.1855 Q1819.0425,958.4199 1819.9331,959.248 Q1820.8237,960.0605 1822.4175,960.0605 Q1823.355,960.0605 1824.0112,959.8105 Q1824.4019,959.6543 1824.8237,959.2168 Q1825.0894,958.9512 1825.23,958.873 Q1825.3862,958.7949 1825.5894,958.7949 Q1825.9175,958.7949 1826.1675,959.0605 Q1826.4331,959.3105 1826.4331,959.6543 Q1826.4331,959.998 1826.0894,960.4043 Q1825.5894,960.9824 1824.7925,961.3105 Q1823.7144,961.7637 1822.4175,961.7637 Q1820.9019,961.7637 1819.6987,961.1387 Q1818.7144,960.6387 1818.0269,959.5762 Q1817.3394,958.498 1817.3394,957.2168 L1817.3394,956.0605 Q1817.3394,954.7324 1817.9487,953.5918 Q1818.5737,952.4355 1819.6675,951.8262 Q1820.7612,951.2012 1821.9956,951.2012 Q1822.73,951.2012 1823.3706,951.373 Q1824.0269,951.5293 1824.5737,951.8887 Z " fill="#000000"/><text fill="#000000" font-family="sans-serif" font-size="14" lengthAdjust="spacing" textLength="84.0205" x="1842.3081" y="961.8105">ProfileActivity</text><line style="stroke:#181818;stroke-width:0.5;" x1="1723" x2="2013.1367" y1="972.0137" y2="972.0137"/><rect fill="none" height="6" style="stroke:#C82930;stroke-width:1.0;" width="6" x="1730" y="983.8242"/><text fill="#000000" font-family="sans-serif" font-size="14" lengthAdjust="spacing" textLength="123.7305" x="1742" y="991.1211">ImageView backBtn</text><rect fill="none" height="6" style="stroke:#C82930;stroke-width:1.0;" width="6" x="1730" y="1002.4453"/><text fill="#000000" font-family="sans-serif" font-size="14" lengthAdjust="spacing" textLength="83.248" x="1742" y="1009.7422">TextView title</text><rect fill="none" height="6" style="stroke:#C82930;stroke-width:1.0;" width="6" x="1730" y="1021.0664"/><text fill="#000000" font-family="sans-serif" font-size="14" lengthAdjust="spacing" textLength="168.0752" x="1742" y="1028.3633">ImageView profilePictureIV</text><rect fill="none" height="6" style="stroke:#C82930;stroke-width:1.0;" width="6" x="1730" y="1039.6875"/><text fill="#000000" font-family="sans-serif" font-size="14" lengthAdjust="spacing" textLength="114.3721" x="1742" y="1046.9844">TextView nameTV</text><rect fill="none" height="6" style="stroke:#C82930;stroke-width:1.0;" width="6" x="1730" y="1058.3086"/><text fill="#000000" font-family="sans-serif" font-size="14" lengthAdjust="spacing" textLength="102.71" x="1742" y="1065.6055">TextView ageTV</text><rect fill="none" height="6" style="stroke:#C82930;stroke-width:1.0;" width="6" x="1730" y="1076.9297"/><text fill="#000000" font-family="sans-serif" font-size="14" lengthAdjust="spacing" textLength="105.8203" x="1742" y="1084.2266">TextView goalTV</text><rect fill="none" height="6" style="stroke:#C82930;stroke-width:1.0;" width="6" x="1730" y="1095.5508"/><text fill="#000000" font-family="sans-serif" font-size="14" lengthAdjust="spacing" textLength="206.2471" x="1742" y="1102.8477">LinearLayout targetWeightLayout</text><rect fill="none" height="6" style="stroke:#C82930;stroke-width:1.0;" width="6" x="1730" y="1114.1719"/><text fill="#000000" font-family="sans-serif" font-size="14" lengthAdjust="spacing" textLength="158.7236" x="1742" y="1121.4688">TextView targetWeightTV</text><rect fill="none" height="6" style="stroke:#C82930;stroke-width:1.0;" width="6" x="1730" y="1132.793"/><text fill="#000000" font-family="sans-serif" font-size="14" lengthAdjust="spacing" textLength="136.1514" x="1742" y="1140.0898">TextView startDateTV</text><rect fill="none" height="6" style="stroke:#C82930;stroke-width:1.0;" width="6" x="1730" y="1151.4141"/><text fill="#000000" font-family="sans-serif" font-size="14" lengthAdjust="spacing" textLength="203.9297" x="1742" y="1158.7109">LinearLayout personalInfoLayout</text><rect fill="none" height="6" style="stroke:#C82930;stroke-width:1.0;" width="6" x="1730" y="1170.0352"/><text fill="#000000" font-family="sans-serif" font-size="14" lengthAdjust="spacing" textLength="218.7021" x="1742" y="1177.332">LinearLayout accountDetailsLayout</text><rect fill="none" height="6" style="stroke:#C82930;stroke-width:1.0;" width="6" x="1730" y="1188.6563"/><text fill="#000000" font-family="sans-serif" font-size="14" lengthAdjust="spacing" textLength="203.1299" x="1742" y="1195.9531">LinearLayout lifestyleGoalLayout</text><rect fill="none" height="6" style="stroke:#C82930;stroke-width:1.0;" width="6" x="1730" y="1207.2773"/><text fill="#000000" font-family="sans-serif" font-size="14" lengthAdjust="spacing" textLength="223.3779" x="1742" y="1214.5742">LinearLayout goalAdjustmentLayout</text><rect fill="none" height="6" style="stroke:#C82930;stroke-width:1.0;" width="6" x="1730" y="1225.8984"/><text fill="#000000" font-family="sans-serif" font-size="14" lengthAdjust="spacing" textLength="266.1367" x="1742" y="1233.1953">FragmentContainerView userInfoContainer</text><rect fill="none" height="6" style="stroke:#C82930;stroke-width:1.0;" width="6" x="1730" y="1244.5195"/><text fill="#000000" font-family="sans-serif" font-size="14" lengthAdjust="spacing" textLength="106.627" x="1742" y="1251.8164">Button logOutBtn</text><line style="stroke:#181818;stroke-width:0.5;" x1="1723" x2="2013.1367" y1="1259.3301" y2="1259.3301"/></g><!--class OnUserInfoFragmentListener--><g id="elem_OnUserInfoFragmentListener"><rect fill="#F1F1F1" height="48" id="OnUserInfoFragmentListener" rx="2.5" ry="2.5" style="stroke:#181818;stroke-width:0.5;" width="213.3027" x="1176.5" y="608.5137"/><ellipse cx="1191.5" cy="624.5137" fill="#ADD1B2" rx="11" ry="11" style="stroke:#181818;stroke-width:1.0;"/><path d="M1194.2656,620.3887 Q1194.4219,620.1699 1194.6094,620.0605 Q1194.7969,619.9512 1195.0156,619.9512 Q1195.3906,619.9512 1195.625,620.2168 Q1195.8594,620.4668 1195.8594,621.0762 L1195.8594,622.5293 Q1195.8594,623.1387 1195.625,623.4043 Q1195.3906,623.6699 1195.0156,623.6699 Q1194.6719,623.6699 1194.4688,623.4668 Q1194.2656,623.2793 1194.1563,622.7637 Q1194.1094,622.4043 1193.9219,622.2168 Q1193.5938,621.8418 1192.9844,621.623 Q1192.375,621.4043 1191.75,621.4043 Q1190.9844,621.4043 1190.3438,621.7324 Q1189.7188,622.0605 1189.2188,622.8105 Q1188.7344,623.5605 1188.7344,624.5918 L1188.7344,625.6855 Q1188.7344,626.9199 1189.625,627.748 Q1190.5156,628.5605 1192.1094,628.5605 Q1193.0469,628.5605 1193.7031,628.3105 Q1194.0938,628.1543 1194.5156,627.7168 Q1194.7813,627.4512 1194.9219,627.373 Q1195.0781,627.2949 1195.2813,627.2949 Q1195.6094,627.2949 1195.8594,627.5605 Q1196.125,627.8105 1196.125,628.1543 Q1196.125,628.498 1195.7813,628.9043 Q1195.2813,629.4824 1194.4844,629.8105 Q1193.4063,630.2637 1192.1094,630.2637 Q1190.5938,630.2637 1189.3906,629.6387 Q1188.4063,629.1387 1187.7188,628.0762 Q1187.0313,626.998 1187.0313,625.7168 L1187.0313,624.5605 Q1187.0313,623.2324 1187.6406,622.0918 Q1188.2656,620.9355 1189.3594,620.3262 Q1190.4531,619.7012 1191.6875,619.7012 Q1192.4219,619.7012 1193.0625,619.873 Q1193.7188,620.0293 1194.2656,620.3887 Z " fill="#000000"/><text fill="#000000" font-family="sans-serif" font-size="14" lengthAdjust="spacing" textLength="181.3027" x="1205.5" y="630.3105">OnUserInfoFragmentListener</text><line style="stroke:#181818;stroke-width:0.5;" x1="1177.5" x2="1388.8027" y1="640.5137" y2="640.5137"/><line style="stroke:#181818;stroke-width:0.5;" x1="1177.5" x2="1388.8027" y1="648.5137" y2="648.5137"/></g><!--class OnNotificationSettingsListener--><g id="elem_OnNotificationSettingsListener"><rect fill="#F1F1F1" height="48" id="OnNotificationSettingsListener" rx="2.5" ry="2.5" style="stroke:#181818;stroke-width:0.5;" width="220.3232" x="921" y="608.5137"/><ellipse cx="936" cy="624.5137" fill="#ADD1B2" rx="11" ry="11" style="stroke:#181818;stroke-width:1.0;"/><path d="M938.7656,620.3887 Q938.9219,620.1699 939.1094,620.0605 Q939.2969,619.9512 939.5156,619.9512 Q939.8906,619.9512 940.125,620.2168 Q940.3594,620.4668 940.3594,621.0762 L940.3594,622.5293 Q940.3594,623.1387 940.125,623.4043 Q939.8906,623.6699 939.5156,623.6699 Q939.1719,623.6699 938.9688,623.4668 Q938.7656,623.2793 938.6563,622.7637 Q938.6094,622.4043 938.4219,622.2168 Q938.0938,621.8418 937.4844,621.623 Q936.875,621.4043 936.25,621.4043 Q935.4844,621.4043 934.8438,621.7324 Q934.2188,622.0605 933.7188,622.8105 Q933.2344,623.5605 933.2344,624.5918 L933.2344,625.6855 Q933.2344,626.9199 934.125,627.748 Q935.0156,628.5605 936.6094,628.5605 Q937.5469,628.5605 938.2031,628.3105 Q938.5938,628.1543 939.0156,627.7168 Q939.2813,627.4512 939.4219,627.373 Q939.5781,627.2949 939.7813,627.2949 Q940.1094,627.2949 940.3594,627.5605 Q940.625,627.8105 940.625,628.1543 Q940.625,628.498 940.2813,628.9043 Q939.7813,629.4824 938.9844,629.8105 Q937.9063,630.2637 936.6094,630.2637 Q935.0938,630.2637 933.8906,629.6387 Q932.9063,629.1387 932.2188,628.0762 Q931.5313,626.998 931.5313,625.7168 L931.5313,624.5605 Q931.5313,623.2324 932.1406,622.0918 Q932.7656,620.9355 933.8594,620.3262 Q934.9531,619.7012 936.1875,619.7012 Q936.9219,619.7012 937.5625,619.873 Q938.2188,620.0293 938.7656,620.3887 Z " fill="#000000"/><text fill="#000000" font-family="sans-serif" font-size="14" lengthAdjust="spacing" textLength="188.3232" x="950" y="630.3105">OnNotificationSettingsListener</text><line style="stroke:#181818;stroke-width:0.5;" x1="922" x2="1140.3232" y1="640.5137" y2="640.5137"/><line style="stroke:#181818;stroke-width:0.5;" x1="922" x2="1140.3232" y1="648.5137" y2="648.5137"/></g><!--class OnSearchResultsFragmentListener--><g id="elem_OnSearchResultsFragmentListener"><rect fill="#F1F1F1" height="48" id="OnSearchResultsFragmentListener" rx="2.5" ry="2.5" style="stroke:#181818;stroke-width:0.5;" width="251.4336" x="94.5" y="608.5137"/><ellipse cx="109.5" cy="624.5137" fill="#ADD1B2" rx="11" ry="11" style="stroke:#181818;stroke-width:1.0;"/><path d="M112.2656,620.3887 Q112.4219,620.1699 112.6094,620.0605 Q112.7969,619.9512 113.0156,619.9512 Q113.3906,619.9512 113.625,620.2168 Q113.8594,620.4668 113.8594,621.0762 L113.8594,622.5293 Q113.8594,623.1387 113.625,623.4043 Q113.3906,623.6699 113.0156,623.6699 Q112.6719,623.6699 112.4688,623.4668 Q112.2656,623.2793 112.1563,622.7637 Q112.1094,622.4043 111.9219,622.2168 Q111.5938,621.8418 110.9844,621.623 Q110.375,621.4043 109.75,621.4043 Q108.9844,621.4043 108.3438,621.7324 Q107.7188,622.0605 107.2188,622.8105 Q106.7344,623.5605 106.7344,624.5918 L106.7344,625.6855 Q106.7344,626.9199 107.625,627.748 Q108.5156,628.5605 110.1094,628.5605 Q111.0469,628.5605 111.7031,628.3105 Q112.0938,628.1543 112.5156,627.7168 Q112.7813,627.4512 112.9219,627.373 Q113.0781,627.2949 113.2813,627.2949 Q113.6094,627.2949 113.8594,627.5605 Q114.125,627.8105 114.125,628.1543 Q114.125,628.498 113.7813,628.9043 Q113.2813,629.4824 112.4844,629.8105 Q111.4063,630.2637 110.1094,630.2637 Q108.5938,630.2637 107.3906,629.6387 Q106.4063,629.1387 105.7188,628.0762 Q105.0313,626.998 105.0313,625.7168 L105.0313,624.5605 Q105.0313,623.2324 105.6406,622.0918 Q106.2656,620.9355 107.3594,620.3262 Q108.4531,619.7012 109.6875,619.7012 Q110.4219,619.7012 111.0625,619.873 Q111.7188,620.0293 112.2656,620.3887 Z " fill="#000000"/><text fill="#000000" font-family="sans-serif" font-size="14" lengthAdjust="spacing" textLength="219.4336" x="123.5" y="630.3105">OnSearchResultsFragmentListener</text><line style="stroke:#181818;stroke-width:0.5;" x1="95.5" x2="344.9336" y1="640.5137" y2="640.5137"/><line style="stroke:#181818;stroke-width:0.5;" x1="95.5" x2="344.9336" y1="648.5137" y2="648.5137"/></g><!--class OnSelectedFoodsFragmentListener--><g id="elem_OnSelectedFoodsFragmentListener"><rect fill="#F1F1F1" height="48" id="OnSelectedFoodsFragmentListener" rx="2.5" ry="2.5" style="stroke:#181818;stroke-width:0.5;" width="253.7852" x="632" y="608.5137"/><ellipse cx="647" cy="624.5137" fill="#ADD1B2" rx="11" ry="11" style="stroke:#181818;stroke-width:1.0;"/><path d="M649.7656,620.3887 Q649.9219,620.1699 650.1094,620.0605 Q650.2969,619.9512 650.5156,619.9512 Q650.8906,619.9512 651.125,620.2168 Q651.3594,620.4668 651.3594,621.0762 L651.3594,622.5293 Q651.3594,623.1387 651.125,623.4043 Q650.8906,623.6699 650.5156,623.6699 Q650.1719,623.6699 649.9688,623.4668 Q649.7656,623.2793 649.6563,622.7637 Q649.6094,622.4043 649.4219,622.2168 Q649.0938,621.8418 648.4844,621.623 Q647.875,621.4043 647.25,621.4043 Q646.4844,621.4043 645.8438,621.7324 Q645.2188,622.0605 644.7188,622.8105 Q644.2344,623.5605 644.2344,624.5918 L644.2344,625.6855 Q644.2344,626.9199 645.125,627.748 Q646.0156,628.5605 647.6094,628.5605 Q648.5469,628.5605 649.2031,628.3105 Q649.5938,628.1543 650.0156,627.7168 Q650.2813,627.4512 650.4219,627.373 Q650.5781,627.2949 650.7813,627.2949 Q651.1094,627.2949 651.3594,627.5605 Q651.625,627.8105 651.625,628.1543 Q651.625,628.498 651.2813,628.9043 Q650.7813,629.4824 649.9844,629.8105 Q648.9063,630.2637 647.6094,630.2637 Q646.0938,630.2637 644.8906,629.6387 Q643.9063,629.1387 643.2188,628.0762 Q642.5313,626.998 642.5313,625.7168 L642.5313,624.5605 Q642.5313,623.2324 643.1406,622.0918 Q643.7656,620.9355 644.8594,620.3262 Q645.9531,619.7012 647.1875,619.7012 Q647.9219,619.7012 648.5625,619.873 Q649.2188,620.0293 649.7656,620.3887 Z " fill="#000000"/><text fill="#000000" font-family="sans-serif" font-size="14" lengthAdjust="spacing" textLength="221.7852" x="661" y="630.3105">OnSelectedFoodsFragmentListener</text><line style="stroke:#181818;stroke-width:0.5;" x1="633" x2="884.7852" y1="640.5137" y2="640.5137"/><line style="stroke:#181818;stroke-width:0.5;" x1="633" x2="884.7852" y1="648.5137" y2="648.5137"/></g><!--class OnFoodInfoFragmentListener--><g id="elem_OnFoodInfoFragmentListener"><rect fill="#F1F1F1" height="48" id="OnFoodInfoFragmentListener" rx="2.5" ry="2.5" style="stroke:#181818;stroke-width:0.5;" width="215.6543" x="381" y="608.5137"/><ellipse cx="396" cy="624.5137" fill="#ADD1B2" rx="11" ry="11" style="stroke:#181818;stroke-width:1.0;"/><path d="M398.7656,620.3887 Q398.9219,620.1699 399.1094,620.0605 Q399.2969,619.9512 399.5156,619.9512 Q399.8906,619.9512 400.125,620.2168 Q400.3594,620.4668 400.3594,621.0762 L400.3594,622.5293 Q400.3594,623.1387 400.125,623.4043 Q399.8906,623.6699 399.5156,623.6699 Q399.1719,623.6699 398.9688,623.4668 Q398.7656,623.2793 398.6563,622.7637 Q398.6094,622.4043 398.4219,622.2168 Q398.0938,621.8418 397.4844,621.623 Q396.875,621.4043 396.25,621.4043 Q395.4844,621.4043 394.8438,621.7324 Q394.2188,622.0605 393.7188,622.8105 Q393.2344,623.5605 393.2344,624.5918 L393.2344,625.6855 Q393.2344,626.9199 394.125,627.748 Q395.0156,628.5605 396.6094,628.5605 Q397.5469,628.5605 398.2031,628.3105 Q398.5938,628.1543 399.0156,627.7168 Q399.2813,627.4512 399.4219,627.373 Q399.5781,627.2949 399.7813,627.2949 Q400.1094,627.2949 400.3594,627.5605 Q400.625,627.8105 400.625,628.1543 Q400.625,628.498 400.2813,628.9043 Q399.7813,629.4824 398.9844,629.8105 Q397.9063,630.2637 396.6094,630.2637 Q395.0938,630.2637 393.8906,629.6387 Q392.9063,629.1387 392.2188,628.0762 Q391.5313,626.998 391.5313,625.7168 L391.5313,624.5605 Q391.5313,623.2324 392.1406,622.0918 Q392.7656,620.9355 393.8594,620.3262 Q394.9531,619.7012 396.1875,619.7012 Q396.9219,619.7012 397.5625,619.873 Q398.2188,620.0293 398.7656,620.3887 Z " fill="#000000"/><text fill="#000000" font-family="sans-serif" font-size="14" lengthAdjust="spacing" textLength="183.6543" x="410" y="630.3105">OnFoodInfoFragmentListener</text><line style="stroke:#181818;stroke-width:0.5;" x1="382" x2="595.6543" y1="640.5137" y2="640.5137"/><line style="stroke:#181818;stroke-width:0.5;" x1="382" x2="595.6543" y1="648.5137" y2="648.5137"/></g><!--class AppCompatActivity--><g id="elem_AppCompatActivity"><rect fill="#F1F1F1" height="48" id="AppCompatActivity" rx="2.5" ry="2.5" style="stroke:#181818;stroke-width:0.5;" width="150.2686" x="2105" y="133.0137"/><ellipse cx="2120" cy="149.0137" fill="#ADD1B2" rx="11" ry="11" style="stroke:#181818;stroke-width:1.0;"/><path d="M2122.7656,144.8887 Q2122.9219,144.6699 2123.1094,144.5605 Q2123.2969,144.4512 2123.5156,144.4512 Q2123.8906,144.4512 2124.125,144.7168 Q2124.3594,144.9668 2124.3594,145.5762 L2124.3594,147.0293 Q2124.3594,147.6387 2124.125,147.9043 Q2123.8906,148.1699 2123.5156,148.1699 Q2123.1719,148.1699 2122.9688,147.9668 Q2122.7656,147.7793 2122.6563,147.2637 Q2122.6094,146.9043 2122.4219,146.7168 Q2122.0938,146.3418 2121.4844,146.123 Q2120.875,145.9043 2120.25,145.9043 Q2119.4844,145.9043 2118.8438,146.2324 Q2118.2188,146.5605 2117.7188,147.3105 Q2117.2344,148.0605 2117.2344,149.0918 L2117.2344,150.1855 Q2117.2344,151.4199 2118.125,152.248 Q2119.0156,153.0605 2120.6094,153.0605 Q2121.5469,153.0605 2122.2031,152.8105 Q2122.5938,152.6543 2123.0156,152.2168 Q2123.2813,151.9512 2123.4219,151.873 Q2123.5781,151.7949 2123.7813,151.7949 Q2124.1094,151.7949 2124.3594,152.0605 Q2124.625,152.3105 2124.625,152.6543 Q2124.625,152.998 2124.2813,153.4043 Q2123.7813,153.9824 2122.9844,154.3105 Q2121.9063,154.7637 2120.6094,154.7637 Q2119.0938,154.7637 2117.8906,154.1387 Q2116.9063,153.6387 2116.2188,152.5762 Q2115.5313,151.498 2115.5313,150.2168 L2115.5313,149.0605 Q2115.5313,147.7324 2116.1406,146.5918 Q2116.7656,145.4355 2117.8594,144.8262 Q2118.9531,144.2012 2120.1875,144.2012 Q2120.9219,144.2012 2121.5625,144.373 Q2122.2188,144.5293 2122.7656,144.8887 Z " fill="#000000"/><text fill="#000000" font-family="sans-serif" font-size="14" lengthAdjust="spacing" textLength="118.2686" x="2134" y="154.8105">AppCompatActivity</text><line style="stroke:#181818;stroke-width:0.5;" x1="2106" x2="2254.2686" y1="165.0137" y2="165.0137"/><line style="stroke:#181818;stroke-width:0.5;" x1="2106" x2="2254.2686" y1="173.0137" y2="173.0137"/></g><!--reverse link AppCompatActivity to ProgressActivity--><g id="link_AppCompatActivity_ProgressActivity"><path codeLine="113" d="M2124.1617,190.6706 C2094.3017,209.2706 2069.55,228.1337 2042,261.0137 C1997.51,314.1137 1960.18,379.6537 1930.92,440.7837 " fill="none" id="AppCompatActivity-backto-ProgressActivity" style="stroke:#181818;stroke-width:1.0;"/><polygon fill="none" points="2139.44,181.1537,2120.9894,185.5779,2127.334,195.7634,2139.44,181.1537" style="stroke:#181818;stroke-width:1.0;"/></g><!--reverse link AppCompatActivity to SignUpActivity--><g id="link_AppCompatActivity_SignUpActivity"><path codeLine="114" d="M2086.9788,165.8862 C1961.6088,177.6562 1735.04,205.5037 1671,261.0137 C1600.18,322.3937 1567.35,424.4537 1552.14,505.9337 " fill="none" id="AppCompatActivity-backto-SignUpActivity" style="stroke:#181818;stroke-width:1.0;"/><polygon fill="none" points="2104.9,164.2037,2086.418,159.9124,2087.5396,171.8599,2104.9,164.2037" style="stroke:#181818;stroke-width:1.0;"/></g><!--reverse link AppCompatActivity to LoginActivity--><g id="link_AppCompatActivity_LoginActivity"><path codeLine="115" d="M2178.006,199.1524 C2174.856,263.9524 2166.71,431.6737 2161.28,543.3437 " fill="none" id="AppCompatActivity-backto-LoginActivity" style="stroke:#181818;stroke-width:1.0;"/><polygon fill="none" points="2178.88,181.1737,2172.0131,198.8611,2183.999,199.4438,2178.88,181.1737" style="stroke:#181818;stroke-width:1.0;"/></g><!--reverse link OnUserInfoFragmentListener to HomeDashboardActivity--><g id="link_OnUserInfoFragmentListener_HomeDashboardActivity"><path codeLine="116" d="M1283,674.7737 C1283,718.6737 1283,799.7537 1283,893.3837 " fill="none" id="OnUserInfoFragmentListener-backto-HomeDashboardActivity" style="stroke:#181818;stroke-width:1.0;stroke-dasharray:7.0,7.0;"/><polygon fill="none" points="1283,656.7737,1277,674.7737,1289,674.7737,1283,656.7737" style="stroke:#181818;stroke-width:1.0;"/></g><!--reverse link OnNotificationSettingsListener to HomeDashboardActivity--><g id="link_OnNotificationSettingsListener_HomeDashboardActivity"><path codeLine="117" d="M1052.0174,672.631 C1075.5974,716.531 1120.32,799.7537 1170.63,893.3837 " fill="none" id="OnNotificationSettingsListener-backto-HomeDashboardActivity" style="stroke:#181818;stroke-width:1.0;stroke-dasharray:7.0,7.0;"/><polygon fill="none" points="1043.5,656.7737,1046.7317,675.4701,1057.3032,669.7918,1043.5,656.7737" style="stroke:#181818;stroke-width:1.0;"/></g><!--reverse link AppCompatActivity to HomeDashboardActivity--><g id="link_AppCompatActivity_HomeDashboardActivity"><path codeLine="118" d="M2256.2796,188.9912 C2290.4796,205.6112 2314.15,223.8437 2334,261.0137 C2392.95,371.3637 2418.16,731.4437 2334,824.0137 C2239.55,927.9037 1839.69,844.3437 1705,884.0137 C1615.18,910.4737 1522.05,956.4137 1446.2,999.3737 " fill="none" id="AppCompatActivity-backto-HomeDashboardActivity" style="stroke:#181818;stroke-width:1.0;"/><polygon fill="none" points="2240.09,181.1237,2253.657,194.3877,2258.9021,183.5947,2240.09,181.1237" style="stroke:#181818;stroke-width:1.0;"/></g><!--reverse link OnSearchResultsFragmentListener to MealLogActivity--><g id="link_OnSearchResultsFragmentListener_MealLogActivity"><path codeLine="119" d="M246.5383,671.4276 C272.2583,707.9276 314.2,765.8937 363,824.0137 C389.63,855.7337 418.82,888.5637 447.72,920.0737 " fill="none" id="OnSearchResultsFragmentListener-backto-MealLogActivity" style="stroke:#181818;stroke-width:1.0;stroke-dasharray:7.0,7.0;"/><polygon fill="none" points="236.17,656.7137,241.6336,674.8837,251.4429,667.9715,236.17,656.7137" style="stroke:#181818;stroke-width:1.0;"/></g><!--reverse link OnSelectedFoodsFragmentListener to MealLogActivity--><g id="link_OnSelectedFoodsFragmentListener_MealLogActivity"><path codeLine="120" d="M747.3311,674.0714 C735.1211,716.4914 713.05,793.1437 686.93,883.9037 " fill="none" id="OnSelectedFoodsFragmentListener-backto-MealLogActivity" style="stroke:#181818;stroke-width:1.0;stroke-dasharray:7.0,7.0;"/><polygon fill="none" points="752.31,656.7737,741.5652,672.4117,753.097,675.731,752.31,656.7737" style="stroke:#181818;stroke-width:1.0;"/></g><!--reverse link OnFoodInfoFragmentListener to MealLogActivity--><g id="link_OnFoodInfoFragmentListener_MealLogActivity"><path codeLine="121" d="M500.6689,674.0714 C512.8789,716.4914 534.95,793.1437 561.07,883.9037 " fill="none" id="OnFoodInfoFragmentListener-backto-MealLogActivity" style="stroke:#181818;stroke-width:1.0;stroke-dasharray:7.0,7.0;"/><polygon fill="none" points="495.69,656.7737,494.903,675.731,506.4348,672.4117,495.69,656.7737" style="stroke:#181818;stroke-width:1.0;"/></g><!--reverse link AppCompatActivity to MealLogActivity--><g id="link_AppCompatActivity_MealLogActivity"><path codeLine="122" d="M2224.3629,192.9971 C2246.3729,211.7771 2260.54,228.6337 2273,261.0137 C2317.92,377.7837 2359.17,733.3137 2273,824.0137 C2183.34,918.3837 1229.45,853.1237 1103,884.0137 C998.23,909.6137 888.27,958.0337 800.17,1002.8037 " fill="none" id="AppCompatActivity-backto-MealLogActivity" style="stroke:#181818;stroke-width:1.0;"/><polygon fill="none" points="2210.67,181.3137,2220.4684,197.5615,2228.2574,188.4328,2210.67,181.3137" style="stroke:#181818;stroke-width:1.0;"/></g><!--reverse link OnUserInfoFragmentListener to ProfileActivity--><g id="link_OnUserInfoFragmentListener_ProfileActivity"><path codeLine="123" d="M1301.8456,672.8302 C1320.7756,711.2502 1354.9,772.8037 1408,824.0137 C1500.06,912.7937 1625.33,986.3137 1721.9,1035.4737 " fill="none" id="OnUserInfoFragmentListener-backto-ProfileActivity" style="stroke:#181818;stroke-width:1.0;stroke-dasharray:7.0,7.0;"/><polygon fill="none" points="1293.89,656.6837,1296.4634,675.482,1307.2277,670.1783,1293.89,656.6837" style="stroke:#181818;stroke-width:1.0;"/></g><!--reverse link AppCompatActivity to ProfileActivity--><g id="link_AppCompatActivity_ProfileActivity"><path codeLine="124" d="M2272.5118,175.1021 C2324.3318,188.1921 2372.16,209.8637 2405,261.0137 C2472.59,366.2937 2469.99,717.1037 2405,824.0137 C2320.65,962.7737 2142.29,1035.5137 2014.25,1071.3637 " fill="none" id="AppCompatActivity-backto-ProfileActivity" style="stroke:#181818;stroke-width:1.0;"/><polygon fill="none" points="2255.06,170.6937,2271.0423,180.9194,2273.9813,169.2848,2255.06,170.6937" style="stroke:#181818;stroke-width:1.0;"/></g><!--SRC=[jLRTSjey4BtdAVm2uGaocO7yjCoGbWaqkLxijL4ZInv93Z3jz-xVhco3PRib9FGAStQrqkuUdLKimTeerlaOTv0N4iS6KuDsCvx4Jhm9jnylZCu8iGqG_HfTHHDZO3yNrbq_8iYRQ8luobysiDt1VbdcEPZzJPGqtmBPQQvZa7VWC8fBOr2v5ugmT60S6LTQopMOo5M_ZE3EFGlSHauuYGJCSiXmMZgdLLGVUUfKnt2_SmOg-120z-5zxUgvuqsbyAVenr6q-6XvmdWVIpG-NCv9Ft6e9LA1jCAaRPyaK3WqaQsCzL_odcgAd7-3Dv41MtomTGSalmS3MKxbkTNAWL3rhbpkBmQApG7c5AcCYKURHP7hGNpG3HXC5bGr97ECDYejckM2J7SWPDEohoWBEddIWxZ5DHUUq9RIpQ5KyGRDzKmvsk8cmaGuPaDZ6Fqt6iMdcROKcVfH13oxfqZSkaX1ZlUhDe8vdIo4YWtLlmDjanv0HKizMBVN-dqxF94w4wfF1Lg-qbacST34aTlc7rHONrrVMmThiDZKTLrNytsrcVDnXaipL8WwwuRPnrnkDnY_JlMEBasE-HhD8zvEstctYz7EphNI-bmgNtMETs0tQmqc2L8Q9dlQHS-uFZsPuM-VGSFfep3jpxW0BnJ6K4zgdstmjsxyJAMwjfV1trDwnd8pG2-3RnKwN2P_paQisxMQqo-OEUnrwPWA_knLfAw9B-smvGL5jXaybKx5q6rGsebKnBuHdQkLQP0pbR1HcsPPtpABTR1iwu_GP3Y7DSe_cvz1blXEGdgfqbb0HSQyk0S3xK7hvCR3_1NECKPhTdbm9V8Av8_0KykaTkpHu00qqNXnRrAj8HwOKWcvBqJysZJte0QMEXblfc2y9hINq9W2ypTILKihcGz8TIO7_nHTqbp4n1Vpj7jARdoB7WO4OTaETPX_TWZb-9r8lT31wD7qMkZ8wV6Yl4k962JVDRrd45Ga50T_rCbx6RgeRbd0qEEjET9XM5OyKbzK8eWh3SwUszuyN5S1Ggj2W6-cHm9XeFTQXgxIXWeA3j6oXj4iF_GylNiXIH-jLYm3gJw433mWZdL9IexKV6c7VQH8qRgzn2-Qdo53BfpH9FbPMiSDF_WCKwyHy6067TZmlVJAIBqSZK0bHejaDuQYe9uMuFXhF2cAM__lqCFhtrTNvxsyBnaxV6jTCdBmKXdzrVMxQkPaKtLMMQJoqZxZyGUU4QVs-zQQIajqJgZCVdhF2nRlGqajsoBzWKfsvj_fxGP4zTzjrzNgJ-nqmKQTcSGdUDxH_WiBJ3lq_m00]--></g></svg>