<svg xmlns="http://www.w3.org/2000/svg" xmlns:xlink="http://www.w3.org/1999/xlink" contentStyleType="text/css" height="748px" preserveAspectRatio="none" style="width:2339px;height:748px;background:#FFFFFF;" version="1.1" viewBox="0 0 2339 748" width="2339px" zoomAndPan="magnify"><defs/><g><!--cluster com--><g id="cluster_com"><path d="M8.5,6.0137 L38.2861,6.0137 A3.75,3.75 0 0 1 40.7861,8.5137 L47.7861,30.6348 L1946.5,30.6348 A2.5,2.5 0 0 1 1949,33.1348 L1949,738.5137 A2.5,2.5 0 0 1 1946.5,741.0137 L8.5,741.0137 A2.5,2.5 0 0 1 6,738.5137 L6,8.5137 A2.5,2.5 0 0 1 8.5,6.0137 " fill="none" style="stroke:#000000;stroke-width:1.5;"/><line style="stroke:#000000;stroke-width:1.5;" x1="6" x2="47.7861" y1="30.6348" y2="30.6348"/><text fill="#000000" font-family="sans-serif" font-size="14" font-weight="bold" lengthAdjust="spacing" textLength="28.7861" x="10" y="23.1211">com</text></g><!--cluster example--><g id="cluster_example"><path d="M32.5,51.0137 L89.5342,51.0137 A3.75,3.75 0 0 1 92.0342,53.5137 L99.0342,75.6348 L1922.5,75.6348 A2.5,2.5 0 0 1 1925,78.1348 L1925,714.5137 A2.5,2.5 0 0 1 1922.5,717.0137 L32.5,717.0137 A2.5,2.5 0 0 1 30,714.5137 L30,53.5137 A2.5,2.5 0 0 1 32.5,51.0137 " fill="none" style="stroke:#000000;stroke-width:1.5;"/><line style="stroke:#000000;stroke-width:1.5;" x1="30" x2="99.0342" y1="75.6348" y2="75.6348"/><text fill="#000000" font-family="sans-serif" font-size="14" font-weight="bold" lengthAdjust="spacing" textLength="56.0342" x="34" y="68.1211">example</text></g><!--cluster refresh--><g id="cluster_refresh"><path d="M56.5,96.0137 L104.9688,96.0137 A3.75,3.75 0 0 1 107.4688,98.5137 L114.4688,120.6348 L1898.5,120.6348 A2.5,2.5 0 0 1 1901,123.1348 L1901,690.5137 A2.5,2.5 0 0 1 1898.5,693.0137 L56.5,693.0137 A2.5,2.5 0 0 1 54,690.5137 L54,98.5137 A2.5,2.5 0 0 1 56.5,96.0137 " fill="none" style="stroke:#000000;stroke-width:1.5;"/><line style="stroke:#000000;stroke-width:1.5;" x1="54" x2="114.4688" y1="120.6348" y2="120.6348"/><text fill="#000000" font-family="sans-serif" font-size="14" font-weight="bold" lengthAdjust="spacing" textLength="47.4688" x="58" y="113.1211">refresh</text></g><!--cluster Adapter--><g id="cluster_Adapter"><path d="M80.5,141.0137 L134.3965,141.0137 A3.75,3.75 0 0 1 136.8965,143.5137 L143.8965,165.6348 L1874.5,165.6348 A2.5,2.5 0 0 1 1877,168.1348 L1877,666.5137 A2.5,2.5 0 0 1 1874.5,669.0137 L80.5,669.0137 A2.5,2.5 0 0 1 78,666.5137 L78,143.5137 A2.5,2.5 0 0 1 80.5,141.0137 " fill="none" style="stroke:#000000;stroke-width:1.5;"/><line style="stroke:#000000;stroke-width:1.5;" x1="78" x2="143.8965" y1="165.6348" y2="165.6348"/><text fill="#000000" font-family="sans-serif" font-size="14" font-weight="bold" lengthAdjust="spacing" textLength="52.8965" x="82" y="158.1211">Adapter</text></g><!--cluster io--><g id="cluster_io"><path d="M1975.5,6.0137 L1988.9414,6.0137 A3.75,3.75 0 0 1 1991.4414,8.5137 L1998.4414,30.6348 L2329.5,30.6348 A2.5,2.5 0 0 1 2332,33.1348 L2332,311.5137 A2.5,2.5 0 0 1 2329.5,314.0137 L1975.5,314.0137 A2.5,2.5 0 0 1 1973,311.5137 L1973,8.5137 A2.5,2.5 0 0 1 1975.5,6.0137 " fill="none" style="stroke:#000000;stroke-width:1.5;"/><line style="stroke:#000000;stroke-width:1.5;" x1="1973" x2="1998.4414" y1="30.6348" y2="30.6348"/><text fill="#000000" font-family="sans-serif" font-size="14" font-weight="bold" lengthAdjust="spacing" textLength="12.4414" x="1977" y="23.1211">io</text></g><!--cluster github--><g id="cluster_github"><path d="M1999.5,51.0137 L2043.2588,51.0137 A3.75,3.75 0 0 1 2045.7588,53.5137 L2052.7588,75.6348 L2305.5,75.6348 A2.5,2.5 0 0 1 2308,78.1348 L2308,287.5137 A2.5,2.5 0 0 1 2305.5,290.0137 L1999.5,290.0137 A2.5,2.5 0 0 1 1997,287.5137 L1997,53.5137 A2.5,2.5 0 0 1 1999.5,51.0137 " fill="none" style="stroke:#000000;stroke-width:1.5;"/><line style="stroke:#000000;stroke-width:1.5;" x1="1997" x2="2052.7588" y1="75.6348" y2="75.6348"/><text fill="#000000" font-family="sans-serif" font-size="14" font-weight="bold" lengthAdjust="spacing" textLength="42.7588" x="2001" y="68.1211">github</text></g><!--cluster luizgrp--><g id="cluster_luizgrp"><path d="M2023.5,96.0137 L2070.3828,96.0137 A3.75,3.75 0 0 1 2072.8828,98.5137 L2079.8828,120.6348 L2281.5,120.6348 A2.5,2.5 0 0 1 2284,123.1348 L2284,263.5137 A2.5,2.5 0 0 1 2281.5,266.0137 L2023.5,266.0137 A2.5,2.5 0 0 1 2021,263.5137 L2021,98.5137 A2.5,2.5 0 0 1 2023.5,96.0137 " fill="none" style="stroke:#000000;stroke-width:1.5;"/><line style="stroke:#000000;stroke-width:1.5;" x1="2021" x2="2079.8828" y1="120.6348" y2="120.6348"/><text fill="#000000" font-family="sans-serif" font-size="14" font-weight="bold" lengthAdjust="spacing" textLength="45.8828" x="2025" y="113.1211">luizgrp</text></g><!--cluster sectionedrecyclerviewadapter--><g id="cluster_sectionedrecyclerviewadapter"><path d="M2047.5,141.0137 L2248.4922,141.0137 A3.75,3.75 0 0 1 2250.9922,143.5137 L2257.9922,165.6348 L2257.5,165.6348 A2.5,2.5 0 0 1 2260,168.1348 L2260,239.5137 A2.5,2.5 0 0 1 2257.5,242.0137 L2047.5,242.0137 A2.5,2.5 0 0 1 2045,239.5137 L2045,143.5137 A2.5,2.5 0 0 1 2047.5,141.0137 " fill="none" style="stroke:#000000;stroke-width:1.5;"/><line style="stroke:#000000;stroke-width:1.5;" x1="2045" x2="2257.9922" y1="165.6348" y2="165.6348"/><text fill="#000000" font-family="sans-serif" font-size="14" font-weight="bold" lengthAdjust="spacing" textLength="199.9922" x="2049" y="158.1211">sectionedrecyclerviewadapter</text></g><!--class SearchResultsAdapter--><g id="elem_SearchResultsAdapter"><rect codeLine="1" fill="#F1F1F1" height="85.2422" id="SearchResultsAdapter" rx="2.5" ry="2.5" style="stroke:#181818;stroke-width:0.5;" width="261.7715" x="119" y="348.5137"/><ellipse cx="175.5981" cy="364.5137" fill="#ADD1B2" rx="11" ry="11" style="stroke:#181818;stroke-width:1.0;"/><path d="M178.3638,360.3887 Q178.52,360.1699 178.7075,360.0605 Q178.895,359.9512 179.1138,359.9512 Q179.4888,359.9512 179.7231,360.2168 Q179.9575,360.4668 179.9575,361.0762 L179.9575,362.5293 Q179.9575,363.1387 179.7231,363.4043 Q179.4888,363.6699 179.1138,363.6699 Q178.77,363.6699 178.5669,363.4668 Q178.3638,363.2793 178.2544,362.7637 Q178.2075,362.4043 178.02,362.2168 Q177.6919,361.8418 177.0825,361.623 Q176.4731,361.4043 175.8481,361.4043 Q175.0825,361.4043 174.4419,361.7324 Q173.8169,362.0605 173.3169,362.8105 Q172.8325,363.5605 172.8325,364.5918 L172.8325,365.6855 Q172.8325,366.9199 173.7231,367.748 Q174.6138,368.5605 176.2075,368.5605 Q177.145,368.5605 177.8013,368.3105 Q178.1919,368.1543 178.6138,367.7168 Q178.8794,367.4512 179.02,367.373 Q179.1763,367.2949 179.3794,367.2949 Q179.7075,367.2949 179.9575,367.5605 Q180.2231,367.8105 180.2231,368.1543 Q180.2231,368.498 179.8794,368.9043 Q179.3794,369.4824 178.5825,369.8105 Q177.5044,370.2637 176.2075,370.2637 Q174.6919,370.2637 173.4888,369.6387 Q172.5044,369.1387 171.8169,368.0762 Q171.1294,366.998 171.1294,365.7168 L171.1294,364.5605 Q171.1294,363.2324 171.7388,362.0918 Q172.3638,360.9355 173.4575,360.3262 Q174.5513,359.7012 175.7856,359.7012 Q176.52,359.7012 177.1606,359.873 Q177.8169,360.0293 178.3638,360.3887 Z " fill="#000000"/><text fill="#000000" font-family="sans-serif" font-size="14" lengthAdjust="spacing" textLength="140.0752" x="196.0981" y="370.3105">SearchResultsAdapter</text><line style="stroke:#181818;stroke-width:0.5;" x1="120" x2="379.7715" y1="380.5137" y2="380.5137"/><rect fill="none" height="6" style="stroke:#C82930;stroke-width:1.0;" width="6" x="127" y="392.3242"/><text fill="#000000" font-family="sans-serif" font-size="14" lengthAdjust="spacing" textLength="235.7715" x="139" y="399.6211">ArrayList&lt;ListItem&lt;Food&gt;&gt; resultsList</text><rect fill="none" height="6" style="stroke:#C82930;stroke-width:1.0;" width="6" x="127" y="410.9453"/><text fill="#000000" font-family="sans-serif" font-size="14" lengthAdjust="spacing" textLength="210.0889" x="139" y="418.2422">SearchResultsFragment fragment</text><line style="stroke:#181818;stroke-width:0.5;" x1="120" x2="379.7715" y1="425.7559" y2="425.7559"/></g><!--class SearchResultsAdapter$ResultViewHolder--><g id="elem_SearchResultsAdapter$ResultViewHolder"><rect codeLine="6" fill="#F1F1F1" height="122.4844" id="SearchResultsAdapter$ResultViewHolder" rx="2.5" ry="2.5" style="stroke:#181818;stroke-width:0.5;" width="291.1299" x="94.5" y="521.5137"/><ellipse cx="109.5" cy="537.5137" fill="#ADD1B2" rx="11" ry="11" style="stroke:#181818;stroke-width:1.0;"/><path d="M112.2656,533.3887 Q112.4219,533.1699 112.6094,533.0605 Q112.7969,532.9512 113.0156,532.9512 Q113.3906,532.9512 113.625,533.2168 Q113.8594,533.4668 113.8594,534.0762 L113.8594,535.5293 Q113.8594,536.1387 113.625,536.4043 Q113.3906,536.6699 113.0156,536.6699 Q112.6719,536.6699 112.4688,536.4668 Q112.2656,536.2793 112.1563,535.7637 Q112.1094,535.4043 111.9219,535.2168 Q111.5938,534.8418 110.9844,534.623 Q110.375,534.4043 109.75,534.4043 Q108.9844,534.4043 108.3438,534.7324 Q107.7188,535.0605 107.2188,535.8105 Q106.7344,536.5605 106.7344,537.5918 L106.7344,538.6855 Q106.7344,539.9199 107.625,540.748 Q108.5156,541.5605 110.1094,541.5605 Q111.0469,541.5605 111.7031,541.3105 Q112.0938,541.1543 112.5156,540.7168 Q112.7813,540.4512 112.9219,540.373 Q113.0781,540.2949 113.2813,540.2949 Q113.6094,540.2949 113.8594,540.5605 Q114.125,540.8105 114.125,541.1543 Q114.125,541.498 113.7813,541.9043 Q113.2813,542.4824 112.4844,542.8105 Q111.4063,543.2637 110.1094,543.2637 Q108.5938,543.2637 107.3906,542.6387 Q106.4063,542.1387 105.7188,541.0762 Q105.0313,539.998 105.0313,538.7168 L105.0313,537.5605 Q105.0313,536.2324 105.6406,535.0918 Q106.2656,533.9355 107.3594,533.3262 Q108.4531,532.7012 109.6875,532.7012 Q110.4219,532.7012 111.0625,532.873 Q111.7188,533.0293 112.2656,533.3887 Z " fill="#000000"/><text fill="#000000" font-family="sans-serif" font-size="14" lengthAdjust="spacing" textLength="259.1299" x="123.5" y="543.3105">SearchResultsAdapter$ResultViewHolder</text><line style="stroke:#181818;stroke-width:0.5;" x1="95.5" x2="384.6299" y1="553.5137" y2="553.5137"/><rect fill="none" height="6" style="stroke:#C82930;stroke-width:1.0;" width="6" x="102.5" y="565.3242"/><text fill="#000000" font-family="sans-serif" font-size="14" lengthAdjust="spacing" textLength="101.1377" x="114.5" y="572.6211">TextView titleTV</text><rect fill="none" height="6" style="stroke:#C82930;stroke-width:1.0;" width="6" x="102.5" y="583.9453"/><text fill="#000000" font-family="sans-serif" font-size="14" lengthAdjust="spacing" textLength="147.0547" x="114.5" y="591.2422">TextView descriptionTV</text><rect fill="none" height="6" style="stroke:#C82930;stroke-width:1.0;" width="6" x="102.5" y="602.5664"/><text fill="#000000" font-family="sans-serif" font-size="14" lengthAdjust="spacing" textLength="127.6475" x="114.5" y="609.8633">ImageButton addBtn</text><rect fill="none" height="6" style="stroke:#C82930;stroke-width:1.0;" width="6" x="102.5" y="621.1875"/><text fill="#000000" font-family="sans-serif" font-size="14" lengthAdjust="spacing" textLength="171.9922" x="114.5" y="628.4844">LinearLayout itemContainer</text><line style="stroke:#181818;stroke-width:0.5;" x1="95.5" x2="384.6299" y1="635.998" y2="635.998"/></g><!--class FoodSelectionsAdapter--><g id="elem_FoodSelectionsAdapter"><rect codeLine="13" fill="#F1F1F1" height="85.2422" id="FoodSelectionsAdapter" rx="2.5" ry="2.5" style="stroke:#181818;stroke-width:0.5;" width="290.5918" x="427.5" y="348.5137"/><ellipse cx="495.7773" cy="364.5137" fill="#ADD1B2" rx="11" ry="11" style="stroke:#181818;stroke-width:1.0;"/><path d="M498.543,360.3887 Q498.6992,360.1699 498.8867,360.0605 Q499.0742,359.9512 499.293,359.9512 Q499.668,359.9512 499.9023,360.2168 Q500.1367,360.4668 500.1367,361.0762 L500.1367,362.5293 Q500.1367,363.1387 499.9023,363.4043 Q499.668,363.6699 499.293,363.6699 Q498.9492,363.6699 498.7461,363.4668 Q498.543,363.2793 498.4336,362.7637 Q498.3867,362.4043 498.1992,362.2168 Q497.8711,361.8418 497.2617,361.623 Q496.6523,361.4043 496.0273,361.4043 Q495.2617,361.4043 494.6211,361.7324 Q493.9961,362.0605 493.4961,362.8105 Q493.0117,363.5605 493.0117,364.5918 L493.0117,365.6855 Q493.0117,366.9199 493.9023,367.748 Q494.793,368.5605 496.3867,368.5605 Q497.3242,368.5605 497.9805,368.3105 Q498.3711,368.1543 498.793,367.7168 Q499.0586,367.4512 499.1992,367.373 Q499.3555,367.2949 499.5586,367.2949 Q499.8867,367.2949 500.1367,367.5605 Q500.4023,367.8105 500.4023,368.1543 Q500.4023,368.498 500.0586,368.9043 Q499.5586,369.4824 498.7617,369.8105 Q497.6836,370.2637 496.3867,370.2637 Q494.8711,370.2637 493.668,369.6387 Q492.6836,369.1387 491.9961,368.0762 Q491.3086,366.998 491.3086,365.7168 L491.3086,364.5605 Q491.3086,363.2324 491.918,362.0918 Q492.543,360.9355 493.6367,360.3262 Q494.7305,359.7012 495.9648,359.7012 Q496.6992,359.7012 497.3398,359.873 Q497.9961,360.0293 498.543,360.3887 Z " fill="#000000"/><text fill="#000000" font-family="sans-serif" font-size="14" lengthAdjust="spacing" textLength="145.5371" x="516.2773" y="370.3105">FoodSelectionsAdapter</text><line style="stroke:#181818;stroke-width:0.5;" x1="428.5" x2="717.0918" y1="380.5137" y2="380.5137"/><rect fill="none" height="6" style="stroke:#C82930;stroke-width:1.0;" width="6" x="435.5" y="392.3242"/><text fill="#000000" font-family="sans-serif" font-size="14" lengthAdjust="spacing" textLength="264.5918" x="447.5" y="399.6211">ArrayList&lt;ListItem&lt;Food&gt;&gt; foodSelections</text><rect fill="none" height="6" style="stroke:#C82930;stroke-width:1.0;" width="6" x="435.5" y="410.9453"/><text fill="#000000" font-family="sans-serif" font-size="14" lengthAdjust="spacing" textLength="212.4404" x="447.5" y="418.2422">SelectedFoodsFragment fragment</text><line style="stroke:#181818;stroke-width:0.5;" x1="428.5" x2="717.0918" y1="425.7559" y2="425.7559"/></g><!--class FoodSelectionsAdapter$FoodSelectionViewHolder--><g id="elem_FoodSelectionsAdapter$FoodSelectionViewHolder"><rect codeLine="18" fill="#F1F1F1" height="122.4844" id="FoodSelectionsAdapter$FoodSelectionViewHolder" rx="2.5" ry="2.5" style="stroke:#181818;stroke-width:0.5;" width="346.4121" x="421" y="521.5137"/><ellipse cx="436" cy="537.5137" fill="#ADD1B2" rx="11" ry="11" style="stroke:#181818;stroke-width:1.0;"/><path d="M438.7656,533.3887 Q438.9219,533.1699 439.1094,533.0605 Q439.2969,532.9512 439.5156,532.9512 Q439.8906,532.9512 440.125,533.2168 Q440.3594,533.4668 440.3594,534.0762 L440.3594,535.5293 Q440.3594,536.1387 440.125,536.4043 Q439.8906,536.6699 439.5156,536.6699 Q439.1719,536.6699 438.9688,536.4668 Q438.7656,536.2793 438.6563,535.7637 Q438.6094,535.4043 438.4219,535.2168 Q438.0938,534.8418 437.4844,534.623 Q436.875,534.4043 436.25,534.4043 Q435.4844,534.4043 434.8438,534.7324 Q434.2188,535.0605 433.7188,535.8105 Q433.2344,536.5605 433.2344,537.5918 L433.2344,538.6855 Q433.2344,539.9199 434.125,540.748 Q435.0156,541.5605 436.6094,541.5605 Q437.5469,541.5605 438.2031,541.3105 Q438.5938,541.1543 439.0156,540.7168 Q439.2813,540.4512 439.4219,540.373 Q439.5781,540.2949 439.7813,540.2949 Q440.1094,540.2949 440.3594,540.5605 Q440.625,540.8105 440.625,541.1543 Q440.625,541.498 440.2813,541.9043 Q439.7813,542.4824 438.9844,542.8105 Q437.9063,543.2637 436.6094,543.2637 Q435.0938,543.2637 433.8906,542.6387 Q432.9063,542.1387 432.2188,541.0762 Q431.5313,539.998 431.5313,538.7168 L431.5313,537.5605 Q431.5313,536.2324 432.1406,535.0918 Q432.7656,533.9355 433.8594,533.3262 Q434.9531,532.7012 436.1875,532.7012 Q436.9219,532.7012 437.5625,532.873 Q438.2188,533.0293 438.7656,533.3887 Z " fill="#000000"/><text fill="#000000" font-family="sans-serif" font-size="14" lengthAdjust="spacing" textLength="314.4121" x="450" y="543.3105">FoodSelectionsAdapter$FoodSelectionViewHolder</text><line style="stroke:#181818;stroke-width:0.5;" x1="422" x2="766.4121" y1="553.5137" y2="553.5137"/><rect fill="none" height="6" style="stroke:#C82930;stroke-width:1.0;" width="6" x="429" y="565.3242"/><text fill="#000000" font-family="sans-serif" font-size="14" lengthAdjust="spacing" textLength="101.1377" x="441" y="572.6211">TextView titleTV</text><rect fill="none" height="6" style="stroke:#C82930;stroke-width:1.0;" width="6" x="429" y="583.9453"/><text fill="#000000" font-family="sans-serif" font-size="14" lengthAdjust="spacing" textLength="147.0547" x="441" y="591.2422">TextView descriptionTV</text><rect fill="none" height="6" style="stroke:#C82930;stroke-width:1.0;" width="6" x="429" y="602.5664"/><text fill="#000000" font-family="sans-serif" font-size="14" lengthAdjust="spacing" textLength="150.9717" x="441" y="609.8633">ImageButton removeBtn</text><rect fill="none" height="6" style="stroke:#C82930;stroke-width:1.0;" width="6" x="429" y="621.1875"/><text fill="#000000" font-family="sans-serif" font-size="14" lengthAdjust="spacing" textLength="171.9922" x="441" y="628.4844">LinearLayout itemContainer</text><line style="stroke:#181818;stroke-width:0.5;" x1="422" x2="766.4121" y1="635.998" y2="635.998"/></g><!--class DaySection--><g id="elem_DaySection"><rect codeLine="25" fill="#F1F1F1" height="122.4844" id="DaySection" rx="2.5" ry="2.5" style="stroke:#181818;stroke-width:0.5;" width="287.4814" x="1313.5" y="330.0137"/><ellipse cx="1417.1943" cy="346.0137" fill="#ADD1B2" rx="11" ry="11" style="stroke:#181818;stroke-width:1.0;"/><path d="M1419.96,341.8887 Q1420.1162,341.6699 1420.3037,341.5605 Q1420.4912,341.4512 1420.71,341.4512 Q1421.085,341.4512 1421.3193,341.7168 Q1421.5537,341.9668 1421.5537,342.5762 L1421.5537,344.0293 Q1421.5537,344.6387 1421.3193,344.9043 Q1421.085,345.1699 1420.71,345.1699 Q1420.3662,345.1699 1420.1631,344.9668 Q1419.96,344.7793 1419.8506,344.2637 Q1419.8037,343.9043 1419.6162,343.7168 Q1419.2881,343.3418 1418.6787,343.123 Q1418.0693,342.9043 1417.4443,342.9043 Q1416.6787,342.9043 1416.0381,343.2324 Q1415.4131,343.5605 1414.9131,344.3105 Q1414.4287,345.0605 1414.4287,346.0918 L1414.4287,347.1855 Q1414.4287,348.4199 1415.3193,349.248 Q1416.21,350.0605 1417.8037,350.0605 Q1418.7412,350.0605 1419.3975,349.8105 Q1419.7881,349.6543 1420.21,349.2168 Q1420.4756,348.9512 1420.6162,348.873 Q1420.7725,348.7949 1420.9756,348.7949 Q1421.3037,348.7949 1421.5537,349.0605 Q1421.8193,349.3105 1421.8193,349.6543 Q1421.8193,349.998 1421.4756,350.4043 Q1420.9756,350.9824 1420.1787,351.3105 Q1419.1006,351.7637 1417.8037,351.7637 Q1416.2881,351.7637 1415.085,351.1387 Q1414.1006,350.6387 1413.4131,349.5762 Q1412.7256,348.498 1412.7256,347.2168 L1412.7256,346.0605 Q1412.7256,344.7324 1413.335,343.5918 Q1413.96,342.4355 1415.0537,341.8262 Q1416.1475,341.2012 1417.3818,341.2012 Q1418.1162,341.2012 1418.7568,341.373 Q1419.4131,341.5293 1419.96,341.8887 Z " fill="#000000"/><text fill="#000000" font-family="sans-serif" font-size="14" lengthAdjust="spacing" textLength="71.5928" x="1437.6943" y="351.8105">DaySection</text><line style="stroke:#181818;stroke-width:0.5;" x1="1314.5" x2="1599.9814" y1="362.0137" y2="362.0137"/><rect fill="none" height="6" style="stroke:#C82930;stroke-width:1.0;" width="6" x="1321.5" y="373.8242"/><text fill="#000000" font-family="sans-serif" font-size="14" lengthAdjust="spacing" textLength="63.0342" x="1333.5" y="381.1211">String day</text><rect fill="none" height="6" style="stroke:#C82930;stroke-width:1.0;" width="6" x="1321.5" y="392.4453"/><text fill="#000000" font-family="sans-serif" font-size="14" lengthAdjust="spacing" textLength="235.7578" x="1333.5" y="399.7422">ArrayList&lt;ListItem&lt;Meal&gt;&gt; mealItems</text><rect fill="none" height="6" style="stroke:#C82930;stroke-width:1.0;" width="6" x="1321.5" y="411.0664"/><text fill="#000000" font-family="sans-serif" font-size="14" lengthAdjust="spacing" textLength="229.5645" x="1333.5" y="418.3633">OnEditMealListener editMealListener</text><rect fill="none" height="6" style="stroke:#C82930;stroke-width:1.0;" width="6" x="1321.5" y="429.6875"/><text fill="#000000" font-family="sans-serif" font-size="14" lengthAdjust="spacing" textLength="261.4814" x="1333.5" y="436.9844">OnDeleteMealListener deleteMealListener</text><line style="stroke:#181818;stroke-width:0.5;" x1="1314.5" x2="1599.9814" y1="444.498" y2="444.498"/></g><!--class DaySection$OnEditMealListener--><g id="elem_DaySection$OnEditMealListener"><rect codeLine="32" fill="#F1F1F1" height="48" id="DaySection$OnEditMealListener" rx="2.5" ry="2.5" style="stroke:#181818;stroke-width:0.5;" width="234.3301" x="1340" y="558.5137"/><ellipse cx="1355" cy="574.5137" fill="#B4A7E5" rx="11" ry="11" style="stroke:#181818;stroke-width:1.0;"/><path d="M1355.9531,571.1543 L1355.9531,577.8105 L1357.6719,577.8105 Q1358.2813,577.8105 1358.5469,578.0449 Q1358.8125,578.2793 1358.8125,578.6699 Q1358.8125,579.0449 1358.5469,579.2793 Q1358.2813,579.5137 1357.6719,579.5137 L1352.5313,579.5137 Q1351.9219,579.5137 1351.6563,579.2793 Q1351.3906,579.0449 1351.3906,578.6543 Q1351.3906,578.2793 1351.6563,578.0449 Q1351.9219,577.8105 1352.5313,577.8105 L1354.25,577.8105 L1354.25,571.1543 L1352.5313,571.1543 Q1351.9219,571.1543 1351.6563,570.9199 Q1351.3906,570.6855 1351.3906,570.2949 Q1351.3906,569.9199 1351.6563,569.6855 Q1351.9219,569.4512 1352.5313,569.4512 L1357.6719,569.4512 Q1358.2813,569.4512 1358.5469,569.6855 Q1358.8125,569.9199 1358.8125,570.2949 Q1358.8125,570.6855 1358.5469,570.9199 Q1358.2813,571.1543 1357.6719,571.1543 L1355.9531,571.1543 Z " fill="#000000"/><text fill="#000000" font-family="sans-serif" font-size="14" font-style="italic" lengthAdjust="spacing" textLength="202.3301" x="1369" y="580.3105">DaySection$OnEditMealListener</text><line style="stroke:#181818;stroke-width:0.5;" x1="1341" x2="1573.3301" y1="590.5137" y2="590.5137"/><line style="stroke:#181818;stroke-width:0.5;" x1="1341" x2="1573.3301" y1="598.5137" y2="598.5137"/></g><!--class DaySection$OnDeleteMealListener--><g id="elem_DaySection$OnDeleteMealListener"><rect codeLine="34" fill="#F1F1F1" height="48" id="DaySection$OnDeleteMealListener" rx="2.5" ry="2.5" style="stroke:#181818;stroke-width:0.5;" width="250.6748" x="1609.5" y="558.5137"/><ellipse cx="1624.5" cy="574.5137" fill="#B4A7E5" rx="11" ry="11" style="stroke:#181818;stroke-width:1.0;"/><path d="M1625.4531,571.1543 L1625.4531,577.8105 L1627.1719,577.8105 Q1627.7813,577.8105 1628.0469,578.0449 Q1628.3125,578.2793 1628.3125,578.6699 Q1628.3125,579.0449 1628.0469,579.2793 Q1627.7813,579.5137 1627.1719,579.5137 L1622.0313,579.5137 Q1621.4219,579.5137 1621.1563,579.2793 Q1620.8906,579.0449 1620.8906,578.6543 Q1620.8906,578.2793 1621.1563,578.0449 Q1621.4219,577.8105 1622.0313,577.8105 L1623.75,577.8105 L1623.75,571.1543 L1622.0313,571.1543 Q1621.4219,571.1543 1621.1563,570.9199 Q1620.8906,570.6855 1620.8906,570.2949 Q1620.8906,569.9199 1621.1563,569.6855 Q1621.4219,569.4512 1622.0313,569.4512 L1627.1719,569.4512 Q1627.7813,569.4512 1628.0469,569.6855 Q1628.3125,569.9199 1628.3125,570.2949 Q1628.3125,570.6855 1628.0469,570.9199 Q1627.7813,571.1543 1627.1719,571.1543 L1625.4531,571.1543 Z " fill="#000000"/><text fill="#000000" font-family="sans-serif" font-size="14" font-style="italic" lengthAdjust="spacing" textLength="218.6748" x="1638.5" y="580.3105">DaySection$OnDeleteMealListener</text><line style="stroke:#181818;stroke-width:0.5;" x1="1610.5" x2="1859.1748" y1="590.5137" y2="590.5137"/><line style="stroke:#181818;stroke-width:0.5;" x1="1610.5" x2="1859.1748" y1="598.5137" y2="598.5137"/></g><!--class DaySection$MealViewHolder--><g id="elem_DaySection$MealViewHolder"><rect codeLine="36" fill="#F1F1F1" height="141.1055" id="DaySection$MealViewHolder" rx="2.5" ry="2.5" style="stroke:#181818;stroke-width:0.5;" width="213.3096" x="802.5" y="512.0137"/><ellipse cx="817.5" cy="528.0137" fill="#ADD1B2" rx="11" ry="11" style="stroke:#181818;stroke-width:1.0;"/><path d="M820.2656,523.8887 Q820.4219,523.6699 820.6094,523.5605 Q820.7969,523.4512 821.0156,523.4512 Q821.3906,523.4512 821.625,523.7168 Q821.8594,523.9668 821.8594,524.5762 L821.8594,526.0293 Q821.8594,526.6387 821.625,526.9043 Q821.3906,527.1699 821.0156,527.1699 Q820.6719,527.1699 820.4688,526.9668 Q820.2656,526.7793 820.1563,526.2637 Q820.1094,525.9043 819.9219,525.7168 Q819.5938,525.3418 818.9844,525.123 Q818.375,524.9043 817.75,524.9043 Q816.9844,524.9043 816.3438,525.2324 Q815.7188,525.5605 815.2188,526.3105 Q814.7344,527.0605 814.7344,528.0918 L814.7344,529.1855 Q814.7344,530.4199 815.625,531.248 Q816.5156,532.0605 818.1094,532.0605 Q819.0469,532.0605 819.7031,531.8105 Q820.0938,531.6543 820.5156,531.2168 Q820.7813,530.9512 820.9219,530.873 Q821.0781,530.7949 821.2813,530.7949 Q821.6094,530.7949 821.8594,531.0605 Q822.125,531.3105 822.125,531.6543 Q822.125,531.998 821.7813,532.4043 Q821.2813,532.9824 820.4844,533.3105 Q819.4063,533.7637 818.1094,533.7637 Q816.5938,533.7637 815.3906,533.1387 Q814.4063,532.6387 813.7188,531.5762 Q813.0313,530.498 813.0313,529.2168 L813.0313,528.0605 Q813.0313,526.7324 813.6406,525.5918 Q814.2656,524.4355 815.3594,523.8262 Q816.4531,523.2012 817.6875,523.2012 Q818.4219,523.2012 819.0625,523.373 Q819.7188,523.5293 820.2656,523.8887 Z " fill="#000000"/><text fill="#000000" font-family="sans-serif" font-size="14" lengthAdjust="spacing" textLength="181.3096" x="831.5" y="533.8105">DaySection$MealViewHolder</text><line style="stroke:#181818;stroke-width:0.5;" x1="803.5" x2="1014.8096" y1="544.0137" y2="544.0137"/><rect fill="none" height="6" style="stroke:#C82930;stroke-width:1.0;" width="6" x="810.5" y="555.8242"/><text fill="#000000" font-family="sans-serif" font-size="14" lengthAdjust="spacing" textLength="136.1445" x="822.5" y="563.1211">TextView mealTitleTV</text><rect fill="none" height="6" style="stroke:#C82930;stroke-width:1.0;" width="6" x="810.5" y="574.4453"/><text fill="#000000" font-family="sans-serif" font-size="14" lengthAdjust="spacing" textLength="179.7236" x="822.5" y="581.7422">TextView mealDescriptionTV</text><rect fill="none" height="6" style="stroke:#C82930;stroke-width:1.0;" width="6" x="810.5" y="593.0664"/><text fill="#000000" font-family="sans-serif" font-size="14" lengthAdjust="spacing" textLength="150.9717" x="822.5" y="600.3633">ImageButton removeBtn</text><rect fill="none" height="6" style="stroke:#C82930;stroke-width:1.0;" width="6" x="810.5" y="611.6875"/><text fill="#000000" font-family="sans-serif" font-size="14" lengthAdjust="spacing" textLength="126.8613" x="822.5" y="618.9844">ImageButton editBtn</text><rect fill="none" height="6" style="stroke:#C82930;stroke-width:1.0;" width="6" x="810.5" y="630.3086"/><text fill="#000000" font-family="sans-serif" font-size="14" lengthAdjust="spacing" textLength="171.9922" x="822.5" y="637.6055">LinearLayout itemContainer</text><line style="stroke:#181818;stroke-width:0.5;" x1="803.5" x2="1014.8096" y1="645.1191" y2="645.1191"/></g><!--class DaySection$DayHeaderViewHolder--><g id="elem_DaySection$DayHeaderViewHolder"><rect codeLine="44" fill="#F1F1F1" height="66.6211" id="DaySection$DayHeaderViewHolder" rx="2.5" ry="2.5" style="stroke:#181818;stroke-width:0.5;" width="253.7783" x="1051" y="549.0137"/><ellipse cx="1066" cy="565.0137" fill="#ADD1B2" rx="11" ry="11" style="stroke:#181818;stroke-width:1.0;"/><path d="M1068.7656,560.8887 Q1068.9219,560.6699 1069.1094,560.5605 Q1069.2969,560.4512 1069.5156,560.4512 Q1069.8906,560.4512 1070.125,560.7168 Q1070.3594,560.9668 1070.3594,561.5762 L1070.3594,563.0293 Q1070.3594,563.6387 1070.125,563.9043 Q1069.8906,564.1699 1069.5156,564.1699 Q1069.1719,564.1699 1068.9688,563.9668 Q1068.7656,563.7793 1068.6563,563.2637 Q1068.6094,562.9043 1068.4219,562.7168 Q1068.0938,562.3418 1067.4844,562.123 Q1066.875,561.9043 1066.25,561.9043 Q1065.4844,561.9043 1064.8438,562.2324 Q1064.2188,562.5605 1063.7188,563.3105 Q1063.2344,564.0605 1063.2344,565.0918 L1063.2344,566.1855 Q1063.2344,567.4199 1064.125,568.248 Q1065.0156,569.0605 1066.6094,569.0605 Q1067.5469,569.0605 1068.2031,568.8105 Q1068.5938,568.6543 1069.0156,568.2168 Q1069.2813,567.9512 1069.4219,567.873 Q1069.5781,567.7949 1069.7813,567.7949 Q1070.1094,567.7949 1070.3594,568.0605 Q1070.625,568.3105 1070.625,568.6543 Q1070.625,568.998 1070.2813,569.4043 Q1069.7813,569.9824 1068.9844,570.3105 Q1067.9063,570.7637 1066.6094,570.7637 Q1065.0938,570.7637 1063.8906,570.1387 Q1062.9063,569.6387 1062.2188,568.5762 Q1061.5313,567.498 1061.5313,566.2168 L1061.5313,565.0605 Q1061.5313,563.7324 1062.1406,562.5918 Q1062.7656,561.4355 1063.8594,560.8262 Q1064.9531,560.2012 1066.1875,560.2012 Q1066.9219,560.2012 1067.5625,560.373 Q1068.2188,560.5293 1068.7656,560.8887 Z " fill="#000000"/><text fill="#000000" font-family="sans-serif" font-size="14" lengthAdjust="spacing" textLength="221.7783" x="1080" y="570.8105">DaySection$DayHeaderViewHolder</text><line style="stroke:#181818;stroke-width:0.5;" x1="1052" x2="1303.7783" y1="581.0137" y2="581.0137"/><rect fill="none" height="6" style="stroke:#C82930;stroke-width:1.0;" width="6" x="1059" y="592.8242"/><text fill="#000000" font-family="sans-serif" font-size="14" lengthAdjust="spacing" textLength="149.3926" x="1071" y="600.1211">TextView headerTitleTV</text><line style="stroke:#181818;stroke-width:0.5;" x1="1052" x2="1303.7783" y1="607.6348" y2="607.6348"/></g><!--class Adapter--><g id="elem_Adapter"><rect fill="#F1F1F1" height="48" id="Adapter" rx="2.5" ry="2.5" style="stroke:#181818;stroke-width:0.5;" width="81.0342" x="375.5" y="178.0137"/><ellipse cx="390.5" cy="194.0137" fill="#ADD1B2" rx="11" ry="11" style="stroke:#181818;stroke-width:1.0;"/><path d="M393.2656,189.8887 Q393.4219,189.6699 393.6094,189.5605 Q393.7969,189.4512 394.0156,189.4512 Q394.3906,189.4512 394.625,189.7168 Q394.8594,189.9668 394.8594,190.5762 L394.8594,192.0293 Q394.8594,192.6387 394.625,192.9043 Q394.3906,193.1699 394.0156,193.1699 Q393.6719,193.1699 393.4688,192.9668 Q393.2656,192.7793 393.1563,192.2637 Q393.1094,191.9043 392.9219,191.7168 Q392.5938,191.3418 391.9844,191.123 Q391.375,190.9043 390.75,190.9043 Q389.9844,190.9043 389.3438,191.2324 Q388.7188,191.5605 388.2188,192.3105 Q387.7344,193.0605 387.7344,194.0918 L387.7344,195.1855 Q387.7344,196.4199 388.625,197.248 Q389.5156,198.0605 391.1094,198.0605 Q392.0469,198.0605 392.7031,197.8105 Q393.0938,197.6543 393.5156,197.2168 Q393.7813,196.9512 393.9219,196.873 Q394.0781,196.7949 394.2813,196.7949 Q394.6094,196.7949 394.8594,197.0605 Q395.125,197.3105 395.125,197.6543 Q395.125,197.998 394.7813,198.4043 Q394.2813,198.9824 393.4844,199.3105 Q392.4063,199.7637 391.1094,199.7637 Q389.5938,199.7637 388.3906,199.1387 Q387.4063,198.6387 386.7188,197.5762 Q386.0313,196.498 386.0313,195.2168 L386.0313,194.0605 Q386.0313,192.7324 386.6406,191.5918 Q387.2656,190.4355 388.3594,189.8262 Q389.4531,189.2012 390.6875,189.2012 Q391.4219,189.2012 392.0625,189.373 Q392.7188,189.5293 393.2656,189.8887 Z " fill="#000000"/><text fill="#000000" font-family="sans-serif" font-size="14" lengthAdjust="spacing" textLength="49.0342" x="404.5" y="199.8105">Adapter</text><line style="stroke:#181818;stroke-width:0.5;" x1="376.5" x2="455.5342" y1="210.0137" y2="210.0137"/><line style="stroke:#181818;stroke-width:0.5;" x1="376.5" x2="455.5342" y1="218.0137" y2="218.0137"/></g><!--class ViewHolder--><g id="elem_ViewHolder"><rect fill="#F1F1F1" height="48" id="ViewHolder" rx="2.5" ry="2.5" style="stroke:#181818;stroke-width:0.5;" width="103.5859" x="806" y="367.0137"/><ellipse cx="821" cy="383.0137" fill="#ADD1B2" rx="11" ry="11" style="stroke:#181818;stroke-width:1.0;"/><path d="M823.7656,378.8887 Q823.9219,378.6699 824.1094,378.5605 Q824.2969,378.4512 824.5156,378.4512 Q824.8906,378.4512 825.125,378.7168 Q825.3594,378.9668 825.3594,379.5762 L825.3594,381.0293 Q825.3594,381.6387 825.125,381.9043 Q824.8906,382.1699 824.5156,382.1699 Q824.1719,382.1699 823.9688,381.9668 Q823.7656,381.7793 823.6563,381.2637 Q823.6094,380.9043 823.4219,380.7168 Q823.0938,380.3418 822.4844,380.123 Q821.875,379.9043 821.25,379.9043 Q820.4844,379.9043 819.8438,380.2324 Q819.2188,380.5605 818.7188,381.3105 Q818.2344,382.0605 818.2344,383.0918 L818.2344,384.1855 Q818.2344,385.4199 819.125,386.248 Q820.0156,387.0605 821.6094,387.0605 Q822.5469,387.0605 823.2031,386.8105 Q823.5938,386.6543 824.0156,386.2168 Q824.2813,385.9512 824.4219,385.873 Q824.5781,385.7949 824.7813,385.7949 Q825.1094,385.7949 825.3594,386.0605 Q825.625,386.3105 825.625,386.6543 Q825.625,386.998 825.2813,387.4043 Q824.7813,387.9824 823.9844,388.3105 Q822.9063,388.7637 821.6094,388.7637 Q820.0938,388.7637 818.8906,388.1387 Q817.9063,387.6387 817.2188,386.5762 Q816.5313,385.498 816.5313,384.2168 L816.5313,383.0605 Q816.5313,381.7324 817.1406,380.5918 Q817.7656,379.4355 818.8594,378.8262 Q819.9531,378.2012 821.1875,378.2012 Q821.9219,378.2012 822.5625,378.373 Q823.2188,378.5293 823.7656,378.8887 Z " fill="#000000"/><text fill="#000000" font-family="sans-serif" font-size="14" lengthAdjust="spacing" textLength="71.5859" x="835" y="388.8105">ViewHolder</text><line style="stroke:#181818;stroke-width:0.5;" x1="807" x2="908.5859" y1="399.0137" y2="399.0137"/><line style="stroke:#181818;stroke-width:0.5;" x1="807" x2="908.5859" y1="407.0137" y2="407.0137"/></g><!--class Section--><g id="elem_Section"><rect fill="#F1F1F1" height="48" id="Section" rx="2.5" ry="2.5" style="stroke:#181818;stroke-width:0.5;" width="78.6963" x="2061.5" y="178.0137"/><ellipse cx="2076.5" cy="194.0137" fill="#ADD1B2" rx="11" ry="11" style="stroke:#181818;stroke-width:1.0;"/><path d="M2079.2656,189.8887 Q2079.4219,189.6699 2079.6094,189.5605 Q2079.7969,189.4512 2080.0156,189.4512 Q2080.3906,189.4512 2080.625,189.7168 Q2080.8594,189.9668 2080.8594,190.5762 L2080.8594,192.0293 Q2080.8594,192.6387 2080.625,192.9043 Q2080.3906,193.1699 2080.0156,193.1699 Q2079.6719,193.1699 2079.4688,192.9668 Q2079.2656,192.7793 2079.1563,192.2637 Q2079.1094,191.9043 2078.9219,191.7168 Q2078.5938,191.3418 2077.9844,191.123 Q2077.375,190.9043 2076.75,190.9043 Q2075.9844,190.9043 2075.3438,191.2324 Q2074.7188,191.5605 2074.2188,192.3105 Q2073.7344,193.0605 2073.7344,194.0918 L2073.7344,195.1855 Q2073.7344,196.4199 2074.625,197.248 Q2075.5156,198.0605 2077.1094,198.0605 Q2078.0469,198.0605 2078.7031,197.8105 Q2079.0938,197.6543 2079.5156,197.2168 Q2079.7813,196.9512 2079.9219,196.873 Q2080.0781,196.7949 2080.2813,196.7949 Q2080.6094,196.7949 2080.8594,197.0605 Q2081.125,197.3105 2081.125,197.6543 Q2081.125,197.998 2080.7813,198.4043 Q2080.2813,198.9824 2079.4844,199.3105 Q2078.4063,199.7637 2077.1094,199.7637 Q2075.5938,199.7637 2074.3906,199.1387 Q2073.4063,198.6387 2072.7188,197.5762 Q2072.0313,196.498 2072.0313,195.2168 L2072.0313,194.0605 Q2072.0313,192.7324 2072.6406,191.5918 Q2073.2656,190.4355 2074.3594,189.8262 Q2075.4531,189.2012 2076.6875,189.2012 Q2077.4219,189.2012 2078.0625,189.373 Q2078.7188,189.5293 2079.2656,189.8887 Z " fill="#000000"/><text fill="#000000" font-family="sans-serif" font-size="14" lengthAdjust="spacing" textLength="46.6963" x="2090.5" y="199.8105">Section</text><line style="stroke:#181818;stroke-width:0.5;" x1="2062.5" x2="2139.1963" y1="210.0137" y2="210.0137"/><line style="stroke:#181818;stroke-width:0.5;" x1="2062.5" x2="2139.1963" y1="218.0137" y2="218.0137"/></g><!--reverse link Adapter to SearchResultsAdapter--><g id="link_Adapter_SearchResultsAdapter"><path codeLine="50" d="M383.3583,239.7831 C356.3283,270.2231 320.47,310.6237 287.1,348.2137 " fill="none" id="Adapter-backto-SearchResultsAdapter" style="stroke:#181818;stroke-width:1.0;"/><polygon fill="none" points="395.31,226.3237,378.8718,235.7992,387.8448,243.767,395.31,226.3237" style="stroke:#181818;stroke-width:1.0;"/></g><!--reverse link SearchResultsAdapter to SearchResultsAdapter$ResultViewHolder--><g id="link_SearchResultsAdapter_SearchResultsAdapter$ResultViewHolder"><path codeLine="51" d="M246.9648,449.5813 C245.6048,475.2913 244.68,492.7437 243.18,521.3237 " fill="none" id="SearchResultsAdapter-backto-SearchResultsAdapter$ResultViewHolder" style="stroke:#181818;stroke-width:1.0;stroke-dasharray:7.0,7.0;"/><ellipse cx="247.3874" cy="441.5925" fill="#FFFFFF" rx="8" ry="8" style="stroke:#181818;stroke-width:1.0;"/><line style="stroke:#181818;stroke-width:1.0;" x1="246.9648" x2="247.81" y1="449.5813" y2="433.6037"/><line style="stroke:#181818;stroke-width:1.0;" x1="239.3986" x2="255.3762" y1="441.1699" y2="442.0151"/></g><!--reverse link ViewHolder to SearchResultsAdapter$ResultViewHolder--><g id="link_ViewHolder_SearchResultsAdapter$ResultViewHolder"><path codeLine="52" d="M802.4212,423.6439 C779.1312,436.2539 764.59,442.6037 736,452.0137 C593.57,498.8837 547.69,469.1637 404,512.0137 C394.52,514.8437 384.84,518.0437 375.17,521.4937 " fill="none" id="ViewHolder-backto-SearchResultsAdapter$ResultViewHolder" style="stroke:#181818;stroke-width:1.0;"/><polygon fill="none" points="818.25,415.0737,799.5645,418.3677,805.278,428.9202,818.25,415.0737" style="stroke:#181818;stroke-width:1.0;"/></g><!--reverse link Adapter to FoodSelectionsAdapter--><g id="link_Adapter_FoodSelectionsAdapter"><path codeLine="53" d="M447.1449,240.1085 C472.7049,270.5485 506.35,310.6237 537.91,348.2137 " fill="none" id="Adapter-backto-FoodSelectionsAdapter" style="stroke:#181818;stroke-width:1.0;"/><polygon fill="none" points="435.57,226.3237,442.55,243.9668,451.7399,236.2502,435.57,226.3237" style="stroke:#181818;stroke-width:1.0;"/></g><!--reverse link FoodSelectionsAdapter to FoodSelectionsAdapter$FoodSelectionViewHolder--><g id="link_FoodSelectionsAdapter_FoodSelectionsAdapter$FoodSelectionViewHolder"><path codeLine="54" d="M579.3728,449.5063 C582.2228,475.2163 584.16,492.7437 587.33,521.3237 " fill="none" id="FoodSelectionsAdapter-backto-FoodSelectionsAdapter$FoodSelectionViewHolder" style="stroke:#181818;stroke-width:1.0;stroke-dasharray:7.0,7.0;"/><ellipse cx="578.4914" cy="441.555" fill="#FFFFFF" rx="8" ry="8" style="stroke:#181818;stroke-width:1.0;"/><line style="stroke:#181818;stroke-width:1.0;" x1="579.3728" x2="577.61" y1="449.5063" y2="433.6037"/><line style="stroke:#181818;stroke-width:1.0;" x1="570.5401" x2="586.4427" y1="442.4364" y2="440.6736"/></g><!--reverse link ViewHolder to FoodSelectionsAdapter$FoodSelectionViewHolder--><g id="link_ViewHolder_FoodSelectionsAdapter$FoodSelectionViewHolder"><path codeLine="55" d="M811.2661,425.5585 C774.7161,451.7885 728.18,485.2037 677.84,521.3337 " fill="none" id="ViewHolder-backto-FoodSelectionsAdapter$FoodSelectionViewHolder" style="stroke:#181818;stroke-width:1.0;"/><polygon fill="none" points="825.89,415.0637,807.7678,420.6838,814.7644,430.4331,825.89,415.0637" style="stroke:#181818;stroke-width:1.0;"/></g><!--reverse link Section to DaySection--><g id="link_Section_DaySection"><path codeLine="56" d="M2051.0025,235.8964 C2008.2825,263.1964 1947.96,298.1537 1877,322.0137 C1787.73,352.0337 1683.2,369.0237 1600.76,378.5037 " fill="none" id="Section-backto-DaySection" style="stroke:#181818;stroke-width:1.0;"/><polygon fill="none" points="2066.17,226.2037,2047.7716,230.8405,2054.2334,240.9522,2066.17,226.2037" style="stroke:#181818;stroke-width:1.0;"/></g><!--reverse link DaySection to DaySection$OnEditMealListener--><g id="link_DaySection_DaySection$OnEditMealListener"><path codeLine="57" d="M1457,468.2337 C1457,504.2137 1457,531.8937 1457,558.1537 " fill="none" id="DaySection-backto-DaySection$OnEditMealListener" style="stroke:#181818;stroke-width:1.0;stroke-dasharray:7.0,7.0;"/><ellipse cx="1457" cy="460.2337" fill="#FFFFFF" rx="8" ry="8" style="stroke:#181818;stroke-width:1.0;"/><line style="stroke:#181818;stroke-width:1.0;" x1="1457" x2="1457" y1="468.2337" y2="452.2337"/><line style="stroke:#181818;stroke-width:1.0;" x1="1449" x2="1465" y1="460.2337" y2="460.2337"/></g><!--reverse link DaySection to DaySection$OnDeleteMealListener--><g id="link_DaySection_DaySection$OnDeleteMealListener"><path codeLine="58" d="M1558.5611,461.245 C1611.5111,497.335 1662.59,532.1537 1701.08,558.3937 " fill="none" id="DaySection-backto-DaySection$OnDeleteMealListener" style="stroke:#181818;stroke-width:1.0;stroke-dasharray:7.0,7.0;"/><ellipse cx="1551.9505" cy="456.7393" fill="#FFFFFF" rx="8" ry="8" style="stroke:#181818;stroke-width:1.0;"/><line style="stroke:#181818;stroke-width:1.0;" x1="1558.5611" x2="1545.34" y1="461.245" y2="452.2337"/><line style="stroke:#181818;stroke-width:1.0;" x1="1547.4449" x2="1556.4562" y1="463.3499" y2="450.1288"/></g><!--reverse link DaySection to DaySection$MealViewHolder--><g id="link_DaySection_DaySection$MealViewHolder"><path codeLine="59" d="M1297.7022,427.8823 C1214.5222,448.5523 1124.3,474.6937 1034,512.0137 C1027.92,514.5237 1021.76,517.2637 1015.6,520.1537 " fill="none" id="DaySection-backto-DaySection$MealViewHolder" style="stroke:#181818;stroke-width:1.0;stroke-dasharray:7.0,7.0;"/><ellipse cx="1305.4661" cy="425.953" fill="#FFFFFF" rx="8" ry="8" style="stroke:#181818;stroke-width:1.0;"/><line style="stroke:#181818;stroke-width:1.0;" x1="1297.7022" x2="1313.23" y1="427.8823" y2="424.0237"/><line style="stroke:#181818;stroke-width:1.0;" x1="1303.5368" x2="1307.3954" y1="418.1891" y2="433.7169"/></g><!--reverse link ViewHolder to DaySection$MealViewHolder--><g id="link_ViewHolder_DaySection$MealViewHolder"><path codeLine="60" d="M868.9334,432.6337 C875.4034,456.6437 881.12,477.9337 890.28,511.9437 " fill="none" id="ViewHolder-backto-DaySection$MealViewHolder" style="stroke:#181818;stroke-width:1.0;"/><polygon fill="none" points="864.25,415.2537,863.1401,434.1948,874.7268,431.0726,864.25,415.2537" style="stroke:#181818;stroke-width:1.0;"/></g><!--reverse link DaySection to DaySection$DayHeaderViewHolder--><g id="link_DaySection_DaySection$DayHeaderViewHolder"><path codeLine="61" d="M1355.1043,461.2234 C1308.0343,493.1934 1265.25,522.2537 1226.22,548.7637 " fill="none" id="DaySection-backto-DaySection$DayHeaderViewHolder" style="stroke:#181818;stroke-width:1.0;stroke-dasharray:7.0,7.0;"/><ellipse cx="1361.7221" cy="456.7285" fill="#FFFFFF" rx="8" ry="8" style="stroke:#181818;stroke-width:1.0;"/><line style="stroke:#181818;stroke-width:1.0;" x1="1355.1043" x2="1368.34" y1="461.2234" y2="452.2337"/><line style="stroke:#181818;stroke-width:1.0;" x1="1357.2273" x2="1366.217" y1="450.1107" y2="463.3464"/></g><!--reverse link ViewHolder to DaySection$DayHeaderViewHolder--><g id="link_ViewHolder_DaySection$DayHeaderViewHolder"><path codeLine="62" d="M912.409,424.2338 C968.959,457.7138 1058.61,510.8137 1123.04,548.9637 " fill="none" id="ViewHolder-backto-DaySection$DayHeaderViewHolder" style="stroke:#181818;stroke-width:1.0;"/><polygon fill="none" points="896.92,415.0637,909.3523,429.3968,915.4657,419.0708,896.92,415.0637" style="stroke:#181818;stroke-width:1.0;"/></g><!--SRC=[jLHTJuCm57tdL_I1DxF-WiN4EPUPp9Z8udjjBwn9QKcvJF7Zlzl2rE5m0sGlG4ylzvnx2eShbkU4cvJ22qip1TH2R27Vq2l1CWHB8s2MRnuWBnJcEv2y1HDoPIqhLpB7gR_S8gJJXJ7YyfBOkjZ3hgxHO65Pae964kyUWeyWu8D4XFNoKSBpqYYnKxM6bmeYA571-d4V4f1pApEKHbSRjobBO5OW6asO43FK3bn9xSXMh3G54kcckZOQcGDjDwdUWmWKS4_JqR2uyKxbcL-0yFj3FMiL4ZRGaRopa9ejZ6FVd9LHBQwI5A6LEY62bUq6tW5Jpi3KtVpQUtUlRuH4l-6hm34J-0LKLNFd0aAZJXn0NhJKJbZCE7GK7hOeU7ED1lHfqUWxzR4nz6__TT3Uj_NXONjutl70zt7lyzYVGUWUby2SzB-6s5IxNsEuzexWIEklNtBwFfdq3fsWTrHUKFh_Q3jAk-VBe9dwiNMshpL_WlxHUSh0NZatcf7zMAMXYSHDyKHL8LyJcz6yhW5XWPTSWTswQlPzIdK2dbJnyvi47KFrb9j7O-mi98SPTmQQPWYEzXKCOnWsGaiEdcEE5ffF]--></g></svg>