<svg xmlns="http://www.w3.org/2000/svg" xmlns:xlink="http://www.w3.org/1999/xlink" contentStyleType="text/css" height="1211px" preserveAspectRatio="none" style="width:820px;height:1211px;background:#FFFFFF;" version="1.1" viewBox="0 0 820 1211" width="820px" zoomAndPan="magnify"><defs/><g><!--cluster com--><g id="cluster_com"><path d="M8.5,6.0137 L38.2861,6.0137 A3.75,3.75 0 0 1 40.7861,8.5137 L47.7861,30.6348 L810.5,30.6348 A2.5,2.5 0 0 1 813,33.1348 L813,1201.5137 A2.5,2.5 0 0 1 810.5,1204.0137 L8.5,1204.0137 A2.5,2.5 0 0 1 6,1201.5137 L6,8.5137 A2.5,2.5 0 0 1 8.5,6.0137 " fill="none" style="stroke:#000000;stroke-width:1.5;"/><line style="stroke:#000000;stroke-width:1.5;" x1="6" x2="47.7861" y1="30.6348" y2="30.6348"/><text fill="#000000" font-family="sans-serif" font-size="14" font-weight="bold" lengthAdjust="spacing" textLength="28.7861" x="10" y="23.1211">com</text></g><!--cluster example--><g id="cluster_example"><path d="M32.5,51.0137 L89.5342,51.0137 A3.75,3.75 0 0 1 92.0342,53.5137 L99.0342,75.6348 L786.5,75.6348 A2.5,2.5 0 0 1 789,78.1348 L789,1177.5137 A2.5,2.5 0 0 1 786.5,1180.0137 L32.5,1180.0137 A2.5,2.5 0 0 1 30,1177.5137 L30,53.5137 A2.5,2.5 0 0 1 32.5,51.0137 " fill="none" style="stroke:#000000;stroke-width:1.5;"/><line style="stroke:#000000;stroke-width:1.5;" x1="30" x2="99.0342" y1="75.6348" y2="75.6348"/><text fill="#000000" font-family="sans-serif" font-size="14" font-weight="bold" lengthAdjust="spacing" textLength="56.0342" x="34" y="68.1211">example</text></g><!--cluster refresh--><g id="cluster_refresh"><path d="M56.5,96.0137 L104.9688,96.0137 A3.75,3.75 0 0 1 107.4688,98.5137 L114.4688,120.6348 L762.5,120.6348 A2.5,2.5 0 0 1 765,123.1348 L765,1153.5137 A2.5,2.5 0 0 1 762.5,1156.0137 L56.5,1156.0137 A2.5,2.5 0 0 1 54,1153.5137 L54,98.5137 A2.5,2.5 0 0 1 56.5,96.0137 " fill="none" style="stroke:#000000;stroke-width:1.5;"/><line style="stroke:#000000;stroke-width:1.5;" x1="54" x2="114.4688" y1="120.6348" y2="120.6348"/><text fill="#000000" font-family="sans-serif" font-size="14" font-weight="bold" lengthAdjust="spacing" textLength="47.4688" x="58" y="113.1211">refresh</text></g><!--cluster Database--><g id="cluster_Database"><path d="M80.5,141.0137 L143.7549,141.0137 A3.75,3.75 0 0 1 146.2549,143.5137 L153.2549,165.6348 L738.5,165.6348 A2.5,2.5 0 0 1 741,168.1348 L741,1129.5137 A2.5,2.5 0 0 1 738.5,1132.0137 L80.5,1132.0137 A2.5,2.5 0 0 1 78,1129.5137 L78,143.5137 A2.5,2.5 0 0 1 80.5,141.0137 " fill="none" style="stroke:#000000;stroke-width:1.5;"/><line style="stroke:#000000;stroke-width:1.5;" x1="78" x2="153.2549" y1="165.6348" y2="165.6348"/><text fill="#000000" font-family="sans-serif" font-size="14" font-weight="bold" lengthAdjust="spacing" textLength="62.2549" x="82" y="158.1211">Database</text></g><!--class UsersTable--><g id="elem_UsersTable"><rect codeLine="1" fill="#F1F1F1" height="85.2422" id="UsersTable" rx="2.5" ry="2.5" style="stroke:#181818;stroke-width:0.5;" width="175.3857" x="104.5" y="522.5137"/><ellipse cx="152.1533" cy="538.5137" fill="#ADD1B2" rx="11" ry="11" style="stroke:#181818;stroke-width:1.0;"/><path d="M154.9189,534.3887 Q155.0752,534.1699 155.2627,534.0605 Q155.4502,533.9512 155.6689,533.9512 Q156.0439,533.9512 156.2783,534.2168 Q156.5127,534.4668 156.5127,535.0762 L156.5127,536.5293 Q156.5127,537.1387 156.2783,537.4043 Q156.0439,537.6699 155.6689,537.6699 Q155.3252,537.6699 155.1221,537.4668 Q154.9189,537.2793 154.8096,536.7637 Q154.7627,536.4043 154.5752,536.2168 Q154.2471,535.8418 153.6377,535.623 Q153.0283,535.4043 152.4033,535.4043 Q151.6377,535.4043 150.9971,535.7324 Q150.3721,536.0605 149.8721,536.8105 Q149.3877,537.5605 149.3877,538.5918 L149.3877,539.6855 Q149.3877,540.9199 150.2783,541.748 Q151.1689,542.5605 152.7627,542.5605 Q153.7002,542.5605 154.3564,542.3105 Q154.7471,542.1543 155.1689,541.7168 Q155.4346,541.4512 155.5752,541.373 Q155.7314,541.2949 155.9346,541.2949 Q156.2627,541.2949 156.5127,541.5605 Q156.7783,541.8105 156.7783,542.1543 Q156.7783,542.498 156.4346,542.9043 Q155.9346,543.4824 155.1377,543.8105 Q154.0596,544.2637 152.7627,544.2637 Q151.2471,544.2637 150.0439,543.6387 Q149.0596,543.1387 148.3721,542.0762 Q147.6846,540.998 147.6846,539.7168 L147.6846,538.5605 Q147.6846,537.2324 148.2939,536.0918 Q148.9189,534.9355 150.0127,534.3262 Q151.1064,533.7012 152.3408,533.7012 Q153.0752,533.7012 153.7158,533.873 Q154.3721,534.0293 154.9189,534.3887 Z " fill="#000000"/><text fill="#000000" font-family="sans-serif" font-size="14" lengthAdjust="spacing" textLength="71.5791" x="172.6533" y="544.3105">UsersTable</text><line style="stroke:#181818;stroke-width:0.5;" x1="105.5" x2="278.8857" y1="554.5137" y2="554.5137"/><ellipse cx="115.5" cy="569.3242" fill="none" rx="3" ry="3" style="stroke:#038048;stroke-width:1.0;"/><text fill="#000000" font-family="sans-serif" font-size="14" lengthAdjust="spacing" text-decoration="underline" textLength="133.0479" x="124.5" y="573.6211">String TABLE_NAME</text><ellipse cx="115.5" cy="587.9453" fill="none" rx="3" ry="3" style="stroke:#038048;stroke-width:1.0;"/><text fill="#000000" font-family="sans-serif" font-size="14" lengthAdjust="spacing" text-decoration="underline" textLength="149.3857" x="124.5" y="592.2422">String CREATE_TABLE</text><line style="stroke:#181818;stroke-width:0.5;" x1="105.5" x2="278.8857" y1="599.7559" y2="599.7559"/></g><!--class Columns--><g id="elem_Columns"><rect codeLine="67" fill="#F1F1F1" height="774.2227" id="Columns" rx="2.5" ry="2.5" style="stroke:#181818;stroke-width:0.5;" width="148.9375" x="314.5" y="178.0137"/><ellipse cx="357.2633" cy="194.0137" fill="#EB937F" rx="11" ry="11" style="stroke:#181818;stroke-width:1.0;"/><path d="M356.1227,194.8105 L356.1227,197.3105 L360.4508,197.3105 L360.4508,196.3887 Q360.4508,195.7793 360.6852,195.5137 Q360.9352,195.248 361.3102,195.248 Q361.6852,195.248 361.9196,195.5137 Q362.154,195.7793 362.154,196.3887 L362.154,199.0137 L354.154,199.0137 Q353.529,199.0137 353.2633,198.7793 Q353.0133,198.5449 353.0133,198.1543 Q353.0133,197.7793 353.279,197.5449 Q353.5446,197.3105 354.154,197.3105 L354.4196,197.3105 L354.4196,190.6543 L354.154,190.6543 Q353.529,190.6543 353.2633,190.4199 Q353.0133,190.1855 353.0133,189.7949 Q353.0133,189.4199 353.2633,189.1855 Q353.529,188.9512 354.154,188.9512 L361.779,188.9512 L361.779,191.5449 Q361.779,192.1543 361.5446,192.4199 Q361.3258,192.6699 360.9352,192.6699 Q360.5602,192.6699 360.3258,192.4199 Q360.0915,192.1543 360.0915,191.5449 L360.0915,190.6543 L356.1227,190.6543 L356.1227,193.1074 L357.6071,193.1074 Q357.6071,192.4512 357.7321,192.2637 Q357.9977,191.8574 358.4665,191.8574 Q358.8415,191.8574 359.0758,192.123 Q359.3102,192.373 359.3102,192.9824 L359.3102,194.9512 Q359.3102,195.498 359.1852,195.6855 Q358.9196,196.0762 358.4665,196.0762 Q357.9977,196.0762 357.7321,195.6699 Q357.6071,195.4824 357.6071,194.8105 L356.1227,194.8105 Z " fill="#000000"/><text fill="#000000" font-family="sans-serif" font-size="14" lengthAdjust="spacing" textLength="55.2412" x="377.433" y="199.8105">Columns</text><line style="stroke:#181818;stroke-width:0.5;" x1="315.5" x2="462.4375" y1="210.0137" y2="210.0137"/><ellipse cx="325.5" cy="224.8242" fill="none" rx="3" ry="3" style="stroke:#038048;stroke-width:1.0;"/><text fill="#000000" font-family="sans-serif" font-size="14" lengthAdjust="spacing" textLength="14" x="334.5" y="229.1211">ID</text><ellipse cx="325.5" cy="243.4453" fill="none" rx="3" ry="3" style="stroke:#038048;stroke-width:1.0;"/><text fill="#000000" font-family="sans-serif" font-size="14" lengthAdjust="spacing" textLength="40.4482" x="334.5" y="247.7422">NAME</text><ellipse cx="325.5" cy="262.0664" fill="none" rx="3" ry="3" style="stroke:#038048;stroke-width:1.0;"/><text fill="#000000" font-family="sans-serif" font-size="14" lengthAdjust="spacing" textLength="42.0137" x="334.5" y="266.3633">EMAIL</text><ellipse cx="325.5" cy="280.6875" fill="none" rx="3" ry="3" style="stroke:#038048;stroke-width:1.0;"/><text fill="#000000" font-family="sans-serif" font-size="14" lengthAdjust="spacing" textLength="49.7861" x="334.5" y="284.9844">PHONE</text><ellipse cx="325.5" cy="299.3086" fill="none" rx="3" ry="3" style="stroke:#038048;stroke-width:1.0;"/><text fill="#000000" font-family="sans-serif" font-size="14" lengthAdjust="spacing" textLength="32.6621" x="334.5" y="303.6055">PWD</text><ellipse cx="325.5" cy="317.9297" fill="none" rx="3" ry="3" style="stroke:#038048;stroke-width:1.0;"/><text fill="#000000" font-family="sans-serif" font-size="14" lengthAdjust="spacing" textLength="105.7725" x="334.5" y="322.2266">PWD_CONFIRM</text><rect fill="none" height="6" style="stroke:#C82930;stroke-width:1.0;" width="6" x="322.5" y="333.5508"/><text fill="#000000" font-family="sans-serif" font-size="14" lengthAdjust="spacing" textLength="122.9375" x="334.5" y="340.8477">String columnName</text><ellipse cx="325.5" cy="355.1719" fill="none" rx="3" ry="3" style="stroke:#038048;stroke-width:1.0;"/><text fill="#000000" font-family="sans-serif" font-size="14" lengthAdjust="spacing" textLength="95.6895" x="334.5" y="359.4688">TEMPLATE_ID</text><ellipse cx="325.5" cy="373.793" fill="none" rx="3" ry="3" style="stroke:#038048;stroke-width:1.0;"/><text fill="#000000" font-family="sans-serif" font-size="14" lengthAdjust="spacing" textLength="78.5654" x="334.5" y="378.0898">CATEGORY</text><ellipse cx="325.5" cy="392.4141" fill="none" rx="3" ry="3" style="stroke:#038048;stroke-width:1.0;"/><text fill="#000000" font-family="sans-serif" font-size="14" lengthAdjust="spacing" textLength="38.1172" x="334.5" y="396.7109">TITLE</text><ellipse cx="325.5" cy="411.0352" fill="none" rx="3" ry="3" style="stroke:#038048;stroke-width:1.0;"/><text fill="#000000" font-family="sans-serif" font-size="14" lengthAdjust="spacing" textLength="69.2412" x="334.5" y="415.332">MESSAGE</text><ellipse cx="325.5" cy="429.6563" fill="none" rx="3" ry="3" style="stroke:#038048;stroke-width:1.0;"/><text fill="#000000" font-family="sans-serif" font-size="14" lengthAdjust="spacing" textLength="56.7861" x="334.5" y="433.9531">ICON_ID</text><ellipse cx="325.5" cy="448.2773" fill="none" rx="3" ry="3" style="stroke:#038048;stroke-width:1.0;"/><text fill="#000000" font-family="sans-serif" font-size="14" lengthAdjust="spacing" textLength="116.7031" x="334.5" y="452.5742">ACTIVITY_CLASS</text><rect fill="none" height="6" style="stroke:#C82930;stroke-width:1.0;" width="6" x="322.5" y="463.8984"/><text fill="#000000" font-family="sans-serif" font-size="14" lengthAdjust="spacing" textLength="122.9375" x="334.5" y="471.1953">String columnName</text><ellipse cx="325.5" cy="485.5195" fill="none" rx="3" ry="3" style="stroke:#038048;stroke-width:1.0;"/><text fill="#000000" font-family="sans-serif" font-size="14" lengthAdjust="spacing" textLength="92.5723" x="334.5" y="489.8164">INSTANCE_ID</text><ellipse cx="325.5" cy="504.1406" fill="none" rx="3" ry="3" style="stroke:#038048;stroke-width:1.0;"/><text fill="#000000" font-family="sans-serif" font-size="14" lengthAdjust="spacing" textLength="95.6895" x="334.5" y="508.4375">TEMPLATE_ID</text><ellipse cx="325.5" cy="522.7617" fill="none" rx="3" ry="3" style="stroke:#038048;stroke-width:1.0;"/><text fill="#000000" font-family="sans-serif" font-size="14" lengthAdjust="spacing" textLength="33.4414" x="334.5" y="527.0586">TIME</text><rect fill="none" height="6" style="stroke:#C82930;stroke-width:1.0;" width="6" x="322.5" y="538.3828"/><text fill="#000000" font-family="sans-serif" font-size="14" lengthAdjust="spacing" textLength="122.9375" x="334.5" y="545.6797">String columnName</text><ellipse cx="325.5" cy="560.0039" fill="none" rx="3" ry="3" style="stroke:#038048;stroke-width:1.0;"/><text fill="#000000" font-family="sans-serif" font-size="14" lengthAdjust="spacing" textLength="59.9102" x="334.5" y="564.3008">MEAL_ID</text><ellipse cx="325.5" cy="578.625" fill="none" rx="3" ry="3" style="stroke:#038048;stroke-width:1.0;"/><text fill="#000000" font-family="sans-serif" font-size="14" lengthAdjust="spacing" textLength="37.3379" x="334.5" y="582.9219">DATE</text><ellipse cx="325.5" cy="597.2461" fill="none" rx="3" ry="3" style="stroke:#038048;stroke-width:1.0;"/><text fill="#000000" font-family="sans-serif" font-size="14" lengthAdjust="spacing" textLength="33.4414" x="334.5" y="601.543">TIME</text><ellipse cx="325.5" cy="615.8672" fill="none" rx="3" ry="3" style="stroke:#038048;stroke-width:1.0;"/><text fill="#000000" font-family="sans-serif" font-size="14" lengthAdjust="spacing" textLength="36.5654" x="334.5" y="620.1641">TYPE</text><ellipse cx="325.5" cy="634.4883" fill="none" rx="3" ry="3" style="stroke:#038048;stroke-width:1.0;"/><text fill="#000000" font-family="sans-serif" font-size="14" lengthAdjust="spacing" textLength="48.2275" x="334.5" y="638.7852">NOTES</text><ellipse cx="325.5" cy="653.1094" fill="none" rx="3" ry="3" style="stroke:#038048;stroke-width:1.0;"/><text fill="#000000" font-family="sans-serif" font-size="14" lengthAdjust="spacing" textLength="71.5654" x="334.5" y="657.4063">FOOD_IDS</text><ellipse cx="325.5" cy="671.7305" fill="none" rx="3" ry="3" style="stroke:#038048;stroke-width:1.0;"/><text fill="#000000" font-family="sans-serif" font-size="14" lengthAdjust="spacing" textLength="111.2549" x="334.5" y="676.0273">SERVING_SIZES</text><ellipse cx="325.5" cy="690.3516" fill="none" rx="3" ry="3" style="stroke:#038048;stroke-width:1.0;"/><text fill="#000000" font-family="sans-serif" font-size="14" lengthAdjust="spacing" textLength="60.6826" x="334.5" y="694.6484">USER_ID</text><rect fill="none" height="6" style="stroke:#C82930;stroke-width:1.0;" width="6" x="322.5" y="705.9727"/><text fill="#000000" font-family="sans-serif" font-size="14" lengthAdjust="spacing" textLength="122.9375" x="334.5" y="713.2695">String columnName</text><ellipse cx="325.5" cy="727.5938" fill="none" rx="3" ry="3" style="stroke:#038048;stroke-width:1.0;"/><text fill="#000000" font-family="sans-serif" font-size="14" lengthAdjust="spacing" textLength="62.2275" x="334.5" y="731.8906">FOOD_ID</text><ellipse cx="325.5" cy="746.2148" fill="none" rx="3" ry="3" style="stroke:#038048;stroke-width:1.0;"/><text fill="#000000" font-family="sans-serif" font-size="14" lengthAdjust="spacing" textLength="40.4482" x="334.5" y="750.5117">NAME</text><ellipse cx="325.5" cy="764.8359" fill="none" rx="3" ry="3" style="stroke:#038048;stroke-width:1.0;"/><text fill="#000000" font-family="sans-serif" font-size="14" lengthAdjust="spacing" textLength="95.6758" x="334.5" y="769.1328">DESCRIPTION</text><ellipse cx="325.5" cy="783.457" fill="none" rx="3" ry="3" style="stroke:#038048;stroke-width:1.0;"/><text fill="#000000" font-family="sans-serif" font-size="14" lengthAdjust="spacing" textLength="78.5654" x="334.5" y="787.7539">CATEGORY</text><ellipse cx="325.5" cy="802.0781" fill="none" rx="3" ry="3" style="stroke:#038048;stroke-width:1.0;"/><text fill="#000000" font-family="sans-serif" font-size="14" lengthAdjust="spacing" textLength="43.5859" x="334.5" y="806.375">LABEL</text><ellipse cx="325.5" cy="820.6992" fill="none" rx="3" ry="3" style="stroke:#038048;stroke-width:1.0;"/><text fill="#000000" font-family="sans-serif" font-size="14" lengthAdjust="spacing" textLength="101.917" x="334.5" y="824.9961">SERVING_SIZE</text><ellipse cx="325.5" cy="839.3203" fill="none" rx="3" ry="3" style="stroke:#038048;stroke-width:1.0;"/><text fill="#000000" font-family="sans-serif" font-size="14" lengthAdjust="spacing" textLength="70.7998" x="334.5" y="843.6172">CALORIES</text><ellipse cx="325.5" cy="857.9414" fill="none" rx="3" ry="3" style="stroke:#038048;stroke-width:1.0;"/><text fill="#000000" font-family="sans-serif" font-size="14" lengthAdjust="spacing" textLength="48.2344" x="334.5" y="862.2383">CARBS</text><ellipse cx="325.5" cy="876.5625" fill="none" rx="3" ry="3" style="stroke:#038048;stroke-width:1.0;"/><text fill="#000000" font-family="sans-serif" font-size="14" lengthAdjust="spacing" textLength="62.2275" x="334.5" y="880.8594">PROTEIN</text><ellipse cx="325.5" cy="895.1836" fill="none" rx="3" ry="3" style="stroke:#038048;stroke-width:1.0;"/><text fill="#000000" font-family="sans-serif" font-size="14" lengthAdjust="spacing" textLength="26.4414" x="334.5" y="899.4805">FAT</text><ellipse cx="325.5" cy="913.8047" fill="none" rx="3" ry="3" style="stroke:#038048;stroke-width:1.0;"/><text fill="#000000" font-family="sans-serif" font-size="14" lengthAdjust="spacing" textLength="48.2275" x="334.5" y="918.1016">NOTES</text><rect fill="none" height="6" style="stroke:#C82930;stroke-width:1.0;" width="6" x="322.5" y="929.4258"/><text fill="#000000" font-family="sans-serif" font-size="14" lengthAdjust="spacing" textLength="122.9375" x="334.5" y="936.7227">String columnName</text><line style="stroke:#181818;stroke-width:0.5;" x1="315.5" x2="462.4375" y1="944.2363" y2="944.2363"/></g><!--class NotificationTemplatesTable--><g id="elem_NotificationTemplatesTable"><rect codeLine="16" fill="#F1F1F1" height="103.8633" id="NotificationTemplatesTable" rx="2.5" ry="2.5" style="stroke:#181818;stroke-width:0.5;" width="201.6338" x="499" y="513.0137"/><ellipse cx="514" cy="529.0137" fill="#ADD1B2" rx="11" ry="11" style="stroke:#181818;stroke-width:1.0;"/><path d="M516.7656,524.8887 Q516.9219,524.6699 517.1094,524.5605 Q517.2969,524.4512 517.5156,524.4512 Q517.8906,524.4512 518.125,524.7168 Q518.3594,524.9668 518.3594,525.5762 L518.3594,527.0293 Q518.3594,527.6387 518.125,527.9043 Q517.8906,528.1699 517.5156,528.1699 Q517.1719,528.1699 516.9688,527.9668 Q516.7656,527.7793 516.6563,527.2637 Q516.6094,526.9043 516.4219,526.7168 Q516.0938,526.3418 515.4844,526.123 Q514.875,525.9043 514.25,525.9043 Q513.4844,525.9043 512.8438,526.2324 Q512.2188,526.5605 511.7188,527.3105 Q511.2344,528.0605 511.2344,529.0918 L511.2344,530.1855 Q511.2344,531.4199 512.125,532.248 Q513.0156,533.0605 514.6094,533.0605 Q515.5469,533.0605 516.2031,532.8105 Q516.5938,532.6543 517.0156,532.2168 Q517.2813,531.9512 517.4219,531.873 Q517.5781,531.7949 517.7813,531.7949 Q518.1094,531.7949 518.3594,532.0605 Q518.625,532.3105 518.625,532.6543 Q518.625,532.998 518.2813,533.4043 Q517.7813,533.9824 516.9844,534.3105 Q515.9063,534.7637 514.6094,534.7637 Q513.0938,534.7637 511.8906,534.1387 Q510.9063,533.6387 510.2188,532.5762 Q509.5313,531.498 509.5313,530.2168 L509.5313,529.0605 Q509.5313,527.7324 510.1406,526.5918 Q510.7656,525.4355 511.8594,524.8262 Q512.9531,524.2012 514.1875,524.2012 Q514.9219,524.2012 515.5625,524.373 Q516.2188,524.5293 516.7656,524.8887 Z " fill="#000000"/><text fill="#000000" font-family="sans-serif" font-size="14" lengthAdjust="spacing" textLength="169.6338" x="528" y="534.8105">NotificationTemplatesTable</text><line style="stroke:#181818;stroke-width:0.5;" x1="500" x2="699.6338" y1="545.0137" y2="545.0137"/><ellipse cx="510" cy="559.8242" fill="none" rx="3" ry="3" style="stroke:#038048;stroke-width:1.0;"/><text fill="#000000" font-family="sans-serif" font-size="14" lengthAdjust="spacing" text-decoration="underline" textLength="133.0479" x="519" y="564.1211">String TABLE_NAME</text><ellipse cx="510" cy="578.4453" fill="none" rx="3" ry="3" style="stroke:#038048;stroke-width:1.0;"/><text fill="#000000" font-family="sans-serif" font-size="14" lengthAdjust="spacing" text-decoration="underline" textLength="163.3857" x="519" y="582.7422">String JSON_FILE_NAME</text><ellipse cx="510" cy="597.0664" fill="none" rx="3" ry="3" style="stroke:#038048;stroke-width:1.0;"/><text fill="#000000" font-family="sans-serif" font-size="14" lengthAdjust="spacing" text-decoration="underline" textLength="149.3857" x="519" y="601.3633">String CREATE_TABLE</text><line style="stroke:#181818;stroke-width:0.5;" x1="500" x2="699.6338" y1="608.877" y2="608.877"/></g><!--class NotificationInstancesTable--><g id="elem_NotificationInstancesTable"><rect codeLine="32" fill="#F1F1F1" height="85.2422" id="NotificationInstancesTable" rx="2.5" ry="2.5" style="stroke:#181818;stroke-width:0.5;" width="196.1992" x="94" y="1021.5137"/><ellipse cx="109" cy="1037.5137" fill="#ADD1B2" rx="11" ry="11" style="stroke:#181818;stroke-width:1.0;"/><path d="M111.7656,1033.3887 Q111.9219,1033.1699 112.1094,1033.0605 Q112.2969,1032.9512 112.5156,1032.9512 Q112.8906,1032.9512 113.125,1033.2168 Q113.3594,1033.4668 113.3594,1034.0762 L113.3594,1035.5293 Q113.3594,1036.1387 113.125,1036.4043 Q112.8906,1036.6699 112.5156,1036.6699 Q112.1719,1036.6699 111.9688,1036.4668 Q111.7656,1036.2793 111.6563,1035.7637 Q111.6094,1035.4043 111.4219,1035.2168 Q111.0938,1034.8418 110.4844,1034.623 Q109.875,1034.4043 109.25,1034.4043 Q108.4844,1034.4043 107.8438,1034.7324 Q107.2188,1035.0605 106.7188,1035.8105 Q106.2344,1036.5605 106.2344,1037.5918 L106.2344,1038.6855 Q106.2344,1039.9199 107.125,1040.748 Q108.0156,1041.5605 109.6094,1041.5605 Q110.5469,1041.5605 111.2031,1041.3105 Q111.5938,1041.1543 112.0156,1040.7168 Q112.2813,1040.4512 112.4219,1040.373 Q112.5781,1040.2949 112.7813,1040.2949 Q113.1094,1040.2949 113.3594,1040.5605 Q113.625,1040.8105 113.625,1041.1543 Q113.625,1041.498 113.2813,1041.9043 Q112.7813,1042.4824 111.9844,1042.8105 Q110.9063,1043.2637 109.6094,1043.2637 Q108.0938,1043.2637 106.8906,1042.6387 Q105.9063,1042.1387 105.2188,1041.0762 Q104.5313,1039.998 104.5313,1038.7168 L104.5313,1037.5605 Q104.5313,1036.2324 105.1406,1035.0918 Q105.7656,1033.9355 106.8594,1033.3262 Q107.9531,1032.7012 109.1875,1032.7012 Q109.9219,1032.7012 110.5625,1032.873 Q111.2188,1033.0293 111.7656,1033.3887 Z " fill="#000000"/><text fill="#000000" font-family="sans-serif" font-size="14" lengthAdjust="spacing" textLength="164.1992" x="123" y="1043.3105">NotificationInstancesTable</text><line style="stroke:#181818;stroke-width:0.5;" x1="95" x2="289.1992" y1="1053.5137" y2="1053.5137"/><ellipse cx="105" cy="1068.3242" fill="none" rx="3" ry="3" style="stroke:#038048;stroke-width:1.0;"/><text fill="#000000" font-family="sans-serif" font-size="14" lengthAdjust="spacing" text-decoration="underline" textLength="133.0479" x="114" y="1072.6211">String TABLE_NAME</text><ellipse cx="105" cy="1086.9453" fill="none" rx="3" ry="3" style="stroke:#038048;stroke-width:1.0;"/><text fill="#000000" font-family="sans-serif" font-size="14" lengthAdjust="spacing" text-decoration="underline" textLength="149.3857" x="114" y="1091.2422">String CREATE_TABLE</text><line style="stroke:#181818;stroke-width:0.5;" x1="95" x2="289.1992" y1="1098.7559" y2="1098.7559"/></g><!--class MealsTable--><g id="elem_MealsTable"><rect codeLine="44" fill="#F1F1F1" height="85.2422" id="MealsTable" rx="2.5" ry="2.5" style="stroke:#181818;stroke-width:0.5;" width="175.3857" x="325.5" y="1021.5137"/><ellipse cx="372.7603" cy="1037.5137" fill="#ADD1B2" rx="11" ry="11" style="stroke:#181818;stroke-width:1.0;"/><path d="M375.5259,1033.3887 Q375.6821,1033.1699 375.8696,1033.0605 Q376.0571,1032.9512 376.2759,1032.9512 Q376.6509,1032.9512 376.8853,1033.2168 Q377.1196,1033.4668 377.1196,1034.0762 L377.1196,1035.5293 Q377.1196,1036.1387 376.8853,1036.4043 Q376.6509,1036.6699 376.2759,1036.6699 Q375.9321,1036.6699 375.729,1036.4668 Q375.5259,1036.2793 375.4165,1035.7637 Q375.3696,1035.4043 375.1821,1035.2168 Q374.854,1034.8418 374.2446,1034.623 Q373.6353,1034.4043 373.0103,1034.4043 Q372.2446,1034.4043 371.604,1034.7324 Q370.979,1035.0605 370.479,1035.8105 Q369.9946,1036.5605 369.9946,1037.5918 L369.9946,1038.6855 Q369.9946,1039.9199 370.8853,1040.748 Q371.7759,1041.5605 373.3696,1041.5605 Q374.3071,1041.5605 374.9634,1041.3105 Q375.354,1041.1543 375.7759,1040.7168 Q376.0415,1040.4512 376.1821,1040.373 Q376.3384,1040.2949 376.5415,1040.2949 Q376.8696,1040.2949 377.1196,1040.5605 Q377.3853,1040.8105 377.3853,1041.1543 Q377.3853,1041.498 377.0415,1041.9043 Q376.5415,1042.4824 375.7446,1042.8105 Q374.6665,1043.2637 373.3696,1043.2637 Q371.854,1043.2637 370.6509,1042.6387 Q369.6665,1042.1387 368.979,1041.0762 Q368.2915,1039.998 368.2915,1038.7168 L368.2915,1037.5605 Q368.2915,1036.2324 368.9009,1035.0918 Q369.5259,1033.9355 370.6196,1033.3262 Q371.7134,1032.7012 372.9478,1032.7012 Q373.6821,1032.7012 374.3228,1032.873 Q374.979,1033.0293 375.5259,1033.3887 Z " fill="#000000"/><text fill="#000000" font-family="sans-serif" font-size="14" lengthAdjust="spacing" textLength="72.3652" x="393.2603" y="1043.3105">MealsTable</text><line style="stroke:#181818;stroke-width:0.5;" x1="326.5" x2="499.8857" y1="1053.5137" y2="1053.5137"/><ellipse cx="336.5" cy="1068.3242" fill="none" rx="3" ry="3" style="stroke:#038048;stroke-width:1.0;"/><text fill="#000000" font-family="sans-serif" font-size="14" lengthAdjust="spacing" text-decoration="underline" textLength="133.0479" x="345.5" y="1072.6211">String TABLE_NAME</text><ellipse cx="336.5" cy="1086.9453" fill="none" rx="3" ry="3" style="stroke:#038048;stroke-width:1.0;"/><text fill="#000000" font-family="sans-serif" font-size="14" lengthAdjust="spacing" text-decoration="underline" textLength="149.3857" x="345.5" y="1091.2422">String CREATE_TABLE</text><line style="stroke:#181818;stroke-width:0.5;" x1="326.5" x2="499.8857" y1="1098.7559" y2="1098.7559"/></g><!--class FoodsTable--><g id="elem_FoodsTable"><rect codeLine="61" fill="#F1F1F1" height="103.8633" id="FoodsTable" rx="2.5" ry="2.5" style="stroke:#181818;stroke-width:0.5;" width="189.3857" x="535.5" y="1012.0137"/><ellipse cx="588.9775" cy="1028.0137" fill="#ADD1B2" rx="11" ry="11" style="stroke:#181818;stroke-width:1.0;"/><path d="M591.7432,1023.8887 Q591.8994,1023.6699 592.0869,1023.5605 Q592.2744,1023.4512 592.4932,1023.4512 Q592.8682,1023.4512 593.1025,1023.7168 Q593.3369,1023.9668 593.3369,1024.5762 L593.3369,1026.0293 Q593.3369,1026.6387 593.1025,1026.9043 Q592.8682,1027.1699 592.4932,1027.1699 Q592.1494,1027.1699 591.9463,1026.9668 Q591.7432,1026.7793 591.6338,1026.2637 Q591.5869,1025.9043 591.3994,1025.7168 Q591.0713,1025.3418 590.4619,1025.123 Q589.8525,1024.9043 589.2275,1024.9043 Q588.4619,1024.9043 587.8213,1025.2324 Q587.1963,1025.5605 586.6963,1026.3105 Q586.2119,1027.0605 586.2119,1028.0918 L586.2119,1029.1855 Q586.2119,1030.4199 587.1025,1031.248 Q587.9932,1032.0605 589.5869,1032.0605 Q590.5244,1032.0605 591.1807,1031.8105 Q591.5713,1031.6543 591.9932,1031.2168 Q592.2588,1030.9512 592.3994,1030.873 Q592.5557,1030.7949 592.7588,1030.7949 Q593.0869,1030.7949 593.3369,1031.0605 Q593.6025,1031.3105 593.6025,1031.6543 Q593.6025,1031.998 593.2588,1032.4043 Q592.7588,1032.9824 591.9619,1033.3105 Q590.8838,1033.7637 589.5869,1033.7637 Q588.0713,1033.7637 586.8682,1033.1387 Q585.8838,1032.6387 585.1963,1031.5762 Q584.5088,1030.498 584.5088,1029.2168 L584.5088,1028.0605 Q584.5088,1026.7324 585.1182,1025.5918 Q585.7432,1024.4355 586.8369,1023.8262 Q587.9307,1023.2012 589.165,1023.2012 Q589.8994,1023.2012 590.54,1023.373 Q591.1963,1023.5293 591.7432,1023.8887 Z " fill="#000000"/><text fill="#000000" font-family="sans-serif" font-size="14" lengthAdjust="spacing" textLength="73.9307" x="609.4775" y="1033.8105">FoodsTable</text><line style="stroke:#181818;stroke-width:0.5;" x1="536.5" x2="723.8857" y1="1044.0137" y2="1044.0137"/><ellipse cx="546.5" cy="1058.8242" fill="none" rx="3" ry="3" style="stroke:#038048;stroke-width:1.0;"/><text fill="#000000" font-family="sans-serif" font-size="14" lengthAdjust="spacing" text-decoration="underline" textLength="133.0479" x="555.5" y="1063.1211">String TABLE_NAME</text><ellipse cx="546.5" cy="1077.4453" fill="none" rx="3" ry="3" style="stroke:#038048;stroke-width:1.0;"/><text fill="#000000" font-family="sans-serif" font-size="14" lengthAdjust="spacing" text-decoration="underline" textLength="163.3857" x="555.5" y="1081.7422">String JSON_FILE_NAME</text><ellipse cx="546.5" cy="1096.0664" fill="none" rx="3" ry="3" style="stroke:#038048;stroke-width:1.0;"/><text fill="#000000" font-family="sans-serif" font-size="14" lengthAdjust="spacing" text-decoration="underline" textLength="149.3857" x="555.5" y="1100.3633">String CREATE_TABLE</text><line style="stroke:#181818;stroke-width:0.5;" x1="536.5" x2="723.8857" y1="1107.877" y2="1107.877"/></g><!--SRC=[pPJVQeCm5CRlVGhlnto7DCRkZ9X8adPqDvAwT1FyCuo5GUcxBqQxZL8sa8tknlEHS_YEtmzZKMbhmwAj8_EcwzVAH9tPTSQ-HB7kzLPR4wsiwQpIsyg4X-0cFDXUzsLn36NVbSrpgD22afoXb5neOa6G8hcV2Ov1O9fz_Vqst5Rxkh5-LGZny9oyGv8Ye8F8xZZp9zb3F9KSSvQ0I8FRq-h26p5Tcs5nyNDErlRbhYpS-xUDCcv6zsPkxdl9MPx0du5H9CteO30ImaukkTZu5YZguQH4IhJq4XoTQHHX1MjGcnnJ9EKluOB6nMiASwtFX4c563xHE8EZmEsSdpCrkhfIhfGWEeM8dSz7cA5kCbyPLqGE8k4yThDUIoBMm9QvXCUnkN8dWz5y2adRFltNop15__ghY8d40Z85d9tV3ueMX9vJ6eSe5p02mqWilCY40mpU947ga_Xbaky0]--></g></svg>