<svg xmlns="http://www.w3.org/2000/svg" xmlns:xlink="http://www.w3.org/1999/xlink" contentStyleType="text/css" height="1230px" preserveAspectRatio="none" style="width:820px;height:1230px;background:#FFFFFF;" version="1.1" viewBox="0 0 820 1230" width="820px" zoomAndPan="magnify"><defs/><g><!--cluster com--><g id="cluster_com"><path d="M8.5,6.0137 L38.2861,6.0137 A3.75,3.75 0 0 1 40.7861,8.5137 L47.7861,30.6348 L810.5,30.6348 A2.5,2.5 0 0 1 813,33.1348 L813,1220.5137 A2.5,2.5 0 0 1 810.5,1223.0137 L8.5,1223.0137 A2.5,2.5 0 0 1 6,1220.5137 L6,8.5137 A2.5,2.5 0 0 1 8.5,6.0137 " fill="none" style="stroke:#000000;stroke-width:1.5;"/><line style="stroke:#000000;stroke-width:1.5;" x1="6" x2="47.7861" y1="30.6348" y2="30.6348"/><text fill="#000000" font-family="sans-serif" font-size="14" font-weight="bold" lengthAdjust="spacing" textLength="28.7861" x="10" y="23.1211">com</text></g><!--cluster example--><g id="cluster_example"><path d="M32.5,51.0137 L89.5342,51.0137 A3.75,3.75 0 0 1 92.0342,53.5137 L99.0342,75.6348 L786.5,75.6348 A2.5,2.5 0 0 1 789,78.1348 L789,1196.5137 A2.5,2.5 0 0 1 786.5,1199.0137 L32.5,1199.0137 A2.5,2.5 0 0 1 30,1196.5137 L30,53.5137 A2.5,2.5 0 0 1 32.5,51.0137 " fill="none" style="stroke:#000000;stroke-width:1.5;"/><line style="stroke:#000000;stroke-width:1.5;" x1="30" x2="99.0342" y1="75.6348" y2="75.6348"/><text fill="#000000" font-family="sans-serif" font-size="14" font-weight="bold" lengthAdjust="spacing" textLength="56.0342" x="34" y="68.1211">example</text></g><!--cluster refresh--><g id="cluster_refresh"><path d="M56.5,96.0137 L104.9688,96.0137 A3.75,3.75 0 0 1 107.4688,98.5137 L114.4688,120.6348 L762.5,120.6348 A2.5,2.5 0 0 1 765,123.1348 L765,1172.5137 A2.5,2.5 0 0 1 762.5,1175.0137 L56.5,1175.0137 A2.5,2.5 0 0 1 54,1172.5137 L54,98.5137 A2.5,2.5 0 0 1 56.5,96.0137 " fill="none" style="stroke:#000000;stroke-width:1.5;"/><line style="stroke:#000000;stroke-width:1.5;" x1="54" x2="114.4688" y1="120.6348" y2="120.6348"/><text fill="#000000" font-family="sans-serif" font-size="14" font-weight="bold" lengthAdjust="spacing" textLength="47.4688" x="58" y="113.1211">refresh</text></g><!--cluster Database--><g id="cluster_Database"><path d="M80.5,141.0137 L143.7549,141.0137 A3.75,3.75 0 0 1 146.2549,143.5137 L153.2549,165.6348 L738.5,165.6348 A2.5,2.5 0 0 1 741,168.1348 L741,1148.5137 A2.5,2.5 0 0 1 738.5,1151.0137 L80.5,1151.0137 A2.5,2.5 0 0 1 78,1148.5137 L78,143.5137 A2.5,2.5 0 0 1 80.5,141.0137 " fill="none" style="stroke:#000000;stroke-width:1.5;"/><line style="stroke:#000000;stroke-width:1.5;" x1="78" x2="153.2549" y1="165.6348" y2="165.6348"/><text fill="#000000" font-family="sans-serif" font-size="14" font-weight="bold" lengthAdjust="spacing" textLength="62.2549" x="82" y="158.1211">Database</text></g><!--class UsersTable--><g id="elem_UsersTable"><rect codeLine="1" fill="#F1F1F1" height="85.2422" id="UsersTable" rx="2.5" ry="2.5" style="stroke:#181818;stroke-width:0.5;" width="175.3857" x="104.5" y="532.0137"/><ellipse cx="152.1533" cy="548.0137" fill="#ADD1B2" rx="11" ry="11" style="stroke:#181818;stroke-width:1.0;"/><path d="M154.9189,543.8887 Q155.0752,543.6699 155.2627,543.5605 Q155.4502,543.4512 155.6689,543.4512 Q156.0439,543.4512 156.2783,543.7168 Q156.5127,543.9668 156.5127,544.5762 L156.5127,546.0293 Q156.5127,546.6387 156.2783,546.9043 Q156.0439,547.1699 155.6689,547.1699 Q155.3252,547.1699 155.1221,546.9668 Q154.9189,546.7793 154.8096,546.2637 Q154.7627,545.9043 154.5752,545.7168 Q154.2471,545.3418 153.6377,545.123 Q153.0283,544.9043 152.4033,544.9043 Q151.6377,544.9043 150.9971,545.2324 Q150.3721,545.5605 149.8721,546.3105 Q149.3877,547.0605 149.3877,548.0918 L149.3877,549.1855 Q149.3877,550.4199 150.2783,551.248 Q151.1689,552.0605 152.7627,552.0605 Q153.7002,552.0605 154.3564,551.8105 Q154.7471,551.6543 155.1689,551.2168 Q155.4346,550.9512 155.5752,550.873 Q155.7314,550.7949 155.9346,550.7949 Q156.2627,550.7949 156.5127,551.0605 Q156.7783,551.3105 156.7783,551.6543 Q156.7783,551.998 156.4346,552.4043 Q155.9346,552.9824 155.1377,553.3105 Q154.0596,553.7637 152.7627,553.7637 Q151.2471,553.7637 150.0439,553.1387 Q149.0596,552.6387 148.3721,551.5762 Q147.6846,550.498 147.6846,549.2168 L147.6846,548.0605 Q147.6846,546.7324 148.2939,545.5918 Q148.9189,544.4355 150.0127,543.8262 Q151.1064,543.2012 152.3408,543.2012 Q153.0752,543.2012 153.7158,543.373 Q154.3721,543.5293 154.9189,543.8887 Z " fill="#000000"/><text fill="#000000" font-family="sans-serif" font-size="14" lengthAdjust="spacing" textLength="71.5791" x="172.6533" y="553.8105">UsersTable</text><line style="stroke:#181818;stroke-width:0.5;" x1="105.5" x2="278.8857" y1="564.0137" y2="564.0137"/><ellipse cx="115.5" cy="578.8242" fill="none" rx="3" ry="3" style="stroke:#038048;stroke-width:1.0;"/><text fill="#000000" font-family="sans-serif" font-size="14" lengthAdjust="spacing" text-decoration="underline" textLength="133.0479" x="124.5" y="583.1211">String TABLE_NAME</text><ellipse cx="115.5" cy="597.4453" fill="none" rx="3" ry="3" style="stroke:#038048;stroke-width:1.0;"/><text fill="#000000" font-family="sans-serif" font-size="14" lengthAdjust="spacing" text-decoration="underline" textLength="149.3857" x="124.5" y="601.7422">String CREATE_TABLE</text><line style="stroke:#181818;stroke-width:0.5;" x1="105.5" x2="278.8857" y1="609.2559" y2="609.2559"/></g><!--class Columns--><g id="elem_Columns"><rect codeLine="68" fill="#F1F1F1" height="792.8438" id="Columns" rx="2.5" ry="2.5" style="stroke:#181818;stroke-width:0.5;" width="148.9375" x="314.5" y="178.0137"/><ellipse cx="357.2633" cy="194.0137" fill="#EB937F" rx="11" ry="11" style="stroke:#181818;stroke-width:1.0;"/><path d="M356.1227,194.8105 L356.1227,197.3105 L360.4508,197.3105 L360.4508,196.3887 Q360.4508,195.7793 360.6852,195.5137 Q360.9352,195.248 361.3102,195.248 Q361.6852,195.248 361.9196,195.5137 Q362.154,195.7793 362.154,196.3887 L362.154,199.0137 L354.154,199.0137 Q353.529,199.0137 353.2633,198.7793 Q353.0133,198.5449 353.0133,198.1543 Q353.0133,197.7793 353.279,197.5449 Q353.5446,197.3105 354.154,197.3105 L354.4196,197.3105 L354.4196,190.6543 L354.154,190.6543 Q353.529,190.6543 353.2633,190.4199 Q353.0133,190.1855 353.0133,189.7949 Q353.0133,189.4199 353.2633,189.1855 Q353.529,188.9512 354.154,188.9512 L361.779,188.9512 L361.779,191.5449 Q361.779,192.1543 361.5446,192.4199 Q361.3258,192.6699 360.9352,192.6699 Q360.5602,192.6699 360.3258,192.4199 Q360.0915,192.1543 360.0915,191.5449 L360.0915,190.6543 L356.1227,190.6543 L356.1227,193.1074 L357.6071,193.1074 Q357.6071,192.4512 357.7321,192.2637 Q357.9977,191.8574 358.4665,191.8574 Q358.8415,191.8574 359.0758,192.123 Q359.3102,192.373 359.3102,192.9824 L359.3102,194.9512 Q359.3102,195.498 359.1852,195.6855 Q358.9196,196.0762 358.4665,196.0762 Q357.9977,196.0762 357.7321,195.6699 Q357.6071,195.4824 357.6071,194.8105 L356.1227,194.8105 Z " fill="#000000"/><text fill="#000000" font-family="sans-serif" font-size="14" lengthAdjust="spacing" textLength="55.2412" x="377.433" y="199.8105">Columns</text><line style="stroke:#181818;stroke-width:0.5;" x1="315.5" x2="462.4375" y1="210.0137" y2="210.0137"/><ellipse cx="325.5" cy="224.8242" fill="none" rx="3" ry="3" style="stroke:#038048;stroke-width:1.0;"/><text fill="#000000" font-family="sans-serif" font-size="14" lengthAdjust="spacing" textLength="14" x="334.5" y="229.1211">ID</text><ellipse cx="325.5" cy="243.4453" fill="none" rx="3" ry="3" style="stroke:#038048;stroke-width:1.0;"/><text fill="#000000" font-family="sans-serif" font-size="14" lengthAdjust="spacing" textLength="40.4482" x="334.5" y="247.7422">NAME</text><ellipse cx="325.5" cy="262.0664" fill="none" rx="3" ry="3" style="stroke:#038048;stroke-width:1.0;"/><text fill="#000000" font-family="sans-serif" font-size="14" lengthAdjust="spacing" textLength="42.0137" x="334.5" y="266.3633">EMAIL</text><ellipse cx="325.5" cy="280.6875" fill="none" rx="3" ry="3" style="stroke:#038048;stroke-width:1.0;"/><text fill="#000000" font-family="sans-serif" font-size="14" lengthAdjust="spacing" textLength="49.7861" x="334.5" y="284.9844">PHONE</text><ellipse cx="325.5" cy="299.3086" fill="none" rx="3" ry="3" style="stroke:#038048;stroke-width:1.0;"/><text fill="#000000" font-family="sans-serif" font-size="14" lengthAdjust="spacing" textLength="32.6621" x="334.5" y="303.6055">PWD</text><ellipse cx="325.5" cy="317.9297" fill="none" rx="3" ry="3" style="stroke:#038048;stroke-width:1.0;"/><text fill="#000000" font-family="sans-serif" font-size="14" lengthAdjust="spacing" textLength="105.7725" x="334.5" y="322.2266">PWD_CONFIRM</text><rect fill="none" height="6" style="stroke:#C82930;stroke-width:1.0;" width="6" x="322.5" y="333.5508"/><text fill="#000000" font-family="sans-serif" font-size="14" lengthAdjust="spacing" textLength="122.9375" x="334.5" y="340.8477">String columnName</text><ellipse cx="325.5" cy="355.1719" fill="none" rx="3" ry="3" style="stroke:#038048;stroke-width:1.0;"/><text fill="#000000" font-family="sans-serif" font-size="14" lengthAdjust="spacing" textLength="95.6895" x="334.5" y="359.4688">TEMPLATE_ID</text><ellipse cx="325.5" cy="373.793" fill="none" rx="3" ry="3" style="stroke:#038048;stroke-width:1.0;"/><text fill="#000000" font-family="sans-serif" font-size="14" lengthAdjust="spacing" textLength="78.5654" x="334.5" y="378.0898">CATEGORY</text><ellipse cx="325.5" cy="392.4141" fill="none" rx="3" ry="3" style="stroke:#038048;stroke-width:1.0;"/><text fill="#000000" font-family="sans-serif" font-size="14" lengthAdjust="spacing" textLength="38.1172" x="334.5" y="396.7109">TITLE</text><ellipse cx="325.5" cy="411.0352" fill="none" rx="3" ry="3" style="stroke:#038048;stroke-width:1.0;"/><text fill="#000000" font-family="sans-serif" font-size="14" lengthAdjust="spacing" textLength="69.2412" x="334.5" y="415.332">MESSAGE</text><ellipse cx="325.5" cy="429.6563" fill="none" rx="3" ry="3" style="stroke:#038048;stroke-width:1.0;"/><text fill="#000000" font-family="sans-serif" font-size="14" lengthAdjust="spacing" textLength="56.7861" x="334.5" y="433.9531">ICON_ID</text><ellipse cx="325.5" cy="448.2773" fill="none" rx="3" ry="3" style="stroke:#038048;stroke-width:1.0;"/><text fill="#000000" font-family="sans-serif" font-size="14" lengthAdjust="spacing" textLength="116.7031" x="334.5" y="452.5742">ACTIVITY_CLASS</text><rect fill="none" height="6" style="stroke:#C82930;stroke-width:1.0;" width="6" x="322.5" y="463.8984"/><text fill="#000000" font-family="sans-serif" font-size="14" lengthAdjust="spacing" textLength="122.9375" x="334.5" y="471.1953">String columnName</text><ellipse cx="325.5" cy="485.5195" fill="none" rx="3" ry="3" style="stroke:#038048;stroke-width:1.0;"/><text fill="#000000" font-family="sans-serif" font-size="14" lengthAdjust="spacing" textLength="92.5723" x="334.5" y="489.8164">INSTANCE_ID</text><ellipse cx="325.5" cy="504.1406" fill="none" rx="3" ry="3" style="stroke:#038048;stroke-width:1.0;"/><text fill="#000000" font-family="sans-serif" font-size="14" lengthAdjust="spacing" textLength="95.6895" x="334.5" y="508.4375">TEMPLATE_ID</text><ellipse cx="325.5" cy="522.7617" fill="none" rx="3" ry="3" style="stroke:#038048;stroke-width:1.0;"/><text fill="#000000" font-family="sans-serif" font-size="14" lengthAdjust="spacing" textLength="60.6826" x="334.5" y="527.0586">USER_ID</text><ellipse cx="325.5" cy="541.3828" fill="none" rx="3" ry="3" style="stroke:#038048;stroke-width:1.0;"/><text fill="#000000" font-family="sans-serif" font-size="14" lengthAdjust="spacing" textLength="33.4414" x="334.5" y="545.6797">TIME</text><rect fill="none" height="6" style="stroke:#C82930;stroke-width:1.0;" width="6" x="322.5" y="557.0039"/><text fill="#000000" font-family="sans-serif" font-size="14" lengthAdjust="spacing" textLength="122.9375" x="334.5" y="564.3008">String columnName</text><ellipse cx="325.5" cy="578.625" fill="none" rx="3" ry="3" style="stroke:#038048;stroke-width:1.0;"/><text fill="#000000" font-family="sans-serif" font-size="14" lengthAdjust="spacing" textLength="59.9102" x="334.5" y="582.9219">MEAL_ID</text><ellipse cx="325.5" cy="597.2461" fill="none" rx="3" ry="3" style="stroke:#038048;stroke-width:1.0;"/><text fill="#000000" font-family="sans-serif" font-size="14" lengthAdjust="spacing" textLength="37.3379" x="334.5" y="601.543">DATE</text><ellipse cx="325.5" cy="615.8672" fill="none" rx="3" ry="3" style="stroke:#038048;stroke-width:1.0;"/><text fill="#000000" font-family="sans-serif" font-size="14" lengthAdjust="spacing" textLength="33.4414" x="334.5" y="620.1641">TIME</text><ellipse cx="325.5" cy="634.4883" fill="none" rx="3" ry="3" style="stroke:#038048;stroke-width:1.0;"/><text fill="#000000" font-family="sans-serif" font-size="14" lengthAdjust="spacing" textLength="36.5654" x="334.5" y="638.7852">TYPE</text><ellipse cx="325.5" cy="653.1094" fill="none" rx="3" ry="3" style="stroke:#038048;stroke-width:1.0;"/><text fill="#000000" font-family="sans-serif" font-size="14" lengthAdjust="spacing" textLength="48.2275" x="334.5" y="657.4063">NOTES</text><ellipse cx="325.5" cy="671.7305" fill="none" rx="3" ry="3" style="stroke:#038048;stroke-width:1.0;"/><text fill="#000000" font-family="sans-serif" font-size="14" lengthAdjust="spacing" textLength="71.5654" x="334.5" y="676.0273">FOOD_IDS</text><ellipse cx="325.5" cy="690.3516" fill="none" rx="3" ry="3" style="stroke:#038048;stroke-width:1.0;"/><text fill="#000000" font-family="sans-serif" font-size="14" lengthAdjust="spacing" textLength="111.2549" x="334.5" y="694.6484">SERVING_SIZES</text><ellipse cx="325.5" cy="708.9727" fill="none" rx="3" ry="3" style="stroke:#038048;stroke-width:1.0;"/><text fill="#000000" font-family="sans-serif" font-size="14" lengthAdjust="spacing" textLength="60.6826" x="334.5" y="713.2695">USER_ID</text><rect fill="none" height="6" style="stroke:#C82930;stroke-width:1.0;" width="6" x="322.5" y="724.5938"/><text fill="#000000" font-family="sans-serif" font-size="14" lengthAdjust="spacing" textLength="122.9375" x="334.5" y="731.8906">String columnName</text><ellipse cx="325.5" cy="746.2148" fill="none" rx="3" ry="3" style="stroke:#038048;stroke-width:1.0;"/><text fill="#000000" font-family="sans-serif" font-size="14" lengthAdjust="spacing" textLength="62.2275" x="334.5" y="750.5117">FOOD_ID</text><ellipse cx="325.5" cy="764.8359" fill="none" rx="3" ry="3" style="stroke:#038048;stroke-width:1.0;"/><text fill="#000000" font-family="sans-serif" font-size="14" lengthAdjust="spacing" textLength="40.4482" x="334.5" y="769.1328">NAME</text><ellipse cx="325.5" cy="783.457" fill="none" rx="3" ry="3" style="stroke:#038048;stroke-width:1.0;"/><text fill="#000000" font-family="sans-serif" font-size="14" lengthAdjust="spacing" textLength="95.6758" x="334.5" y="787.7539">DESCRIPTION</text><ellipse cx="325.5" cy="802.0781" fill="none" rx="3" ry="3" style="stroke:#038048;stroke-width:1.0;"/><text fill="#000000" font-family="sans-serif" font-size="14" lengthAdjust="spacing" textLength="78.5654" x="334.5" y="806.375">CATEGORY</text><ellipse cx="325.5" cy="820.6992" fill="none" rx="3" ry="3" style="stroke:#038048;stroke-width:1.0;"/><text fill="#000000" font-family="sans-serif" font-size="14" lengthAdjust="spacing" textLength="43.5859" x="334.5" y="824.9961">LABEL</text><ellipse cx="325.5" cy="839.3203" fill="none" rx="3" ry="3" style="stroke:#038048;stroke-width:1.0;"/><text fill="#000000" font-family="sans-serif" font-size="14" lengthAdjust="spacing" textLength="101.917" x="334.5" y="843.6172">SERVING_SIZE</text><ellipse cx="325.5" cy="857.9414" fill="none" rx="3" ry="3" style="stroke:#038048;stroke-width:1.0;"/><text fill="#000000" font-family="sans-serif" font-size="14" lengthAdjust="spacing" textLength="70.7998" x="334.5" y="862.2383">CALORIES</text><ellipse cx="325.5" cy="876.5625" fill="none" rx="3" ry="3" style="stroke:#038048;stroke-width:1.0;"/><text fill="#000000" font-family="sans-serif" font-size="14" lengthAdjust="spacing" textLength="48.2344" x="334.5" y="880.8594">CARBS</text><ellipse cx="325.5" cy="895.1836" fill="none" rx="3" ry="3" style="stroke:#038048;stroke-width:1.0;"/><text fill="#000000" font-family="sans-serif" font-size="14" lengthAdjust="spacing" textLength="62.2275" x="334.5" y="899.4805">PROTEIN</text><ellipse cx="325.5" cy="913.8047" fill="none" rx="3" ry="3" style="stroke:#038048;stroke-width:1.0;"/><text fill="#000000" font-family="sans-serif" font-size="14" lengthAdjust="spacing" textLength="26.4414" x="334.5" y="918.1016">FAT</text><ellipse cx="325.5" cy="932.4258" fill="none" rx="3" ry="3" style="stroke:#038048;stroke-width:1.0;"/><text fill="#000000" font-family="sans-serif" font-size="14" lengthAdjust="spacing" textLength="48.2275" x="334.5" y="936.7227">NOTES</text><rect fill="none" height="6" style="stroke:#C82930;stroke-width:1.0;" width="6" x="322.5" y="948.0469"/><text fill="#000000" font-family="sans-serif" font-size="14" lengthAdjust="spacing" textLength="122.9375" x="334.5" y="955.3438">String columnName</text><line style="stroke:#181818;stroke-width:0.5;" x1="315.5" x2="462.4375" y1="962.8574" y2="962.8574"/></g><!--class NotificationTemplatesTable--><g id="elem_NotificationTemplatesTable"><rect codeLine="16" fill="#F1F1F1" height="103.8633" id="NotificationTemplatesTable" rx="2.5" ry="2.5" style="stroke:#181818;stroke-width:0.5;" width="201.6338" x="499" y="522.5137"/><ellipse cx="514" cy="538.5137" fill="#ADD1B2" rx="11" ry="11" style="stroke:#181818;stroke-width:1.0;"/><path d="M516.7656,534.3887 Q516.9219,534.1699 517.1094,534.0605 Q517.2969,533.9512 517.5156,533.9512 Q517.8906,533.9512 518.125,534.2168 Q518.3594,534.4668 518.3594,535.0762 L518.3594,536.5293 Q518.3594,537.1387 518.125,537.4043 Q517.8906,537.6699 517.5156,537.6699 Q517.1719,537.6699 516.9688,537.4668 Q516.7656,537.2793 516.6563,536.7637 Q516.6094,536.4043 516.4219,536.2168 Q516.0938,535.8418 515.4844,535.623 Q514.875,535.4043 514.25,535.4043 Q513.4844,535.4043 512.8438,535.7324 Q512.2188,536.0605 511.7188,536.8105 Q511.2344,537.5605 511.2344,538.5918 L511.2344,539.6855 Q511.2344,540.9199 512.125,541.748 Q513.0156,542.5605 514.6094,542.5605 Q515.5469,542.5605 516.2031,542.3105 Q516.5938,542.1543 517.0156,541.7168 Q517.2813,541.4512 517.4219,541.373 Q517.5781,541.2949 517.7813,541.2949 Q518.1094,541.2949 518.3594,541.5605 Q518.625,541.8105 518.625,542.1543 Q518.625,542.498 518.2813,542.9043 Q517.7813,543.4824 516.9844,543.8105 Q515.9063,544.2637 514.6094,544.2637 Q513.0938,544.2637 511.8906,543.6387 Q510.9063,543.1387 510.2188,542.0762 Q509.5313,540.998 509.5313,539.7168 L509.5313,538.5605 Q509.5313,537.2324 510.1406,536.0918 Q510.7656,534.9355 511.8594,534.3262 Q512.9531,533.7012 514.1875,533.7012 Q514.9219,533.7012 515.5625,533.873 Q516.2188,534.0293 516.7656,534.3887 Z " fill="#000000"/><text fill="#000000" font-family="sans-serif" font-size="14" lengthAdjust="spacing" textLength="169.6338" x="528" y="544.3105">NotificationTemplatesTable</text><line style="stroke:#181818;stroke-width:0.5;" x1="500" x2="699.6338" y1="554.5137" y2="554.5137"/><ellipse cx="510" cy="569.3242" fill="none" rx="3" ry="3" style="stroke:#038048;stroke-width:1.0;"/><text fill="#000000" font-family="sans-serif" font-size="14" lengthAdjust="spacing" text-decoration="underline" textLength="133.0479" x="519" y="573.6211">String TABLE_NAME</text><ellipse cx="510" cy="587.9453" fill="none" rx="3" ry="3" style="stroke:#038048;stroke-width:1.0;"/><text fill="#000000" font-family="sans-serif" font-size="14" lengthAdjust="spacing" text-decoration="underline" textLength="163.3857" x="519" y="592.2422">String JSON_FILE_NAME</text><ellipse cx="510" cy="606.5664" fill="none" rx="3" ry="3" style="stroke:#038048;stroke-width:1.0;"/><text fill="#000000" font-family="sans-serif" font-size="14" lengthAdjust="spacing" text-decoration="underline" textLength="149.3857" x="519" y="610.8633">String CREATE_TABLE</text><line style="stroke:#181818;stroke-width:0.5;" x1="500" x2="699.6338" y1="618.377" y2="618.377"/></g><!--class NotificationInstancesTable--><g id="elem_NotificationInstancesTable"><rect codeLine="32" fill="#F1F1F1" height="85.2422" id="NotificationInstancesTable" rx="2.5" ry="2.5" style="stroke:#181818;stroke-width:0.5;" width="196.1992" x="94" y="1040.5137"/><ellipse cx="109" cy="1056.5137" fill="#ADD1B2" rx="11" ry="11" style="stroke:#181818;stroke-width:1.0;"/><path d="M111.7656,1052.3887 Q111.9219,1052.1699 112.1094,1052.0605 Q112.2969,1051.9512 112.5156,1051.9512 Q112.8906,1051.9512 113.125,1052.2168 Q113.3594,1052.4668 113.3594,1053.0762 L113.3594,1054.5293 Q113.3594,1055.1387 113.125,1055.4043 Q112.8906,1055.6699 112.5156,1055.6699 Q112.1719,1055.6699 111.9688,1055.4668 Q111.7656,1055.2793 111.6563,1054.7637 Q111.6094,1054.4043 111.4219,1054.2168 Q111.0938,1053.8418 110.4844,1053.623 Q109.875,1053.4043 109.25,1053.4043 Q108.4844,1053.4043 107.8438,1053.7324 Q107.2188,1054.0605 106.7188,1054.8105 Q106.2344,1055.5605 106.2344,1056.5918 L106.2344,1057.6855 Q106.2344,1058.9199 107.125,1059.748 Q108.0156,1060.5605 109.6094,1060.5605 Q110.5469,1060.5605 111.2031,1060.3105 Q111.5938,1060.1543 112.0156,1059.7168 Q112.2813,1059.4512 112.4219,1059.373 Q112.5781,1059.2949 112.7813,1059.2949 Q113.1094,1059.2949 113.3594,1059.5605 Q113.625,1059.8105 113.625,1060.1543 Q113.625,1060.498 113.2813,1060.9043 Q112.7813,1061.4824 111.9844,1061.8105 Q110.9063,1062.2637 109.6094,1062.2637 Q108.0938,1062.2637 106.8906,1061.6387 Q105.9063,1061.1387 105.2188,1060.0762 Q104.5313,1058.998 104.5313,1057.7168 L104.5313,1056.5605 Q104.5313,1055.2324 105.1406,1054.0918 Q105.7656,1052.9355 106.8594,1052.3262 Q107.9531,1051.7012 109.1875,1051.7012 Q109.9219,1051.7012 110.5625,1051.873 Q111.2188,1052.0293 111.7656,1052.3887 Z " fill="#000000"/><text fill="#000000" font-family="sans-serif" font-size="14" lengthAdjust="spacing" textLength="164.1992" x="123" y="1062.3105">NotificationInstancesTable</text><line style="stroke:#181818;stroke-width:0.5;" x1="95" x2="289.1992" y1="1072.5137" y2="1072.5137"/><ellipse cx="105" cy="1087.3242" fill="none" rx="3" ry="3" style="stroke:#038048;stroke-width:1.0;"/><text fill="#000000" font-family="sans-serif" font-size="14" lengthAdjust="spacing" text-decoration="underline" textLength="133.0479" x="114" y="1091.6211">String TABLE_NAME</text><ellipse cx="105" cy="1105.9453" fill="none" rx="3" ry="3" style="stroke:#038048;stroke-width:1.0;"/><text fill="#000000" font-family="sans-serif" font-size="14" lengthAdjust="spacing" text-decoration="underline" textLength="149.3857" x="114" y="1110.2422">String CREATE_TABLE</text><line style="stroke:#181818;stroke-width:0.5;" x1="95" x2="289.1992" y1="1117.7559" y2="1117.7559"/></g><!--class MealsTable--><g id="elem_MealsTable"><rect codeLine="45" fill="#F1F1F1" height="85.2422" id="MealsTable" rx="2.5" ry="2.5" style="stroke:#181818;stroke-width:0.5;" width="175.3857" x="325.5" y="1040.5137"/><ellipse cx="372.7603" cy="1056.5137" fill="#ADD1B2" rx="11" ry="11" style="stroke:#181818;stroke-width:1.0;"/><path d="M375.5259,1052.3887 Q375.6821,1052.1699 375.8696,1052.0605 Q376.0571,1051.9512 376.2759,1051.9512 Q376.6509,1051.9512 376.8853,1052.2168 Q377.1196,1052.4668 377.1196,1053.0762 L377.1196,1054.5293 Q377.1196,1055.1387 376.8853,1055.4043 Q376.6509,1055.6699 376.2759,1055.6699 Q375.9321,1055.6699 375.729,1055.4668 Q375.5259,1055.2793 375.4165,1054.7637 Q375.3696,1054.4043 375.1821,1054.2168 Q374.854,1053.8418 374.2446,1053.623 Q373.6353,1053.4043 373.0103,1053.4043 Q372.2446,1053.4043 371.604,1053.7324 Q370.979,1054.0605 370.479,1054.8105 Q369.9946,1055.5605 369.9946,1056.5918 L369.9946,1057.6855 Q369.9946,1058.9199 370.8853,1059.748 Q371.7759,1060.5605 373.3696,1060.5605 Q374.3071,1060.5605 374.9634,1060.3105 Q375.354,1060.1543 375.7759,1059.7168 Q376.0415,1059.4512 376.1821,1059.373 Q376.3384,1059.2949 376.5415,1059.2949 Q376.8696,1059.2949 377.1196,1059.5605 Q377.3853,1059.8105 377.3853,1060.1543 Q377.3853,1060.498 377.0415,1060.9043 Q376.5415,1061.4824 375.7446,1061.8105 Q374.6665,1062.2637 373.3696,1062.2637 Q371.854,1062.2637 370.6509,1061.6387 Q369.6665,1061.1387 368.979,1060.0762 Q368.2915,1058.998 368.2915,1057.7168 L368.2915,1056.5605 Q368.2915,1055.2324 368.9009,1054.0918 Q369.5259,1052.9355 370.6196,1052.3262 Q371.7134,1051.7012 372.9478,1051.7012 Q373.6821,1051.7012 374.3228,1051.873 Q374.979,1052.0293 375.5259,1052.3887 Z " fill="#000000"/><text fill="#000000" font-family="sans-serif" font-size="14" lengthAdjust="spacing" textLength="72.3652" x="393.2603" y="1062.3105">MealsTable</text><line style="stroke:#181818;stroke-width:0.5;" x1="326.5" x2="499.8857" y1="1072.5137" y2="1072.5137"/><ellipse cx="336.5" cy="1087.3242" fill="none" rx="3" ry="3" style="stroke:#038048;stroke-width:1.0;"/><text fill="#000000" font-family="sans-serif" font-size="14" lengthAdjust="spacing" text-decoration="underline" textLength="133.0479" x="345.5" y="1091.6211">String TABLE_NAME</text><ellipse cx="336.5" cy="1105.9453" fill="none" rx="3" ry="3" style="stroke:#038048;stroke-width:1.0;"/><text fill="#000000" font-family="sans-serif" font-size="14" lengthAdjust="spacing" text-decoration="underline" textLength="149.3857" x="345.5" y="1110.2422">String CREATE_TABLE</text><line style="stroke:#181818;stroke-width:0.5;" x1="326.5" x2="499.8857" y1="1117.7559" y2="1117.7559"/></g><!--class FoodsTable--><g id="elem_FoodsTable"><rect codeLine="62" fill="#F1F1F1" height="103.8633" id="FoodsTable" rx="2.5" ry="2.5" style="stroke:#181818;stroke-width:0.5;" width="189.3857" x="535.5" y="1031.0137"/><ellipse cx="588.9775" cy="1047.0137" fill="#ADD1B2" rx="11" ry="11" style="stroke:#181818;stroke-width:1.0;"/><path d="M591.7432,1042.8887 Q591.8994,1042.6699 592.0869,1042.5605 Q592.2744,1042.4512 592.4932,1042.4512 Q592.8682,1042.4512 593.1025,1042.7168 Q593.3369,1042.9668 593.3369,1043.5762 L593.3369,1045.0293 Q593.3369,1045.6387 593.1025,1045.9043 Q592.8682,1046.1699 592.4932,1046.1699 Q592.1494,1046.1699 591.9463,1045.9668 Q591.7432,1045.7793 591.6338,1045.2637 Q591.5869,1044.9043 591.3994,1044.7168 Q591.0713,1044.3418 590.4619,1044.123 Q589.8525,1043.9043 589.2275,1043.9043 Q588.4619,1043.9043 587.8213,1044.2324 Q587.1963,1044.5605 586.6963,1045.3105 Q586.2119,1046.0605 586.2119,1047.0918 L586.2119,1048.1855 Q586.2119,1049.4199 587.1025,1050.248 Q587.9932,1051.0605 589.5869,1051.0605 Q590.5244,1051.0605 591.1807,1050.8105 Q591.5713,1050.6543 591.9932,1050.2168 Q592.2588,1049.9512 592.3994,1049.873 Q592.5557,1049.7949 592.7588,1049.7949 Q593.0869,1049.7949 593.3369,1050.0605 Q593.6025,1050.3105 593.6025,1050.6543 Q593.6025,1050.998 593.2588,1051.4043 Q592.7588,1051.9824 591.9619,1052.3105 Q590.8838,1052.7637 589.5869,1052.7637 Q588.0713,1052.7637 586.8682,1052.1387 Q585.8838,1051.6387 585.1963,1050.5762 Q584.5088,1049.498 584.5088,1048.2168 L584.5088,1047.0605 Q584.5088,1045.7324 585.1182,1044.5918 Q585.7432,1043.4355 586.8369,1042.8262 Q587.9307,1042.2012 589.165,1042.2012 Q589.8994,1042.2012 590.54,1042.373 Q591.1963,1042.5293 591.7432,1042.8887 Z " fill="#000000"/><text fill="#000000" font-family="sans-serif" font-size="14" lengthAdjust="spacing" textLength="73.9307" x="609.4775" y="1052.8105">FoodsTable</text><line style="stroke:#181818;stroke-width:0.5;" x1="536.5" x2="723.8857" y1="1063.0137" y2="1063.0137"/><ellipse cx="546.5" cy="1077.8242" fill="none" rx="3" ry="3" style="stroke:#038048;stroke-width:1.0;"/><text fill="#000000" font-family="sans-serif" font-size="14" lengthAdjust="spacing" text-decoration="underline" textLength="133.0479" x="555.5" y="1082.1211">String TABLE_NAME</text><ellipse cx="546.5" cy="1096.4453" fill="none" rx="3" ry="3" style="stroke:#038048;stroke-width:1.0;"/><text fill="#000000" font-family="sans-serif" font-size="14" lengthAdjust="spacing" text-decoration="underline" textLength="163.3857" x="555.5" y="1100.7422">String JSON_FILE_NAME</text><ellipse cx="546.5" cy="1115.0664" fill="none" rx="3" ry="3" style="stroke:#038048;stroke-width:1.0;"/><text fill="#000000" font-family="sans-serif" font-size="14" lengthAdjust="spacing" text-decoration="underline" textLength="149.3857" x="555.5" y="1119.3633">String CREATE_TABLE</text><line style="stroke:#181818;stroke-width:0.5;" x1="536.5" x2="723.8857" y1="1126.877" y2="1126.877"/></g><!--SRC=[pPJVQeCm5CRlVGhlnto7DCRkZ9X8adPqDvAwT1FyCuo5GUcxBqRTHYaRb8tknlFXEPmltmzZKMbhmwAj8_EcwzVAH9tPTSQ-HB7kzLPR4wsiwQpIsyg4X-0cFDXUzsLn36NVbSrpgD22afoXb9nfOa6G8hcV2Ov1O9fz_RqRRgjztLXl5K8yFAVT8KaHq45aTvpvDzb3F9KSSvQ0I8FRsRhmYvYkpM1S_9oJjNsvAmjt_hPHnitetboQ-rvobYVmPs0KIJCwB1W9OIUNN6ny2nJrS58Y9Lfw2OxED8gmWZMeJOufalANS47ZuZM5kTPdmgH23CyqJk2i915p1vpzvP5JewihHKm9ebE8sEtv23FKJUOhuuh8GIISnsxMQvTz3MoPItWScpEDooaaRVlqN-_55FthNoCc4Wl8571sUbKeMX1wIcaSebp020mZiV0Y4mum-2K9Kf_4pvDy1m00]--></g></svg>