<svg xmlns="http://www.w3.org/2000/svg" xmlns:xlink="http://www.w3.org/1999/xlink" contentStyleType="text/css" height="1120px" preserveAspectRatio="none" style="width:1369px;height:1120px;background:#FFFFFF;" version="1.1" viewBox="0 0 1369 1120" width="1369px" zoomAndPan="magnify"><defs/><g><!--cluster com--><g id="cluster_com"><path d="M8.5,269.0137 L38.2861,269.0137 A3.75,3.75 0 0 1 40.7861,271.5137 L47.7861,293.6348 L1359.5,293.6348 A2.5,2.5 0 0 1 1362,296.1348 L1362,1110.5137 A2.5,2.5 0 0 1 1359.5,1113.0137 L8.5,1113.0137 A2.5,2.5 0 0 1 6,1110.5137 L6,271.5137 A2.5,2.5 0 0 1 8.5,269.0137 " fill="none" style="stroke:#000000;stroke-width:1.5;"/><line style="stroke:#000000;stroke-width:1.5;" x1="6" x2="47.7861" y1="293.6348" y2="293.6348"/><text fill="#000000" font-family="sans-serif" font-size="14" font-weight="bold" lengthAdjust="spacing" textLength="28.7861" x="10" y="286.1211">com</text></g><!--cluster example--><g id="cluster_example"><path d="M32.5,314.0137 L89.5342,314.0137 A3.75,3.75 0 0 1 92.0342,316.5137 L99.0342,338.6348 L1335.5,338.6348 A2.5,2.5 0 0 1 1338,341.1348 L1338,1086.5137 A2.5,2.5 0 0 1 1335.5,1089.0137 L32.5,1089.0137 A2.5,2.5 0 0 1 30,1086.5137 L30,316.5137 A2.5,2.5 0 0 1 32.5,314.0137 " fill="none" style="stroke:#000000;stroke-width:1.5;"/><line style="stroke:#000000;stroke-width:1.5;" x1="30" x2="99.0342" y1="338.6348" y2="338.6348"/><text fill="#000000" font-family="sans-serif" font-size="14" font-weight="bold" lengthAdjust="spacing" textLength="56.0342" x="34" y="331.1211">example</text></g><!--cluster refresh--><g id="cluster_refresh"><path d="M56.5,359.0137 L104.9688,359.0137 A3.75,3.75 0 0 1 107.4688,361.5137 L114.4688,383.6348 L1311.5,383.6348 A2.5,2.5 0 0 1 1314,386.1348 L1314,1062.5137 A2.5,2.5 0 0 1 1311.5,1065.0137 L56.5,1065.0137 A2.5,2.5 0 0 1 54,1062.5137 L54,361.5137 A2.5,2.5 0 0 1 56.5,359.0137 " fill="none" style="stroke:#000000;stroke-width:1.5;"/><line style="stroke:#000000;stroke-width:1.5;" x1="54" x2="114.4688" y1="383.6348" y2="383.6348"/><text fill="#000000" font-family="sans-serif" font-size="14" font-weight="bold" lengthAdjust="spacing" textLength="47.4688" x="58" y="376.1211">refresh</text></g><!--cluster Helper--><g id="cluster_Helper"><path d="M80.5,404.0137 L125.0723,404.0137 A3.75,3.75 0 0 1 127.5723,406.5137 L134.5723,428.6348 L1287.5,428.6348 A2.5,2.5 0 0 1 1290,431.1348 L1290,1038.5137 A2.5,2.5 0 0 1 1287.5,1041.0137 L80.5,1041.0137 A2.5,2.5 0 0 1 78,1038.5137 L78,406.5137 A2.5,2.5 0 0 1 80.5,404.0137 " fill="none" style="stroke:#000000;stroke-width:1.5;"/><line style="stroke:#000000;stroke-width:1.5;" x1="78" x2="134.5723" y1="428.6348" y2="428.6348"/><text fill="#000000" font-family="sans-serif" font-size="14" font-weight="bold" lengthAdjust="spacing" textLength="43.5723" x="82" y="421.1211">Helper</text></g><!--cluster android--><g id="cluster_android"><path d="M303.5,6.0137 L355.8311,6.0137 A3.75,3.75 0 0 1 358.3311,8.5137 L365.3311,30.6348 L576.5,30.6348 A2.5,2.5 0 0 1 579,33.1348 L579,242.5137 A2.5,2.5 0 0 1 576.5,245.0137 L303.5,245.0137 A2.5,2.5 0 0 1 301,242.5137 L301,8.5137 A2.5,2.5 0 0 1 303.5,6.0137 " fill="none" style="stroke:#000000;stroke-width:1.5;"/><line style="stroke:#000000;stroke-width:1.5;" x1="301" x2="365.3311" y1="30.6348" y2="30.6348"/><text fill="#000000" font-family="sans-serif" font-size="14" font-weight="bold" lengthAdjust="spacing" textLength="51.3311" x="305" y="23.1211">android</text></g><!--cluster database--><g id="cluster_database"><path d="M327.5,51.0137 L389.1963,51.0137 A3.75,3.75 0 0 1 391.6963,53.5137 L398.6963,75.6348 L552.5,75.6348 A2.5,2.5 0 0 1 555,78.1348 L555,218.5137 A2.5,2.5 0 0 1 552.5,221.0137 L327.5,221.0137 A2.5,2.5 0 0 1 325,218.5137 L325,53.5137 A2.5,2.5 0 0 1 327.5,51.0137 " fill="none" style="stroke:#000000;stroke-width:1.5;"/><line style="stroke:#000000;stroke-width:1.5;" x1="325" x2="398.6963" y1="75.6348" y2="75.6348"/><text fill="#000000" font-family="sans-serif" font-size="14" font-weight="bold" lengthAdjust="spacing" textLength="60.6963" x="329" y="68.1211">database</text></g><!--cluster sqlite--><g id="cluster_sqlite"><path d="M351.5,96.0137 L389.0654,96.0137 A3.75,3.75 0 0 1 391.5654,98.5137 L398.5654,120.6348 L528.5,120.6348 A2.5,2.5 0 0 1 531,123.1348 L531,194.5137 A2.5,2.5 0 0 1 528.5,197.0137 L351.5,197.0137 A2.5,2.5 0 0 1 349,194.5137 L349,98.5137 A2.5,2.5 0 0 1 351.5,96.0137 " fill="none" style="stroke:#000000;stroke-width:1.5;"/><line style="stroke:#000000;stroke-width:1.5;" x1="349" x2="398.5654" y1="120.6348" y2="120.6348"/><text fill="#000000" font-family="sans-serif" font-size="14" font-weight="bold" lengthAdjust="spacing" textLength="36.5654" x="353" y="113.1211">sqlite</text></g><!--class UserInfoHelper--><g id="elem_UserInfoHelper"><rect codeLine="1" fill="#F1F1F1" height="420.4219" id="UserInfoHelper" rx="2.5" ry="2.5" style="stroke:#181818;stroke-width:0.5;" width="253.2334" x="570.5" y="441.0137"/><ellipse cx="645.791" cy="457.0137" fill="#ADD1B2" rx="11" ry="11" style="stroke:#181818;stroke-width:1.0;"/><path d="M648.5566,452.8887 Q648.7129,452.6699 648.9004,452.5605 Q649.0879,452.4512 649.3066,452.4512 Q649.6816,452.4512 649.916,452.7168 Q650.1504,452.9668 650.1504,453.5762 L650.1504,455.0293 Q650.1504,455.6387 649.916,455.9043 Q649.6816,456.1699 649.3066,456.1699 Q648.9629,456.1699 648.7598,455.9668 Q648.5566,455.7793 648.4473,455.2637 Q648.4004,454.9043 648.2129,454.7168 Q647.8848,454.3418 647.2754,454.123 Q646.666,453.9043 646.041,453.9043 Q645.2754,453.9043 644.6348,454.2324 Q644.0098,454.5605 643.5098,455.3105 Q643.0254,456.0605 643.0254,457.0918 L643.0254,458.1855 Q643.0254,459.4199 643.916,460.248 Q644.8066,461.0605 646.4004,461.0605 Q647.3379,461.0605 647.9941,460.8105 Q648.3848,460.6543 648.8066,460.2168 Q649.0723,459.9512 649.2129,459.873 Q649.3691,459.7949 649.5723,459.7949 Q649.9004,459.7949 650.1504,460.0605 Q650.416,460.3105 650.416,460.6543 Q650.416,460.998 650.0723,461.4043 Q649.5723,461.9824 648.7754,462.3105 Q647.6973,462.7637 646.4004,462.7637 Q644.8848,462.7637 643.6816,462.1387 Q642.6973,461.6387 642.0098,460.5762 Q641.3223,459.498 641.3223,458.2168 L641.3223,457.0605 Q641.3223,455.7324 641.9316,454.5918 Q642.5566,453.4355 643.6504,452.8262 Q644.7441,452.2012 645.9785,452.2012 Q646.7129,452.2012 647.3535,452.373 Q648.0098,452.5293 648.5566,452.8887 Z " fill="#000000"/><text fill="#000000" font-family="sans-serif" font-size="14" lengthAdjust="spacing" textLength="94.1514" x="666.291" y="462.8105">UserInfoHelper</text><line style="stroke:#181818;stroke-width:0.5;" x1="571.5" x2="822.7334" y1="473.0137" y2="473.0137"/><rect fill="none" height="6" style="stroke:#C82930;stroke-width:1.0;" width="6" x="578.5" y="484.8242"/><text fill="#000000" font-family="sans-serif" font-size="14" lengthAdjust="spacing" textLength="57.5859" x="590.5" y="492.1211">int userId</text><rect fill="none" height="6" style="stroke:#C82930;stroke-width:1.0;" width="6" x="578.5" y="503.4453"/><text fill="#000000" font-family="sans-serif" font-size="14" lengthAdjust="spacing" textLength="97.2754" x="590.5" y="510.7422">Context context</text><rect fill="none" height="6" style="stroke:#C82930;stroke-width:1.0;" width="6" x="578.5" y="522.0664"/><text fill="#000000" font-family="sans-serif" font-size="14" lengthAdjust="spacing" textLength="227.2334" x="590.5" y="529.3633">SharedPreferences userPreferences</text><rect fill="none" height="6" style="stroke:#C82930;stroke-width:1.0;" width="6" x="578.5" y="540.6875"/><text fill="#000000" font-family="sans-serif" font-size="14" lengthAdjust="spacing" text-decoration="underline" textLength="136.1582" x="590.5" y="547.9844">String KEY_GENDER</text><rect fill="none" height="6" style="stroke:#C82930;stroke-width:1.0;" width="6" x="578.5" y="559.3086"/><text fill="#000000" font-family="sans-serif" font-size="14" lengthAdjust="spacing" text-decoration="underline" textLength="105.8271" x="590.5" y="566.6055">String KEY_AGE</text><rect fill="none" height="6" style="stroke:#C82930;stroke-width:1.0;" width="6" x="578.5" y="577.9297"/><text fill="#000000" font-family="sans-serif" font-size="14" lengthAdjust="spacing" text-decoration="underline" textLength="190.6133" x="590.5" y="585.2266">String KEY_DATE_OF_BIRTH</text><rect fill="none" height="6" style="stroke:#C82930;stroke-width:1.0;" width="6" x="578.5" y="596.5508"/><text fill="#000000" font-family="sans-serif" font-size="14" lengthAdjust="spacing" text-decoration="underline" textLength="115.165" x="590.5" y="603.8477">String KEY_GOAL</text><rect fill="none" height="6" style="stroke:#C82930;stroke-width:1.0;" width="6" x="578.5" y="615.1719"/><text fill="#000000" font-family="sans-serif" font-size="14" lengthAdjust="spacing" text-decoration="underline" textLength="190.6406" x="590.5" y="622.4688">String KEY_ACTIVITY_LEVEL</text><rect fill="none" height="6" style="stroke:#C82930;stroke-width:1.0;" width="6" x="578.5" y="633.793"/><text fill="#000000" font-family="sans-serif" font-size="14" lengthAdjust="spacing" text-decoration="underline" textLength="132.2549" x="590.5" y="641.0898">String KEY_WEIGHT</text><rect fill="none" height="6" style="stroke:#C82930;stroke-width:1.0;" width="6" x="578.5" y="652.4141"/><text fill="#000000" font-family="sans-serif" font-size="14" lengthAdjust="spacing" text-decoration="underline" textLength="196.8203" x="590.5" y="659.7109">String KEY_TARGET_WEIGHT</text><rect fill="none" height="6" style="stroke:#C82930;stroke-width:1.0;" width="6" x="578.5" y="671.0352"/><text fill="#000000" font-family="sans-serif" font-size="14" lengthAdjust="spacing" text-decoration="underline" textLength="129.1514" x="590.5" y="678.332">String KEY_HEIGHT</text><rect fill="none" height="6" style="stroke:#C82930;stroke-width:1.0;" width="6" x="578.5" y="689.6563"/><text fill="#000000" font-family="sans-serif" font-size="14" lengthAdjust="spacing" text-decoration="underline" textLength="152.5029" x="590.5" y="696.9531">String KEY_DIET_TYPE</text><rect fill="none" height="6" style="stroke:#C82930;stroke-width:1.0;" width="6" x="578.5" y="708.2773"/><text fill="#000000" font-family="sans-serif" font-size="14" lengthAdjust="spacing" text-decoration="underline" textLength="167.2754" x="590.5" y="715.5742">String KEY_START_DATE</text><rect fill="none" height="6" style="stroke:#C82930;stroke-width:1.0;" width="6" x="578.5" y="726.8984"/><text fill="#000000" font-family="sans-serif" font-size="14" lengthAdjust="spacing" text-decoration="underline" textLength="185.9307" x="590.5" y="734.1953">String KEY_START_WEIGHT</text><rect fill="none" height="6" style="stroke:#C82930;stroke-width:1.0;" width="6" x="578.5" y="745.5195"/><text fill="#000000" font-family="sans-serif" font-size="14" lengthAdjust="spacing" text-decoration="underline" textLength="132.2754" x="590.5" y="752.8164">String KEY_STREAK</text><rect fill="none" height="6" style="stroke:#C82930;stroke-width:1.0;" width="6" x="578.5" y="764.1406"/><text fill="#000000" font-family="sans-serif" font-size="14" lengthAdjust="spacing" text-decoration="underline" textLength="195.3096" x="590.5" y="771.4375">String KEY_DAILY_CALORIES</text><rect fill="none" height="6" style="stroke:#C82930;stroke-width:1.0;" width="6" x="578.5" y="782.7617"/><text fill="#000000" font-family="sans-serif" font-size="14" lengthAdjust="spacing" text-decoration="underline" textLength="124.4961" x="590.5" y="790.0586">String KEY_CARBS</text><rect fill="none" height="6" style="stroke:#C82930;stroke-width:1.0;" width="6" x="578.5" y="801.3828"/><text fill="#000000" font-family="sans-serif" font-size="14" lengthAdjust="spacing" text-decoration="underline" textLength="138.4893" x="590.5" y="808.6797">String KEY_PROTEIN</text><rect fill="none" height="6" style="stroke:#C82930;stroke-width:1.0;" width="6" x="578.5" y="820.0039"/><text fill="#000000" font-family="sans-serif" font-size="14" lengthAdjust="spacing" text-decoration="underline" textLength="112.041" x="590.5" y="827.3008">String KEY_FATS</text><rect fill="none" height="6" style="stroke:#C82930;stroke-width:1.0;" width="6" x="578.5" y="838.625"/><text fill="#000000" font-family="sans-serif" font-size="14" lengthAdjust="spacing" text-decoration="underline" textLength="126.8135" x="590.5" y="845.9219">String KEY_WATER</text><line style="stroke:#181818;stroke-width:0.5;" x1="571.5" x2="822.7334" y1="853.4355" y2="853.4355"/></g><!--class DatabaseHelper--><g id="elem_DatabaseHelper"><rect codeLine="24" fill="#F1F1F1" height="103.8633" id="DatabaseHelper" rx="2.5" ry="2.5" style="stroke:#181818;stroke-width:0.5;" width="190.165" x="345" y="599.0137"/><ellipse cx="385.6469" cy="615.0137" fill="#ADD1B2" rx="11" ry="11" style="stroke:#181818;stroke-width:1.0;"/><path d="M388.4125,610.8887 Q388.5688,610.6699 388.7563,610.5605 Q388.9438,610.4512 389.1625,610.4512 Q389.5375,610.4512 389.7719,610.7168 Q390.0063,610.9668 390.0063,611.5762 L390.0063,613.0293 Q390.0063,613.6387 389.7719,613.9043 Q389.5375,614.1699 389.1625,614.1699 Q388.8188,614.1699 388.6157,613.9668 Q388.4125,613.7793 388.3032,613.2637 Q388.2563,612.9043 388.0688,612.7168 Q387.7407,612.3418 387.1313,612.123 Q386.5219,611.9043 385.8969,611.9043 Q385.1313,611.9043 384.4907,612.2324 Q383.8657,612.5605 383.3657,613.3105 Q382.8813,614.0605 382.8813,615.0918 L382.8813,616.1855 Q382.8813,617.4199 383.7719,618.248 Q384.6625,619.0605 386.2563,619.0605 Q387.1938,619.0605 387.85,618.8105 Q388.2407,618.6543 388.6625,618.2168 Q388.9282,617.9512 389.0688,617.873 Q389.225,617.7949 389.4282,617.7949 Q389.7563,617.7949 390.0063,618.0605 Q390.2719,618.3105 390.2719,618.6543 Q390.2719,618.998 389.9282,619.4043 Q389.4282,619.9824 388.6313,620.3105 Q387.5532,620.7637 386.2563,620.7637 Q384.7407,620.7637 383.5375,620.1387 Q382.5532,619.6387 381.8657,618.5762 Q381.1782,617.498 381.1782,616.2168 L381.1782,615.0605 Q381.1782,613.7324 381.7875,612.5918 Q382.4125,611.4355 383.5063,610.8262 Q384.6,610.2012 385.8344,610.2012 Q386.5688,610.2012 387.2094,610.373 Q387.8657,610.5293 388.4125,610.8887 Z " fill="#000000"/><text fill="#000000" font-family="sans-serif" font-size="14" lengthAdjust="spacing" textLength="101.1719" x="405.3462" y="620.8105">DatabaseHelper</text><line style="stroke:#181818;stroke-width:0.5;" x1="346" x2="534.165" y1="631.0137" y2="631.0137"/><rect fill="none" height="6" style="stroke:#C82930;stroke-width:1.0;" width="6" x="353" y="642.8242"/><text fill="#000000" font-family="sans-serif" font-size="14" lengthAdjust="spacing" text-decoration="underline" textLength="152.5029" x="365" y="650.1211">String DATABASE_FILE</text><rect fill="none" height="6" style="stroke:#C82930;stroke-width:1.0;" width="6" x="353" y="661.4453"/><text fill="#000000" font-family="sans-serif" font-size="14" lengthAdjust="spacing" text-decoration="underline" textLength="164.165" x="365" y="668.7422">int DATABASE_VERSION</text><rect fill="none" height="6" style="stroke:#C82930;stroke-width:1.0;" width="6" x="353" y="680.0664"/><text fill="#000000" font-family="sans-serif" font-size="14" lengthAdjust="spacing" textLength="97.2754" x="365" y="687.3633">Context context</text><line style="stroke:#181818;stroke-width:0.5;" x1="346" x2="534.165" y1="694.877" y2="694.877"/></g><!--class Tables--><g id="elem_Tables"><rect codeLine="30" fill="#F1F1F1" height="159.7266" id="Tables" rx="2.5" ry="2.5" style="stroke:#181818;stroke-width:0.5;" width="215.7998" x="859" y="571.0137"/><ellipse cx="941.6396" cy="587.0137" fill="#EB937F" rx="11" ry="11" style="stroke:#181818;stroke-width:1.0;"/><path d="M940.499,587.8105 L940.499,590.3105 L944.8271,590.3105 L944.8271,589.3887 Q944.8271,588.7793 945.0615,588.5137 Q945.3115,588.248 945.6865,588.248 Q946.0615,588.248 946.2959,588.5137 Q946.5303,588.7793 946.5303,589.3887 L946.5303,592.0137 L938.5303,592.0137 Q937.9053,592.0137 937.6396,591.7793 Q937.3896,591.5449 937.3896,591.1543 Q937.3896,590.7793 937.6553,590.5449 Q937.9209,590.3105 938.5303,590.3105 L938.7959,590.3105 L938.7959,583.6543 L938.5303,583.6543 Q937.9053,583.6543 937.6396,583.4199 Q937.3896,583.1855 937.3896,582.7949 Q937.3896,582.4199 937.6396,582.1855 Q937.9053,581.9512 938.5303,581.9512 L946.1553,581.9512 L946.1553,584.5449 Q946.1553,585.1543 945.9209,585.4199 Q945.7021,585.6699 945.3115,585.6699 Q944.9365,585.6699 944.7021,585.4199 Q944.4678,585.1543 944.4678,584.5449 L944.4678,583.6543 L940.499,583.6543 L940.499,586.1074 L941.9834,586.1074 Q941.9834,585.4512 942.1084,585.2637 Q942.374,584.8574 942.8428,584.8574 Q943.2178,584.8574 943.4521,585.123 Q943.6865,585.373 943.6865,585.9824 L943.6865,587.9512 Q943.6865,588.498 943.5615,588.6855 Q943.2959,589.0762 942.8428,589.0762 Q942.374,589.0762 942.1084,588.6699 Q941.9834,588.4824 941.9834,587.8105 L940.499,587.8105 Z " fill="#000000"/><text fill="#000000" font-family="sans-serif" font-size="14" lengthAdjust="spacing" textLength="42.0205" x="962.1396" y="592.8105">Tables</text><line style="stroke:#181818;stroke-width:0.5;" x1="860" x2="1073.7998" y1="603.0137" y2="603.0137"/><ellipse cx="870" cy="617.8242" fill="none" rx="3" ry="3" style="stroke:#038048;stroke-width:1.0;"/><text fill="#000000" font-family="sans-serif" font-size="14" lengthAdjust="spacing" textLength="48.2344" x="879" y="622.1211">USERS</text><ellipse cx="870" cy="636.4453" fill="none" rx="3" ry="3" style="stroke:#038048;stroke-width:1.0;"/><text fill="#000000" font-family="sans-serif" font-size="14" lengthAdjust="spacing" textLength="189.7998" x="879" y="640.7422">NOTIFICATION_TEMPLATES</text><ellipse cx="870" cy="655.0664" fill="none" rx="3" ry="3" style="stroke:#038048;stroke-width:1.0;"/><text fill="#000000" font-family="sans-serif" font-size="14" lengthAdjust="spacing" textLength="186.6826" x="879" y="659.3633">NOTIFICATION_INSTANCES</text><ellipse cx="870" cy="673.6875" fill="none" rx="3" ry="3" style="stroke:#038048;stroke-width:1.0;"/><text fill="#000000" font-family="sans-serif" font-size="14" lengthAdjust="spacing" textLength="49.7793" x="879" y="677.9844">FOODS</text><ellipse cx="870" cy="692.3086" fill="none" rx="3" ry="3" style="stroke:#038048;stroke-width:1.0;"/><text fill="#000000" font-family="sans-serif" font-size="14" lengthAdjust="spacing" textLength="47.4619" x="879" y="696.6055">MEALS</text><rect fill="none" height="6" style="stroke:#C82930;stroke-width:1.0;" width="6" x="867" y="707.9297"/><text fill="#000000" font-family="sans-serif" font-size="14" lengthAdjust="spacing" textLength="108.165" x="879" y="715.2266">String tableName</text><line style="stroke:#181818;stroke-width:0.5;" x1="860" x2="1073.7998" y1="722.7402" y2="722.7402"/></g><!--class DailySummaryHelper--><g id="elem_DailySummaryHelper"><rect codeLine="39" fill="#F1F1F1" height="66.6211" id="DailySummaryHelper" rx="2.5" ry="2.5" style="stroke:#181818;stroke-width:0.5;" width="164.2549" x="1110" y="617.5137"/><ellipse cx="1125" cy="633.5137" fill="#ADD1B2" rx="11" ry="11" style="stroke:#181818;stroke-width:1.0;"/><path d="M1127.7656,629.3887 Q1127.9219,629.1699 1128.1094,629.0605 Q1128.2969,628.9512 1128.5156,628.9512 Q1128.8906,628.9512 1129.125,629.2168 Q1129.3594,629.4668 1129.3594,630.0762 L1129.3594,631.5293 Q1129.3594,632.1387 1129.125,632.4043 Q1128.8906,632.6699 1128.5156,632.6699 Q1128.1719,632.6699 1127.9688,632.4668 Q1127.7656,632.2793 1127.6563,631.7637 Q1127.6094,631.4043 1127.4219,631.2168 Q1127.0938,630.8418 1126.4844,630.623 Q1125.875,630.4043 1125.25,630.4043 Q1124.4844,630.4043 1123.8438,630.7324 Q1123.2188,631.0605 1122.7188,631.8105 Q1122.2344,632.5605 1122.2344,633.5918 L1122.2344,634.6855 Q1122.2344,635.9199 1123.125,636.748 Q1124.0156,637.5605 1125.6094,637.5605 Q1126.5469,637.5605 1127.2031,637.3105 Q1127.5938,637.1543 1128.0156,636.7168 Q1128.2813,636.4512 1128.4219,636.373 Q1128.5781,636.2949 1128.7813,636.2949 Q1129.1094,636.2949 1129.3594,636.5605 Q1129.625,636.8105 1129.625,637.1543 Q1129.625,637.498 1129.2813,637.9043 Q1128.7813,638.4824 1127.9844,638.8105 Q1126.9063,639.2637 1125.6094,639.2637 Q1124.0938,639.2637 1122.8906,638.6387 Q1121.9063,638.1387 1121.2188,637.0762 Q1120.5313,635.998 1120.5313,634.7168 L1120.5313,633.5605 Q1120.5313,632.2324 1121.1406,631.0918 Q1121.7656,629.9355 1122.8594,629.3262 Q1123.9531,628.7012 1125.1875,628.7012 Q1125.9219,628.7012 1126.5625,628.873 Q1127.2188,629.0293 1127.7656,629.3887 Z " fill="#000000"/><text fill="#000000" font-family="sans-serif" font-size="14" lengthAdjust="spacing" textLength="132.2549" x="1139" y="639.3105">DailySummaryHelper</text><line style="stroke:#181818;stroke-width:0.5;" x1="1111" x2="1273.2549" y1="649.5137" y2="649.5137"/><rect fill="none" height="6" style="stroke:#C82930;stroke-width:1.0;" width="6" x="1118" y="661.3242"/><text fill="#000000" font-family="sans-serif" font-size="14" lengthAdjust="spacing" textLength="97.2754" x="1130" y="668.6211">Context context</text><line style="stroke:#181818;stroke-width:0.5;" x1="1111" x2="1273.2549" y1="676.1348" y2="676.1348"/></g><!--class WaterLogHelper--><g id="elem_WaterLogHelper"><rect codeLine="43" fill="#F1F1F1" height="85.2422" id="WaterLogHelper" rx="2.5" ry="2.5" style="stroke:#181818;stroke-width:0.5;" width="187.875" x="603" y="930.5137"/><ellipse cx="642.2719" cy="946.5137" fill="#ADD1B2" rx="11" ry="11" style="stroke:#181818;stroke-width:1.0;"/><path d="M645.0375,942.3887 Q645.1938,942.1699 645.3813,942.0605 Q645.5688,941.9512 645.7875,941.9512 Q646.1625,941.9512 646.3969,942.2168 Q646.6313,942.4668 646.6313,943.0762 L646.6313,944.5293 Q646.6313,945.1387 646.3969,945.4043 Q646.1625,945.6699 645.7875,945.6699 Q645.4438,945.6699 645.2406,945.4668 Q645.0375,945.2793 644.9281,944.7637 Q644.8813,944.4043 644.6938,944.2168 Q644.3656,943.8418 643.7563,943.623 Q643.1469,943.4043 642.5219,943.4043 Q641.7563,943.4043 641.1156,943.7324 Q640.4906,944.0605 639.9906,944.8105 Q639.5063,945.5605 639.5063,946.5918 L639.5063,947.6855 Q639.5063,948.9199 640.3969,949.748 Q641.2875,950.5605 642.8813,950.5605 Q643.8188,950.5605 644.475,950.3105 Q644.8656,950.1543 645.2875,949.7168 Q645.5531,949.4512 645.6938,949.373 Q645.85,949.2949 646.0531,949.2949 Q646.3813,949.2949 646.6313,949.5605 Q646.8969,949.8105 646.8969,950.1543 Q646.8969,950.498 646.5531,950.9043 Q646.0531,951.4824 645.2563,951.8105 Q644.1781,952.2637 642.8813,952.2637 Q641.3656,952.2637 640.1625,951.6387 Q639.1781,951.1387 638.4906,950.0762 Q637.8031,948.998 637.8031,947.7168 L637.8031,946.5605 Q637.8031,945.2324 638.4125,944.0918 Q639.0375,942.9355 640.1313,942.3262 Q641.225,941.7012 642.4594,941.7012 Q643.1938,941.7012 643.8344,941.873 Q644.4906,942.0293 645.0375,942.3887 Z " fill="#000000"/><text fill="#000000" font-family="sans-serif" font-size="14" lengthAdjust="spacing" textLength="101.9375" x="661.6656" y="952.3105">WaterLogHelper</text><line style="stroke:#181818;stroke-width:0.5;" x1="604" x2="789.875" y1="962.5137" y2="962.5137"/><rect fill="none" height="6" style="stroke:#C82930;stroke-width:1.0;" width="6" x="611" y="974.3242"/><text fill="#000000" font-family="sans-serif" font-size="14" lengthAdjust="spacing" textLength="161.875" x="623" y="981.6211">DatabaseHelper dbHelper</text><rect fill="none" height="6" style="stroke:#C82930;stroke-width:1.0;" width="6" x="611" y="992.9453"/><text fill="#000000" font-family="sans-serif" font-size="14" lengthAdjust="spacing" textLength="97.2754" x="623" y="1000.2422">Context context</text><line style="stroke:#181818;stroke-width:0.5;" x1="604" x2="789.875" y1="1007.7559" y2="1007.7559"/></g><!--class NotificationHelper--><g id="elem_NotificationHelper"><rect codeLine="48" fill="#F1F1F1" height="103.8633" id="NotificationHelper" rx="2.5" ry="2.5" style="stroke:#181818;stroke-width:0.5;" width="236.8066" x="826.5" y="921.0137"/><ellipse cx="885.4053" cy="937.0137" fill="#ADD1B2" rx="11" ry="11" style="stroke:#181818;stroke-width:1.0;"/><path d="M888.1709,932.8887 Q888.3271,932.6699 888.5146,932.5605 Q888.7021,932.4512 888.9209,932.4512 Q889.2959,932.4512 889.5303,932.7168 Q889.7646,932.9668 889.7646,933.5762 L889.7646,935.0293 Q889.7646,935.6387 889.5303,935.9043 Q889.2959,936.1699 888.9209,936.1699 Q888.5771,936.1699 888.374,935.9668 Q888.1709,935.7793 888.0615,935.2637 Q888.0146,934.9043 887.8271,934.7168 Q887.499,934.3418 886.8896,934.123 Q886.2803,933.9043 885.6553,933.9043 Q884.8896,933.9043 884.249,934.2324 Q883.624,934.5605 883.124,935.3105 Q882.6396,936.0605 882.6396,937.0918 L882.6396,938.1855 Q882.6396,939.4199 883.5303,940.248 Q884.4209,941.0605 886.0146,941.0605 Q886.9521,941.0605 887.6084,940.8105 Q887.999,940.6543 888.4209,940.2168 Q888.6865,939.9512 888.8271,939.873 Q888.9834,939.7949 889.1865,939.7949 Q889.5146,939.7949 889.7646,940.0605 Q890.0303,940.3105 890.0303,940.6543 Q890.0303,940.998 889.6865,941.4043 Q889.1865,941.9824 888.3896,942.3105 Q887.3115,942.7637 886.0146,942.7637 Q884.499,942.7637 883.2959,942.1387 Q882.3115,941.6387 881.624,940.5762 Q880.9365,939.498 880.9365,938.2168 L880.9365,937.0605 Q880.9365,935.7324 881.5459,934.5918 Q882.1709,933.4355 883.2646,932.8262 Q884.3584,932.2012 885.5928,932.2012 Q886.3271,932.2012 886.9678,932.373 Q887.624,932.5293 888.1709,932.8887 Z " fill="#000000"/><text fill="#000000" font-family="sans-serif" font-size="14" lengthAdjust="spacing" textLength="110.4961" x="905.9053" y="942.8105">NotificationHelper</text><line style="stroke:#181818;stroke-width:0.5;" x1="827.5" x2="1062.3066" y1="953.0137" y2="953.0137"/><rect fill="none" height="6" style="stroke:#C82930;stroke-width:1.0;" width="6" x="834.5" y="964.8242"/><text fill="#000000" font-family="sans-serif" font-size="14" lengthAdjust="spacing" text-decoration="underline" textLength="69.2412" x="846.5" y="972.1211">String TAG</text><ellipse cx="837.5" cy="986.4453" fill="none" rx="3" ry="3" style="stroke:#038048;stroke-width:1.0;"/><text fill="#000000" font-family="sans-serif" font-size="14" lengthAdjust="spacing" text-decoration="underline" textLength="129.1514" x="846.5" y="990.7422">String CHANNEL_ID</text><rect fill="none" height="6" style="stroke:#C82930;stroke-width:1.0;" width="6" x="834.5" y="1002.0664"/><text fill="#000000" font-family="sans-serif" font-size="14" lengthAdjust="spacing" text-decoration="underline" textLength="210.8066" x="846.5" y="1009.3633">int DEFAULT_NOTIFICATION_ID</text><line style="stroke:#181818;stroke-width:0.5;" x1="827.5" x2="1062.3066" y1="1016.877" y2="1016.877"/></g><!--class GoalHelper--><g id="elem_GoalHelper"><rect codeLine="54" fill="#F1F1F1" height="66.6211" id="GoalHelper" rx="2.5" ry="2.5" style="stroke:#181818;stroke-width:0.5;" width="215.8682" x="94" y="617.5137"/><ellipse cx="162.2773" cy="633.5137" fill="#ADD1B2" rx="11" ry="11" style="stroke:#181818;stroke-width:1.0;"/><path d="M165.043,629.3887 Q165.1992,629.1699 165.3867,629.0605 Q165.5742,628.9512 165.793,628.9512 Q166.168,628.9512 166.4023,629.2168 Q166.6367,629.4668 166.6367,630.0762 L166.6367,631.5293 Q166.6367,632.1387 166.4023,632.4043 Q166.168,632.6699 165.793,632.6699 Q165.4492,632.6699 165.2461,632.4668 Q165.043,632.2793 164.9336,631.7637 Q164.8867,631.4043 164.6992,631.2168 Q164.3711,630.8418 163.7617,630.623 Q163.1523,630.4043 162.5273,630.4043 Q161.7617,630.4043 161.1211,630.7324 Q160.4961,631.0605 159.9961,631.8105 Q159.5117,632.5605 159.5117,633.5918 L159.5117,634.6855 Q159.5117,635.9199 160.4023,636.748 Q161.293,637.5605 162.8867,637.5605 Q163.8242,637.5605 164.4805,637.3105 Q164.8711,637.1543 165.293,636.7168 Q165.5586,636.4512 165.6992,636.373 Q165.8555,636.2949 166.0586,636.2949 Q166.3867,636.2949 166.6367,636.5605 Q166.9023,636.8105 166.9023,637.1543 Q166.9023,637.498 166.5586,637.9043 Q166.0586,638.4824 165.2617,638.8105 Q164.1836,639.2637 162.8867,639.2637 Q161.3711,639.2637 160.168,638.6387 Q159.1836,638.1387 158.4961,637.0762 Q157.8086,635.998 157.8086,634.7168 L157.8086,633.5605 Q157.8086,632.2324 158.418,631.0918 Q159.043,629.9355 160.1367,629.3262 Q161.2305,628.7012 162.4648,628.7012 Q163.1992,628.7012 163.8398,628.873 Q164.4961,629.0293 165.043,629.3887 Z " fill="#000000"/><text fill="#000000" font-family="sans-serif" font-size="14" lengthAdjust="spacing" textLength="70.8135" x="182.7773" y="639.3105">GoalHelper</text><line style="stroke:#181818;stroke-width:0.5;" x1="95" x2="308.8682" y1="649.5137" y2="649.5137"/><rect fill="none" height="6" style="stroke:#C82930;stroke-width:1.0;" width="6" x="102" y="661.3242"/><text fill="#000000" font-family="sans-serif" font-size="14" lengthAdjust="spacing" textLength="189.8682" x="114" y="668.6211">UserInfoHelper userInfoHelper</text><line style="stroke:#181818;stroke-width:0.5;" x1="95" x2="308.8682" y1="676.1348" y2="676.1348"/></g><!--class GoalHelper$MacroRatios--><g id="elem_GoalHelper$MacroRatios"><rect codeLine="58" fill="#F1F1F1" height="66.6211" id="GoalHelper$MacroRatios" rx="2.5" ry="2.5" style="stroke:#181818;stroke-width:0.5;" width="189.1787" x="107.5" y="939.5137"/><ellipse cx="122.5" cy="955.5137" fill="#ADD1B2" rx="11" ry="11" style="stroke:#181818;stroke-width:1.0;"/><path d="M125.2656,951.3887 Q125.4219,951.1699 125.6094,951.0605 Q125.7969,950.9512 126.0156,950.9512 Q126.3906,950.9512 126.625,951.2168 Q126.8594,951.4668 126.8594,952.0762 L126.8594,953.5293 Q126.8594,954.1387 126.625,954.4043 Q126.3906,954.6699 126.0156,954.6699 Q125.6719,954.6699 125.4688,954.4668 Q125.2656,954.2793 125.1563,953.7637 Q125.1094,953.4043 124.9219,953.2168 Q124.5938,952.8418 123.9844,952.623 Q123.375,952.4043 122.75,952.4043 Q121.9844,952.4043 121.3438,952.7324 Q120.7188,953.0605 120.2188,953.8105 Q119.7344,954.5605 119.7344,955.5918 L119.7344,956.6855 Q119.7344,957.9199 120.625,958.748 Q121.5156,959.5605 123.1094,959.5605 Q124.0469,959.5605 124.7031,959.3105 Q125.0938,959.1543 125.5156,958.7168 Q125.7813,958.4512 125.9219,958.373 Q126.0781,958.2949 126.2813,958.2949 Q126.6094,958.2949 126.8594,958.5605 Q127.125,958.8105 127.125,959.1543 Q127.125,959.498 126.7813,959.9043 Q126.2813,960.4824 125.4844,960.8105 Q124.4063,961.2637 123.1094,961.2637 Q121.5938,961.2637 120.3906,960.6387 Q119.4063,960.1387 118.7188,959.0762 Q118.0313,957.998 118.0313,956.7168 L118.0313,955.5605 Q118.0313,954.2324 118.6406,953.0918 Q119.2656,951.9355 120.3594,951.3262 Q121.4531,950.7012 122.6875,950.7012 Q123.4219,950.7012 124.0625,950.873 Q124.7188,951.0293 125.2656,951.3887 Z " fill="#000000"/><text fill="#000000" font-family="sans-serif" font-size="14" lengthAdjust="spacing" textLength="157.1787" x="136.5" y="961.3105">GoalHelper$MacroRatios</text><line style="stroke:#181818;stroke-width:0.5;" x1="108.5" x2="295.6787" y1="971.5137" y2="971.5137"/><polygon fill="none" points="118.5,982.3242,114.5,988.3242,122.5,988.3242" style="stroke:#1963A0;stroke-width:1.0;"/><text fill="#000000" font-family="sans-serif" font-size="14" lengthAdjust="spacing" textLength="112.8477" x="127.5" y="990.6211">double carbsRatio</text><line style="stroke:#181818;stroke-width:0.5;" x1="108.5" x2="295.6787" y1="998.1348" y2="998.1348"/></g><!--class ValidationHelper--><g id="elem_ValidationHelper"><rect codeLine="62" fill="#F1F1F1" height="48" id="ValidationHelper" rx="2.5" ry="2.5" style="stroke:#181818;stroke-width:0.5;" width="134.7305" x="1098.5" y="949.0137"/><ellipse cx="1113.5" cy="965.0137" fill="#ADD1B2" rx="11" ry="11" style="stroke:#181818;stroke-width:1.0;"/><path d="M1116.2656,960.8887 Q1116.4219,960.6699 1116.6094,960.5605 Q1116.7969,960.4512 1117.0156,960.4512 Q1117.3906,960.4512 1117.625,960.7168 Q1117.8594,960.9668 1117.8594,961.5762 L1117.8594,963.0293 Q1117.8594,963.6387 1117.625,963.9043 Q1117.3906,964.1699 1117.0156,964.1699 Q1116.6719,964.1699 1116.4688,963.9668 Q1116.2656,963.7793 1116.1563,963.2637 Q1116.1094,962.9043 1115.9219,962.7168 Q1115.5938,962.3418 1114.9844,962.123 Q1114.375,961.9043 1113.75,961.9043 Q1112.9844,961.9043 1112.3438,962.2324 Q1111.7188,962.5605 1111.2188,963.3105 Q1110.7344,964.0605 1110.7344,965.0918 L1110.7344,966.1855 Q1110.7344,967.4199 1111.625,968.248 Q1112.5156,969.0605 1114.1094,969.0605 Q1115.0469,969.0605 1115.7031,968.8105 Q1116.0938,968.6543 1116.5156,968.2168 Q1116.7813,967.9512 1116.9219,967.873 Q1117.0781,967.7949 1117.2813,967.7949 Q1117.6094,967.7949 1117.8594,968.0605 Q1118.125,968.3105 1118.125,968.6543 Q1118.125,968.998 1117.7813,969.4043 Q1117.2813,969.9824 1116.4844,970.3105 Q1115.4063,970.7637 1114.1094,970.7637 Q1112.5938,970.7637 1111.3906,970.1387 Q1110.4063,969.6387 1109.7188,968.5762 Q1109.0313,967.498 1109.0313,966.2168 L1109.0313,965.0605 Q1109.0313,963.7324 1109.6406,962.5918 Q1110.2656,961.4355 1111.3594,960.8262 Q1112.4531,960.2012 1113.6875,960.2012 Q1114.4219,960.2012 1115.0625,960.373 Q1115.7188,960.5293 1116.2656,960.8887 Z " fill="#000000"/><text fill="#000000" font-family="sans-serif" font-size="14" lengthAdjust="spacing" textLength="102.7305" x="1127.5" y="970.8105">ValidationHelper</text><line style="stroke:#181818;stroke-width:0.5;" x1="1099.5" x2="1232.2305" y1="981.0137" y2="981.0137"/><line style="stroke:#181818;stroke-width:0.5;" x1="1099.5" x2="1232.2305" y1="989.0137" y2="989.0137"/></g><!--class SQLiteOpenHelper--><g id="elem_SQLiteOpenHelper"><rect fill="#F1F1F1" height="48" id="SQLiteOpenHelper" rx="2.5" ry="2.5" style="stroke:#181818;stroke-width:0.5;" width="150.2891" x="365" y="133.0137"/><ellipse cx="380" cy="149.0137" fill="#ADD1B2" rx="11" ry="11" style="stroke:#181818;stroke-width:1.0;"/><path d="M382.7656,144.8887 Q382.9219,144.6699 383.1094,144.5605 Q383.2969,144.4512 383.5156,144.4512 Q383.8906,144.4512 384.125,144.7168 Q384.3594,144.9668 384.3594,145.5762 L384.3594,147.0293 Q384.3594,147.6387 384.125,147.9043 Q383.8906,148.1699 383.5156,148.1699 Q383.1719,148.1699 382.9688,147.9668 Q382.7656,147.7793 382.6563,147.2637 Q382.6094,146.9043 382.4219,146.7168 Q382.0938,146.3418 381.4844,146.123 Q380.875,145.9043 380.25,145.9043 Q379.4844,145.9043 378.8438,146.2324 Q378.2188,146.5605 377.7188,147.3105 Q377.2344,148.0605 377.2344,149.0918 L377.2344,150.1855 Q377.2344,151.4199 378.125,152.248 Q379.0156,153.0605 380.6094,153.0605 Q381.5469,153.0605 382.2031,152.8105 Q382.5938,152.6543 383.0156,152.2168 Q383.2813,151.9512 383.4219,151.873 Q383.5781,151.7949 383.7813,151.7949 Q384.1094,151.7949 384.3594,152.0605 Q384.625,152.3105 384.625,152.6543 Q384.625,152.998 384.2813,153.4043 Q383.7813,153.9824 382.9844,154.3105 Q381.9063,154.7637 380.6094,154.7637 Q379.0938,154.7637 377.8906,154.1387 Q376.9063,153.6387 376.2188,152.5762 Q375.5313,151.498 375.5313,150.2168 L375.5313,149.0605 Q375.5313,147.7324 376.1406,146.5918 Q376.7656,145.4355 377.8594,144.8262 Q378.9531,144.2012 380.1875,144.2012 Q380.9219,144.2012 381.5625,144.373 Q382.2188,144.5293 382.7656,144.8887 Z " fill="#000000"/><text fill="#000000" font-family="sans-serif" font-size="14" lengthAdjust="spacing" textLength="118.2891" x="394" y="154.8105">SQLiteOpenHelper</text><line style="stroke:#181818;stroke-width:0.5;" x1="366" x2="514.2891" y1="165.0137" y2="165.0137"/><line style="stroke:#181818;stroke-width:0.5;" x1="366" x2="514.2891" y1="173.0137" y2="173.0137"/></g><!--reverse link SQLiteOpenHelper to DatabaseHelper--><g id="link_SQLiteOpenHelper_DatabaseHelper"><path codeLine="66" d="M440,199.0837 C440,273.9337 440,493.2737 440,598.7037 " fill="none" id="SQLiteOpenHelper-backto-DatabaseHelper" style="stroke:#181818;stroke-width:1.0;"/><polygon fill="none" points="440,181.0837,434,199.0837,446,199.0837,440,181.0837" style="stroke:#181818;stroke-width:1.0;"/></g><!--reverse link GoalHelper to GoalHelper$MacroRatios--><g id="link_GoalHelper_GoalHelper$MacroRatios"><path codeLine="67" d="M202,700.7537 C202,762.0837 202,877.6037 202,939.0837 " fill="none" id="GoalHelper-backto-GoalHelper$MacroRatios" style="stroke:#181818;stroke-width:1.0;stroke-dasharray:7.0,7.0;"/><ellipse cx="202" cy="692.7537" fill="#FFFFFF" rx="8" ry="8" style="stroke:#181818;stroke-width:1.0;"/><line style="stroke:#181818;stroke-width:1.0;" x1="202" x2="202" y1="700.7537" y2="684.7537"/><line style="stroke:#181818;stroke-width:1.0;" x1="194" x2="210" y1="692.7537" y2="692.7537"/></g><!--SRC=[dLHDRwCm4BtpApZihGg_O2yE6B3gcDHs4kM4771Q93vIOwHMsUvlNqEwAvBMbEx9dddZDpDl1h9IjAsRDPKdNqHrAgMdv579zicBPNcIojkqKg7ws5nCz-mitABMRjUxSsFuJQtbYpOKmsayx4aecQyDZrIopcGx18zi4tDkjT15zkOohOhwqRs7-pI2983K0e88Mf00S9WcORf4bCSswWHW6x7FqHRnVOhX5jg2TX15CRU07D08ykcOU0eCa7dEzsjRXynau4EVam6J1J1E8RYtIeZmFlK1JYY2p1Ba0xgqOMkQS8Y81Gq1jptScQQey-OusLTx60Wj3gALepsy9JGAWILWC0qHlfAgNzX_u1PIXXBooUgQCcJTLLDLS74epKAVdJlNtJ33r5z8mb68VC0DRShXQerDLnyHHCoSY7z1mYG9XiiA0johyzw3xXCGKScPeXJbA-kgIgZNaJ2VDFObrKvegN3pEAAvaJm_N2x_cO0qkZWMcPb8KqyCaOF8o7BhzMD02CGf2ZxC5OPWWtbwBNKmgwIe4UMeb9jVNNTbVfFmnqfagg5zj_sw_7RpfZEJTJEX3ktWdaMu5MMHNqjcdZcYpbLJv5x-FY6lVIuBBJtsWCsHdEJVy9-_5elvNvKpJwixp_k-27y0]--></g></svg>