<svg xmlns="http://www.w3.org/2000/svg" xmlns:xlink="http://www.w3.org/1999/xlink" contentStyleType="text/css" height="860px" preserveAspectRatio="none" style="width:1142px;height:860px;background:#FFFFFF;" version="1.1" viewBox="0 0 1142 860" width="1142px" zoomAndPan="magnify"><defs/><g><!--cluster com--><g id="cluster_com"><path d="M8.5,269.0137 L38.2861,269.0137 A3.75,3.75 0 0 1 40.7861,271.5137 L47.7861,293.6348 L1132.5,293.6348 A2.5,2.5 0 0 1 1135,296.1348 L1135,850.5137 A2.5,2.5 0 0 1 1132.5,853.0137 L8.5,853.0137 A2.5,2.5 0 0 1 6,850.5137 L6,271.5137 A2.5,2.5 0 0 1 8.5,269.0137 " fill="none" style="stroke:#000000;stroke-width:1.5;"/><line style="stroke:#000000;stroke-width:1.5;" x1="6" x2="47.7861" y1="293.6348" y2="293.6348"/><text fill="#000000" font-family="sans-serif" font-size="14" font-weight="bold" lengthAdjust="spacing" textLength="28.7861" x="10" y="286.1211">com</text></g><!--cluster example--><g id="cluster_example"><path d="M32.5,314.0137 L89.5342,314.0137 A3.75,3.75 0 0 1 92.0342,316.5137 L99.0342,338.6348 L1108.5,338.6348 A2.5,2.5 0 0 1 1111,341.1348 L1111,826.5137 A2.5,2.5 0 0 1 1108.5,829.0137 L32.5,829.0137 A2.5,2.5 0 0 1 30,826.5137 L30,316.5137 A2.5,2.5 0 0 1 32.5,314.0137 " fill="none" style="stroke:#000000;stroke-width:1.5;"/><line style="stroke:#000000;stroke-width:1.5;" x1="30" x2="99.0342" y1="338.6348" y2="338.6348"/><text fill="#000000" font-family="sans-serif" font-size="14" font-weight="bold" lengthAdjust="spacing" textLength="56.0342" x="34" y="331.1211">example</text></g><!--cluster refresh--><g id="cluster_refresh"><path d="M56.5,359.0137 L104.9688,359.0137 A3.75,3.75 0 0 1 107.4688,361.5137 L114.4688,383.6348 L1084.5,383.6348 A2.5,2.5 0 0 1 1087,386.1348 L1087,802.5137 A2.5,2.5 0 0 1 1084.5,805.0137 L56.5,805.0137 A2.5,2.5 0 0 1 54,802.5137 L54,361.5137 A2.5,2.5 0 0 1 56.5,359.0137 " fill="none" style="stroke:#000000;stroke-width:1.5;"/><line style="stroke:#000000;stroke-width:1.5;" x1="54" x2="114.4688" y1="383.6348" y2="383.6348"/><text fill="#000000" font-family="sans-serif" font-size="14" font-weight="bold" lengthAdjust="spacing" textLength="47.4688" x="58" y="376.1211">refresh</text></g><!--cluster Helper--><g id="cluster_Helper"><path d="M80.5,404.0137 L125.0723,404.0137 A3.75,3.75 0 0 1 127.5723,406.5137 L134.5723,428.6348 L1060.5,428.6348 A2.5,2.5 0 0 1 1063,431.1348 L1063,778.5137 A2.5,2.5 0 0 1 1060.5,781.0137 L80.5,781.0137 A2.5,2.5 0 0 1 78,778.5137 L78,406.5137 A2.5,2.5 0 0 1 80.5,404.0137 " fill="none" style="stroke:#000000;stroke-width:1.5;"/><line style="stroke:#000000;stroke-width:1.5;" x1="78" x2="134.5723" y1="428.6348" y2="428.6348"/><text fill="#000000" font-family="sans-serif" font-size="14" font-weight="bold" lengthAdjust="spacing" textLength="43.5723" x="82" y="421.1211">Helper</text></g><!--cluster android--><g id="cluster_android"><path d="M52.5,6.0137 L104.8311,6.0137 A3.75,3.75 0 0 1 107.3311,8.5137 L114.3311,30.6348 L325.5,30.6348 A2.5,2.5 0 0 1 328,33.1348 L328,242.5137 A2.5,2.5 0 0 1 325.5,245.0137 L52.5,245.0137 A2.5,2.5 0 0 1 50,242.5137 L50,8.5137 A2.5,2.5 0 0 1 52.5,6.0137 " fill="none" style="stroke:#000000;stroke-width:1.5;"/><line style="stroke:#000000;stroke-width:1.5;" x1="50" x2="114.3311" y1="30.6348" y2="30.6348"/><text fill="#000000" font-family="sans-serif" font-size="14" font-weight="bold" lengthAdjust="spacing" textLength="51.3311" x="54" y="23.1211">android</text></g><!--cluster database--><g id="cluster_database"><path d="M76.5,51.0137 L138.1963,51.0137 A3.75,3.75 0 0 1 140.6963,53.5137 L147.6963,75.6348 L301.5,75.6348 A2.5,2.5 0 0 1 304,78.1348 L304,218.5137 A2.5,2.5 0 0 1 301.5,221.0137 L76.5,221.0137 A2.5,2.5 0 0 1 74,218.5137 L74,53.5137 A2.5,2.5 0 0 1 76.5,51.0137 " fill="none" style="stroke:#000000;stroke-width:1.5;"/><line style="stroke:#000000;stroke-width:1.5;" x1="74" x2="147.6963" y1="75.6348" y2="75.6348"/><text fill="#000000" font-family="sans-serif" font-size="14" font-weight="bold" lengthAdjust="spacing" textLength="60.6963" x="78" y="68.1211">database</text></g><!--cluster sqlite--><g id="cluster_sqlite"><path d="M100.5,96.0137 L138.0654,96.0137 A3.75,3.75 0 0 1 140.5654,98.5137 L147.5654,120.6348 L277.5,120.6348 A2.5,2.5 0 0 1 280,123.1348 L280,194.5137 A2.5,2.5 0 0 1 277.5,197.0137 L100.5,197.0137 A2.5,2.5 0 0 1 98,194.5137 L98,98.5137 A2.5,2.5 0 0 1 100.5,96.0137 " fill="none" style="stroke:#000000;stroke-width:1.5;"/><line style="stroke:#000000;stroke-width:1.5;" x1="98" x2="147.5654" y1="120.6348" y2="120.6348"/><text fill="#000000" font-family="sans-serif" font-size="14" font-weight="bold" lengthAdjust="spacing" textLength="36.5654" x="102" y="113.1211">sqlite</text></g><!--class UserInfoHelper--><g id="elem_UserInfoHelper"><rect codeLine="1" fill="#F1F1F1" height="103.8633" id="UserInfoHelper" rx="2.5" ry="2.5" style="stroke:#181818;stroke-width:0.5;" width="253.2334" x="319.5" y="469.0137"/><ellipse cx="394.791" cy="485.0137" fill="#ADD1B2" rx="11" ry="11" style="stroke:#181818;stroke-width:1.0;"/><path d="M397.5566,480.8887 Q397.7129,480.6699 397.9004,480.5605 Q398.0879,480.4512 398.3066,480.4512 Q398.6816,480.4512 398.916,480.7168 Q399.1504,480.9668 399.1504,481.5762 L399.1504,483.0293 Q399.1504,483.6387 398.916,483.9043 Q398.6816,484.1699 398.3066,484.1699 Q397.9629,484.1699 397.7598,483.9668 Q397.5566,483.7793 397.4473,483.2637 Q397.4004,482.9043 397.2129,482.7168 Q396.8848,482.3418 396.2754,482.123 Q395.666,481.9043 395.041,481.9043 Q394.2754,481.9043 393.6348,482.2324 Q393.0098,482.5605 392.5098,483.3105 Q392.0254,484.0605 392.0254,485.0918 L392.0254,486.1855 Q392.0254,487.4199 392.916,488.248 Q393.8066,489.0605 395.4004,489.0605 Q396.3379,489.0605 396.9941,488.8105 Q397.3848,488.6543 397.8066,488.2168 Q398.0723,487.9512 398.2129,487.873 Q398.3691,487.7949 398.5723,487.7949 Q398.9004,487.7949 399.1504,488.0605 Q399.416,488.3105 399.416,488.6543 Q399.416,488.998 399.0723,489.4043 Q398.5723,489.9824 397.7754,490.3105 Q396.6973,490.7637 395.4004,490.7637 Q393.8848,490.7637 392.6816,490.1387 Q391.6973,489.6387 391.0098,488.5762 Q390.3223,487.498 390.3223,486.2168 L390.3223,485.0605 Q390.3223,483.7324 390.9316,482.5918 Q391.5566,481.4355 392.6504,480.8262 Q393.7441,480.2012 394.9785,480.2012 Q395.7129,480.2012 396.3535,480.373 Q397.0098,480.5293 397.5566,480.8887 Z " fill="#000000"/><text fill="#000000" font-family="sans-serif" font-size="14" lengthAdjust="spacing" textLength="94.1514" x="415.291" y="490.8105">UserInfoHelper</text><line style="stroke:#181818;stroke-width:0.5;" x1="320.5" x2="571.7334" y1="501.0137" y2="501.0137"/><rect fill="none" height="6" style="stroke:#C82930;stroke-width:1.0;" width="6" x="327.5" y="512.8242"/><text fill="#000000" font-family="sans-serif" font-size="14" lengthAdjust="spacing" textLength="57.5859" x="339.5" y="520.1211">int userId</text><rect fill="none" height="6" style="stroke:#C82930;stroke-width:1.0;" width="6" x="327.5" y="531.4453"/><text fill="#000000" font-family="sans-serif" font-size="14" lengthAdjust="spacing" textLength="97.2754" x="339.5" y="538.7422">Context context</text><rect fill="none" height="6" style="stroke:#C82930;stroke-width:1.0;" width="6" x="327.5" y="550.0664"/><text fill="#000000" font-family="sans-serif" font-size="14" lengthAdjust="spacing" textLength="227.2334" x="339.5" y="557.3633">SharedPreferences userPreferences</text><line style="stroke:#181818;stroke-width:0.5;" x1="320.5" x2="571.7334" y1="564.877" y2="564.877"/></g><!--class DatabaseHelper--><g id="elem_DatabaseHelper"><rect codeLine="7" fill="#F1F1F1" height="103.8633" id="DatabaseHelper" rx="2.5" ry="2.5" style="stroke:#181818;stroke-width:0.5;" width="190.165" x="94" y="469.0137"/><ellipse cx="134.6469" cy="485.0137" fill="#ADD1B2" rx="11" ry="11" style="stroke:#181818;stroke-width:1.0;"/><path d="M137.4125,480.8887 Q137.5688,480.6699 137.7563,480.5605 Q137.9438,480.4512 138.1625,480.4512 Q138.5375,480.4512 138.7719,480.7168 Q139.0063,480.9668 139.0063,481.5762 L139.0063,483.0293 Q139.0063,483.6387 138.7719,483.9043 Q138.5375,484.1699 138.1625,484.1699 Q137.8188,484.1699 137.6157,483.9668 Q137.4125,483.7793 137.3032,483.2637 Q137.2563,482.9043 137.0688,482.7168 Q136.7407,482.3418 136.1313,482.123 Q135.5219,481.9043 134.8969,481.9043 Q134.1313,481.9043 133.4907,482.2324 Q132.8657,482.5605 132.3657,483.3105 Q131.8813,484.0605 131.8813,485.0918 L131.8813,486.1855 Q131.8813,487.4199 132.7719,488.248 Q133.6625,489.0605 135.2563,489.0605 Q136.1938,489.0605 136.85,488.8105 Q137.2407,488.6543 137.6625,488.2168 Q137.9282,487.9512 138.0688,487.873 Q138.225,487.7949 138.4282,487.7949 Q138.7563,487.7949 139.0063,488.0605 Q139.2719,488.3105 139.2719,488.6543 Q139.2719,488.998 138.9282,489.4043 Q138.4282,489.9824 137.6313,490.3105 Q136.5532,490.7637 135.2563,490.7637 Q133.7407,490.7637 132.5375,490.1387 Q131.5532,489.6387 130.8657,488.5762 Q130.1782,487.498 130.1782,486.2168 L130.1782,485.0605 Q130.1782,483.7324 130.7875,482.5918 Q131.4125,481.4355 132.5063,480.8262 Q133.6,480.2012 134.8344,480.2012 Q135.5688,480.2012 136.2094,480.373 Q136.8657,480.5293 137.4125,480.8887 Z " fill="#000000"/><text fill="#000000" font-family="sans-serif" font-size="14" lengthAdjust="spacing" textLength="101.1719" x="154.3462" y="490.8105">DatabaseHelper</text><line style="stroke:#181818;stroke-width:0.5;" x1="95" x2="283.165" y1="501.0137" y2="501.0137"/><rect fill="none" height="6" style="stroke:#C82930;stroke-width:1.0;" width="6" x="102" y="512.8242"/><text fill="#000000" font-family="sans-serif" font-size="14" lengthAdjust="spacing" text-decoration="underline" textLength="152.5029" x="114" y="520.1211">String DATABASE_FILE</text><rect fill="none" height="6" style="stroke:#C82930;stroke-width:1.0;" width="6" x="102" y="531.4453"/><text fill="#000000" font-family="sans-serif" font-size="14" lengthAdjust="spacing" text-decoration="underline" textLength="164.165" x="114" y="538.7422">int DATABASE_VERSION</text><rect fill="none" height="6" style="stroke:#C82930;stroke-width:1.0;" width="6" x="102" y="550.0664"/><text fill="#000000" font-family="sans-serif" font-size="14" lengthAdjust="spacing" textLength="97.2754" x="114" y="557.3633">Context context</text><line style="stroke:#181818;stroke-width:0.5;" x1="95" x2="283.165" y1="564.877" y2="564.877"/></g><!--class Tables--><g id="elem_Tables"><rect codeLine="13" fill="#F1F1F1" height="159.7266" id="Tables" rx="2.5" ry="2.5" style="stroke:#181818;stroke-width:0.5;" width="215.7998" x="608" y="441.0137"/><ellipse cx="690.6396" cy="457.0137" fill="#EB937F" rx="11" ry="11" style="stroke:#181818;stroke-width:1.0;"/><path d="M689.499,457.8105 L689.499,460.3105 L693.8271,460.3105 L693.8271,459.3887 Q693.8271,458.7793 694.0615,458.5137 Q694.3115,458.248 694.6865,458.248 Q695.0615,458.248 695.2959,458.5137 Q695.5303,458.7793 695.5303,459.3887 L695.5303,462.0137 L687.5303,462.0137 Q686.9053,462.0137 686.6396,461.7793 Q686.3896,461.5449 686.3896,461.1543 Q686.3896,460.7793 686.6553,460.5449 Q686.9209,460.3105 687.5303,460.3105 L687.7959,460.3105 L687.7959,453.6543 L687.5303,453.6543 Q686.9053,453.6543 686.6396,453.4199 Q686.3896,453.1855 686.3896,452.7949 Q686.3896,452.4199 686.6396,452.1855 Q686.9053,451.9512 687.5303,451.9512 L695.1553,451.9512 L695.1553,454.5449 Q695.1553,455.1543 694.9209,455.4199 Q694.7021,455.6699 694.3115,455.6699 Q693.9365,455.6699 693.7021,455.4199 Q693.4678,455.1543 693.4678,454.5449 L693.4678,453.6543 L689.499,453.6543 L689.499,456.1074 L690.9834,456.1074 Q690.9834,455.4512 691.1084,455.2637 Q691.374,454.8574 691.8428,454.8574 Q692.2178,454.8574 692.4521,455.123 Q692.6865,455.373 692.6865,455.9824 L692.6865,457.9512 Q692.6865,458.498 692.5615,458.6855 Q692.2959,459.0762 691.8428,459.0762 Q691.374,459.0762 691.1084,458.6699 Q690.9834,458.4824 690.9834,457.8105 L689.499,457.8105 Z " fill="#000000"/><text fill="#000000" font-family="sans-serif" font-size="14" lengthAdjust="spacing" textLength="42.0205" x="711.1396" y="462.8105">Tables</text><line style="stroke:#181818;stroke-width:0.5;" x1="609" x2="822.7998" y1="473.0137" y2="473.0137"/><ellipse cx="619" cy="487.8242" fill="none" rx="3" ry="3" style="stroke:#038048;stroke-width:1.0;"/><text fill="#000000" font-family="sans-serif" font-size="14" lengthAdjust="spacing" textLength="48.2344" x="628" y="492.1211">USERS</text><ellipse cx="619" cy="506.4453" fill="none" rx="3" ry="3" style="stroke:#038048;stroke-width:1.0;"/><text fill="#000000" font-family="sans-serif" font-size="14" lengthAdjust="spacing" textLength="189.7998" x="628" y="510.7422">NOTIFICATION_TEMPLATES</text><ellipse cx="619" cy="525.0664" fill="none" rx="3" ry="3" style="stroke:#038048;stroke-width:1.0;"/><text fill="#000000" font-family="sans-serif" font-size="14" lengthAdjust="spacing" textLength="186.6826" x="628" y="529.3633">NOTIFICATION_INSTANCES</text><ellipse cx="619" cy="543.6875" fill="none" rx="3" ry="3" style="stroke:#038048;stroke-width:1.0;"/><text fill="#000000" font-family="sans-serif" font-size="14" lengthAdjust="spacing" textLength="49.7793" x="628" y="547.9844">FOODS</text><ellipse cx="619" cy="562.3086" fill="none" rx="3" ry="3" style="stroke:#038048;stroke-width:1.0;"/><text fill="#000000" font-family="sans-serif" font-size="14" lengthAdjust="spacing" textLength="47.4619" x="628" y="566.6055">MEALS</text><rect fill="none" height="6" style="stroke:#C82930;stroke-width:1.0;" width="6" x="616" y="577.9297"/><text fill="#000000" font-family="sans-serif" font-size="14" lengthAdjust="spacing" textLength="108.165" x="628" y="585.2266">String tableName</text><line style="stroke:#181818;stroke-width:0.5;" x1="609" x2="822.7998" y1="592.7402" y2="592.7402"/></g><!--class DailySummaryHelper--><g id="elem_DailySummaryHelper"><rect codeLine="22" fill="#F1F1F1" height="85.2422" id="DailySummaryHelper" rx="2.5" ry="2.5" style="stroke:#181818;stroke-width:0.5;" width="187.875" x="859" y="478.5137"/><ellipse cx="884.6291" cy="494.5137" fill="#ADD1B2" rx="11" ry="11" style="stroke:#181818;stroke-width:1.0;"/><path d="M887.3947,490.3887 Q887.5509,490.1699 887.7384,490.0605 Q887.9259,489.9512 888.1447,489.9512 Q888.5197,489.9512 888.7541,490.2168 Q888.9884,490.4668 888.9884,491.0762 L888.9884,492.5293 Q888.9884,493.1387 888.7541,493.4043 Q888.5197,493.6699 888.1447,493.6699 Q887.8009,493.6699 887.5978,493.4668 Q887.3947,493.2793 887.2853,492.7637 Q887.2384,492.4043 887.0509,492.2168 Q886.7228,491.8418 886.1134,491.623 Q885.5041,491.4043 884.8791,491.4043 Q884.1134,491.4043 883.4728,491.7324 Q882.8478,492.0605 882.3478,492.8105 Q881.8634,493.5605 881.8634,494.5918 L881.8634,495.6855 Q881.8634,496.9199 882.7541,497.748 Q883.6447,498.5605 885.2384,498.5605 Q886.1759,498.5605 886.8322,498.3105 Q887.2228,498.1543 887.6447,497.7168 Q887.9103,497.4512 888.0509,497.373 Q888.2072,497.2949 888.4103,497.2949 Q888.7384,497.2949 888.9884,497.5605 Q889.2541,497.8105 889.2541,498.1543 Q889.2541,498.498 888.9103,498.9043 Q888.4103,499.4824 887.6134,499.8105 Q886.5353,500.2637 885.2384,500.2637 Q883.7228,500.2637 882.5197,499.6387 Q881.5353,499.1387 880.8478,498.0762 Q880.1603,496.998 880.1603,495.7168 L880.1603,494.5605 Q880.1603,493.2324 880.7697,492.0918 Q881.3947,490.9355 882.4884,490.3262 Q883.5822,489.7012 884.8166,489.7012 Q885.5509,489.7012 886.1916,489.873 Q886.8478,490.0293 887.3947,490.3887 Z " fill="#000000"/><text fill="#000000" font-family="sans-serif" font-size="14" lengthAdjust="spacing" textLength="132.2549" x="900.9911" y="500.3105">DailySummaryHelper</text><line style="stroke:#181818;stroke-width:0.5;" x1="860" x2="1045.875" y1="510.5137" y2="510.5137"/><rect fill="none" height="6" style="stroke:#C82930;stroke-width:1.0;" width="6" x="867" y="522.3242"/><text fill="#000000" font-family="sans-serif" font-size="14" lengthAdjust="spacing" textLength="161.875" x="879" y="529.6211">DatabaseHelper dbHelper</text><rect fill="none" height="6" style="stroke:#C82930;stroke-width:1.0;" width="6" x="867" y="540.9453"/><text fill="#000000" font-family="sans-serif" font-size="14" lengthAdjust="spacing" textLength="97.2754" x="879" y="548.2422">Context context</text><line style="stroke:#181818;stroke-width:0.5;" x1="860" x2="1045.875" y1="555.7559" y2="555.7559"/></g><!--class WaterLogHelper--><g id="elem_WaterLogHelper"><rect codeLine="27" fill="#F1F1F1" height="85.2422" id="WaterLogHelper" rx="2.5" ry="2.5" style="stroke:#181818;stroke-width:0.5;" width="187.875" x="352" y="670.5137"/><ellipse cx="391.2719" cy="686.5137" fill="#ADD1B2" rx="11" ry="11" style="stroke:#181818;stroke-width:1.0;"/><path d="M394.0375,682.3887 Q394.1938,682.1699 394.3813,682.0605 Q394.5688,681.9512 394.7875,681.9512 Q395.1625,681.9512 395.3969,682.2168 Q395.6313,682.4668 395.6313,683.0762 L395.6313,684.5293 Q395.6313,685.1387 395.3969,685.4043 Q395.1625,685.6699 394.7875,685.6699 Q394.4438,685.6699 394.2406,685.4668 Q394.0375,685.2793 393.9281,684.7637 Q393.8813,684.4043 393.6938,684.2168 Q393.3656,683.8418 392.7563,683.623 Q392.1469,683.4043 391.5219,683.4043 Q390.7563,683.4043 390.1156,683.7324 Q389.4906,684.0605 388.9906,684.8105 Q388.5063,685.5605 388.5063,686.5918 L388.5063,687.6855 Q388.5063,688.9199 389.3969,689.748 Q390.2875,690.5605 391.8813,690.5605 Q392.8188,690.5605 393.475,690.3105 Q393.8656,690.1543 394.2875,689.7168 Q394.5531,689.4512 394.6938,689.373 Q394.85,689.2949 395.0531,689.2949 Q395.3813,689.2949 395.6313,689.5605 Q395.8969,689.8105 395.8969,690.1543 Q395.8969,690.498 395.5531,690.9043 Q395.0531,691.4824 394.2563,691.8105 Q393.1781,692.2637 391.8813,692.2637 Q390.3656,692.2637 389.1625,691.6387 Q388.1781,691.1387 387.4906,690.0762 Q386.8031,688.998 386.8031,687.7168 L386.8031,686.5605 Q386.8031,685.2324 387.4125,684.0918 Q388.0375,682.9355 389.1313,682.3262 Q390.225,681.7012 391.4594,681.7012 Q392.1938,681.7012 392.8344,681.873 Q393.4906,682.0293 394.0375,682.3887 Z " fill="#000000"/><text fill="#000000" font-family="sans-serif" font-size="14" lengthAdjust="spacing" textLength="101.9375" x="410.6656" y="692.3105">WaterLogHelper</text><line style="stroke:#181818;stroke-width:0.5;" x1="353" x2="538.875" y1="702.5137" y2="702.5137"/><rect fill="none" height="6" style="stroke:#C82930;stroke-width:1.0;" width="6" x="360" y="714.3242"/><text fill="#000000" font-family="sans-serif" font-size="14" lengthAdjust="spacing" textLength="161.875" x="372" y="721.6211">DatabaseHelper dbHelper</text><rect fill="none" height="6" style="stroke:#C82930;stroke-width:1.0;" width="6" x="360" y="732.9453"/><text fill="#000000" font-family="sans-serif" font-size="14" lengthAdjust="spacing" textLength="97.2754" x="372" y="740.2422">Context context</text><line style="stroke:#181818;stroke-width:0.5;" x1="353" x2="538.875" y1="747.7559" y2="747.7559"/></g><!--class NotificationHelper--><g id="elem_NotificationHelper"><rect codeLine="32" fill="#F1F1F1" height="103.8633" id="NotificationHelper" rx="2.5" ry="2.5" style="stroke:#181818;stroke-width:0.5;" width="236.8066" x="575.5" y="661.0137"/><ellipse cx="634.4053" cy="677.0137" fill="#ADD1B2" rx="11" ry="11" style="stroke:#181818;stroke-width:1.0;"/><path d="M637.1709,672.8887 Q637.3271,672.6699 637.5146,672.5605 Q637.7021,672.4512 637.9209,672.4512 Q638.2959,672.4512 638.5303,672.7168 Q638.7646,672.9668 638.7646,673.5762 L638.7646,675.0293 Q638.7646,675.6387 638.5303,675.9043 Q638.2959,676.1699 637.9209,676.1699 Q637.5771,676.1699 637.374,675.9668 Q637.1709,675.7793 637.0615,675.2637 Q637.0146,674.9043 636.8271,674.7168 Q636.499,674.3418 635.8896,674.123 Q635.2803,673.9043 634.6553,673.9043 Q633.8896,673.9043 633.249,674.2324 Q632.624,674.5605 632.124,675.3105 Q631.6396,676.0605 631.6396,677.0918 L631.6396,678.1855 Q631.6396,679.4199 632.5303,680.248 Q633.4209,681.0605 635.0146,681.0605 Q635.9521,681.0605 636.6084,680.8105 Q636.999,680.6543 637.4209,680.2168 Q637.6865,679.9512 637.8271,679.873 Q637.9834,679.7949 638.1865,679.7949 Q638.5146,679.7949 638.7646,680.0605 Q639.0303,680.3105 639.0303,680.6543 Q639.0303,680.998 638.6865,681.4043 Q638.1865,681.9824 637.3896,682.3105 Q636.3115,682.7637 635.0146,682.7637 Q633.499,682.7637 632.2959,682.1387 Q631.3115,681.6387 630.624,680.5762 Q629.9365,679.498 629.9365,678.2168 L629.9365,677.0605 Q629.9365,675.7324 630.5459,674.5918 Q631.1709,673.4355 632.2646,672.8262 Q633.3584,672.2012 634.5928,672.2012 Q635.3271,672.2012 635.9678,672.373 Q636.624,672.5293 637.1709,672.8887 Z " fill="#000000"/><text fill="#000000" font-family="sans-serif" font-size="14" lengthAdjust="spacing" textLength="110.4961" x="654.9053" y="682.8105">NotificationHelper</text><line style="stroke:#181818;stroke-width:0.5;" x1="576.5" x2="811.3066" y1="693.0137" y2="693.0137"/><rect fill="none" height="6" style="stroke:#C82930;stroke-width:1.0;" width="6" x="583.5" y="704.8242"/><text fill="#000000" font-family="sans-serif" font-size="14" lengthAdjust="spacing" text-decoration="underline" textLength="69.2412" x="595.5" y="712.1211">String TAG</text><ellipse cx="586.5" cy="726.4453" fill="none" rx="3" ry="3" style="stroke:#038048;stroke-width:1.0;"/><text fill="#000000" font-family="sans-serif" font-size="14" lengthAdjust="spacing" text-decoration="underline" textLength="129.1514" x="595.5" y="730.7422">String CHANNEL_ID</text><rect fill="none" height="6" style="stroke:#C82930;stroke-width:1.0;" width="6" x="583.5" y="742.0664"/><text fill="#000000" font-family="sans-serif" font-size="14" lengthAdjust="spacing" text-decoration="underline" textLength="210.8066" x="595.5" y="749.3633">int DEFAULT_NOTIFICATION_ID</text><line style="stroke:#181818;stroke-width:0.5;" x1="576.5" x2="811.3066" y1="756.877" y2="756.877"/></g><!--class ValidationHelper--><g id="elem_ValidationHelper"><rect codeLine="38" fill="#F1F1F1" height="48" id="ValidationHelper" rx="2.5" ry="2.5" style="stroke:#181818;stroke-width:0.5;" width="134.7305" x="847.5" y="689.0137"/><ellipse cx="862.5" cy="705.0137" fill="#ADD1B2" rx="11" ry="11" style="stroke:#181818;stroke-width:1.0;"/><path d="M865.2656,700.8887 Q865.4219,700.6699 865.6094,700.5605 Q865.7969,700.4512 866.0156,700.4512 Q866.3906,700.4512 866.625,700.7168 Q866.8594,700.9668 866.8594,701.5762 L866.8594,703.0293 Q866.8594,703.6387 866.625,703.9043 Q866.3906,704.1699 866.0156,704.1699 Q865.6719,704.1699 865.4688,703.9668 Q865.2656,703.7793 865.1563,703.2637 Q865.1094,702.9043 864.9219,702.7168 Q864.5938,702.3418 863.9844,702.123 Q863.375,701.9043 862.75,701.9043 Q861.9844,701.9043 861.3438,702.2324 Q860.7188,702.5605 860.2188,703.3105 Q859.7344,704.0605 859.7344,705.0918 L859.7344,706.1855 Q859.7344,707.4199 860.625,708.248 Q861.5156,709.0605 863.1094,709.0605 Q864.0469,709.0605 864.7031,708.8105 Q865.0938,708.6543 865.5156,708.2168 Q865.7813,707.9512 865.9219,707.873 Q866.0781,707.7949 866.2813,707.7949 Q866.6094,707.7949 866.8594,708.0605 Q867.125,708.3105 867.125,708.6543 Q867.125,708.998 866.7813,709.4043 Q866.2813,709.9824 865.4844,710.3105 Q864.4063,710.7637 863.1094,710.7637 Q861.5938,710.7637 860.3906,710.1387 Q859.4063,709.6387 858.7188,708.5762 Q858.0313,707.498 858.0313,706.2168 L858.0313,705.0605 Q858.0313,703.7324 858.6406,702.5918 Q859.2656,701.4355 860.3594,700.8262 Q861.4531,700.2012 862.6875,700.2012 Q863.4219,700.2012 864.0625,700.373 Q864.7188,700.5293 865.2656,700.8887 Z " fill="#000000"/><text fill="#000000" font-family="sans-serif" font-size="14" lengthAdjust="spacing" textLength="102.7305" x="876.5" y="710.8105">ValidationHelper</text><line style="stroke:#181818;stroke-width:0.5;" x1="848.5" x2="981.2305" y1="721.0137" y2="721.0137"/><line style="stroke:#181818;stroke-width:0.5;" x1="848.5" x2="981.2305" y1="729.0137" y2="729.0137"/></g><!--class SQLiteOpenHelper--><g id="elem_SQLiteOpenHelper"><rect fill="#F1F1F1" height="48" id="SQLiteOpenHelper" rx="2.5" ry="2.5" style="stroke:#181818;stroke-width:0.5;" width="150.2891" x="114" y="133.0137"/><ellipse cx="129" cy="149.0137" fill="#ADD1B2" rx="11" ry="11" style="stroke:#181818;stroke-width:1.0;"/><path d="M131.7656,144.8887 Q131.9219,144.6699 132.1094,144.5605 Q132.2969,144.4512 132.5156,144.4512 Q132.8906,144.4512 133.125,144.7168 Q133.3594,144.9668 133.3594,145.5762 L133.3594,147.0293 Q133.3594,147.6387 133.125,147.9043 Q132.8906,148.1699 132.5156,148.1699 Q132.1719,148.1699 131.9688,147.9668 Q131.7656,147.7793 131.6563,147.2637 Q131.6094,146.9043 131.4219,146.7168 Q131.0938,146.3418 130.4844,146.123 Q129.875,145.9043 129.25,145.9043 Q128.4844,145.9043 127.8438,146.2324 Q127.2188,146.5605 126.7188,147.3105 Q126.2344,148.0605 126.2344,149.0918 L126.2344,150.1855 Q126.2344,151.4199 127.125,152.248 Q128.0156,153.0605 129.6094,153.0605 Q130.5469,153.0605 131.2031,152.8105 Q131.5938,152.6543 132.0156,152.2168 Q132.2813,151.9512 132.4219,151.873 Q132.5781,151.7949 132.7813,151.7949 Q133.1094,151.7949 133.3594,152.0605 Q133.625,152.3105 133.625,152.6543 Q133.625,152.998 133.2813,153.4043 Q132.7813,153.9824 131.9844,154.3105 Q130.9063,154.7637 129.6094,154.7637 Q128.0938,154.7637 126.8906,154.1387 Q125.9063,153.6387 125.2188,152.5762 Q124.5313,151.498 124.5313,150.2168 L124.5313,149.0605 Q124.5313,147.7324 125.1406,146.5918 Q125.7656,145.4355 126.8594,144.8262 Q127.9531,144.2012 129.1875,144.2012 Q129.9219,144.2012 130.5625,144.373 Q131.2188,144.5293 131.7656,144.8887 Z " fill="#000000"/><text fill="#000000" font-family="sans-serif" font-size="14" lengthAdjust="spacing" textLength="118.2891" x="143" y="154.8105">SQLiteOpenHelper</text><line style="stroke:#181818;stroke-width:0.5;" x1="115" x2="263.2891" y1="165.0137" y2="165.0137"/><line style="stroke:#181818;stroke-width:0.5;" x1="115" x2="263.2891" y1="173.0137" y2="173.0137"/></g><!--reverse link SQLiteOpenHelper to DatabaseHelper--><g id="link_SQLiteOpenHelper_DatabaseHelper"><path codeLine="42" d="M189,199.2137 C189,256.7937 189,389.3537 189,468.9637 " fill="none" id="SQLiteOpenHelper-backto-DatabaseHelper" style="stroke:#181818;stroke-width:1.0;"/><polygon fill="none" points="189,181.2137,183,199.2137,195,199.2137,189,181.2137" style="stroke:#181818;stroke-width:1.0;"/></g><!--SRC=[jLBBRi8m4BpdAtolaY_enKsS4Yauj3Rq69ba0KkEGsqZWIZ_NeUqLNW8kFIqJ-_CphfImbfKjKq4Mz6i5KG65WRiAXg1MeE9fXPCfXTj7w9z42Af7TfqwTe7SQiTR9qVSRG-mrR2G3tnSy20hi0UcmTnS0Y2wXvk8foO2mi3tBrrmidgW9WpKYzHWZb-mOoKQPQJORqZ-5USaNUM5VGALKy3zAQvnOABkV8Bx8CdXARCJ-eSMl0ipMBC_TYIa_4anvnSLZBAEAPnNqcB8ZawOu9prgdKx-0w02eQU50KgNPiqpJ2x0R2d6bLptld-iftGJw40vEtoty3eAsJ2rdvMxNwndavVlM2dMVZ4QQKv6MMN5oSf7YQy_Bq2Cb3b6P2oVgKa7yM25sRLjPH_RD_P3-LT12njzoROWs_xSzVOVZuR_u6]--></g></svg>