<svg xmlns="http://www.w3.org/2000/svg" xmlns:xlink="http://www.w3.org/1999/xlink" contentStyleType="text/css" height="958px" preserveAspectRatio="none" style="width:1346px;height:958px;background:#FFFFFF;" version="1.1" viewBox="0 0 1346 958" width="1346px" zoomAndPan="magnify"><defs/><g><!--cluster com--><g id="cluster_com"><path d="M8.5,200.0137 L38.2861,200.0137 A3.75,3.75 0 0 1 40.7861,202.5137 L47.7861,224.6348 L1336.5,224.6348 A2.5,2.5 0 0 1 1339,227.1348 L1339,948.5137 A2.5,2.5 0 0 1 1336.5,951.0137 L8.5,951.0137 A2.5,2.5 0 0 1 6,948.5137 L6,202.5137 A2.5,2.5 0 0 1 8.5,200.0137 " fill="none" style="stroke:#000000;stroke-width:1.5;"/><line style="stroke:#000000;stroke-width:1.5;" x1="6" x2="47.7861" y1="224.6348" y2="224.6348"/><text fill="#000000" font-family="sans-serif" font-size="14" font-weight="bold" lengthAdjust="spacing" textLength="28.7861" x="10" y="217.1211">com</text></g><!--cluster example--><g id="cluster_example"><path d="M32.5,245.0137 L89.5342,245.0137 A3.75,3.75 0 0 1 92.0342,247.5137 L99.0342,269.6348 L1312.5,269.6348 A2.5,2.5 0 0 1 1315,272.1348 L1315,924.5137 A2.5,2.5 0 0 1 1312.5,927.0137 L32.5,927.0137 A2.5,2.5 0 0 1 30,924.5137 L30,247.5137 A2.5,2.5 0 0 1 32.5,245.0137 " fill="none" style="stroke:#000000;stroke-width:1.5;"/><line style="stroke:#000000;stroke-width:1.5;" x1="30" x2="99.0342" y1="269.6348" y2="269.6348"/><text fill="#000000" font-family="sans-serif" font-size="14" font-weight="bold" lengthAdjust="spacing" textLength="56.0342" x="34" y="262.1211">example</text></g><!--cluster refresh--><g id="cluster_refresh"><path d="M56.5,290.0137 L104.9688,290.0137 A3.75,3.75 0 0 1 107.4688,292.5137 L114.4688,314.6348 L1288.5,314.6348 A2.5,2.5 0 0 1 1291,317.1348 L1291,900.5137 A2.5,2.5 0 0 1 1288.5,903.0137 L56.5,903.0137 A2.5,2.5 0 0 1 54,900.5137 L54,292.5137 A2.5,2.5 0 0 1 56.5,290.0137 " fill="none" style="stroke:#000000;stroke-width:1.5;"/><line style="stroke:#000000;stroke-width:1.5;" x1="54" x2="114.4688" y1="314.6348" y2="314.6348"/><text fill="#000000" font-family="sans-serif" font-size="14" font-weight="bold" lengthAdjust="spacing" textLength="47.4688" x="58" y="307.1211">refresh</text></g><!--cluster Model--><g id="cluster_Model"><path d="M80.5,335.0137 L121.9414,335.0137 A3.75,3.75 0 0 1 124.4414,337.5137 L131.4414,359.6348 L1264.5,359.6348 A2.5,2.5 0 0 1 1267,362.1348 L1267,876.5137 A2.5,2.5 0 0 1 1264.5,879.0137 L80.5,879.0137 A2.5,2.5 0 0 1 78,876.5137 L78,337.5137 A2.5,2.5 0 0 1 80.5,335.0137 " fill="none" style="stroke:#000000;stroke-width:1.5;"/><line style="stroke:#000000;stroke-width:1.5;" x1="78" x2="131.4414" y1="359.6348" y2="359.6348"/><text fill="#000000" font-family="sans-serif" font-size="14" font-weight="bold" lengthAdjust="spacing" textLength="40.4414" x="82" y="352.1211">Model</text></g><!--cluster java--><g id="cluster_java"><path d="M443.5,6.0137 L471.748,6.0137 A3.75,3.75 0 0 1 474.248,8.5137 L481.248,30.6348 L622.5,30.6348 A2.5,2.5 0 0 1 625,33.1348 L625,173.5137 A2.5,2.5 0 0 1 622.5,176.0137 L443.5,176.0137 A2.5,2.5 0 0 1 441,173.5137 L441,8.5137 A2.5,2.5 0 0 1 443.5,6.0137 " fill="none" style="stroke:#000000;stroke-width:1.5;"/><line style="stroke:#000000;stroke-width:1.5;" x1="441" x2="481.248" y1="30.6348" y2="30.6348"/><text fill="#000000" font-family="sans-serif" font-size="14" font-weight="bold" lengthAdjust="spacing" textLength="27.248" x="445" y="23.1211">java</text></g><!--cluster io--><g id="cluster_io"><path d="M467.5,51.0137 L480.9414,51.0137 A3.75,3.75 0 0 1 483.4414,53.5137 L490.4414,75.6348 L598.5,75.6348 A2.5,2.5 0 0 1 601,78.1348 L601,149.5137 A2.5,2.5 0 0 1 598.5,152.0137 L467.5,152.0137 A2.5,2.5 0 0 1 465,149.5137 L465,53.5137 A2.5,2.5 0 0 1 467.5,51.0137 " fill="none" style="stroke:#000000;stroke-width:1.5;"/><line style="stroke:#000000;stroke-width:1.5;" x1="465" x2="490.4414" y1="75.6348" y2="75.6348"/><text fill="#000000" font-family="sans-serif" font-size="14" font-weight="bold" lengthAdjust="spacing" textLength="12.4414" x="469" y="68.1211">io</text></g><!--class ListItem--><g id="elem_ListItem"><rect codeLine="1" fill="#F1F1F1" height="103.8633" id="ListItem" rx="2.5" ry="2.5" style="stroke:#181818;stroke-width:0.5;" width="134.165" x="769" y="446.5137"/><ellipse cx="807.9181" cy="462.5137" fill="#ADD1B2" rx="11" ry="11" style="stroke:#181818;stroke-width:1.0;"/><path d="M810.6837,458.3887 Q810.84,458.1699 811.0275,458.0605 Q811.215,457.9512 811.4337,457.9512 Q811.8087,457.9512 812.0431,458.2168 Q812.2775,458.4668 812.2775,459.0762 L812.2775,460.5293 Q812.2775,461.1387 812.0431,461.4043 Q811.8087,461.6699 811.4337,461.6699 Q811.09,461.6699 810.8869,461.4668 Q810.6837,461.2793 810.5744,460.7637 Q810.5275,460.4043 810.34,460.2168 Q810.0119,459.8418 809.4025,459.623 Q808.7931,459.4043 808.1681,459.4043 Q807.4025,459.4043 806.7619,459.7324 Q806.1369,460.0605 805.6369,460.8105 Q805.1525,461.5605 805.1525,462.5918 L805.1525,463.6855 Q805.1525,464.9199 806.0431,465.748 Q806.9337,466.5605 808.5275,466.5605 Q809.465,466.5605 810.1212,466.3105 Q810.5119,466.1543 810.9337,465.7168 Q811.1994,465.4512 811.34,465.373 Q811.4962,465.2949 811.6994,465.2949 Q812.0275,465.2949 812.2775,465.5605 Q812.5431,465.8105 812.5431,466.1543 Q812.5431,466.498 812.1994,466.9043 Q811.6994,467.4824 810.9025,467.8105 Q809.8244,468.2637 808.5275,468.2637 Q807.0119,468.2637 805.8087,467.6387 Q804.8244,467.1387 804.1369,466.0762 Q803.4494,464.998 803.4494,463.7168 L803.4494,462.5605 Q803.4494,461.2324 804.0587,460.0918 Q804.6837,458.9355 805.7775,458.3262 Q806.8712,457.7012 808.1056,457.7012 Q808.84,457.7012 809.4806,457.873 Q810.1369,458.0293 810.6837,458.3887 Z " fill="#000000"/><text fill="#000000" font-family="sans-serif" font-size="14" lengthAdjust="spacing" textLength="49.0137" x="827.2333" y="468.3105">ListItem</text><line style="stroke:#181818;stroke-width:0.5;" x1="770" x2="902.165" y1="478.5137" y2="478.5137"/><rect fill="none" height="6" style="stroke:#C82930;stroke-width:1.0;" width="6" x="777" y="490.3242"/><text fill="#000000" font-family="sans-serif" font-size="14" lengthAdjust="spacing" textLength="62.248" x="789" y="497.6211">String title</text><rect fill="none" height="6" style="stroke:#C82930;stroke-width:1.0;" width="6" x="777" y="508.9453"/><text fill="#000000" font-family="sans-serif" font-size="14" lengthAdjust="spacing" textLength="108.165" x="789" y="516.2422">String description</text><rect fill="none" height="6" style="stroke:#C82930;stroke-width:1.0;" width="6" x="777" y="527.5664"/><text fill="#000000" font-family="sans-serif" font-size="14" lengthAdjust="spacing" textLength="50.5723" x="789" y="534.8633">T model</text><line style="stroke:#181818;stroke-width:0.5;" x1="770" x2="902.165" y1="542.377" y2="542.377"/></g><!--class NotificationInstance--><g id="elem_NotificationInstance"><rect codeLine="7" fill="#F1F1F1" height="122.4844" id="NotificationInstance" rx="2.5" ry="2.5" style="stroke:#181818;stroke-width:0.5;" width="154.1787" x="938" y="437.5137"/><ellipse cx="953" cy="453.5137" fill="#ADD1B2" rx="11" ry="11" style="stroke:#181818;stroke-width:1.0;"/><path d="M955.7656,449.3887 Q955.9219,449.1699 956.1094,449.0605 Q956.2969,448.9512 956.5156,448.9512 Q956.8906,448.9512 957.125,449.2168 Q957.3594,449.4668 957.3594,450.0762 L957.3594,451.5293 Q957.3594,452.1387 957.125,452.4043 Q956.8906,452.6699 956.5156,452.6699 Q956.1719,452.6699 955.9688,452.4668 Q955.7656,452.2793 955.6563,451.7637 Q955.6094,451.4043 955.4219,451.2168 Q955.0938,450.8418 954.4844,450.623 Q953.875,450.4043 953.25,450.4043 Q952.4844,450.4043 951.8438,450.7324 Q951.2188,451.0605 950.7188,451.8105 Q950.2344,452.5605 950.2344,453.5918 L950.2344,454.6855 Q950.2344,455.9199 951.125,456.748 Q952.0156,457.5605 953.6094,457.5605 Q954.5469,457.5605 955.2031,457.3105 Q955.5938,457.1543 956.0156,456.7168 Q956.2813,456.4512 956.4219,456.373 Q956.5781,456.2949 956.7813,456.2949 Q957.1094,456.2949 957.3594,456.5605 Q957.625,456.8105 957.625,457.1543 Q957.625,457.498 957.2813,457.9043 Q956.7813,458.4824 955.9844,458.8105 Q954.9063,459.2637 953.6094,459.2637 Q952.0938,459.2637 950.8906,458.6387 Q949.9063,458.1387 949.2188,457.0762 Q948.5313,455.998 948.5313,454.7168 L948.5313,453.5605 Q948.5313,452.2324 949.1406,451.0918 Q949.7656,449.9355 950.8594,449.3262 Q951.9531,448.7012 953.1875,448.7012 Q953.9219,448.7012 954.5625,448.873 Q955.2188,449.0293 955.7656,449.3887 Z " fill="#000000"/><text fill="#000000" font-family="sans-serif" font-size="14" lengthAdjust="spacing" textLength="122.1787" x="967" y="459.3105">NotificationInstance</text><line style="stroke:#181818;stroke-width:0.5;" x1="939" x2="1091.1787" y1="469.5137" y2="469.5137"/><rect fill="none" height="6" style="stroke:#C82930;stroke-width:1.0;" width="6" x="946" y="481.3242"/><text fill="#000000" font-family="sans-serif" font-size="14" lengthAdjust="spacing" textLength="84.8203" x="958" y="488.6211">int instanceID</text><rect fill="none" height="6" style="stroke:#C82930;stroke-width:1.0;" width="6" x="946" y="499.9453"/><text fill="#000000" font-family="sans-serif" font-size="14" lengthAdjust="spacing" textLength="86.3721" x="958" y="507.2422">int templateID</text><rect fill="none" height="6" style="stroke:#C82930;stroke-width:1.0;" width="6" x="946" y="518.5664"/><text fill="#000000" font-family="sans-serif" font-size="14" lengthAdjust="spacing" textLength="59.9102" x="958" y="525.8633">int userID</text><rect fill="none" height="6" style="stroke:#C82930;stroke-width:1.0;" width="6" x="946" y="537.1875"/><text fill="#000000" font-family="sans-serif" font-size="14" lengthAdjust="spacing" textLength="66.9102" x="958" y="544.4844">String time</text><line style="stroke:#181818;stroke-width:0.5;" x1="939" x2="1091.1787" y1="551.998" y2="551.998"/></g><!--class DaySummary--><g id="elem_DaySummary"><rect codeLine="14" fill="#F1F1F1" height="196.9688" id="DaySummary" rx="2.5" ry="2.5" style="stroke:#181818;stroke-width:0.5;" width="169.165" x="564.5" y="400.0137"/><ellipse cx="603.0674" cy="416.0137" fill="#ADD1B2" rx="11" ry="11" style="stroke:#181818;stroke-width:1.0;"/><path d="M605.8331,411.8887 Q605.9893,411.6699 606.1768,411.5605 Q606.3643,411.4512 606.5831,411.4512 Q606.9581,411.4512 607.1924,411.7168 Q607.4268,411.9668 607.4268,412.5762 L607.4268,414.0293 Q607.4268,414.6387 607.1924,414.9043 Q606.9581,415.1699 606.5831,415.1699 Q606.2393,415.1699 606.0362,414.9668 Q605.8331,414.7793 605.7237,414.2637 Q605.6768,413.9043 605.4893,413.7168 Q605.1612,413.3418 604.5518,413.123 Q603.9424,412.9043 603.3174,412.9043 Q602.5518,412.9043 601.9112,413.2324 Q601.2862,413.5605 600.7862,414.3105 Q600.3018,415.0605 600.3018,416.0918 L600.3018,417.1855 Q600.3018,418.4199 601.1924,419.248 Q602.0831,420.0605 603.6768,420.0605 Q604.6143,420.0605 605.2706,419.8105 Q605.6612,419.6543 606.0831,419.2168 Q606.3487,418.9512 606.4893,418.873 Q606.6456,418.7949 606.8487,418.7949 Q607.1768,418.7949 607.4268,419.0605 Q607.6924,419.3105 607.6924,419.6543 Q607.6924,419.998 607.3487,420.4043 Q606.8487,420.9824 606.0518,421.3105 Q604.9737,421.7637 603.6768,421.7637 Q602.1612,421.7637 600.9581,421.1387 Q599.9737,420.6387 599.2862,419.5762 Q598.5987,418.498 598.5987,417.2168 L598.5987,416.0605 Q598.5987,414.7324 599.2081,413.5918 Q599.8331,412.4355 600.9268,411.8262 Q602.0206,411.2012 603.2549,411.2012 Q603.9893,411.2012 604.6299,411.373 Q605.2862,411.5293 605.8331,411.8887 Z " fill="#000000"/><text fill="#000000" font-family="sans-serif" font-size="14" lengthAdjust="spacing" textLength="84.793" x="622.3046" y="421.8105">DaySummary</text><line style="stroke:#181818;stroke-width:0.5;" x1="565.5" x2="732.665" y1="432.0137" y2="432.0137"/><rect fill="none" height="6" style="stroke:#C82930;stroke-width:1.0;" width="6" x="572.5" y="443.8242"/><text fill="#000000" font-family="sans-serif" font-size="14" lengthAdjust="spacing" textLength="89.5029" x="584.5" y="451.1211">LocalDate day</text><rect fill="none" height="6" style="stroke:#C82930;stroke-width:1.0;" width="6" x="572.5" y="462.4453"/><text fill="#000000" font-family="sans-serif" font-size="14" lengthAdjust="spacing" textLength="143.165" x="584.5" y="469.7422">ArrayList&lt;Meal&gt; meals</text><rect fill="none" height="6" style="stroke:#C82930;stroke-width:1.0;" width="6" x="572.5" y="481.0664"/><text fill="#000000" font-family="sans-serif" font-size="14" lengthAdjust="spacing" textLength="86.3789" x="584.5" y="488.3633">int mealCount</text><rect fill="none" height="6" style="stroke:#C82930;stroke-width:1.0;" width="6" x="572.5" y="499.6875"/><text fill="#000000" font-family="sans-serif" font-size="14" lengthAdjust="spacing" textLength="96.4893" x="584.5" y="506.9844">int totalCalories</text><rect fill="none" height="6" style="stroke:#C82930;stroke-width:1.0;" width="6" x="572.5" y="518.3086"/><text fill="#000000" font-family="sans-serif" font-size="14" lengthAdjust="spacing" textLength="82.4824" x="584.5" y="525.6055">int totalCarbs</text><rect fill="none" height="6" style="stroke:#C82930;stroke-width:1.0;" width="6" x="572.5" y="536.9297"/><text fill="#000000" font-family="sans-serif" font-size="14" lengthAdjust="spacing" textLength="89.4961" x="584.5" y="544.2266">int totalProtein</text><rect fill="none" height="6" style="stroke:#C82930;stroke-width:1.0;" width="6" x="572.5" y="555.5508"/><text fill="#000000" font-family="sans-serif" font-size="14" lengthAdjust="spacing" textLength="65.3652" x="584.5" y="562.8477">int totalFat</text><rect fill="none" height="6" style="stroke:#C82930;stroke-width:1.0;" width="6" x="572.5" y="574.1719"/><text fill="#000000" font-family="sans-serif" font-size="14" lengthAdjust="spacing" textLength="82.4756" x="584.5" y="581.4688">int totalWater</text><line style="stroke:#181818;stroke-width:0.5;" x1="565.5" x2="732.665" y1="588.9824" y2="588.9824"/></g><!--class ErrorMessage--><g id="elem_ErrorMessage"><rect codeLine="25" fill="#F1F1F1" height="85.2422" id="ErrorMessage" rx="2.5" ry="2.5" style="stroke:#181818;stroke-width:0.5;" width="123.2686" x="1127.5" y="456.0137"/><ellipse cx="1144.0082" cy="472.0137" fill="#ADD1B2" rx="11" ry="11" style="stroke:#181818;stroke-width:1.0;"/><path d="M1146.7738,467.8887 Q1146.9301,467.6699 1147.1176,467.5605 Q1147.3051,467.4512 1147.5238,467.4512 Q1147.8988,467.4512 1148.1332,467.7168 Q1148.3676,467.9668 1148.3676,468.5762 L1148.3676,470.0293 Q1148.3676,470.6387 1148.1332,470.9043 Q1147.8988,471.1699 1147.5238,471.1699 Q1147.1801,471.1699 1146.977,470.9668 Q1146.7738,470.7793 1146.6645,470.2637 Q1146.6176,469.9043 1146.4301,469.7168 Q1146.102,469.3418 1145.4926,469.123 Q1144.8832,468.9043 1144.2582,468.9043 Q1143.4926,468.9043 1142.852,469.2324 Q1142.227,469.5605 1141.727,470.3105 Q1141.2426,471.0605 1141.2426,472.0918 L1141.2426,473.1855 Q1141.2426,474.4199 1142.1332,475.248 Q1143.0238,476.0605 1144.6176,476.0605 Q1145.5551,476.0605 1146.2113,475.8105 Q1146.602,475.6543 1147.0238,475.2168 Q1147.2895,474.9512 1147.4301,474.873 Q1147.5863,474.7949 1147.7895,474.7949 Q1148.1176,474.7949 1148.3676,475.0605 Q1148.6332,475.3105 1148.6332,475.6543 Q1148.6332,475.998 1148.2895,476.4043 Q1147.7895,476.9824 1146.9926,477.3105 Q1145.9145,477.7637 1144.6176,477.7637 Q1143.102,477.7637 1141.8988,477.1387 Q1140.9145,476.6387 1140.227,475.5762 Q1139.5395,474.498 1139.5395,473.2168 L1139.5395,472.0605 Q1139.5395,470.7324 1140.1488,469.5918 Q1140.7738,468.4355 1141.8676,467.8262 Q1142.9613,467.2012 1144.1957,467.2012 Q1144.9301,467.2012 1145.5707,467.373 Q1146.227,467.5293 1146.7738,467.8887 Z " fill="#000000"/><text fill="#000000" font-family="sans-serif" font-size="14" lengthAdjust="spacing" textLength="87.917" x="1158.3434" y="477.8105">ErrorMessage</text><line style="stroke:#181818;stroke-width:0.5;" x1="1128.5" x2="1249.7686" y1="488.0137" y2="488.0137"/><rect fill="none" height="6" style="stroke:#C82930;stroke-width:1.0;" width="6" x="1135.5" y="499.8242"/><text fill="#000000" font-family="sans-serif" font-size="14" lengthAdjust="spacing" textLength="84.8135" x="1147.5" y="507.1211">Columns field</text><rect fill="none" height="6" style="stroke:#C82930;stroke-width:1.0;" width="6" x="1135.5" y="518.4453"/><text fill="#000000" font-family="sans-serif" font-size="14" lengthAdjust="spacing" textLength="97.2686" x="1147.5" y="525.7422">String message</text><line style="stroke:#181818;stroke-width:0.5;" x1="1128.5" x2="1249.7686" y1="533.2559" y2="533.2559"/></g><!--class Meal--><g id="elem_Meal"><rect codeLine="30" fill="#F1F1F1" height="196.9688" id="Meal" rx="2.5" ry="2.5" style="stroke:#181818;stroke-width:0.5;" width="224.4268" x="305" y="400.0137"/><ellipse cx="397.791" cy="416.0137" fill="#ADD1B2" rx="11" ry="11" style="stroke:#181818;stroke-width:1.0;"/><path d="M400.5566,411.8887 Q400.7129,411.6699 400.9004,411.5605 Q401.0879,411.4512 401.3066,411.4512 Q401.6816,411.4512 401.916,411.7168 Q402.1504,411.9668 402.1504,412.5762 L402.1504,414.0293 Q402.1504,414.6387 401.916,414.9043 Q401.6816,415.1699 401.3066,415.1699 Q400.9629,415.1699 400.7598,414.9668 Q400.5566,414.7793 400.4473,414.2637 Q400.4004,413.9043 400.2129,413.7168 Q399.8848,413.3418 399.2754,413.123 Q398.666,412.9043 398.041,412.9043 Q397.2754,412.9043 396.6348,413.2324 Q396.0098,413.5605 395.5098,414.3105 Q395.0254,415.0605 395.0254,416.0918 L395.0254,417.1855 Q395.0254,418.4199 395.916,419.248 Q396.8066,420.0605 398.4004,420.0605 Q399.3379,420.0605 399.9941,419.8105 Q400.3848,419.6543 400.8066,419.2168 Q401.0723,418.9512 401.2129,418.873 Q401.3691,418.7949 401.5723,418.7949 Q401.9004,418.7949 402.1504,419.0605 Q402.416,419.3105 402.416,419.6543 Q402.416,419.998 402.0723,420.4043 Q401.5723,420.9824 400.7754,421.3105 Q399.6973,421.7637 398.4004,421.7637 Q396.8848,421.7637 395.6816,421.1387 Q394.6973,420.6387 394.0098,419.5762 Q393.3223,418.498 393.3223,417.2168 L393.3223,416.0605 Q393.3223,414.7324 393.9316,413.5918 Q394.5566,412.4355 395.6504,411.8262 Q396.7441,411.2012 397.9785,411.2012 Q398.7129,411.2012 399.3535,411.373 Q400.0098,411.5293 400.5566,411.8887 Z " fill="#000000"/><text fill="#000000" font-family="sans-serif" font-size="14" lengthAdjust="spacing" textLength="30.3447" x="418.291" y="421.8105">Meal</text><line style="stroke:#181818;stroke-width:0.5;" x1="306" x2="528.4268" y1="432.0137" y2="432.0137"/><rect fill="none" height="6" style="stroke:#C82930;stroke-width:1.0;" width="6" x="313" y="443.8242"/><text fill="#000000" font-family="sans-serif" font-size="14" lengthAdjust="spacing" textLength="29.5723" x="325" y="451.1211">int id</text><rect fill="none" height="6" style="stroke:#C82930;stroke-width:1.0;" width="6" x="313" y="462.4453"/><text fill="#000000" font-family="sans-serif" font-size="14" lengthAdjust="spacing" textLength="94.1787" x="325" y="469.7422">LocalDate date</text><rect fill="none" height="6" style="stroke:#C82930;stroke-width:1.0;" width="6" x="313" y="481.0664"/><text fill="#000000" font-family="sans-serif" font-size="14" lengthAdjust="spacing" textLength="94.917" x="325" y="488.3633">LocalTime time</text><rect fill="none" height="6" style="stroke:#C82930;stroke-width:1.0;" width="6" x="313" y="499.6875"/><text fill="#000000" font-family="sans-serif" font-size="14" lengthAdjust="spacing" textLength="66.9238" x="325" y="506.9844">String type</text><rect fill="none" height="6" style="stroke:#C82930;stroke-width:1.0;" width="6" x="313" y="518.3086"/><text fill="#000000" font-family="sans-serif" font-size="14" lengthAdjust="spacing" textLength="167.3096" x="325" y="525.6055">ArrayList&lt;Integer&gt; foodIDs</text><rect fill="none" height="6" style="stroke:#C82930;stroke-width:1.0;" width="6" x="313" y="536.9297"/><text fill="#000000" font-family="sans-serif" font-size="14" lengthAdjust="spacing" textLength="198.4268" x="325" y="544.2266">ArrayList&lt;Integer&gt; servingSizes</text><rect fill="none" height="6" style="stroke:#C82930;stroke-width:1.0;" width="6" x="313" y="555.5508"/><text fill="#000000" font-family="sans-serif" font-size="14" lengthAdjust="spacing" textLength="59.9102" x="325" y="562.8477">int userID</text><rect fill="none" height="6" style="stroke:#C82930;stroke-width:1.0;" width="6" x="313" y="574.1719"/><text fill="#000000" font-family="sans-serif" font-size="14" lengthAdjust="spacing" textLength="74.71" x="325" y="581.4688">String notes</text><line style="stroke:#181818;stroke-width:0.5;" x1="306" x2="528.4268" y1="588.9824" y2="588.9824"/></g><!--class Food--><g id="elem_Food"><rect codeLine="41" fill="#F1F1F1" height="252.832" id="Food" rx="2.5" ry="2.5" style="stroke:#181818;stroke-width:0.5;" width="174.627" x="94.5" y="372.0137"/><ellipse cx="161.6084" cy="388.0137" fill="#ADD1B2" rx="11" ry="11" style="stroke:#181818;stroke-width:1.0;"/><path d="M164.374,383.8887 Q164.5303,383.6699 164.7178,383.5605 Q164.9053,383.4512 165.124,383.4512 Q165.499,383.4512 165.7334,383.7168 Q165.9678,383.9668 165.9678,384.5762 L165.9678,386.0293 Q165.9678,386.6387 165.7334,386.9043 Q165.499,387.1699 165.124,387.1699 Q164.7803,387.1699 164.5771,386.9668 Q164.374,386.7793 164.2646,386.2637 Q164.2178,385.9043 164.0303,385.7168 Q163.7021,385.3418 163.0928,385.123 Q162.4834,384.9043 161.8584,384.9043 Q161.0928,384.9043 160.4521,385.2324 Q159.8271,385.5605 159.3271,386.3105 Q158.8428,387.0605 158.8428,388.0918 L158.8428,389.1855 Q158.8428,390.4199 159.7334,391.248 Q160.624,392.0605 162.2178,392.0605 Q163.1553,392.0605 163.8115,391.8105 Q164.2021,391.6543 164.624,391.2168 Q164.8896,390.9512 165.0303,390.873 Q165.1865,390.7949 165.3896,390.7949 Q165.7178,390.7949 165.9678,391.0605 Q166.2334,391.3105 166.2334,391.6543 Q166.2334,391.998 165.8896,392.4043 Q165.3896,392.9824 164.5928,393.3105 Q163.5146,393.7637 162.2178,393.7637 Q160.7021,393.7637 159.499,393.1387 Q158.5146,392.6387 157.8271,391.5762 Q157.1396,390.498 157.1396,389.2168 L157.1396,388.0605 Q157.1396,386.7324 157.749,385.5918 Q158.374,384.4355 159.4678,383.8262 Q160.5615,383.2012 161.7959,383.2012 Q162.5303,383.2012 163.1709,383.373 Q163.8271,383.5293 164.374,383.8887 Z " fill="#000000"/><text fill="#000000" font-family="sans-serif" font-size="14" lengthAdjust="spacing" textLength="31.9102" x="182.1084" y="393.8105">Food</text><line style="stroke:#181818;stroke-width:0.5;" x1="95.5" x2="268.127" y1="404.0137" y2="404.0137"/><rect fill="none" height="6" style="stroke:#C82930;stroke-width:1.0;" width="6" x="102.5" y="415.8242"/><text fill="#000000" font-family="sans-serif" font-size="14" lengthAdjust="spacing" textLength="29.5723" x="114.5" y="423.1211">int id</text><rect fill="none" height="6" style="stroke:#C82930;stroke-width:1.0;" width="6" x="102.5" y="434.4453"/><text fill="#000000" font-family="sans-serif" font-size="14" lengthAdjust="spacing" textLength="75.4824" x="114.5" y="441.7422">String name</text><rect fill="none" height="6" style="stroke:#C82930;stroke-width:1.0;" width="6" x="102.5" y="453.0664"/><text fill="#000000" font-family="sans-serif" font-size="14" lengthAdjust="spacing" textLength="108.165" x="114.5" y="460.3633">String description</text><rect fill="none" height="6" style="stroke:#C82930;stroke-width:1.0;" width="6" x="102.5" y="471.6875"/><text fill="#000000" font-family="sans-serif" font-size="14" lengthAdjust="spacing" textLength="94.1582" x="114.5" y="478.9844">String category</text><rect fill="none" height="6" style="stroke:#C82930;stroke-width:1.0;" width="6" x="102.5" y="490.3086"/><text fill="#000000" font-family="sans-serif" font-size="14" lengthAdjust="spacing" textLength="148.627" x="114.5" y="497.6055">ArrayList&lt;String&gt; labels</text><rect fill="none" height="6" style="stroke:#C82930;stroke-width:1.0;" width="6" x="102.5" y="508.9297"/><text fill="#000000" font-family="sans-serif" font-size="14" lengthAdjust="spacing" textLength="91.041" x="114.5" y="516.2266">int servingSize</text><rect fill="none" height="6" style="stroke:#C82930;stroke-width:1.0;" width="6" x="102.5" y="527.5508"/><text fill="#000000" font-family="sans-serif" font-size="14" lengthAdjust="spacing" textLength="66.917" x="114.5" y="534.8477">int calories</text><rect fill="none" height="6" style="stroke:#C82930;stroke-width:1.0;" width="6" x="102.5" y="546.1719"/><text fill="#000000" font-family="sans-serif" font-size="14" lengthAdjust="spacing" textLength="52.9102" x="114.5" y="553.4688">int carbs</text><rect fill="none" height="6" style="stroke:#C82930;stroke-width:1.0;" width="6" x="102.5" y="564.793"/><text fill="#000000" font-family="sans-serif" font-size="14" lengthAdjust="spacing" textLength="61.4824" x="114.5" y="572.0898">int protein</text><rect fill="none" height="6" style="stroke:#C82930;stroke-width:1.0;" width="6" x="102.5" y="583.4141"/><text fill="#000000" font-family="sans-serif" font-size="14" lengthAdjust="spacing" textLength="34.2412" x="114.5" y="590.7109">int fat</text><rect fill="none" height="6" style="stroke:#C82930;stroke-width:1.0;" width="6" x="102.5" y="602.0352"/><text fill="#000000" font-family="sans-serif" font-size="14" lengthAdjust="spacing" textLength="74.71" x="114.5" y="609.332">String notes</text><line style="stroke:#181818;stroke-width:0.5;" x1="95.5" x2="268.127" y1="616.8457" y2="616.8457"/></g><!--class User--><g id="elem_User"><rect codeLine="55" fill="#F1F1F1" height="141.1055" id="User" rx="2.5" ry="2.5" style="stroke:#181818;stroke-width:0.5;" width="105.3926" x="900.5" y="703.5137"/><ellipse cx="935.2253" cy="719.5137" fill="#ADD1B2" rx="11" ry="11" style="stroke:#181818;stroke-width:1.0;"/><path d="M937.9909,715.3887 Q938.1472,715.1699 938.3347,715.0605 Q938.5222,714.9512 938.7409,714.9512 Q939.1159,714.9512 939.3503,715.2168 Q939.5847,715.4668 939.5847,716.0762 L939.5847,717.5293 Q939.5847,718.1387 939.3503,718.4043 Q939.1159,718.6699 938.7409,718.6699 Q938.3972,718.6699 938.194,718.4668 Q937.9909,718.2793 937.8815,717.7637 Q937.8347,717.4043 937.6472,717.2168 Q937.319,716.8418 936.7097,716.623 Q936.1003,716.4043 935.4753,716.4043 Q934.7097,716.4043 934.069,716.7324 Q933.444,717.0605 932.944,717.8105 Q932.4597,718.5605 932.4597,719.5918 L932.4597,720.6855 Q932.4597,721.9199 933.3503,722.748 Q934.2409,723.5605 935.8347,723.5605 Q936.7722,723.5605 937.4284,723.3105 Q937.819,723.1543 938.2409,722.7168 Q938.5065,722.4512 938.6472,722.373 Q938.8034,722.2949 939.0065,722.2949 Q939.3347,722.2949 939.5847,722.5605 Q939.8503,722.8105 939.8503,723.1543 Q939.8503,723.498 939.5065,723.9043 Q939.0065,724.4824 938.2097,724.8105 Q937.1315,725.2637 935.8347,725.2637 Q934.319,725.2637 933.1159,724.6387 Q932.1315,724.1387 931.444,723.0762 Q930.7565,721.998 930.7565,720.7168 L930.7565,719.5605 Q930.7565,718.2324 931.3659,717.0918 Q931.9909,715.9355 933.0847,715.3262 Q934.1784,714.7012 935.4128,714.7012 Q936.1472,714.7012 936.7878,714.873 Q937.444,715.0293 937.9909,715.3887 Z " fill="#000000"/><text fill="#000000" font-family="sans-serif" font-size="14" lengthAdjust="spacing" textLength="29.5586" x="953.6087" y="725.3105">User</text><line style="stroke:#181818;stroke-width:0.5;" x1="901.5" x2="1004.8926" y1="735.5137" y2="735.5137"/><rect fill="none" height="6" style="stroke:#C82930;stroke-width:1.0;" width="6" x="908.5" y="747.3242"/><text fill="#000000" font-family="sans-serif" font-size="14" lengthAdjust="spacing" textLength="29.5723" x="920.5" y="754.6211">int id</text><rect fill="none" height="6" style="stroke:#C82930;stroke-width:1.0;" width="6" x="908.5" y="765.9453"/><text fill="#000000" font-family="sans-serif" font-size="14" lengthAdjust="spacing" textLength="75.4824" x="920.5" y="773.2422">String name</text><rect fill="none" height="6" style="stroke:#C82930;stroke-width:1.0;" width="6" x="908.5" y="784.5664"/><text fill="#000000" font-family="sans-serif" font-size="14" lengthAdjust="spacing" textLength="73.917" x="920.5" y="791.8633">String email</text><rect fill="none" height="6" style="stroke:#C82930;stroke-width:1.0;" width="6" x="908.5" y="803.1875"/><text fill="#000000" font-family="sans-serif" font-size="14" lengthAdjust="spacing" textLength="79.3926" x="920.5" y="810.4844">String phone</text><rect fill="none" height="6" style="stroke:#C82930;stroke-width:1.0;" width="6" x="908.5" y="821.8086"/><text fill="#000000" font-family="sans-serif" font-size="14" lengthAdjust="spacing" textLength="66.1445" x="920.5" y="829.1055">String pwd</text><line style="stroke:#181818;stroke-width:0.5;" x1="901.5" x2="1004.8926" y1="836.6191" y2="836.6191"/></g><!--class NotificationTemplate--><g id="elem_NotificationTemplate"><rect codeLine="63" fill="#F1F1F1" height="178.3477" id="NotificationTemplate" rx="2.5" ry="2.5" style="stroke:#181818;stroke-width:0.5;" width="210.4404" x="1041" y="685.0137"/><ellipse cx="1078.8722" cy="701.0137" fill="#ADD1B2" rx="11" ry="11" style="stroke:#181818;stroke-width:1.0;"/><path d="M1081.6378,696.8887 Q1081.7941,696.6699 1081.9816,696.5605 Q1082.1691,696.4512 1082.3878,696.4512 Q1082.7628,696.4512 1082.9972,696.7168 Q1083.2316,696.9668 1083.2316,697.5762 L1083.2316,699.0293 Q1083.2316,699.6387 1082.9972,699.9043 Q1082.7628,700.1699 1082.3878,700.1699 Q1082.0441,700.1699 1081.841,699.9668 Q1081.6378,699.7793 1081.5285,699.2637 Q1081.4816,698.9043 1081.2941,698.7168 Q1080.966,698.3418 1080.3566,698.123 Q1079.7472,697.9043 1079.1222,697.9043 Q1078.3566,697.9043 1077.716,698.2324 Q1077.091,698.5605 1076.591,699.3105 Q1076.1066,700.0605 1076.1066,701.0918 L1076.1066,702.1855 Q1076.1066,703.4199 1076.9972,704.248 Q1077.8878,705.0605 1079.4816,705.0605 Q1080.4191,705.0605 1081.0753,704.8105 Q1081.466,704.6543 1081.8878,704.2168 Q1082.1535,703.9512 1082.2941,703.873 Q1082.4503,703.7949 1082.6535,703.7949 Q1082.9816,703.7949 1083.2316,704.0605 Q1083.4972,704.3105 1083.4972,704.6543 Q1083.4972,704.998 1083.1535,705.4043 Q1082.6535,705.9824 1081.8566,706.3105 Q1080.7785,706.7637 1079.4816,706.7637 Q1077.966,706.7637 1076.7628,706.1387 Q1075.7785,705.6387 1075.091,704.5762 Q1074.4035,703.498 1074.4035,702.2168 L1074.4035,701.0605 Q1074.4035,699.7324 1075.0128,698.5918 Q1075.6378,697.4355 1076.7316,696.8262 Q1077.8253,696.2012 1079.0597,696.2012 Q1079.7941,696.2012 1080.4347,696.373 Q1081.091,696.5293 1081.6378,696.8887 Z " fill="#000000"/><text fill="#000000" font-family="sans-serif" font-size="14" lengthAdjust="spacing" textLength="127.6133" x="1097.9549" y="706.8105">NotificationTemplate</text><line style="stroke:#181818;stroke-width:0.5;" x1="1042" x2="1250.4404" y1="717.0137" y2="717.0137"/><rect fill="none" height="6" style="stroke:#C82930;stroke-width:1.0;" width="6" x="1049" y="728.8242"/><text fill="#000000" font-family="sans-serif" font-size="14" lengthAdjust="spacing" textLength="86.3721" x="1061" y="736.1211">int templateID</text><rect fill="none" height="6" style="stroke:#C82930;stroke-width:1.0;" width="6" x="1049" y="747.4453"/><text fill="#000000" font-family="sans-serif" font-size="14" lengthAdjust="spacing" textLength="94.1582" x="1061" y="754.7422">String category</text><rect fill="none" height="6" style="stroke:#C82930;stroke-width:1.0;" width="6" x="1049" y="766.0664"/><text fill="#000000" font-family="sans-serif" font-size="14" lengthAdjust="spacing" textLength="62.248" x="1061" y="773.3633">String title</text><rect fill="none" height="6" style="stroke:#C82930;stroke-width:1.0;" width="6" x="1049" y="784.6875"/><text fill="#000000" font-family="sans-serif" font-size="14" lengthAdjust="spacing" textLength="97.2686" x="1061" y="791.9844">String message</text><rect fill="none" height="6" style="stroke:#C82930;stroke-width:1.0;" width="6" x="1049" y="803.3086"/><text fill="#000000" font-family="sans-serif" font-size="14" lengthAdjust="spacing" textLength="58.3584" x="1061" y="810.6055">int iconID</text><rect fill="none" height="6" style="stroke:#C82930;stroke-width:1.0;" width="6" x="1049" y="821.9297"/><text fill="#000000" font-family="sans-serif" font-size="14" lengthAdjust="spacing" textLength="140.8271" x="1061" y="829.2266">Class&lt;?&gt; activityClass</text><rect fill="none" height="6" style="stroke:#C82930;stroke-width:1.0;" width="6" x="1049" y="840.5508"/><text fill="#000000" font-family="sans-serif" font-size="14" lengthAdjust="spacing" text-decoration="underline" textLength="184.4404" x="1061" y="847.8477">Map&lt;String,Integer&gt; iconMap</text><line style="stroke:#181818;stroke-width:0.5;" x1="1042" x2="1250.4404" y1="855.3613" y2="855.3613"/></g><!--class Serializable--><g id="elem_Serializable"><rect fill="#F1F1F1" height="48" id="Serializable" rx="2.5" ry="2.5" style="stroke:#181818;stroke-width:0.5;" width="104.3721" x="481" y="88.0137"/><ellipse cx="496" cy="104.0137" fill="#ADD1B2" rx="11" ry="11" style="stroke:#181818;stroke-width:1.0;"/><path d="M498.7656,99.8887 Q498.9219,99.6699 499.1094,99.5605 Q499.2969,99.4512 499.5156,99.4512 Q499.8906,99.4512 500.125,99.7168 Q500.3594,99.9668 500.3594,100.5762 L500.3594,102.0293 Q500.3594,102.6387 500.125,102.9043 Q499.8906,103.1699 499.5156,103.1699 Q499.1719,103.1699 498.9688,102.9668 Q498.7656,102.7793 498.6563,102.2637 Q498.6094,101.9043 498.4219,101.7168 Q498.0938,101.3418 497.4844,101.123 Q496.875,100.9043 496.25,100.9043 Q495.4844,100.9043 494.8438,101.2324 Q494.2188,101.5605 493.7188,102.3105 Q493.2344,103.0605 493.2344,104.0918 L493.2344,105.1855 Q493.2344,106.4199 494.125,107.248 Q495.0156,108.0605 496.6094,108.0605 Q497.5469,108.0605 498.2031,107.8105 Q498.5938,107.6543 499.0156,107.2168 Q499.2813,106.9512 499.4219,106.873 Q499.5781,106.7949 499.7813,106.7949 Q500.1094,106.7949 500.3594,107.0605 Q500.625,107.3105 500.625,107.6543 Q500.625,107.998 500.2813,108.4043 Q499.7813,108.9824 498.9844,109.3105 Q497.9063,109.7637 496.6094,109.7637 Q495.0938,109.7637 493.8906,109.1387 Q492.9063,108.6387 492.2188,107.5762 Q491.5313,106.498 491.5313,105.2168 L491.5313,104.0605 Q491.5313,102.7324 492.1406,101.5918 Q492.7656,100.4355 493.8594,99.8262 Q494.9531,99.2012 496.1875,99.2012 Q496.9219,99.2012 497.5625,99.373 Q498.2188,99.5293 498.7656,99.8887 Z " fill="#000000"/><text fill="#000000" font-family="sans-serif" font-size="14" lengthAdjust="spacing" textLength="72.3721" x="510" y="109.8105">Serializable</text><line style="stroke:#181818;stroke-width:0.5;" x1="482" x2="584.3721" y1="120.0137" y2="120.0137"/><line style="stroke:#181818;stroke-width:0.5;" x1="482" x2="584.3721" y1="128.0137" y2="128.0137"/></g><!--reverse link Serializable to ListItem--><g id="link_Serializable_ListItem"><path codeLine="75" d="M603.1588,121.1871 C652.6388,129.0171 707.77,145.3537 751,192.0137 C816.48,262.6837 832.15,379.4937 835.52,446.3437 " fill="none" id="Serializable-backto-ListItem" style="stroke:#181818;stroke-width:1.0;stroke-dasharray:7.0,7.0;"/><polygon fill="none" points="585.38,118.3737,602.221,127.1133,604.0966,115.2608,585.38,118.3737" style="stroke:#181818;stroke-width:1.0;"/></g><!--reverse link Serializable to DaySummary--><g id="link_Serializable_DaySummary"><path codeLine="76" d="M545.1971,153.4371 C560.5471,204.3371 592.77,311.1337 619.48,399.6537 " fill="none" id="Serializable-backto-DaySummary" style="stroke:#181818;stroke-width:1.0;stroke-dasharray:7.0,7.0;"/><polygon fill="none" points="540,136.2037,539.4526,155.1694,550.9416,151.7047,540,136.2037" style="stroke:#181818;stroke-width:1.0;"/></g><!--reverse link Serializable to Meal--><g id="link_Serializable_Meal"><path codeLine="77" d="M520.8029,153.4371 C505.4529,204.3371 473.23,311.1337 446.52,399.6537 " fill="none" id="Serializable-backto-Meal" style="stroke:#181818;stroke-width:1.0;stroke-dasharray:7.0,7.0;"/><polygon fill="none" points="526,136.2037,515.0584,151.7047,526.5474,155.1694,526,136.2037" style="stroke:#181818;stroke-width:1.0;"/></g><!--reverse link Serializable to Food--><g id="link_Serializable_Food"><path codeLine="78" d="M462.9891,118.5311 C408.0691,124.8811 340.31,140.8437 288,192.0137 C239.44,239.5137 213.1,310.3637 198.83,371.8737 " fill="none" id="Serializable-backto-Food" style="stroke:#181818;stroke-width:1.0;stroke-dasharray:7.0,7.0;"/><polygon fill="none" points="480.87,116.4637,462.3,112.5708,463.6783,124.4914,480.87,116.4637" style="stroke:#181818;stroke-width:1.0;"/></g><!--SRC=[dLJRRjim37ttL-W3Ddz1a658Li10Cmn8XZupCfroqCMGc7JkvTz7sOuTTotgvY51T1IIX-UGqWPYLDhR7F-2hGtc0Qk0yJxV-19DVakH2qQhdhAlQik1t44niS7nM6BKWMecxmJSAPi2ivSiqn_a_kcPAjAG8WiN6Pp6jWuvbay75EiU41Ar0Hw1OyJG7WPQ5kUKNKEpFLeBeMcBtNeDPYs9LGcDdB-704rgUx51C4jbvJls9TFlbJywFdFoB00O7mZZ50lx2V0hU4Pobz0DJDBS2OKmX_-F47pOO8nmwEHQUNEqBggAq9IZ7hRxovoKgTDH-VALAendO2SITpgFgZSrJbGh7EC1mr9LtfV5EhvzATwT97nBZuDmh_rqebYSm_v62atPdpE0VNTEUr2c3my-J8tlxfRAm1u7xoyOzuYU6gylFAydTbUjqvzjwxTKdD4MMY0p7kjxxovkwuVoiwkuwnTjg3tPlFzrU_jLE4zVJr_BYgVmLIAo-BPKe9bEn4qBoCMJh3kJVb4Rg7i3lWpJai85JvrasHyuGKu-ts8WCFG8UuDgyPpdCvwnguB71-EgyBHSLmMckVu7]--></g></svg>